<svg xmlns="http://www.w3.org/2000/svg" viewBox="0 0 299.05 299.05"><defs><style>.cls-1{fill:#cae1f7;}</style></defs><g id="Layer_2" data-name="Layer 2"><g id="Layer_1-2" data-name="Layer 1"><path class="cls-1" d="M149.52,0C67.08,0,0,67.08,0,149.52S67.08,299.05,149.52,299.05,299.05,232,299.05,149.52,232,0,149.52,0Zm0,294.05C69.83,294.05,5,229.21,5,149.52S69.83,5,149.52,5,294.05,69.83,294.05,149.52,229.21,294.05,149.52,294.05Z"/><path class="cls-1" d="M209.7,140l-.27-.07-1.18-.07V53.9a19.38,19.38,0,1,0-38.75,0V86a19.34,19.34,0,0,0-33.67,11.34,19.34,19.34,0,0,0-33.75,11.25A19.35,19.35,0,0,0,68.25,121.4V128a5.74,5.74,0,0,0-.5,2.34V207.6a57,57,0,0,0,56.92,56.92h26.66a56.86,56.86,0,0,0,46.3-23.87h0a56.22,56.22,0,0,0,8-15.84L227,182.23A29,29,0,0,0,209.7,140Zm-1.47,68.41-2.89,5.75-4.4,8.76-7.17,14.27-.44.89a51.87,51.87,0,0,1-42,21.45H124.67A52,52,0,0,1,72.75,207.6V156.3a19.35,19.35,0,0,0,31.75-2.91,19.31,19.31,0,0,0,27.08,7,16.9,16.9,0,0,0,9,8.57l35.71,14.29a3.43,3.43,0,0,1,1.8,4.73l-8.36,16.73,2.24,1.11,2.23,1.12,8.36-16.72a8.43,8.43,0,0,0-4.41-11.62l-35.71-14.28a11.76,11.76,0,0,1-6.71-6.83c-.06-.15-.1-.3-.15-.45a11.5,11.5,0,0,1-.62-3.15,11.63,11.63,0,0,1,1.25-6,11.85,11.85,0,0,1,1.95-2.81,11.52,11.52,0,0,1,2.56-2.06,11.85,11.85,0,0,1,6.83-1.7l55.67,3.24,2.5.15,2.5.15.33,0a24,24,0,0,1,14,34.93Zm-135-87a14.38,14.38,0,1,1,28.75,0v22.5a14.38,14.38,0,0,1-28.75,0V121.4Zm33.75,0V110.15a14.38,14.38,0,1,1,28.75,0V140.5a16.75,16.75,0,0,0-5.62,14.77A14.35,14.35,0,0,1,107,143.9V121.4Zm33.75-11.25V98.9a14.38,14.38,0,1,1,28.75,0v38.69l-21.63-1.26a16.87,16.87,0,0,0-7.12,1.12v-27.3ZM174.5,98.9v-45a14.38,14.38,0,1,1,28.75,0v85.66l-28.75-1.68v-39Z"/></g></g></svg>