<?xml version="1.0" encoding="UTF-8"?><svg width="233.499" xmlns="http://www.w3.org/2000/svg" viewBox="0 0 170.08 15.77"><defs><style>.d{fill:#f24c4e;}</style></defs><g id="a"/><g id="b"><g id="c"><g><g><path class="d" d="M30.23,7.96v-.04c0-3.97,2.99-7.23,7.29-7.23,2.64,0,4.21,.88,5.51,2.16l-1.96,2.26c-1.08-.98-2.18-1.58-3.57-1.58-2.36,0-4.05,1.96-4.05,4.35v.04c0,2.4,1.66,4.39,4.05,4.39,1.6,0,2.58-.64,3.67-1.64l1.96,1.98c-1.44,1.54-3.03,2.5-5.73,2.5-4.11,0-7.17-3.17-7.17-7.19Z"/><path class="d" d="M47.01,.93h3.07V12.11h6.97v2.79h-10.04V.93Z"/><path class="d" d="M65.25,.83h2.83l5.99,14.07h-3.21l-1.28-3.13h-5.91l-1.28,3.13h-3.13L65.25,.83Zm3.23,8.22l-1.86-4.53-1.86,4.53h3.71Z"/><path class="d" d="M77.63,.93h6.39c1.78,0,3.15,.5,4.07,1.42,.78,.78,1.2,1.88,1.2,3.19v.04c0,2.26-1.22,3.67-2.99,4.33l3.41,4.99h-3.59l-2.99-4.47h-2.42v4.47h-3.07V.93Zm6.19,6.79c1.5,0,2.36-.8,2.36-1.98v-.04c0-1.32-.92-2-2.42-2h-3.05V7.72h3.11Z"/><path class="d" d="M93.76,.93h3.07V7.04l5.67-6.11h3.71l-5.69,5.93,5.95,8.04h-3.69l-4.33-5.95-1.62,1.68v4.27h-3.07V.93Z"/><path class="d" d="M108.85,12.87l1.82-2.18c1.26,1.04,2.58,1.7,4.17,1.7,1.26,0,2.02-.5,2.02-1.32v-.04c0-.78-.48-1.18-2.81-1.78-2.81-.72-4.63-1.5-4.63-4.27v-.04c0-2.54,2.04-4.21,4.89-4.21,2.04,0,3.77,.64,5.19,1.78l-1.6,2.32c-1.24-.86-2.46-1.38-3.63-1.38s-1.8,.54-1.8,1.22v.04c0,.92,.6,1.22,3.01,1.84,2.83,.74,4.43,1.76,4.43,4.19v.04c0,2.77-2.12,4.33-5.13,4.33-2.12,0-4.25-.74-5.93-2.24Z"/><path class="d" d="M123.35,7.96v-.04c0-3.97,3.13-7.23,7.45-7.23s7.41,3.21,7.41,7.19v.04c0,3.97-3.13,7.23-7.45,7.23s-7.41-3.21-7.41-7.19Zm11.64,0v-.04c0-2.4-1.76-4.39-4.23-4.39s-4.19,1.96-4.19,4.35v.04c0,2.4,1.76,4.39,4.23,4.39s4.19-1.96,4.19-4.35Z"/><path class="d" d="M142.53,.93h2.83l6.55,8.6V.93h3.03V14.9h-2.61l-6.77-8.88V14.9h-3.03V.93Z"/><path class="d" d="M159.02,12.87l1.82-2.18c1.26,1.04,2.58,1.7,4.17,1.7,1.26,0,2.02-.5,2.02-1.32v-.04c0-.78-.48-1.18-2.81-1.78-2.81-.72-4.63-1.5-4.63-4.27v-.04c0-2.54,2.04-4.21,4.89-4.21,2.04,0,3.77,.64,5.19,1.78l-1.6,2.32c-1.24-.86-2.46-1.38-3.63-1.38s-1.8,.54-1.8,1.22v.04c0,.92,.6,1.22,3.01,1.84,2.83,.74,4.43,1.76,4.43,4.19v.04c0,2.77-2.12,4.33-5.13,4.33-2.12,0-4.25-.74-5.93-2.24Z"/></g><path class="d" d="M10.13,8.52h0c0-1.32,.98-2.39,2.39-2.39,.87,0,1.38,.29,1.81,.71l-.64,.74c-.35-.32-.71-.52-1.17-.52-.77,0-1.33,.64-1.33,1.43h0c0,.8,.54,1.46,1.33,1.46,.52,0,.85-.21,1.21-.54l.64,.65c-.47,.51-1,.82-1.88,.82-1.35,0-2.35-1.04-2.35-2.36Z"/><g><path class="d" d="M4.44,0C2.14,0,1.19,.56,0,1.02v1.09c1.19-.46,2.14-1.02,4.44-1.02,.38,0,.72,.02,1.03,.04L4.52,0h-.08Z"/><path class="d" d="M12.27,2.71c2.72,0,3.55-.78,5.11-1.25L18.51,.11c-2.42,.36-2.94,1.51-6.24,1.51S8.45,.47,6.03,.11l1.13,1.34c1.56,.48,2.39,1.25,5.11,1.25Z"/><path class="d" d="M20.1,1.09c2.3,0,3.25,.56,4.44,1.02V1.02c-1.19-.46-2.14-1.02-4.44-1.02h-.08l-.95,1.13c.31-.03,.65-.04,1.03-.04Z"/><path class="d" d="M20.1,3.27c2.3,0,3.25,.56,4.44,1.02v-1.09c-1.19-.46-2.14-1.02-4.44-1.02-.85,0-1.51,.08-2.07,.19l-1.22,1.45c.81-.31,1.74-.56,3.29-.56Z"/><path class="d" d="M8.5,3.04l1.3,1.55c.64,.17,1.41,.29,2.48,.29s1.83-.12,2.48-.29l1.3-1.55c-.93,.38-1.91,.75-3.77,.75s-2.84-.37-3.77-.75Z"/><path class="d" d="M4.44,2.18c-2.3,0-3.25,.56-4.44,1.02v1.09c1.19-.46,2.14-1.02,4.44-1.02,1.55,0,2.48,.25,3.29,.56l-1.22-1.45c-.56-.12-1.22-.19-2.07-.19Z"/><path class="d" d="M4.44,4.36c-2.3,0-3.25,.56-4.44,1.02v1.09c1.19-.46,2.14-1.02,4.44-1.02,2.02,0,3,.43,4.01,.85v-1.09c-1.01-.42-1.99-.85-4.01-.85Z"/><path class="d" d="M20.1,5.44c2.3,0,3.25,.56,4.44,1.02v-1.09c-1.19-.46-2.14-1.02-4.44-1.02-2.02,0-3,.43-4.01,.85v1.09c1.01-.42,1.99-.85,4.01-.85Z"/><path class="d" d="M20.1,7.62c2.3,0,3.25,.56,4.44,1.02v-1.09c-1.19-.46-2.14-1.02-4.44-1.02-2.02,0-3,.43-4.01,.85v1.09c1.01-.42,1.99-.85,4.01-.85Z"/><path class="d" d="M4.44,6.53c-2.3,0-3.25,.56-4.44,1.02v1.09c1.19-.46,2.14-1.02,4.44-1.02,2.02,0,3,.43,4.01,.85v-1.09c-1.01-.42-1.99-.85-4.01-.85Z"/><path class="d" d="M20.1,9.8c2.3,0,3.25,.56,4.44,1.02v-1.09c-1.19-.46-2.14-1.02-4.44-1.02-2.02,0-3,.43-4.01,.85v1.09c1.01-.42,1.99-.85,4.01-.85Z"/><path class="d" d="M4.44,8.71c-2.3,0-3.25,.56-4.44,1.02v1.09c1.19-.46,2.14-1.02,4.44-1.02,2.02,0,3,.43,4.01,.85v-1.09c-1.01-.42-1.99-.85-4.01-.85Z"/><path class="d" d="M4.44,10.89c-2.3,0-3.25,.56-4.44,1.02v1.09c1.19-.46,2.14-1.02,4.44-1.02,1.07,0,1.84,.12,2.49,.3l.97-.76c-.85-.33-1.8-.62-3.46-.62Z"/><path class="d" d="M9.07,11.98l-.92,.72c1.05,.43,2.03,.89,4.12,.89s3.07-.46,4.12-.89l-.92-.72c-.79,.29-1.71,.52-3.2,.52s-2.41-.23-3.2-.52Z"/><path class="d" d="M20.1,11.98c2.3,0,3.25,.56,4.44,1.02v-1.09c-1.19-.46-2.14-1.02-4.44-1.02-1.66,0-2.61,.29-3.46,.62l.97,.76c.64-.17,1.42-.3,2.49-.3Z"/><path class="d" d="M4.44,13.07c-2.3,0-3.25,.56-4.44,1.02v1.09c1.19-.46,2.14-1.02,4.44-1.02h.08l1.29-1.01c-.4-.05-.85-.08-1.37-.08Z"/><path class="d" d="M20.1,14.15c2.3,0,3.25,.56,4.44,1.02v-1.09c-1.19-.46-2.14-1.02-4.44-1.02-.52,0-.97,.03-1.37,.08l1.29,1.01h.08Z"/><path class="d" d="M12.27,14.68c-2.69,0-3.53-.76-5.07-1.24l-1.07,.84c2.34,.38,2.89,1.49,6.14,1.49s3.8-1.12,6.14-1.49l-1.07-.84c-1.54,.48-2.38,1.24-5.07,1.24Z"/></g></g></g></g></svg>