<svg xmlns="http://www.w3.org/2000/svg" viewBox="0 0 299.05 299.05"><defs><style>.cls-1{fill:#cae1f7;}</style></defs><g id="Layer_2" data-name="Layer 2"><g id="Layer_1-2" data-name="Layer 1"><path class="cls-1" d="M149.52,0C67.08,0,0,67.08,0,149.52S67.08,299.05,149.52,299.05,299.05,232,299.05,149.52,232,0,149.52,0Zm0,5c79.69,0,144.53,64.83,144.53,144.52a144,144,0,0,1-8,47.5H13a143.7,143.7,0,0,1-8-47.5C5,69.83,69.83,5,149.52,5Zm0,289.05A144.06,144.06,0,0,1,47.74,252H251.31A144.07,144.07,0,0,1,149.52,294.05Zm106.59-47H42.94a144.66,144.66,0,0,1-28.07-45h269.3A144.64,144.64,0,0,1,256.11,247Z"/><path class="cls-1" d="M48,129.08c0,17.13,0,28.44-.11,39.6l0,2.64,2.63-.12c7.43-.31,13-.31,17.81-.31,5.22,0,10.61,0,18.8.21l2.64.07-.07-2.64c-.31-10.53-.42-21.59-.42-39.45,0-18.42.13-30.59.42-39.44l.08-2.72L87,87.06c-1.94.1-5.13.1-8.52.1-1.25,0-2.48,0-3.8,0-1.57,0-3.26,0-5.26,0H68.7l-.63.4a92.3,92.3,0,0,1-19.4,10l-1.77.64.22,3.16C47.46,105.86,48,112.85,48,129.08Zm22.21-37c1.65,0,3.09,0,4.43,0s2.61,0,3.89,0c2.19,0,4.29,0,6.07,0-.24,8.66-.34,20.24-.34,37,0,16.44.1,27.14.35,37-6.82-.15-11.63-.15-16.3-.15-4.32,0-9.16,0-15.39.22.08-10.37.08-21.23.08-37s-.48-22.91-.82-27.62A98,98,0,0,0,70.18,92.06Z"/><path class="cls-1" d="M90.89,146.89c0,17.7,12.31,25.59,39.91,25.59s39.82-7.89,39.82-25.59c0-7.26-1.37-14.38-10.73-17.92,9-4.1,10.31-11.93,10.31-19.18,0-16.9-11.82-24.11-39.5-24.11s-39.6,7.21-39.6,24.11c0,7.26,1.3,15.1,10.41,19.19C92.24,132.53,90.89,139.65,90.89,146.89ZM105.44,133a34.6,34.6,0,0,1,6.38-1l2.3-.18v-5.18l-2.21-.25a34.48,34.48,0,0,1-6.55-1.26c-6.84-2.31-9.26-6.32-9.26-15.34,0-11.47,5.88-19.11,34.6-19.11s34.5,7.64,34.5,19.11c0,8.9-2.49,13.06-9.11,15.32a36.46,36.46,0,0,1-6.7,1.28l-2.22.25v5.18l2.32.18a33.94,33.94,0,0,1,6.49,1c7.2,1.93,9.64,5.44,9.64,13.92,0,10.69-4.22,20.59-34.82,20.59s-34.91-9.9-34.91-20.59C95.89,138.41,98.29,134.9,105.44,133Z"/><path class="cls-1" d="M130.7,155c8.85,0,10-5.68,10-10.62,0-7.34-3.08-10.61-10-10.61-4.24,0-9.88,1.1-9.88,10.61S126.46,155,130.7,155Zm0-16.23c3.8,0,5,.77,5,5.61s-1.18,5.62-5,5.62-4.88-.78-4.88-5.62S127,138.75,130.7,138.75Z"/><path class="cls-1" d="M130.7,124.1c6.57,0,9.77-3.47,9.77-10.62S137.4,103,130.8,103s-9.77,3.33-9.77,10.5S124.2,124.1,130.7,124.1Zm.1-16.12c3.32,0,4.67.49,4.67,5.5,0,4.77-1.25,5.62-4.77,5.62-3.29,0-4.67-.78-4.67-5.62S127.49,108,130.8,108Z"/><path class="cls-1" d="M171.67,124.12c0,16.36,0,31.81-.21,44.44l0,2.54h36.52l-.07-2.56c-.15-5.62-.19-11-.21-16.93,1.61,3.89,3.19,8.45,4.73,12.92l.5,1.46c1.36,4.24,4,5.11,7.65,5.11H253.2l-1.35-3.41c-1.41-3.57-2.51-7.17-3.57-10.64-2.86-9.35-5.59-18.25-13.49-23.08,8-5.72,11.61-16.94,14.65-26.24.69-2.11,1.35-4.11,2-5.94l1.22-3.35H216l-.54,1.76a113.81,113.81,0,0,1-7,17.74l0,.11c-.23.5-.46,1-.71,1.57v-.06c0-13.1,0-22.55.32-32.45l.09-2.59H171.42l0,2.55C171.67,98.64,171.67,110.45,171.67,124.12Zm4.83-34.6h26.39c-.26,9.07-.25,18-.24,30v12.23h4.94l.67-1.46c1.68-3.67,3.36-7.35,4.63-10.19a114.69,114.69,0,0,0,6.74-16.7h26l-.9,2.74c-3.42,10.47-7.3,22.33-16.36,25.61l-6.83,2.47,6.91,2.26c9.28,3,11.84,11.39,15.09,22,.76,2.48,1.53,5,2.43,7.59H220.54c-2.36,0-2.43-.21-2.9-1.69l-.53-1.51c-2.84-8.26-5.79-16.8-9.16-21.65l-.75-1.07h-4.54v2.5c0,8.84,0,16,.15,23.42H176.5c.17-12.17.17-26.68.17-42C176.67,111.42,176.67,100.33,176.5,89.52Z"/><rect class="cls-1" x="37.02" y="222.02" width="25" height="5"/><rect class="cls-1" x="87.02" y="222.02" width="25" height="5"/><rect class="cls-1" x="137.02" y="222.02" width="25" height="5"/><rect class="cls-1" x="187.02" y="222.02" width="25" height="5"/><rect class="cls-1" x="237.02" y="222.02" width="25" height="5"/></g></g></svg>