<svg xmlns="http://www.w3.org/2000/svg" viewBox="0 0 299.05 299.05"><defs><style>.cls-1{fill:#cae1f7;}</style></defs><g id="Layer_2" data-name="Layer 2"><g id="Layer_1-2" data-name="Layer 1"><path class="cls-1" d="M149.52,0C67.08,0,0,67.08,0,149.52S67.08,299.05,149.52,299.05,299.05,232,299.05,149.52,232,0,149.52,0Zm0,5c79.69,0,144.53,64.83,144.53,144.52a145,145,0,0,1-1.76,22.5H152V151.67a10.51,10.51,0,0,0,2.31-1c6-3.48,9.88-13.09,10.71-26.2,9.85,8.69,19.38,12.76,26.1,11a9.26,9.26,0,0,0,6.8-6.8c1.79-6.72-2.27-16.25-11-26.1,13.11-.83,22.72-4.7,26.2-10.71a9.23,9.23,0,0,0,0-9.61c-3.48-6-13.09-9.89-26.2-10.71,8.69-9.86,12.75-19.39,11-26.11a9.24,9.24,0,0,0-6.8-6.79c-6.72-1.8-16.25,2.27-26.1,11-.83-13.11-4.7-22.73-10.71-26.21a9.27,9.27,0,0,0-9.61,0c-6,3.48-9.88,13.1-10.71,26.21-9.85-8.69-19.38-12.76-26.11-11a9.23,9.23,0,0,0-6.79,6.79c-1.8,6.72,2.27,16.25,11,26.11C99,72.34,89.35,76.2,85.86,82.22a9.27,9.27,0,0,0,0,9.61c3.49,6,13.09,9.88,26.21,10.71-8.69,9.85-12.76,19.38-11,26.1a9.24,9.24,0,0,0,6.79,6.8c6.72,1.79,16.25-2.27,26.11-11,.83,13.11,4.69,22.72,10.71,26.2a10.24,10.24,0,0,0,2.3,1V172H6.75A145.05,145.05,0,0,1,5,149.52C5,69.83,69.83,5,149.52,5ZM134.58,117.08c-11.79,11.84-21,14.69-25.39,13.53a4.27,4.27,0,0,1-3.25-3.26c-1.16-4.34,1.69-13.6,13.53-25.38l4.32-4.29-6.09,0h-.24c-16.54,0-25-4.5-27.27-8.38a4.3,4.3,0,0,1,0-4.6c2.24-3.87,10.73-8.37,27.27-8.37h6.33l-4.32-4.28c-11.84-11.79-14.69-21-13.53-25.39a4.26,4.26,0,0,1,3.25-3.25c4.35-1.16,13.6,1.69,25.39,13.53l4.28,4.31V55.2c0-16.7,4.48-25.26,8.38-27.51a4.28,4.28,0,0,1,4.59,0c3.89,2.25,8.42,10.81,8.38,27.51l0,6.08L164.47,57c11.78-11.84,21-14.7,25.38-13.53a4.27,4.27,0,0,1,3.26,3.25c1.16,4.35-1.69,13.6-13.53,25.39l-4.32,4.28h6.33c16.54,0,25,4.5,27.27,8.37a4.3,4.3,0,0,1,0,4.6c-2.25,3.88-10.73,8.38-27.27,8.38h-.25l-6.08,0,4.32,4.29c11.84,11.78,14.69,21,13.53,25.38a4.28,4.28,0,0,1-3.26,3.26c-4.34,1.16-13.6-1.69-25.38-13.53l-4.29-4.32,0,6.08c0,16.71-4.49,25.26-8.38,27.52a4.28,4.28,0,0,1-4.59,0c-3.9-2.26-8.43-10.81-8.38-27.52v-6.08ZM147,294a143.81,143.81,0,0,1-84.92-29.5H147Zm5,0v-29.5H237A143.81,143.81,0,0,1,152,294Zm91.13-34.5H55.9A144.53,144.53,0,0,1,7.64,177H291.41A144.59,144.59,0,0,1,243.15,259.52Z"/><path class="cls-1" d="M169.88,87a20.36,20.36,0,1,0-20.36,20.36A20.38,20.38,0,0,0,169.88,87Zm-35.71,0a15.36,15.36,0,1,1,15.35,15.36A15.37,15.37,0,0,1,134.17,87Z"/><path class="cls-1" d="M47,244.5H95.57l-.17-2.57c-.12-2-.12-4.77-.12-7.72-.07-2.67,0-5.28.19-7.7l.16-2.8-2.79.26c-2.83.26-6,.43-9.23.49,8-2.19,12.6-6.52,12.6-17.78,0-12.13-7.52-17.53-24.37-17.53-10.48,0-24.42,1.82-24.42,17.6,0,1,.09,2.11.2,3.25,0,.52.09,1.06.13,1.63l.19,2.47,2.46-.25c2.41-.24,5.34-.36,8.92-.38-7.73,2.6-12.1,6.84-12.1,17,0,1.2,0,2.28,0,3.32s0,1.78,0,2.65c0,2.78-.08,4.64-.12,5.5ZM64.62,217c8.31-2.14,12.89-3.32,12.89-8.77,0-2.77-1.65-5.73-6.26-5.73-4,0-6.53,2.38-6.53,6.2v0c-1.38,0-2.86-.06-4.55-.06-3,0-5.57.07-7.81.21-.07-.77-.12-1.47-.12-2.1,0-6.64,2.38-12.78,19.6-12.78,18,0,19.54,6.56,19.54,12.71,0,9.33-2.7,12.21-13.11,14-7.41,1.25-11.32,2.07-12.1,5.73l-.62,2.87,2.94,0c3,0,6.38,0,9.09,0h3.08c3.4,0,6.75-.11,9.85-.32-.07,1.7-.1,3.47-.06,5.26s0,3.76,0,5.41H52.07c0-.89,0-2,0-3.22,0-.9,0-1.79,0-2.73s0-2.07,0-3.24C52.05,222.31,54.74,219.41,64.62,217Zm4.93-8.3c0-.88,0-1.37,1.7-1.37,1.43,0,1.43.32,1.43.9,0,.87-.32,1.42-3.1,2.36C69.55,209.87,69.55,209.3,69.55,208.67Z"/><path class="cls-1" d="M125.87,245.36c19.07,0,27.21-8.75,27.21-29.27,0-18.93-8.12-27-27.15-27s-27,8.08-27,27C98.92,236.61,107,245.36,125.87,245.36Zm.06-51.45c16.27,0,22.32,6,22.32,22.18,0,17.82-6.06,24.44-22.38,24.44s-22.12-6.39-22.12-24.44C103.75,199.71,109.55,193.91,125.93,193.91Z"/><path class="cls-1" d="M125.93,228.85c7.26,0,7.26-8.34,7.26-12.82,0-6.32-.88-12.16-7.26-12.16s-7.25,5.84-7.25,12.16C118.68,222.69,119.56,228.85,125.93,228.85Zm0-20.15c1.09,0,2.43,0,2.43,7.33,0,8-1.46,8-2.43,8s-2.42,0-2.42-8C123.51,208.7,124.85,208.7,125.93,208.7Z"/><path class="cls-1" d="M204.05,241.93c-.13-2-.13-4.77-.13-7.72-.06-2.67.06-5.28.2-7.7l.16-2.8-2.8.26c-2.82.26-6,.43-9.23.49,8.05-2.19,12.6-6.52,12.6-17.78,0-12.13-7.51-17.53-24.36-17.53-10.49,0-24.43,1.82-24.43,17.6,0,1,.1,2.11.2,3.25.05.52.1,1.06.14,1.63l.18,2.47,2.47-.25c2.41-.24,5.33-.36,8.91-.38-7.72,2.6-12.1,6.84-12.1,17,0,1.2,0,2.28,0,3.32s0,1.78,0,2.65c0,2.78-.08,4.64-.13,5.5l-.14,2.55h48.55Zm-5-7.67c0,1.91,0,3.76,0,5.41H160.72c0-.89,0-2,0-3.22,0-.9,0-1.79,0-2.73s0-2.07,0-3.24c0-8.17,2.7-11.07,12.58-13.51,8.31-2.14,12.88-3.32,12.88-8.77,0-2.77-1.64-5.73-6.26-5.73-4,0-6.52,2.38-6.52,6.2v0c-1.39,0-2.86-.06-4.55-.06-3,0-5.57.07-7.81.21-.07-.77-.12-1.47-.12-2.1,0-6.64,2.37-12.78,19.6-12.78,18,0,19.53,6.56,19.53,12.71,0,9.33-2.69,12.21-13.1,14-7.42,1.25-11.32,2.07-12.11,5.73l-.61,2.87,2.94,0c3,0,6.37,0,9.09,0h3.08c3.4,0,6.75-.11,9.85-.32C199.09,230.7,199.05,232.47,199.09,234.26ZM178.2,208.67c0-.88,0-1.37,1.69-1.37,1.43,0,1.43.32,1.43.9,0,.87-.32,1.42-3.09,2.36C178.2,209.87,178.2,209.3,178.2,208.67Z"/><path class="cls-1" d="M208,212.21l2.48-.21c1.78-.15,4.44-.23,7.77-.25l0,.41c.12,1.2.12,2.84.12,4.73s-.07,3.92-.19,5.44l0,.37c-2.94,0-5.65,0-7.65-.25l-2.67-.29v2.69c0,.44,0,.86,0,1.28s0,.92,0,1.37c0,13,6.68,17.86,24.63,17.86,10.71,0,25-1.75,25-16.93,0-4.23-.75-8.73-5.59-11.32,4.76-2.93,5.45-7.81,5.45-12,0-14.24-13.19-16.07-24.69-16.07-17.63,0-24.83,4.91-24.83,16.94,0,1.11.06,2.25.13,3.46Zm24.56-18.3c18.33,0,19.86,5.8,19.86,11.24,0,5.21-1.37,7.51-5.24,8.79a21.2,21.2,0,0,1-4,.75l-2.14.25v4.77l2.22.18a22.6,22.6,0,0,1,3.88.59c4.11,1.1,5.37,3,5.37,8,0,6.29-2.44,12.1-20.13,12.1-18.38,0-19.8-5.4-19.8-13v-.07c2.1.1,4.5.1,7,.1,2.19,0,4.19,0,5.91-.06.4,4.62,3.66,5.63,6.42,5.63,4.32,0,6.59-2.19,6.59-6.33,0-6.08-4.55-6.86-8.51-6.86-2.46,0-4.62,0-6.86.1,0-1,.06-2.07.06-3.12,0-.87,0-1.7,0-2.47,1.69.06,3.86.11,6.55.11,2.38,0,8.71,0,8.71-6.66,0-5.85-3.92-6.72-6.26-6.72-4.06,0-6.43,2.07-6.75,5.87-1.6-.07-3.54-.1-5.85-.1-2.78,0-5.14,0-7,.12,0-.35,0-.69,0-1C212.59,199.64,214.12,193.91,232.59,193.91Zm-2.23,32.59a12,12,0,0,1,0-1.32l.05-.44c3.3,0,3.3.61,3.3,2s0,1.5-1.77,1.5C230.48,228.27,230.36,228.23,230.36,226.5Zm-.06-18.56c0-1.69.27-2,2-2,1.07,0,1.43,0,1.43,1.89,0,1.08,0,1.76-3.31,1.83l0-.34C230.3,208.81,230.3,208.37,230.3,207.94Z"/></g></g></svg>