<svg xmlns="http://www.w3.org/2000/svg" viewBox="0 0 299.05 299.05"><defs><style>.cls-1{fill:#cae1f7;}</style></defs><g id="Layer_2" data-name="Layer 2"><g id="Layer_1-2" data-name="Layer 1"><path class="cls-1" d="M149.52,0C67.08,0,0,67.08,0,149.52S67.08,299.05,149.52,299.05,299.05,232,299.05,149.52,232,0,149.52,0Zm0,294.05a143.81,143.81,0,0,1-89.18-30.87,116.32,116.32,0,0,1,35.74-29.25,65.78,65.78,0,0,0,9.2,17.19,5,5,0,0,0,5.71,1.76,5.09,5.09,0,0,0,3.53-4.89v-1.25l32.67,17a5,5,0,0,0,5.27,0l31.66-16.21.25-.15a.13.13,0,0,1,.16,0,.12.12,0,0,1,.08.13V248a5.1,5.1,0,0,0,3.53,4.89,5,5,0,0,0,5.71-1.76A65.28,65.28,0,0,0,203,234a116.09,116.09,0,0,1,35.66,29.22A143.79,143.79,0,0,1,149.52,294.05Zm-67.3-87.7-2.7,2.7a1.46,1.46,0,0,1-2.5-1V196.55a6.47,6.47,0,0,0-6.46-6.47H68.44A1.45,1.45,0,0,1,67.13,188l6.76-13.53a6.47,6.47,0,0,0-5.78-9.36,1.4,1.4,0,0,1-1.19-.63,1.42,1.42,0,0,1-.16-1.37c5.68-14.66,2.84-24.75.33-29.84L93.94,93a19.42,19.42,0,0,0-2.42-24.43,181.47,181.47,0,0,1,31.21-8.69A5.14,5.14,0,0,0,127,54.78a2.55,2.55,0,0,1,4.36-1.8l.3.3a7.57,7.57,0,0,0,10.69,0l5.35-5.36a2.57,2.57,0,0,1,3.61,0l5.35,5.36a7.57,7.57,0,0,0,10.69,0l.29-.29a2.55,2.55,0,0,1,4.36,1.8,5.11,5.11,0,0,0,4.26,5.06,219.13,219.13,0,0,1,33,8.75A19.41,19.41,0,0,0,206.86,93l26.5,39.75c-2.56,4.89-5.82,15.18.06,30.36a1.42,1.42,0,0,1-.16,1.37,1.4,1.4,0,0,1-1.19.63,6.47,6.47,0,0,0-5.78,9.36L233.05,188a1.45,1.45,0,0,1-1.31,2.11h-2.12a6.47,6.47,0,0,0-6.47,6.47V208a1.46,1.46,0,0,1-2.49,1l-3.27-3.27-.43.44c-1.47-24.25-14.6-46.22-35.33-57.38-16.19-8.72-35.75-10.74-52.31-5.39C102.57,152.07,84.09,177.71,82.22,206.35Zm2.16-135a3.31,3.31,0,0,1,3.6.75A14.38,14.38,0,0,1,89.77,90.2L53.6,144.45a3.23,3.23,0,0,1-3.12,1.47,3.28,3.28,0,0,1-2.76-2.08L29,97.08a3.25,3.25,0,0,1,0-2.56,3.35,3.35,0,0,1,1.83-1.79ZM211,90.2a14.4,14.4,0,0,1,1.8-18.12,3.31,3.31,0,0,1,3.6-.75l53.5,21.4h0a3.35,3.35,0,0,1,1.86,4.35l-18.7,46.76a3.35,3.35,0,0,1-5.89.61Zm-80.17,58c15.29-4.94,33.39-3.05,48.41,5,22.79,12.27,36,40,32.15,67.42,0,.09,0,.09-.06.11a.18.18,0,0,1-.24-.07,5.15,5.15,0,0,0-9.86.93,64.31,64.31,0,0,1-11.43,26.52.2.2,0,0,1-.16-.05s0,0,0-.11v-.45a5.16,5.16,0,0,0-7.87-4.38l-31.67,16.22-.26.14-36.36-19a2.65,2.65,0,0,0-3.93,2.31V248c0,.08,0,.09,0,.11a.17.17,0,0,1-.21,0,64.48,64.48,0,0,1-11.39-26.48,5.16,5.16,0,0,0-9.9-.85.25.25,0,0,1-.19,0s-.06,0-.07-.11C83.23,188.73,101.77,157.58,130.85,148.21ZM242.57,260a121.19,121.19,0,0,0-38-30.86c.73-2.57,1.23-4.84,1.56-6.61,0-.08,0-.11.13-.12s.13,0,.16.1a5.15,5.15,0,0,0,9.9-1.17,75.25,75.25,0,0,0,.72-8.81l0,.05a6.45,6.45,0,0,0,4.57,1.89,6.56,6.56,0,0,0,2.48-.49,6.45,6.45,0,0,0,4-6V196.55a1.47,1.47,0,0,1,1.47-1.47h2.12a6.46,6.46,0,0,0,5.78-9.35l-6.76-13.53a1.43,1.43,0,0,1,.06-1.42,1.45,1.45,0,0,1,1.25-.7,6.46,6.46,0,0,0,6-8.81c-4.26-11-3.16-18.89-1.44-23.63l6.39,9.59a8.32,8.32,0,0,0,6.94,3.71,8.44,8.44,0,0,0,.87,0,8.32,8.32,0,0,0,6.88-5.2l18.71-46.76a8.37,8.37,0,0,0-4.65-10.85l-53.5-21.4h0a217.58,217.58,0,0,0-41.16-11.78.13.13,0,0,1-.1-.13,7.54,7.54,0,0,0-12.89-5.33l-.3.29a2.55,2.55,0,0,1-3.61,0l-5.35-5.35a7.57,7.57,0,0,0-10.69,0l-5.35,5.35a2.6,2.6,0,0,1-3.61,0l-.3-.3A7.56,7.56,0,0,0,122,54.79c0,.06,0,.11-.13.13-17.38,2.95-34.49,9.74-39.37,11.77h0L29,88.09a8.36,8.36,0,0,0-4.65,10.85L43.08,145.7A8.32,8.32,0,0,0,50,150.9a8.44,8.44,0,0,0,.87,0,8.34,8.34,0,0,0,6.94-3.71l6-9c1.6,4.8,2.44,12.47-1.64,23a6.46,6.46,0,0,0,6,8.81,1.45,1.45,0,0,1,1.25.7,1.43,1.43,0,0,1,.06,1.42l-6.76,13.53a6.46,6.46,0,0,0,5.78,9.35h2.12A1.46,1.46,0,0,1,72,196.55V208a6.46,6.46,0,0,0,4,6,6.56,6.56,0,0,0,2.48.49,6.46,6.46,0,0,0,3.62-1.11,71.93,71.93,0,0,0,.66,8,5.16,5.16,0,0,0,9.91,1.17c0-.08,0-.11.15-.1s.12,0,.13.12c.33,1.76.83,4,1.56,6.57a121.27,121.27,0,0,0-38,30.9A144.27,144.27,0,0,1,5,149.52C5,69.83,69.83,5,149.52,5S294.05,69.83,294.05,149.52A144.24,144.24,0,0,1,242.57,260Z"/><path class="cls-1" d="M137,227.41a15,15,0,0,0,12.5-6.73,15,15,0,0,0,27.5-8.27h-5a10,10,0,0,1-20,0v-4.9c8.58-.47,17.68-3.64,17.68-14.93a20.18,20.18,0,0,0-40.35,0c0,11.29,9.1,14.46,17.67,14.93v4.9a10,10,0,1,1-20,0h-5A15,15,0,0,0,137,227.41Z"/><path class="cls-1" d="M189.61,142.63a15.14,15.14,0,1,0-15.13-15.14A15.15,15.15,0,0,0,189.61,142.63Zm0-19.74v-5a9.62,9.62,0,0,1,9.61,9.6h-5A4.61,4.61,0,0,0,189.61,122.89Z"/><path class="cls-1" d="M124.57,127.49a15.14,15.14,0,1,0-15.13,15.14A15.15,15.15,0,0,0,124.57,127.49Zm-15.13-4.6v-5a9.62,9.62,0,0,1,9.6,9.6h-5A4.61,4.61,0,0,0,109.44,122.89Z"/><path class="cls-1" d="M110.17,98.27A29.25,29.25,0,0,0,81,127.49h5a24.25,24.25,0,0,1,24.22-24.22Z"/><path class="cls-1" d="M192.09,103.4a24.1,24.1,0,0,1,13.34,5.78l.22.18c.41.37.81.76,1.2,1.15l.37.39c.38.4.75.82,1.1,1.25l.26.31c.36.45.7.92,1,1.4l.19.27c.33.51.65,1,.95,1.56l.13.23c.3.54.57,1.11.83,1.68a2,2,0,0,0,.1.21c.25.57.47,1.16.68,1.75a2.25,2.25,0,0,1,.08.24c.2.58.37,1.18.52,1.78,0,.1.06.19.08.28.14.61.25,1.22.35,1.84l.06.29c.1.72.17,1.44.21,2.17a.38.38,0,0,1,0,.1c0,.33,0,.66,0,1,0,.5,0,1,0,1.52l5,.27c0-.52,0-1,0-1.55h0v-.25c0-.42,0-.83,0-1.24v-.08c0-.77-.12-1.52-.22-2.26l0-.31c-.1-.66-.22-1.32-.36-2,0-.2-.08-.41-.13-.61-.13-.56-.29-1.1-.45-1.65-.09-.31-.19-.62-.29-.93s-.31-.87-.48-1.31-.31-.77-.48-1.15-.32-.71-.49-1.06-.41-.8-.63-1.2-.36-.65-.55-1-.46-.75-.7-1.12-.45-.66-.68-1-.49-.66-.75-1-.54-.66-.82-1l-.4-.48c-.14-.16-.3-.31-.45-.46s-.55-.58-.83-.85-.74-.71-1.13-1l-.62-.54c-.47-.38-.94-.75-1.42-1.11l-.47-.34c-.52-.37-1.06-.72-1.6-1l-.48-.29c-.53-.31-1.06-.6-1.61-.87L202,101c-.46-.21-.91-.42-1.37-.6s-.8-.32-1.2-.46l-.93-.32c-.58-.18-1.17-.35-1.76-.5l-.41-.1c-.75-.18-1.5-.33-2.26-.45h0l-.65-.08c-.73-.1-1.46-.17-2.2-.21h-.06c-.51,0-1,0-1.54,0v5c.7,0,1.4,0,2.08.1Z"/></g></g></svg>