<svg xmlns="http://www.w3.org/2000/svg" viewBox="0 0 299.12 299.12"><defs><style>.cls-1{fill:#cae1f7;}</style></defs><g id="Layer_2" data-name="Layer 2"><g id="Layer_1-2" data-name="Layer 1"><path class="cls-1" d="M166,62.37a6.69,6.69,0,0,0-8.81-3.4l-7.67,3.41a6.68,6.68,0,0,0-3.4,8.81l.44,1L48.31,168.66l-.39-.87a6.31,6.31,0,0,0-8.33-3.21l-8.33,3.69a6.31,6.31,0,0,0-3.21,8.33l17.27,39a6.32,6.32,0,0,0,5.78,3.75,6.25,6.25,0,0,0,2.55-.54l8.34-3.7a6.31,6.31,0,0,0,3.21-8.33l-.39-.87,10.11-.59,3.73,8.41a13.12,13.12,0,0,0,11.46,7.83l23.09,1.07.61,0a13.2,13.2,0,0,0,12.32-8.46L130.81,202l71.5-4.2.44,1a6.67,6.67,0,0,0,8.8,3.4l7.68-3.41a6.67,6.67,0,0,0,3.39-8.81ZM60.63,208.77A1.32,1.32,0,0,1,60,210.5l-8.34,3.7a1.32,1.32,0,0,1-1.73-.67L32.62,174.58a1.31,1.31,0,0,1,.67-1.74l8.33-3.69a1.24,1.24,0,0,1,.53-.12,1.31,1.31,0,0,1,1.2.79l1.15,2.58h0l15,33.78h0Zm60.83,3.59a8.22,8.22,0,0,1-8,5.24l-23.09-1.07a8.16,8.16,0,0,1-7.12-4.87l-3-6.7,45.08-2.64ZM62.65,201,50.48,173.54l98.28-96.49L156,93.26l44.19,99.66Zm155.43-7.71a1.64,1.64,0,0,1-.88.93l-7.67,3.41a1.68,1.68,0,0,1-2.21-.85L150.73,69.15a1.67,1.67,0,0,1,.85-2.2l7.68-3.41a1.79,1.79,0,0,1,.67-.14,1.68,1.68,0,0,1,1.54,1L218.05,192A1.63,1.63,0,0,1,218.08,193.28Z"/><rect class="cls-1" x="191.49" y="69.34" width="44.17" height="5" transform="translate(13.89 176.25) rotate(-46.19)"/><rect class="cls-1" x="210.11" y="107.62" width="40.87" height="5" transform="translate(-24.85 102.91) rotate(-23.91)"/><rect class="cls-1" x="225.43" y="145.88" width="44.17" height="5" transform="translate(-4.13 7.11) rotate(-1.63)"/><path class="cls-1" d="M149.56,0C67.09,0,0,67.09,0,149.56S67.09,299.12,149.56,299.12,299.12,232,299.12,149.56,232,0,149.56,0Zm0,294.12C69.85,294.12,5,229.27,5,149.56S69.85,5,149.56,5,294.12,69.85,294.12,149.56,229.27,294.12,149.56,294.12Z"/><path class="cls-1" d="M154.14,159.59l-2.89.27c-2.17.2-4.54.34-7,.42,6.68-2.23,10.42-6.51,10.42-16.49,0-14.84-12.39-16.74-23.18-16.74-10,0-23.24,1.74-23.24,16.81,0,1,.09,2,.19,3.09,0,.48.09,1,.13,1.53l.19,2.56,2.55-.26c2-.2,4.27-.31,7-.35-6.59,2.52-10.29,6.64-10.29,15.79,0,1.13,0,2.16,0,3.13s0,1.68,0,2.49c0,2.62-.07,4.37-.12,5.18l-.15,2.63h46.23l-.17-2.65c-.12-1.92-.12-4.5-.12-7.28-.06-2.5.06-4.95.19-7.23Zm-5.35,10.19c0,1.72,0,3.37,0,4.87H113.09c0-.79,0-1.73,0-2.81,0-.84,0-1.69,0-2.58s0-1.94,0-3c0-7.56,2.5-10.24,11.68-12.51,7.94-2,12.31-3.17,12.31-8.48,0-2.72-1.61-5.62-6.12-5.62-3.86,0-6.29,2.24-6.38,5.86-1.25,0-2.55-.05-4.06-.05-2.72,0-5.09.06-7.15.18q-.09-.94-.09-1.74c0-6.14,2.21-11.81,18.24-11.81,11.22,0,18.18,2,18.18,11.74,0,8.64-2.5,11.31-12.16,13-7.09,1.19-10.82,2-11.59,5.56l-.64,3,3.05,0c2.82,0,6,0,8.57,0h2.9c3.11,0,6.18-.1,9-.29C148.78,166.59,148.75,168.18,148.79,169.78Zm-19.24-24.11c0-.8,0-1.06,1.38-1.06a2.29,2.29,0,0,1,1,.17,1,1,0,0,1,.07.45c0,.67-.28,1.14-2.48,1.91C129.55,146.62,129.55,146.17,129.55,145.67Z"/></g></g></svg>