<svg xmlns="http://www.w3.org/2000/svg" viewBox="0 0 299.12 299.12"><defs><style>.cls-1{fill:#cae1f7;}</style></defs><g id="Layer_2" data-name="Layer 2"><g id="Layer_1-2" data-name="Layer 1"><path class="cls-1" d="M166,62.37a6.68,6.68,0,0,0-8.81-3.4l-7.67,3.41a6.68,6.68,0,0,0-3.4,8.81l.44,1L48.31,168.66l-.39-.87a6.31,6.31,0,0,0-8.33-3.21l-8.33,3.69a6.31,6.31,0,0,0-3.21,8.33l17.27,39a6.32,6.32,0,0,0,5.78,3.75,6.25,6.25,0,0,0,2.55-.54l8.33-3.7a6.31,6.31,0,0,0,3.22-8.33l-.39-.87,10.11-.59,3.73,8.41a13.12,13.12,0,0,0,11.46,7.83l23.09,1.07.61,0a13.2,13.2,0,0,0,12.32-8.46L130.81,202l71.5-4.2.44,1a6.67,6.67,0,0,0,8.8,3.4l7.68-3.41a6.67,6.67,0,0,0,3.39-8.81ZM60.63,208.77a1.29,1.29,0,0,1,0,1,1.3,1.3,0,0,1-.69.73l-8.34,3.7a1.32,1.32,0,0,1-1.73-.67L32.62,174.58a1.31,1.31,0,0,1,0-1,1.35,1.35,0,0,1,.7-.73l8.33-3.69a1.24,1.24,0,0,1,.53-.12,1.36,1.36,0,0,1,.48.09,1.3,1.3,0,0,1,.72.7l1.15,2.58h0l15,33.78h0Zm60.83,3.59a8.23,8.23,0,0,1-8,5.24l-23.09-1.07a8.15,8.15,0,0,1-7.12-4.87l-3-6.7,45.08-2.64ZM62.65,201,50.48,173.54l98.28-96.49L156,93.26l44.19,99.66Zm155.43-7.71a1.64,1.64,0,0,1-.88.93l-7.67,3.41a1.68,1.68,0,0,1-2.21-.85L150.73,69.15a1.67,1.67,0,0,1,.85-2.2l7.68-3.41a1.79,1.79,0,0,1,.67-.14,1.68,1.68,0,0,1,1.54,1L218.05,192A1.63,1.63,0,0,1,218.08,193.28Z"/><rect class="cls-1" x="191.49" y="69.34" width="44.17" height="5" transform="translate(13.89 176.25) rotate(-46.19)"/><rect class="cls-1" x="210.11" y="107.62" width="40.87" height="5" transform="translate(-24.85 102.91) rotate(-23.91)"/><rect class="cls-1" x="225.43" y="145.88" width="44.17" height="5" transform="translate(-4.13 7.11) rotate(-1.63)"/><path class="cls-1" d="M149.56,0C67.09,0,0,67.09,0,149.56S67.09,299.12,149.56,299.12,299.12,232,299.12,149.56,232,0,149.56,0Zm0,294.12C69.85,294.12,5,229.27,5,149.56S69.85,5,149.56,5,294.12,69.85,294.12,149.56,229.27,294.12,149.56,294.12Z"/><path class="cls-1" d="M149.9,153.23c4.29-2.82,4.92-7.38,4.92-11.25,0-13.62-12.55-15.37-23.49-15.37-16.77,0-23.61,4.69-23.61,16.18,0,1.07,0,2.15.11,3.29l.15,2.79,2.57-.21c1.63-.14,4.06-.22,7.09-.24l0,.18c.11,1.13.11,2.74.11,4.44s-.06,3.68-.18,5.11v.14c-2.68,0-5.14,0-7-.24l-2.77-.3v2.79c0,.41,0,.81,0,1.2s0,.87,0,1.3c0,12.43,6.35,17.05,23.43,17.05,10.19,0,23.74-1.68,23.74-16.18C155,160,154.27,155.74,149.9,153.23Zm-18.69,21.86c-11.08,0-18.36-.83-18.43-11.88,1.92.08,4.11.08,6.37.08,2,0,3.79,0,5.37,0,.46,4.34,3.59,5.29,6.25,5.29,4.21,0,6.44-2.14,6.44-6.18,0-6.69-6-6.69-8.25-6.69s-4.21,0-6.23.09c0-.87,0-1.79,0-2.71V151c1.55.05,3.53.09,5.94.09s8.43,0,8.43-6.5c0-5.92-4.28-6.56-6.12-6.56-3.83,0-6.17,2-6.56,5.52-1.47-.05-3.23-.08-5.31-.08-2.51,0-4.66,0-6.42.1,0-.24,0-.49,0-.73,0-6.11,1.4-11.18,18.61-11.18,17.06,0,18.49,5.35,18.49,10.37,0,4.79-1.25,6.9-4.79,8.06a18.07,18.07,0,0,1-3.68.7l-2.21.26v4.91l2.3.18a20.22,20.22,0,0,1,3.62.55c3.79,1,4.89,2.65,4.89,7.27C150,169.72,147.68,175.09,131.21,175.09Zm-1.75-13a10.2,10.2,0,0,1,0-1.22l0-.21c2.68,0,2.68.46,2.68,1.68a3.91,3.91,0,0,1-.1,1,3.13,3.13,0,0,1-1.34.18,3.19,3.19,0,0,1-1.14-.14h0A3.07,3.07,0,0,1,129.46,162.1Zm-.06-17.49c0-1.48.15-1.63,1.62-1.63a1.87,1.87,0,0,1,.89.14,2.59,2.59,0,0,1,.23,1.42c0,.89,0,1.41-2.68,1.49v-.11A12.47,12.47,0,0,1,129.4,144.61Z"/></g></g></svg>