<svg id="Group_8479" data-name="Group 8479" xmlns="http://www.w3.org/2000/svg" width="184.155" height="43.803" viewBox="0 0 184.155 43.803">
  <g id="Group_7861" data-name="Group 7861">
    <path id="Path_156" data-name="Path 156" d="M50.079,377.631a30.516,30.516,0,0,0-10.738,2,29.854,29.854,0,0,1-21.477,0,30.526,30.526,0,0,0-10.74-2,30.505,30.505,0,0,0-10.738,2v39.8a30.526,30.526,0,0,1,10.738-2,30.546,30.546,0,0,1,10.74,2,29.81,29.81,0,0,0,21.477,0,29.834,29.834,0,0,1,21.477,0v-39.8a30.518,30.518,0,0,0-10.739-2" transform="translate(3.615 -377.631)" fill="#012169"/>
    <path id="Path_157" data-name="Path 157" d="M15.64,392.3c2.4,1.882,4.677,3.659,5.451,4.208l1.249-1.761c-.734-.518-2.986-2.282-5.371-4.147-2.769-2.168-5.635-4.411-6.864-5.291A78.125,78.125,0,0,0-.589,378.915a24.762,24.762,0,0,0-3,.967,76.989,76.989,0,0,1,12.438,7.179c1.193.855,4.167,3.183,6.793,5.237" transform="translate(3.61 -377.888)" fill="#fff"/>
    <path id="Path_158" data-name="Path 158" d="M50.01,390.524c-2.415,1.864-4.694,3.626-5.434,4.15l1.246,1.761c.776-.55,3.073-2.325,5.507-4.2,2.619-2.023,5.588-4.315,6.777-5.167A77.318,77.318,0,0,1,70.471,379.9v-.009a24.306,24.306,0,0,0-2.98-.965,78.7,78.7,0,0,0-10.642,6.381c-1.221.877-4.078,3.082-6.841,5.215" transform="translate(-6.029 -377.89)" fill="#fff"/>
    <path id="Path_159" data-name="Path 159" d="M16.979,414.96c2.377-1.871,4.625-3.636,5.356-4.155l-1.249-1.76c-.773.549-2.937,2.249-5.442,4.219-2.629,2.066-5.609,4.41-6.8,5.266a76.309,76.309,0,0,1-12.457,7.194v0a30.121,30.121,0,0,1,8.263-1.888c1.72-1.021,3.567-2.205,5.451-3.555,1.233-.883,4.1-3.139,6.88-5.322" transform="translate(3.615 -383.918)" fill="#fff"/>
    <path id="Path_160" data-name="Path 160" d="M51.287,413.326c-2.433-1.888-4.732-3.67-5.507-4.22l-1.247,1.761c.737.523,3.018,2.292,5.432,4.165,2.778,2.155,5.652,4.385,6.876,5.262,1.88,1.349,3.724,2.536,5.437,3.56A31.216,31.216,0,0,1,70.1,425.6,79.951,79.951,0,0,1,58.1,418.541c-1.191-.853-4.177-3.171-6.81-5.215" transform="translate(-6.021 -383.93)" fill="#fff"/>
    <path id="Path_161" data-name="Path 161" d="M60.826,423.424a29.843,29.843,0,0,0-21.481,0,29.841,29.841,0,0,1-21.48,0,30.544,30.544,0,0,0-10.741-2,30.533,30.533,0,0,0-10.739,2v.781a30.512,30.512,0,0,1,10.739-2,30.523,30.523,0,0,1,10.741,2,29.83,29.83,0,0,0,21.48,0,29.82,29.82,0,0,1,21.481,0Z" transform="translate(3.615 -386.395)" fill="#fff"/>
    <path id="Path_162" data-name="Path 162" d="M60.826,417.89a29.82,29.82,0,0,0-21.481,0,29.84,29.84,0,0,1-21.48,0,30.523,30.523,0,0,0-10.741-2,30.512,30.512,0,0,0-10.739,2v.78a30.533,30.533,0,0,1,10.739-2,30.544,30.544,0,0,1,10.741,2,29.841,29.841,0,0,0,21.48,0,29.843,29.843,0,0,1,21.481,0Z" transform="translate(3.615 -385.287)" fill="#fff"/>
    <path id="Path_163" data-name="Path 163" d="M60.826,412.438a29.843,29.843,0,0,0-21.481,0,29.84,29.84,0,0,1-21.48,0,30.545,30.545,0,0,0-10.741-2,30.534,30.534,0,0,0-10.739,2v.78a30.513,30.513,0,0,1,10.739-2,30.524,30.524,0,0,1,10.741,2,29.841,29.841,0,0,0,21.48,0,29.821,29.821,0,0,1,21.481,0Z" transform="translate(3.615 -384.197)" fill="#fff"/>
    <path id="Path_164" data-name="Path 164" d="M60.826,406.881a29.821,29.821,0,0,0-21.481,0,29.818,29.818,0,0,1-21.48,0,30.524,30.524,0,0,0-10.741-2,30.513,30.513,0,0,0-10.739,2v.783a30.461,30.461,0,0,1,10.739-2.005,30.472,30.472,0,0,1,10.741,2.005,29.853,29.853,0,0,0,21.48,0,29.766,29.766,0,0,1,21.481,0Z" transform="translate(3.615 -383.084)" fill="#fff"/>
    <path id="Path_165" data-name="Path 165" d="M60.826,401.342a29.821,29.821,0,0,0-21.481,0,29.863,29.863,0,0,1-21.48,0,30.524,30.524,0,0,0-10.741-2,30.513,30.513,0,0,0-10.739,2v.78a30.513,30.513,0,0,1,10.739-2,30.524,30.524,0,0,1,10.741,2,29.852,29.852,0,0,0,21.48,0,29.821,29.821,0,0,1,21.481,0Z" transform="translate(3.615 -381.976)" fill="#fff"/>
    <path id="Path_166" data-name="Path 166" d="M60.826,395.766a29.843,29.843,0,0,0-21.481,0,29.841,29.841,0,0,1-21.48,0,30.545,30.545,0,0,0-10.741-2,30.534,30.534,0,0,0-10.739,2v.781a30.534,30.534,0,0,1,10.739-2,30.545,30.545,0,0,1,10.741,2,29.841,29.841,0,0,0,21.48,0,29.843,29.843,0,0,1,21.481,0Z" transform="translate(3.615 -380.86)" fill="#fff"/>
    <path id="Path_167" data-name="Path 167" d="M60.826,390.281a29.843,29.843,0,0,0-21.481,0,29.841,29.841,0,0,1-21.48,0,30.544,30.544,0,0,0-10.741-2,30.533,30.533,0,0,0-10.739,2v.78a30.533,30.533,0,0,1,10.739-2,30.544,30.544,0,0,1,10.741,2,29.83,29.83,0,0,0,21.48,0,29.843,29.843,0,0,1,21.481,0Z" transform="translate(3.615 -379.762)" fill="#fff"/>
    <path id="Path_168" data-name="Path 168" d="M60.826,384.693a29.843,29.843,0,0,0-21.481,0,29.841,29.841,0,0,1-21.48,0,30.544,30.544,0,0,0-10.741-2,30.533,30.533,0,0,0-10.739,2v.78a30.512,30.512,0,0,1,10.739-2,30.523,30.523,0,0,1,10.741,2,29.818,29.818,0,0,0,21.48,0,29.82,29.82,0,0,1,21.481,0Z" transform="translate(3.615 -378.644)" fill="#fff"/>
    <path id="Path_169" data-name="Path 169" d="M60.818,423.416a29.846,29.846,0,0,0-21.477,0,29.812,29.812,0,0,1-21.477,0,30.55,30.55,0,0,0-10.739-2,30.544,30.544,0,0,0-10.739,2v.783a30.493,30.493,0,0,1,10.739-2,30.5,30.5,0,0,1,10.739,2,29.834,29.834,0,0,0,21.477,0,29.791,29.791,0,0,1,21.477,0Z" transform="translate(3.615 -386.394)" fill="#fff"/>
    <path id="Path_170" data-name="Path 170" d="M60.818,417.884a29.812,29.812,0,0,0-21.477,0,29.833,29.833,0,0,1-21.477,0,30.518,30.518,0,0,0-10.739-2,30.512,30.512,0,0,0-10.739,2v.78a30.533,30.533,0,0,1,10.739-2,30.539,30.539,0,0,1,10.739,2,29.824,29.824,0,0,0,21.477,0,29.834,29.834,0,0,1,21.477,0Z" transform="translate(3.615 -385.286)" fill="#fff"/>
    <path id="Path_171" data-name="Path 171" d="M60.818,412.432a29.834,29.834,0,0,0-21.477,0,29.835,29.835,0,0,1-21.477,0,30.539,30.539,0,0,0-10.739-2,30.533,30.533,0,0,0-10.739,2v.78a30.533,30.533,0,0,1,10.739-2,30.539,30.539,0,0,1,10.739,2,29.823,29.823,0,0,0,21.477,0,29.834,29.834,0,0,1,21.477,0Z" transform="translate(3.615 -384.195)" fill="#fff"/>
    <path id="Path_172" data-name="Path 172" d="M60.818,406.877a29.79,29.79,0,0,0-21.477,0,29.834,29.834,0,0,1-21.477,0,30.5,30.5,0,0,0-10.739-2,30.492,30.492,0,0,0-10.739,2v.781a30.524,30.524,0,0,1,10.739-2,30.529,30.529,0,0,1,10.739,2,29.823,29.823,0,0,0,21.477,0,29.824,29.824,0,0,1,21.477,0Z" transform="translate(3.615 -383.083)" fill="#fff"/>
    <path id="Path_173" data-name="Path 173" d="M60.818,401.34a29.834,29.834,0,0,0-21.477,0,29.834,29.834,0,0,1-21.477,0,30.539,30.539,0,0,0-10.739-2,30.533,30.533,0,0,0-10.739,2v.78a30.533,30.533,0,0,1,10.739-2,30.539,30.539,0,0,1,10.739,2,29.846,29.846,0,0,0,21.477,0,29.834,29.834,0,0,1,21.477,0Z" transform="translate(3.615 -381.976)" fill="#fff"/>
    <path id="Path_174" data-name="Path 174" d="M60.818,395.764a29.834,29.834,0,0,0-21.477,0,29.835,29.835,0,0,1-21.477,0,30.539,30.539,0,0,0-10.739-2,30.533,30.533,0,0,0-10.739,2v.781a30.534,30.534,0,0,1,10.739-2,30.54,30.54,0,0,1,10.739,2,29.856,29.856,0,0,0,21.477,0,29.835,29.835,0,0,1,21.477,0Z" transform="translate(3.615 -380.86)" fill="#fff"/>
    <path id="Path_175" data-name="Path 175" d="M60.818,390.279a29.834,29.834,0,0,0-21.477,0,29.834,29.834,0,0,1-21.477,0,30.539,30.539,0,0,0-10.739-2,30.533,30.533,0,0,0-10.739,2v.781a30.523,30.523,0,0,1,10.739-2,30.529,30.529,0,0,1,10.739,2,29.834,29.834,0,0,0,21.477,0,29.823,29.823,0,0,1,21.477,0Z" transform="translate(3.615 -379.762)" fill="#fff"/>
    <path id="Path_176" data-name="Path 176" d="M60.818,384.691a29.834,29.834,0,0,0-21.477,0,29.812,29.812,0,0,1-21.477,0,30.539,30.539,0,0,0-10.739-2,30.533,30.533,0,0,0-10.739,2v.781a30.513,30.513,0,0,1,10.739-2,30.519,30.519,0,0,1,10.739,2,29.834,29.834,0,0,0,21.477,0,29.813,29.813,0,0,1,21.477,0Z" transform="translate(3.615 -378.644)" fill="#fff"/>
    <path id="Path_177" data-name="Path 177" d="M43.851,395.5a30.6,30.6,0,0,1-9.59,1.669,29.926,29.926,0,0,1-9.577-1.644v15.26a31.488,31.488,0,0,0,9.586,1.618,30.85,30.85,0,0,0,9.581-1.615Z" transform="translate(-2.048 -381.208)" fill="#ff310c"/>
    <path id="Path_178" data-name="Path 178" d="M39.353,407.943a16.442,16.442,0,0,1-.791,2.247,13.674,13.674,0,0,1-2.627.368c-3.756,0-5.322-2.444-5.322-4.691,0-2.9,2.23-4.918,5.6-4.918a11.061,11.061,0,0,1,2.572.382c.127.779.226,1.429.325,2.319l-.522.1a2.593,2.593,0,0,0-2.643-2.172c-2.047,0-3.176,1.934-3.176,4.012,0,2.6,1.4,4.307,3.319,4.307,1.171,0,2.046-.749,2.768-2.173Z" transform="translate(-3.235 -382.298)" fill="#fff"/>
  </g>
  <path id="Path_179" data-name="Path 179" d="M107.4,386.87a5.531,5.531,0,0,0-1.373-1.5,6.135,6.135,0,0,0-1.785-.921,6.6,6.6,0,0,0-2.045-.315,7.064,7.064,0,0,0-3.35.742,6.653,6.653,0,0,0-2.293,1.963,8.468,8.468,0,0,0-1.318,2.76,11.879,11.879,0,0,0,0,6.3,8.449,8.449,0,0,0,1.318,2.774,6.653,6.653,0,0,0,2.293,1.963,7.074,7.074,0,0,0,3.35.741,5.975,5.975,0,0,0,2.472-.494,5.893,5.893,0,0,0,1.895-1.348,6.915,6.915,0,0,0,1.29-1.99,8.331,8.331,0,0,0,.631-2.458h1.868a10.594,10.594,0,0,1-.852,3.268,8.032,8.032,0,0,1-1.7,2.472,7.213,7.213,0,0,1-2.457,1.564,8.62,8.62,0,0,1-3.144.549,9.254,9.254,0,0,1-4.051-.837,8.4,8.4,0,0,1-2.9-2.236,9.54,9.54,0,0,1-1.73-3.24,13.285,13.285,0,0,1,0-7.744,9.679,9.679,0,0,1,1.73-3.254,8.328,8.328,0,0,1,2.9-2.252,9.253,9.253,0,0,1,4.051-.837,9.159,9.159,0,0,1,2.732.413,7.916,7.916,0,0,1,2.416,1.221,7.133,7.133,0,0,1,1.812,1.99,6.7,6.7,0,0,1,.92,2.719h-1.868a6.271,6.271,0,0,0-.809-2.019" transform="translate(-15.709 -378.615)" fill="#012169"/>
  <rect id="Rectangle_18" data-name="Rectangle 18" width="1.73" height="19.605" transform="translate(95.988 4.344)" fill="#012169"/>
  <path id="Path_180" data-name="Path 180" d="M121.5,391.952a4.024,4.024,0,0,1,1.2-1.484,5.085,5.085,0,0,1,1.77-.851,8.607,8.607,0,0,1,2.251-.274,9.921,9.921,0,0,1,1.868.178,4.538,4.538,0,0,1,1.676.673,3.692,3.692,0,0,1,1.207,1.386,5,5,0,0,1,.468,2.32v7.524a.909.909,0,0,0,1.016,1.043,1.333,1.333,0,0,0,.549-.109v1.454c-.2.037-.38.065-.535.082a5.189,5.189,0,0,1-.589.028,2.639,2.639,0,0,1-1.059-.178,1.4,1.4,0,0,1-.616-.508,1.884,1.884,0,0,1-.29-.781,6.681,6.681,0,0,1-.068-1h-.057a11.593,11.593,0,0,1-.945,1.221,4.63,4.63,0,0,1-1.073.893,4.916,4.916,0,0,1-1.345.55,7.37,7.37,0,0,1-1.8.19,7.073,7.073,0,0,1-1.853-.233,4.13,4.13,0,0,1-1.511-.742,3.514,3.514,0,0,1-1.016-1.29,4.3,4.3,0,0,1-.371-1.852,3.652,3.652,0,0,1,.661-2.32,4.137,4.137,0,0,1,1.743-1.276,9.93,9.93,0,0,1,2.444-.618q1.359-.178,2.76-.343c.366-.038.686-.082.959-.138a1.655,1.655,0,0,0,.687-.288,1.362,1.362,0,0,0,.427-.563,2.452,2.452,0,0,0,.15-.933,3.163,3.163,0,0,0-.289-1.443,2.288,2.288,0,0,0-.8-.892,3.194,3.194,0,0,0-1.18-.453,7.918,7.918,0,0,0-1.442-.125,4.363,4.363,0,0,0-2.691.783,3.067,3.067,0,0,0-1.1,2.513h-1.729a5.729,5.729,0,0,1,.522-2.142m8.649,4.228a.991.991,0,0,1-.632.439,6.324,6.324,0,0,1-.824.194q-1.1.191-2.265.343a12.321,12.321,0,0,0-2.127.453,4.16,4.16,0,0,0-1.581.864,2.064,2.064,0,0,0-.618,1.607,2.51,2.51,0,0,0,.261,1.166,2.829,2.829,0,0,0,.7.879,3.05,3.05,0,0,0,1.016.564,3.694,3.694,0,0,0,1.181.19,5.978,5.978,0,0,0,1.894-.3,4.645,4.645,0,0,0,1.578-.879,4.18,4.18,0,0,0,1.47-3.268V396.18Z" transform="translate(-21.198 -379.975)" fill="#012169"/>
  <path id="Path_181" data-name="Path 181" d="M139.436,389.809v3.323h.055a5.438,5.438,0,0,1,2.047-2.664,5.344,5.344,0,0,1,3.307-.851v1.729a5.236,5.236,0,0,0-2.141.317,4.824,4.824,0,0,0-1.662,1.057,4.741,4.741,0,0,0-1.082,1.634,5.443,5.443,0,0,0-.386,2.074v7.55h-1.729V389.809Z" transform="translate(-24.695 -380.028)" fill="#012169"/>
  <path id="Path_182" data-name="Path 182" d="M149.768,383.062v12.3l7.854-6.864h2.3l-6.039,5.246,6.453,8.923h-2.17l-5.6-7.717-2.8,2.335v5.382h-1.73v-19.6Z" transform="translate(-26.735 -378.718)" fill="#012169"/>
  <path id="Path_183" data-name="Path 183" d="M171.476,392.515a2.82,2.82,0,0,0-.811-.975,3.367,3.367,0,0,0-1.168-.563,5.342,5.342,0,0,0-1.4-.178,5.67,5.67,0,0,0-1.168.124,3.549,3.549,0,0,0-1.085.412,2.331,2.331,0,0,0-.8.754,2.078,2.078,0,0,0-.3,1.154,1.612,1.612,0,0,0,.291.974,2.547,2.547,0,0,0,.726.673,4.611,4.611,0,0,0,.962.454q.521.178.96.287l2.308.521a6.694,6.694,0,0,1,1.468.4,4.793,4.793,0,0,1,1.291.756,3.709,3.709,0,0,1,.919,1.154,3.471,3.471,0,0,1,.358,1.62,3.55,3.55,0,0,1-.521,1.962,4.252,4.252,0,0,1-1.333,1.318,5.653,5.653,0,0,1-1.826.729,9.629,9.629,0,0,1-2,.218,6.505,6.505,0,0,1-4.051-1.181,5.018,5.018,0,0,1-1.77-3.789h1.73a3.406,3.406,0,0,0,1.277,2.649,4.623,4.623,0,0,0,2.9.892,6.472,6.472,0,0,0,1.3-.135,4.188,4.188,0,0,0,1.25-.467,2.968,2.968,0,0,0,.947-.837,2.059,2.059,0,0,0,.371-1.249,2,2,0,0,0-.261-1.057,2.3,2.3,0,0,0-.7-.714,4.487,4.487,0,0,0-1-.48q-.565-.193-1.14-.33l-2.224-.494a12.516,12.516,0,0,1-1.566-.509,4.945,4.945,0,0,1-1.249-.714,2.961,2.961,0,0,1-.837-1.044,3.855,3.855,0,0,1,.176-3.363,3.753,3.753,0,0,1,1.249-1.235,5.862,5.862,0,0,1,1.717-.686,8.325,8.325,0,0,1,1.882-.22,6.943,6.943,0,0,1,1.992.274,4.586,4.586,0,0,1,1.619.851,4.2,4.2,0,0,1,1.112,1.429,5.148,5.148,0,0,1,.468,2h-1.73a3.272,3.272,0,0,0-.33-1.386" transform="translate(-29.634 -379.975)" fill="#012169"/>
  <path id="Path_184" data-name="Path 184" d="M187.233,389.947a6.244,6.244,0,0,1,2.1,1.621,6.987,6.987,0,0,1,1.29,2.375,9.794,9.794,0,0,1,0,5.794,7,7,0,0,1-1.29,2.376,6.086,6.086,0,0,1-2.1,1.605,7.286,7.286,0,0,1-5.738,0,6.092,6.092,0,0,1-2.1-1.605,7,7,0,0,1-1.29-2.376,9.776,9.776,0,0,1,0-5.794,6.986,6.986,0,0,1,1.29-2.375,6.251,6.251,0,0,1,2.1-1.621,7.126,7.126,0,0,1,5.738,0m-5.038,1.373a4.747,4.747,0,0,0-1.551,1.374,6.2,6.2,0,0,0-.934,1.934,7.894,7.894,0,0,0,0,4.422,6.194,6.194,0,0,0,.934,1.936,4.744,4.744,0,0,0,1.551,1.373,4.782,4.782,0,0,0,4.337,0,4.787,4.787,0,0,0,1.554-1.373,6.258,6.258,0,0,0,.931-1.936,7.893,7.893,0,0,0,0-4.422,6.259,6.259,0,0,0-.931-1.934,4.791,4.791,0,0,0-1.554-1.374,4.769,4.769,0,0,0-4.337,0" transform="translate(-32.664 -379.975)" fill="#012169"/>
  <path id="Path_185" data-name="Path 185" d="M197.965,389.756V392.2h.055a4.149,4.149,0,0,1,1.757-2.072,5.167,5.167,0,0,1,2.773-.782,7.017,7.017,0,0,1,2.486.384,3.952,3.952,0,0,1,1.606,1.085,4.074,4.074,0,0,1,.852,1.716,9.71,9.71,0,0,1,.246,2.279v9.117h-1.73v-8.842a8.158,8.158,0,0,0-.166-1.689,3.577,3.577,0,0,0-.576-1.359,2.812,2.812,0,0,0-1.113-.906,4.078,4.078,0,0,0-1.744-.33,4.395,4.395,0,0,0-1.854.372,3.986,3.986,0,0,0-1.373,1.016,4.67,4.67,0,0,0-.877,1.536,6.264,6.264,0,0,0-.343,1.936v8.265h-1.73V389.756Z" transform="translate(-36.38 -379.975)" fill="#012169"/>
  <path id="Path_186" data-name="Path 186" d="M221.183,392.515a2.827,2.827,0,0,0-.81-.975,3.394,3.394,0,0,0-1.166-.563,5.373,5.373,0,0,0-1.4-.178,5.7,5.7,0,0,0-1.168.124,3.555,3.555,0,0,0-1.083.412,2.331,2.331,0,0,0-.8.754,2.09,2.09,0,0,0-.3,1.154,1.616,1.616,0,0,0,.289.974,2.568,2.568,0,0,0,.726.673,4.689,4.689,0,0,0,.962.454q.522.178.961.287l2.307.521a6.671,6.671,0,0,1,1.468.4,4.819,4.819,0,0,1,1.293.756,3.758,3.758,0,0,1,.92,1.154,3.5,3.5,0,0,1,.355,1.62,3.557,3.557,0,0,1-.521,1.962,4.26,4.26,0,0,1-1.333,1.318,5.631,5.631,0,0,1-1.826.729,9.614,9.614,0,0,1-2,.218A6.5,6.5,0,0,1,214,403.126a5.029,5.029,0,0,1-1.771-3.789h1.732a3.4,3.4,0,0,0,1.276,2.649,4.62,4.62,0,0,0,2.9.892,6.51,6.51,0,0,0,1.3-.135,4.254,4.254,0,0,0,1.25-.467,3.011,3.011,0,0,0,.947-.837,2.07,2.07,0,0,0,.371-1.249,2,2,0,0,0-.262-1.057,2.274,2.274,0,0,0-.7-.714,4.427,4.427,0,0,0-1-.48q-.561-.193-1.141-.33l-2.222-.494a12.558,12.558,0,0,1-1.566-.509,4.973,4.973,0,0,1-1.249-.714,2.983,2.983,0,0,1-.838-1.044,3.455,3.455,0,0,1-.3-1.524,3.413,3.413,0,0,1,.48-1.84,3.765,3.765,0,0,1,1.25-1.235,5.81,5.81,0,0,1,1.717-.686,8.293,8.293,0,0,1,1.882-.22,6.922,6.922,0,0,1,1.989.274,4.618,4.618,0,0,1,1.621.851,4.2,4.2,0,0,1,1.111,1.429,5.147,5.147,0,0,1,.467,2h-1.732a3.3,3.3,0,0,0-.328-1.386" transform="translate(-39.582 -379.975)" fill="#012169"/>
  <path id="Path_187" data-name="Path 187" d="M101.076,414.172a4.559,4.559,0,0,1,1.532.242,3.252,3.252,0,0,1,1.185.7,3.122,3.122,0,0,1,.758,1.139,4.487,4.487,0,0,1,0,3.037,3.123,3.123,0,0,1-.758,1.139,3.229,3.229,0,0,1-1.185.7,4.6,4.6,0,0,1-1.532.242H96.681v5.4h-1.2v-12.6Zm-.266,6.177a3.081,3.081,0,0,0,2.028-.634,2.809,2.809,0,0,0,0-3.882,3.091,3.091,0,0,0-2.028-.637H96.681v5.154Z" transform="translate(-16.217 -384.944)" fill="#012169"/>
  <path id="Path_188" data-name="Path 188" d="M113.055,418.6a4,4,0,0,1,1.35,1.036,4.7,4.7,0,0,1,.833,1.529,6.373,6.373,0,0,1,0,3.726,4.616,4.616,0,0,1-.833,1.523,3.851,3.851,0,0,1-1.35,1.033,4.642,4.642,0,0,1-3.69,0,3.923,3.923,0,0,1-1.352-1.033,4.518,4.518,0,0,1-.826-1.523,6.236,6.236,0,0,1,0-3.726,4.6,4.6,0,0,1,.826-1.529,4.071,4.071,0,0,1,3.2-1.428,4.12,4.12,0,0,1,1.844.392m-3.238.88a3.043,3.043,0,0,0-1,.883,3.988,3.988,0,0,0-.6,1.241,5.028,5.028,0,0,0,0,2.846,4.069,4.069,0,0,0,.6,1.245,3.086,3.086,0,0,0,1,.882,3.069,3.069,0,0,0,2.786,0,3.064,3.064,0,0,0,1-.882,4.036,4.036,0,0,0,.6-1.245,5.066,5.066,0,0,0,0-2.846,3.956,3.956,0,0,0-.6-1.241,3.022,3.022,0,0,0-1-.883,3.043,3.043,0,0,0-2.786,0" transform="translate(-18.502 -385.752)" fill="#012169"/>
  <path id="Path_189" data-name="Path 189" d="M119.717,418.508v2.136h.035a3.5,3.5,0,0,1,1.317-1.709,3.433,3.433,0,0,1,2.125-.549V419.5a3.349,3.349,0,0,0-1.377.2,3.061,3.061,0,0,0-1.064.681,2.94,2.94,0,0,0-.7,1.049,3.448,3.448,0,0,0-.248,1.332v4.852H118.7v-9.107Z" transform="translate(-20.863 -385.787)" fill="#012169"/>
  <path id="Path_190" data-name="Path 190" d="M129.4,417.856v.936h-1.854v6.144a1.946,1.946,0,0,0,.152.855c.1.207.35.322.749.346a8.716,8.716,0,0,0,.953-.053v.934c-.168,0-.333.006-.5.017s-.329.017-.491.017a2.185,2.185,0,0,1-1.553-.43,2.152,2.152,0,0,1-.425-1.595v-6.234H124.84v-.936h1.591v-2.732h1.111v2.732Z" transform="translate(-22.092 -385.134)" fill="#012169"/>
  <path id="Path_191" data-name="Path 191" d="M151.1,423.342c.019,1.629.868,3.593,3.008,3.593a2.785,2.785,0,0,0,2.868-2.336h1.113a3.728,3.728,0,0,1-3.981,3.273c-2.9,0-4.123-2.23-4.123-4.83,0-2.406,1.22-4.83,4.123-4.83,2.939,0,4.107,2.565,4.018,5.13Zm5.909-.937a3.066,3.066,0,0,0-2.9-3.255c-1.821,0-2.829,1.592-3.008,3.255Z" transform="translate(-27.124 -385.752)" fill="#012169"/>
  <path id="Path_192" data-name="Path 192" d="M161.437,418.512h1.027v2.141h.034a3.375,3.375,0,0,1,3.451-2.264V419.5a3.148,3.148,0,0,0-3.4,3.275v4.866h-1.113Z" transform="translate(-29.416 -385.787)" fill="#012169"/>
  <path id="Path_193" data-name="Path 193" d="M167.051,418.544h1.238l2.869,8.016h.034l2.832-8.016h1.149l-3.414,9.131h-1.186Z" transform="translate(-30.54 -385.819)" fill="#012169"/>
  <path id="Path_194" data-name="Path 194" d="M178.043,414.164h1.116v1.787h-1.116Zm0,3.5h1.116V426.8h-1.116Z" transform="translate(-32.74 -384.942)" fill="#012169"/>
  <path id="Path_195" data-name="Path 195" d="M187.686,421.344a2.482,2.482,0,0,0-2.584-2.193c-2.143,0-3.2,1.946-3.2,3.893s1.06,3.892,3.2,3.892a2.72,2.72,0,0,0,2.654-2.6h1.116a3.719,3.719,0,0,1-3.77,3.539c-2.8,0-4.319-2.212-4.319-4.83s1.523-4.83,4.319-4.83a3.41,3.41,0,0,1,3.7,3.131Z" transform="translate(-33.288 -385.753)" fill="#012169"/>
  <path id="Path_196" data-name="Path 196" d="M192.778,423.342c.019,1.629.868,3.593,3.011,3.593a2.779,2.779,0,0,0,2.865-2.336h1.116a3.73,3.73,0,0,1-3.981,3.273c-2.9,0-4.123-2.23-4.123-4.83,0-2.406,1.22-4.83,4.123-4.83,2.936,0,4.1,2.565,4.015,5.13Zm5.913-.937a3.068,3.068,0,0,0-2.9-3.255c-1.825,0-2.832,1.592-3.011,3.255Z" transform="translate(-35.466 -385.752)" fill="#012169"/>
  <path id="Path_197" data-name="Path 197" d="M208.415,421.148a2.1,2.1,0,0,0-2.391-2c-.989,0-2.157.39-2.157,1.575,0,.99,1.131,1.345,1.894,1.54l1.486.335c1.272.2,2.6.939,2.6,2.531,0,1.983-1.965,2.743-3.663,2.743-2.124,0-3.573-.99-3.751-3.22h1.116a2.406,2.406,0,0,0,2.691,2.282c1.042,0,2.494-.459,2.494-1.733,0-1.061-.993-1.415-2-1.663l-1.431-.32c-1.453-.388-2.55-.884-2.55-2.441,0-1.859,1.824-2.565,3.432-2.565,1.824,0,3.274.954,3.344,2.936Z" transform="translate(-37.621 -385.752)" fill="#012169"/>
  <path id="Path_198" data-name="Path 198" d="M137.966,422.619c-.054,2.613,1.83,3.411,4.139,3.411,1.333,0,3.358-.729,3.358-2.576,0-1.439-1.439-2.008-2.612-2.291l-2.824-.693c-1.493-.374-2.861-1.085-2.861-3.057,0-1.243.8-3.571,4.37-3.571,2.506,0,4.708,1.35,4.691,3.944h-1.209c-.07-1.937-1.669-2.913-3.463-2.913-1.653,0-3.181.639-3.181,2.523,0,1.19.889,1.687,1.92,1.936l3.091.763c1.794.48,3.287,1.261,3.287,3.341,0,.87-.355,3.624-4.85,3.624-3,0-5.206-1.35-5.064-4.442Z" transform="translate(-24.476 -384.878)" fill="#012169"/>
</svg>
