<svg xmlns="http://www.w3.org/2000/svg" width="233.499" height="54.758" viewBox="0 0 233.499 54.758">
  <g id="Group_8892" data-name="Group 8892" transform="translate(-197.501 -18.742)">
    <g id="Group_8731" data-name="Group 8731" transform="translate(198 19.242)">
      <g id="Group_7861" data-name="Group 7861">
        <path id="Path_156" data-name="Path 156" d="M64.321,377.631a39.635,39.635,0,0,0-13.587,2.456,38.867,38.867,0,0,1-27.173,0,39.647,39.647,0,0,0-13.589-2.456,39.621,39.621,0,0,0-13.587,2.456v48.846a39.648,39.648,0,0,1,13.587-2.454,39.675,39.675,0,0,1,13.589,2.454,38.806,38.806,0,0,0,27.173,0,38.838,38.838,0,0,1,27.174,0V380.087a39.638,39.638,0,0,0-13.588-2.456" transform="translate(3.615 -377.631)" fill="#012169" stroke="#fff" stroke-width="1"/>
        <path id="Path_157" data-name="Path 157" d="M20.74,395.339c3.042,2.31,5.917,4.491,6.9,5.164l1.58-2.161c-.929-.636-3.778-2.8-6.8-5.09-3.5-2.661-7.13-5.413-8.684-6.494a99.555,99.555,0,0,0-13.53-7.844,32.041,32.041,0,0,0-3.8,1.187,98.24,98.24,0,0,1,15.737,8.81c1.509,1.049,5.273,3.907,8.594,6.427" transform="translate(3.615 -377.655)" fill="#fff"/>
        <path id="Path_158" data-name="Path 158" d="M51.451,393.159c-3.055,2.287-5.94,4.45-6.875,5.093l1.577,2.161c.982-.675,3.888-2.854,6.968-5.16,3.313-2.483,7.07-5.3,8.575-6.341a98.647,98.647,0,0,1,15.644-8.791v-.011a31.426,31.426,0,0,0-3.77-1.184,100.266,100.266,0,0,0-13.464,7.831c-1.545,1.076-5.159,3.782-8.655,6.4" transform="translate(4.195 -377.655)" fill="#fff"/>
        <path id="Path_159" data-name="Path 159" d="M22.441,416.3c3.008-2.3,5.852-4.462,6.777-5.1l-1.58-2.161c-.979.673-3.716,2.76-6.885,5.177-3.327,2.536-7.1,5.413-8.606,6.462a97.372,97.372,0,0,1-15.761,8.829v0A39.073,39.073,0,0,1,6.839,427.2c2.176-1.253,4.514-2.706,6.9-4.363,1.56-1.084,5.192-3.853,8.7-6.532" transform="translate(3.615 -378.207)" fill="#fff"/>
        <path id="Path_160" data-name="Path 160" d="M53.079,414.285c-3.079-2.317-5.987-4.5-6.968-5.179l-1.578,2.161c.933.642,3.818,2.812,6.873,5.111,3.515,2.645,7.151,5.381,8.7,6.458,2.379,1.655,4.712,3.113,6.879,4.369a40.517,40.517,0,0,1,9.9,2.14,101.948,101.948,0,0,1-15.191-8.66c-1.507-1.047-5.285-3.891-8.616-6.4" transform="translate(4.194 -378.209)" fill="#fff"/>
        <path id="Path_161" data-name="Path 161" d="M77.918,423.878a38.85,38.85,0,0,0-27.178,0,38.847,38.847,0,0,1-27.177,0,39.673,39.673,0,0,0-13.591-2.454,39.659,39.659,0,0,0-13.588,2.454v.959a39.631,39.631,0,0,1,13.588-2.456,39.645,39.645,0,0,1,13.591,2.456,38.833,38.833,0,0,0,27.177,0,38.82,38.82,0,0,1,27.178,0Z" transform="translate(3.615 -378.435)" fill="#fff"/>
        <path id="Path_162" data-name="Path 162" d="M77.918,418.345a38.82,38.82,0,0,0-27.178,0,38.845,38.845,0,0,1-27.177,0,39.645,39.645,0,0,0-13.591-2.456,39.631,39.631,0,0,0-13.588,2.456v.957a39.658,39.658,0,0,1,13.588-2.454A39.672,39.672,0,0,1,23.563,419.3a38.848,38.848,0,0,0,27.177,0,38.849,38.849,0,0,1,27.178,0Z" transform="translate(3.615 -378.333)" fill="#fff"/>
        <path id="Path_163" data-name="Path 163" d="M77.918,412.892a38.85,38.85,0,0,0-27.178,0,38.847,38.847,0,0,1-27.177,0,39.673,39.673,0,0,0-13.591-2.454,39.659,39.659,0,0,0-13.588,2.454v.957a39.633,39.633,0,0,1,13.588-2.456,39.647,39.647,0,0,1,13.591,2.456,38.847,38.847,0,0,0,27.177,0,38.822,38.822,0,0,1,27.178,0Z" transform="translate(3.615 -378.233)" fill="#fff"/>
        <path id="Path_164" data-name="Path 164" d="M77.918,407.336a38.822,38.822,0,0,0-27.178,0,38.817,38.817,0,0,1-27.177,0A39.647,39.647,0,0,0,9.973,404.88a39.633,39.633,0,0,0-13.588,2.456v.961a39.564,39.564,0,0,1,13.588-2.461A39.578,39.578,0,0,1,23.563,408.3a38.863,38.863,0,0,0,27.177,0,38.75,38.75,0,0,1,27.178,0Z" transform="translate(3.615 -378.131)" fill="#fff"/>
        <path id="Path_165" data-name="Path 165" d="M77.918,401.8a38.82,38.82,0,0,0-27.178,0,38.876,38.876,0,0,1-27.177,0,39.645,39.645,0,0,0-13.591-2.456A39.631,39.631,0,0,0-3.615,401.8v.957A39.632,39.632,0,0,1,9.973,400.3a39.646,39.646,0,0,1,13.591,2.456,38.862,38.862,0,0,0,27.177,0,38.821,38.821,0,0,1,27.178,0Z" transform="translate(3.615 -378.029)" fill="#fff"/>
        <path id="Path_166" data-name="Path 166" d="M77.918,396.22a38.849,38.849,0,0,0-27.178,0,38.847,38.847,0,0,1-27.177,0,39.672,39.672,0,0,0-13.591-2.454A39.658,39.658,0,0,0-3.615,396.22v.959a39.66,39.66,0,0,1,13.588-2.454,39.674,39.674,0,0,1,13.591,2.454,38.845,38.845,0,0,0,27.177,0,38.851,38.851,0,0,1,27.178,0Z" transform="translate(3.615 -377.927)" fill="#fff"/>
        <path id="Path_167" data-name="Path 167" d="M77.918,390.735a38.849,38.849,0,0,0-27.178,0,38.847,38.847,0,0,1-27.177,0,39.672,39.672,0,0,0-13.591-2.454,39.658,39.658,0,0,0-13.588,2.454v.957a39.659,39.659,0,0,1,13.588-2.454,39.673,39.673,0,0,1,13.591,2.454,38.833,38.833,0,0,0,27.177,0,38.85,38.85,0,0,1,27.178,0Z" transform="translate(3.615 -377.826)" fill="#fff"/>
        <path id="Path_168" data-name="Path 168" d="M77.918,385.147a38.85,38.85,0,0,0-27.178,0,38.848,38.848,0,0,1-27.177,0,39.673,39.673,0,0,0-13.591-2.454,39.659,39.659,0,0,0-13.588,2.454v.957a39.63,39.63,0,0,1,13.588-2.456A39.644,39.644,0,0,1,23.563,386.1a38.819,38.819,0,0,0,27.177,0,38.819,38.819,0,0,1,27.178,0Z" transform="translate(3.615 -377.724)" fill="#fff"/>
        <path id="Path_169" data-name="Path 169" d="M77.908,423.87a38.853,38.853,0,0,0-27.174,0,38.81,38.81,0,0,1-27.174,0,39.68,39.68,0,0,0-13.588-2.453A39.672,39.672,0,0,0-3.615,423.87v.961a39.6,39.6,0,0,1,13.588-2.458,39.611,39.611,0,0,1,13.588,2.458,38.84,38.84,0,0,0,27.174,0,38.78,38.78,0,0,1,27.174,0Z" transform="translate(3.615 -378.435)" fill="#fff"/>
        <path id="Path_170" data-name="Path 170" d="M77.908,418.339a38.81,38.81,0,0,0-27.174,0,38.837,38.837,0,0,1-27.174,0,39.639,39.639,0,0,0-13.588-2.456,39.631,39.631,0,0,0-13.588,2.456v.957a39.659,39.659,0,0,1,13.588-2.454A39.666,39.666,0,0,1,23.56,419.3a38.825,38.825,0,0,0,27.174,0,38.839,38.839,0,0,1,27.174,0Z" transform="translate(3.615 -378.333)" fill="#fff"/>
        <path id="Path_171" data-name="Path 171" d="M77.908,412.886a38.838,38.838,0,0,0-27.174,0,38.839,38.839,0,0,1-27.174,0,39.665,39.665,0,0,0-13.588-2.454,39.658,39.658,0,0,0-13.588,2.454v.957a39.659,39.659,0,0,1,13.588-2.454,39.666,39.666,0,0,1,13.588,2.454,38.825,38.825,0,0,0,27.174,0,38.839,38.839,0,0,1,27.174,0Z" transform="translate(3.615 -378.233)" fill="#fff"/>
        <path id="Path_172" data-name="Path 172" d="M77.908,407.332a38.779,38.779,0,0,0-27.174,0,38.84,38.84,0,0,1-27.174,0,39.61,39.61,0,0,0-13.588-2.458,39.6,39.6,0,0,0-13.588,2.458v.959a39.646,39.646,0,0,1,13.588-2.455,39.654,39.654,0,0,1,13.588,2.455,38.823,38.823,0,0,0,27.174,0,38.825,38.825,0,0,1,27.174,0Z" transform="translate(3.615 -378.131)" fill="#fff"/>
        <path id="Path_173" data-name="Path 173" d="M77.908,401.794a38.838,38.838,0,0,0-27.174,0,38.839,38.839,0,0,1-27.174,0A39.665,39.665,0,0,0,9.973,399.34a39.658,39.658,0,0,0-13.588,2.454v.957A39.659,39.659,0,0,1,9.973,400.3a39.666,39.666,0,0,1,13.588,2.454,38.854,38.854,0,0,0,27.174,0,38.839,38.839,0,0,1,27.174,0Z" transform="translate(3.615 -378.029)" fill="#fff"/>
        <path id="Path_174" data-name="Path 174" d="M77.908,396.218a38.839,38.839,0,0,0-27.174,0,38.84,38.84,0,0,1-27.174,0,39.666,39.666,0,0,0-13.588-2.454,39.659,39.659,0,0,0-13.588,2.454v.959a39.659,39.659,0,0,1,13.588-2.454,39.666,39.666,0,0,1,13.588,2.454,38.868,38.868,0,0,0,27.174,0,38.839,38.839,0,0,1,27.174,0Z" transform="translate(3.615 -377.927)" fill="#fff"/>
        <path id="Path_175" data-name="Path 175" d="M77.908,390.733a38.839,38.839,0,0,0-27.174,0,38.838,38.838,0,0,1-27.174,0,39.666,39.666,0,0,0-13.588-2.454,39.659,39.659,0,0,0-13.588,2.454v.958a39.645,39.645,0,0,1,13.588-2.455,39.653,39.653,0,0,1,13.588,2.455,38.838,38.838,0,0,0,27.174,0,38.825,38.825,0,0,1,27.174,0Z" transform="translate(3.615 -377.826)" fill="#fff"/>
        <path id="Path_176" data-name="Path 176" d="M77.908,385.145a38.838,38.838,0,0,0-27.174,0,38.81,38.81,0,0,1-27.174,0,39.665,39.665,0,0,0-13.588-2.454,39.658,39.658,0,0,0-13.588,2.454v.959a39.632,39.632,0,0,1,13.588-2.456A39.64,39.64,0,0,1,23.56,386.1a38.839,38.839,0,0,0,27.174,0,38.811,38.811,0,0,1,27.174,0Z" transform="translate(3.615 -377.724)" fill="#fff"/>
        <path id="Path_177" data-name="Path 177" d="M48.934,395.5A39.779,39.779,0,0,1,36.8,397.552a38.909,38.909,0,0,1-12.117-2.017v18.728a40.949,40.949,0,0,0,12.128,1.986,40.116,40.116,0,0,0,12.122-1.982Z" transform="translate(3.955 -377.959)" fill="#ff310c"/>
        <path id="Path_178" data-name="Path 178" d="M41.671,409.533a19.78,19.78,0,0,1-1,2.757,17.8,17.8,0,0,1-3.324.452c-4.752,0-6.734-3-6.734-5.757,0-3.555,2.822-6.035,7.09-6.035a14.394,14.394,0,0,1,3.255.468c.161.956.285,1.753.411,2.846l-.661.118a3.262,3.262,0,0,0-3.344-2.666c-2.59,0-4.019,2.374-4.019,4.924,0,3.191,1.769,5.286,4.2,5.286,1.482,0,2.589-.92,3.5-2.667Z" transform="translate(4.027 -378.059)" fill="#fff"/>
      </g>
      <path id="Path_179" data-name="Path 179" d="M111.233,387.853a6.87,6.87,0,0,0-1.738-1.836,7.854,7.854,0,0,0-2.258-1.13,8.584,8.584,0,0,0-2.588-.387,9.167,9.167,0,0,0-4.238.91,8.352,8.352,0,0,0-2.9,2.409,10.262,10.262,0,0,0-1.668,3.387,14.158,14.158,0,0,0,0,7.734,10.237,10.237,0,0,0,1.668,3.4,8.352,8.352,0,0,0,2.9,2.409,9.179,9.179,0,0,0,4.238.91,7.762,7.762,0,0,0,3.127-.606,7.454,7.454,0,0,0,2.4-1.654,8.465,8.465,0,0,0,1.632-2.442,9.978,9.978,0,0,0,.8-3.017h2.363a12.692,12.692,0,0,1-1.078,4.011,9.856,9.856,0,0,1-2.154,3.034,9.168,9.168,0,0,1-3.109,1.919,11.209,11.209,0,0,1-3.978.673,12.016,12.016,0,0,1-5.125-1.028,10.6,10.6,0,0,1-3.665-2.745,11.6,11.6,0,0,1-2.189-3.977,15.837,15.837,0,0,1,0-9.5,11.766,11.766,0,0,1,2.189-3.993,10.5,10.5,0,0,1,3.665-2.763,12.767,12.767,0,0,1,8.582-.521,10.136,10.136,0,0,1,3.057,1.5,8.856,8.856,0,0,1,2.292,2.442,8.058,8.058,0,0,1,1.164,3.337h-2.363a7.565,7.565,0,0,0-1.024-2.478" transform="translate(4.777 -377.721)" fill="#fff"/>
      <rect id="Rectangle_18" data-name="Rectangle 18" width="2.189" height="24.06" transform="translate(121.448 5.331)" fill="#fff"/>
      <path id="Path_180" data-name="Path 180" d="M121.8,392.545a4.97,4.97,0,0,1,1.512-1.821,6.52,6.52,0,0,1,2.24-1.044,11.208,11.208,0,0,1,2.848-.336,12.933,12.933,0,0,1,2.363.219,5.845,5.845,0,0,1,2.12.826,4.577,4.577,0,0,1,1.527,1.7,5.984,5.984,0,0,1,.592,2.847v9.234a1.133,1.133,0,0,0,1.285,1.28,1.731,1.731,0,0,0,.694-.133V407.1c-.256.045-.481.08-.677.1a6.751,6.751,0,0,1-.746.034,3.431,3.431,0,0,1-1.34-.219,1.763,1.763,0,0,1-.779-.623,2.27,2.27,0,0,1-.366-.959,7.959,7.959,0,0,1-.086-1.231h-.072a14.3,14.3,0,0,1-1.2,1.5,5.822,5.822,0,0,1-1.357,1.1,6.329,6.329,0,0,1-1.7.675,9.6,9.6,0,0,1-2.274.234,9.207,9.207,0,0,1-2.345-.286,5.292,5.292,0,0,1-1.912-.911,4.336,4.336,0,0,1-1.285-1.583,5.138,5.138,0,0,1-.47-2.273,4.387,4.387,0,0,1,.836-2.848,5.227,5.227,0,0,1,2.205-1.566,12.879,12.879,0,0,1,3.092-.759q1.72-.218,3.493-.421c.464-.046.868-.1,1.213-.169a2.128,2.128,0,0,0,.869-.353,1.679,1.679,0,0,0,.54-.691,2.929,2.929,0,0,0,.19-1.145,3.784,3.784,0,0,0-.365-1.771,2.839,2.839,0,0,0-1.008-1.095,4.117,4.117,0,0,0-1.493-.556,10.316,10.316,0,0,0-1.825-.153,5.642,5.642,0,0,0-3.4.961,3.717,3.717,0,0,0-1.391,3.084h-2.187a6.86,6.86,0,0,1,.66-2.629m10.943,5.189a1.253,1.253,0,0,1-.8.539,8.2,8.2,0,0,1-1.042.238q-1.391.234-2.866.421a16.015,16.015,0,0,0-2.691.556,5.313,5.313,0,0,0-2,1.06,2.494,2.494,0,0,0-.781,1.972,3,3,0,0,0,.33,1.431,3.494,3.494,0,0,0,.887,1.079,3.9,3.9,0,0,0,1.285.692,4.806,4.806,0,0,0,1.495.233,7.776,7.776,0,0,0,2.4-.369,5.932,5.932,0,0,0,2-1.079,5.247,5.247,0,0,0,1.356-1.719,5.076,5.076,0,0,0,.5-2.291v-2.763Z" transform="translate(5.107 -377.846)" fill="#fff"/>
      <path id="Path_181" data-name="Path 181" d="M139.858,389.854v4.078h.07a6.706,6.706,0,0,1,2.59-3.269,6.922,6.922,0,0,1,4.185-1.044v2.121a6.813,6.813,0,0,0-2.709.389,6.129,6.129,0,0,0-2.1,1.3,5.809,5.809,0,0,0-1.369,2.005,6.5,6.5,0,0,0-.489,2.545v9.266h-2.187V389.854Z" transform="translate(5.317 -377.851)" fill="#fff"/>
      <path id="Path_182" data-name="Path 182" d="M150.227,383.062v15.095l9.937-8.423h2.916l-7.641,6.438,8.165,10.951h-2.746l-7.087-9.471-3.544,2.865v6.606h-2.189v-24.06Z" transform="translate(5.44 -377.731)" fill="#fff"/>
      <path id="Path_183" data-name="Path 183" d="M173.851,393.235a3.488,3.488,0,0,0-1.026-1.2,4.316,4.316,0,0,0-1.478-.691,6.955,6.955,0,0,0-1.768-.219,7.394,7.394,0,0,0-1.478.152,4.577,4.577,0,0,0-1.372.506,2.913,2.913,0,0,0-1.008.926,2.492,2.492,0,0,0-.385,1.417,1.936,1.936,0,0,0,.368,1.2,3.186,3.186,0,0,0,.919.826,5.916,5.916,0,0,0,1.217.558q.659.218,1.214.352l2.92.64a8.674,8.674,0,0,1,1.857.488,6.107,6.107,0,0,1,1.633.928,4.578,4.578,0,0,1,1.163,1.416,4.154,4.154,0,0,1,.452,1.988,4.258,4.258,0,0,1-.659,2.408,5.306,5.306,0,0,1-1.686,1.618,7.281,7.281,0,0,1-2.31.894,12.545,12.545,0,0,1-2.536.268,8.412,8.412,0,0,1-5.125-1.449,6.09,6.09,0,0,1-2.24-4.65h2.189a4.137,4.137,0,0,0,1.615,3.251,5.975,5.975,0,0,0,3.665,1.095,8.435,8.435,0,0,0,1.649-.166,5.4,5.4,0,0,0,1.582-.573,3.722,3.722,0,0,0,1.2-1.028,2.474,2.474,0,0,0,.47-1.533,2.4,2.4,0,0,0-.33-1.3,2.867,2.867,0,0,0-.886-.877,5.753,5.753,0,0,0-1.267-.589q-.715-.237-1.442-.4l-2.813-.607a16.2,16.2,0,0,1-1.982-.624,6.31,6.31,0,0,1-1.58-.876,3.657,3.657,0,0,1-1.059-1.281,4.6,4.6,0,0,1,.223-4.128,4.683,4.683,0,0,1,1.58-1.516,7.551,7.551,0,0,1,2.172-.842,10.841,10.841,0,0,1,2.381-.27,9.043,9.043,0,0,1,2.52.337,5.868,5.868,0,0,1,2.048,1.044,5.173,5.173,0,0,1,1.407,1.753,6.161,6.161,0,0,1,.592,2.459h-2.189a3.919,3.919,0,0,0-.417-1.7" transform="translate(5.614 -377.846)" fill="#fff"/>
      <path id="Path_184" data-name="Path 184" d="M189.771,390.084a7.876,7.876,0,0,1,2.657,1.989,8.5,8.5,0,0,1,1.632,2.915,11.675,11.675,0,0,1,0,7.111,8.518,8.518,0,0,1-1.632,2.916,7.677,7.677,0,0,1-2.657,1.97,9.481,9.481,0,0,1-7.26,0,7.685,7.685,0,0,1-2.659-1.97,8.518,8.518,0,0,1-1.632-2.916,11.654,11.654,0,0,1,0-7.111,8.5,8.5,0,0,1,1.632-2.915,7.884,7.884,0,0,1,2.659-1.989,9.273,9.273,0,0,1,7.26,0M183.4,391.77a5.952,5.952,0,0,0-1.962,1.686,7.509,7.509,0,0,0-1.182,2.374,9.409,9.409,0,0,0,0,5.427,7.507,7.507,0,0,0,1.182,2.376,5.946,5.946,0,0,0,1.962,1.686,6.218,6.218,0,0,0,5.487,0,6,6,0,0,0,1.966-1.686,7.584,7.584,0,0,0,1.178-2.376,9.408,9.408,0,0,0,0-5.427,7.586,7.586,0,0,0-1.178-2.374,6.006,6.006,0,0,0-1.966-1.686,6.2,6.2,0,0,0-5.487,0" transform="translate(5.796 -377.846)" fill="#fff"/>
      <path id="Path_185" data-name="Path 185" d="M198.424,389.85v3h.07a5.135,5.135,0,0,1,2.222-2.543,6.688,6.688,0,0,1,3.509-.96,9.129,9.129,0,0,1,3.145.471,5.01,5.01,0,0,1,2.032,1.331,4.944,4.944,0,0,1,1.078,2.106,11.576,11.576,0,0,1,.312,2.8v11.189H208.6V396.386a9.725,9.725,0,0,0-.209-2.072,4.323,4.323,0,0,0-.729-1.668,3.537,3.537,0,0,0-1.408-1.112,5.3,5.3,0,0,0-2.206-.4,5.709,5.709,0,0,0-2.346.457,5.036,5.036,0,0,0-1.738,1.247,5.691,5.691,0,0,0-1.109,1.885,7.481,7.481,0,0,0-.434,2.377v10.143h-2.189V389.85Z" transform="translate(6.019 -377.846)" fill="#fff"/>
      <path id="Path_186" data-name="Path 186" d="M223.558,393.235a3.5,3.5,0,0,0-1.025-1.2,4.351,4.351,0,0,0-1.476-.691,7,7,0,0,0-1.773-.219,7.432,7.432,0,0,0-1.478.152,4.584,4.584,0,0,0-1.37.506,2.913,2.913,0,0,0-1.008.926,2.507,2.507,0,0,0-.383,1.417,1.941,1.941,0,0,0,.365,1.2,3.211,3.211,0,0,0,.919.826,6.016,6.016,0,0,0,1.217.558q.66.218,1.215.352l2.919.64a8.645,8.645,0,0,1,1.857.488,6.142,6.142,0,0,1,1.636.928,4.639,4.639,0,0,1,1.164,1.416,4.188,4.188,0,0,1,.449,1.988,4.266,4.266,0,0,1-.659,2.408,5.317,5.317,0,0,1-1.686,1.618,7.253,7.253,0,0,1-2.31.894,12.525,12.525,0,0,1-2.534.268,8.41,8.41,0,0,1-5.127-1.449,6.1,6.1,0,0,1-2.241-4.65h2.191a4.13,4.13,0,0,0,1.614,3.251,5.971,5.971,0,0,0,3.665,1.095,8.484,8.484,0,0,0,1.651-.166,5.49,5.49,0,0,0,1.582-.573,3.774,3.774,0,0,0,1.2-1.028,2.487,2.487,0,0,0,.47-1.533,2.4,2.4,0,0,0-.332-1.3,2.834,2.834,0,0,0-.885-.877,5.676,5.676,0,0,0-1.268-.589q-.71-.237-1.443-.4l-2.811-.607a16.253,16.253,0,0,1-1.982-.624,6.346,6.346,0,0,1-1.58-.876,3.684,3.684,0,0,1-1.061-1.281,4.614,4.614,0,0,1,.225-4.128,4.7,4.7,0,0,1,1.582-1.516,7.483,7.483,0,0,1,2.172-.842,10.8,10.8,0,0,1,2.381-.27,9.015,9.015,0,0,1,2.517.337,5.909,5.909,0,0,1,2.051,1.044,5.182,5.182,0,0,1,1.406,1.753,6.162,6.162,0,0,1,.591,2.459h-2.191a3.946,3.946,0,0,0-.415-1.7" transform="translate(6.212 -377.846)" fill="#fff"/>
      <path id="Path_187" data-name="Path 187" d="M102.56,414.172a5.932,5.932,0,0,1,1.938.3,4.143,4.143,0,0,1,1.5.863,3.825,3.825,0,0,1,.959,1.4,5.351,5.351,0,0,1,0,3.727,3.827,3.827,0,0,1-.959,1.4,4.114,4.114,0,0,1-1.5.863,5.983,5.983,0,0,1-1.938.3H97v6.621H95.48V414.172Zm-.337,7.581a3.98,3.98,0,0,0,2.566-.778,3.373,3.373,0,0,0,0-4.764,3.992,3.992,0,0,0-2.566-.782H97v6.325Z" transform="translate(4.807 -378.302)" fill="#fff"/>
      <path id="Path_188" data-name="Path 188" d="M114.687,418.692a5.04,5.04,0,0,1,1.708,1.271,5.715,5.715,0,0,1,1.054,1.877,7.6,7.6,0,0,1,0,4.573,5.618,5.618,0,0,1-1.054,1.869,4.859,4.859,0,0,1-1.708,1.267,6.041,6.041,0,0,1-4.669,0,4.951,4.951,0,0,1-1.71-1.267,5.5,5.5,0,0,1-1.045-1.869,7.434,7.434,0,0,1,0-4.573,5.59,5.59,0,0,1,1.045-1.877,5.138,5.138,0,0,1,1.71-1.271,5.9,5.9,0,0,1,4.669,0m-4.1,1.08a3.816,3.816,0,0,0-1.264,1.084,4.834,4.834,0,0,0-.758,1.522,5.993,5.993,0,0,0,0,3.493,4.933,4.933,0,0,0,.758,1.528,3.87,3.87,0,0,0,1.264,1.083,3.99,3.99,0,0,0,3.525,0,3.842,3.842,0,0,0,1.262-1.083,4.894,4.894,0,0,0,.76-1.528,6.038,6.038,0,0,0,0-3.493,4.8,4.8,0,0,0-.76-1.522,3.789,3.789,0,0,0-1.262-1.084,3.957,3.957,0,0,0-3.525,0" transform="translate(4.945 -378.376)" fill="#fff"/>
      <path id="Path_189" data-name="Path 189" d="M119.987,418.537v2.621h.044a4.315,4.315,0,0,1,1.666-2.1,4.446,4.446,0,0,1,2.689-.673v1.366a4.355,4.355,0,0,0-1.743.248,3.888,3.888,0,0,0-1.346.835,3.6,3.6,0,0,0-.882,1.288,4.121,4.121,0,0,0-.314,1.634v5.955H118.7V418.537Z" transform="translate(5.087 -378.379)" fill="#fff"/>
      <path id="Path_190" data-name="Path 190" d="M130.6,418.477v1.149h-2.346v7.54a2.325,2.325,0,0,0,.192,1.049c.123.254.442.4.948.424a11.386,11.386,0,0,0,1.205-.065v1.146c-.213,0-.421.007-.629.021s-.416.021-.621.021a2.824,2.824,0,0,1-1.964-.527,2.585,2.585,0,0,1-.537-1.957v-7.651H124.84v-1.149h2.013v-3.353h1.406v3.353Z" transform="translate(5.16 -378.319)" fill="#fff"/>
      <path id="Path_191" data-name="Path 191" d="M151.392,424.508c.024,2,1.1,4.41,3.805,4.41a3.5,3.5,0,0,0,3.629-2.866h1.408a4.68,4.68,0,0,1-5.037,4.017c-3.673,0-5.216-2.737-5.216-5.928,0-2.953,1.543-5.928,5.216-5.928,3.718,0,5.2,3.148,5.083,6.3Zm7.477-1.151c-.066-2.063-1.388-3.994-3.672-3.994-2.3,0-3.58,1.953-3.805,3.994Z" transform="translate(5.463 -378.376)" fill="#fff"/>
      <path id="Path_192" data-name="Path 192" d="M161.437,418.541h1.3v2.627h.043a4.273,4.273,0,0,1,4.366-2.779v1.366a3.929,3.929,0,0,0-4.3,4.02v5.971h-1.408Z" transform="translate(5.601 -378.379)" fill="#fff"/>
      <path id="Path_193" data-name="Path 193" d="M167.051,418.544h1.567l3.63,9.837h.043l3.583-9.837h1.454l-4.319,11.206h-1.5Z" transform="translate(5.668 -378.382)" fill="#fff"/>
      <path id="Path_194" data-name="Path 194" d="M178.043,414.164h1.412v2.193h-1.412Zm0,4.3h1.412v11.205h-1.412Z" transform="translate(5.801 -378.301)" fill="#fff"/>
      <path id="Path_195" data-name="Path 195" d="M189.517,422.055a3.114,3.114,0,0,0-3.269-2.692c-2.711,0-4.052,2.388-4.052,4.778s1.341,4.777,4.052,4.777a3.4,3.4,0,0,0,3.358-3.191h1.412a4.65,4.65,0,0,1-4.77,4.343c-3.537,0-5.464-2.714-5.464-5.928s1.927-5.928,5.464-5.928c2.462,0,4.366,1.281,4.677,3.842Z" transform="translate(5.834 -378.376)" fill="#fff"/>
      <path id="Path_196" data-name="Path 196" d="M193.073,424.508c.024,2,1.1,4.41,3.809,4.41a3.49,3.49,0,0,0,3.625-2.866h1.412a4.683,4.683,0,0,1-5.037,4.017c-3.673,0-5.216-2.737-5.216-5.928,0-2.953,1.543-5.928,5.216-5.928,3.714,0,5.192,3.148,5.079,6.3Zm7.481-1.151c-.07-2.063-1.388-3.994-3.672-3.994-2.308,0-3.584,1.953-3.809,3.994Z" transform="translate(5.964 -378.376)" fill="#fff"/>
      <path id="Path_197" data-name="Path 197" d="M210,421.816c-.07-1.693-1.412-2.453-3.025-2.453-1.252,0-2.729.478-2.729,1.933,0,1.215,1.431,1.65,2.4,1.89l1.88.411c1.609.24,3.289,1.152,3.289,3.106,0,2.433-2.487,3.366-4.635,3.366-2.687,0-4.521-1.215-4.745-3.952h1.412c.111,1.846,1.523,2.8,3.4,2.8,1.319,0,3.156-.564,3.156-2.127,0-1.3-1.256-1.737-2.532-2.041l-1.811-.393c-1.838-.476-3.226-1.085-3.226-3,0-2.281,2.307-3.148,4.343-3.148,2.308,0,4.142,1.171,4.231,3.6Z" transform="translate(6.094 -378.376)" fill="#fff"/>
      <path id="Path_198" data-name="Path 198" d="M138.288,424.614c-.068,3.207,2.316,4.187,5.237,4.187,1.687,0,4.248-.894,4.248-3.162,0-1.766-1.821-2.464-3.3-2.811l-3.574-.85c-1.888-.459-3.62-1.331-3.62-3.752,0-1.525,1.012-4.382,5.53-4.382,3.171,0,5.957,1.657,5.936,4.841h-1.53c-.089-2.377-2.112-3.575-4.382-3.575-2.092,0-4.025.784-4.025,3.1,0,1.461,1.124,2.07,2.429,2.377l3.911.936c2.27.589,4.158,1.548,4.158,4.1,0,1.068-.449,4.448-6.137,4.448-3.8,0-6.586-1.657-6.407-5.452Z" transform="translate(5.304 -378.295)" fill="#fff"/>
    </g>
  </g>
</svg>
