<svg xmlns="http://www.w3.org/2000/svg" xmlns:xlink="http://www.w3.org/1999/xlink" width="457.081" height="420.849" viewBox="0 0 457.081 420.849">
  <defs>
    <clipPath id="clip-path">
      <path id="Path_8131" data-name="Path 8131" d="M2160.941,664.614a81.641,81.641,0,1,1,81.642,81.641,81.642,81.642,0,0,1-81.642-81.641Z" transform="translate(-2160.941 -582.972)" fill="none"/>
    </clipPath>
    <clipPath id="clip-path-2">
      <ellipse id="Ellipse_3886" data-name="Ellipse 3886" cx="69.45" cy="68.942" rx="69.45" ry="68.942" fill="none"/>
    </clipPath>
    <clipPath id="clip-path-3">
      <ellipse id="Ellipse_3887" data-name="Ellipse 3887" cx="53.408" cy="52.888" rx="53.408" ry="52.888" fill="none"/>
    </clipPath>
    <clipPath id="clip-path-4">
      <path id="Path_8190" data-name="Path 8190" d="M2649.24,243.8a54.765,54.765,0,1,0-54.765,54.765h0A54.765,54.765,0,0,0,2649.24,243.8Z" transform="translate(-2539.709 -189.035)" fill="none"/>
    </clipPath>
  </defs>
  <g id="Group_10091" data-name="Group 10091" transform="translate(-1891.873 -281.626)">
    <g id="Group_9877" data-name="Group 9877" transform="translate(1970.934 387.867)">
      <g id="Group_9884" data-name="Group 9884">
        <g id="Group_9843" data-name="Group 9843" transform="translate(51.295 152.023)">
          <g id="Path_6838" data-name="Path 6838">
            <path id="Path_8118" data-name="Path 8118" d="M2286.671,916.034l-17.018-9.89s11.59,30.539,24.265,43.536,11.611-22.686,11.611-22.686Z" transform="translate(-2269.653 -906.144)" fill="#f0b0ad"/>
          </g>
          <g id="Path_6839" data-name="Path 6839" transform="translate(15.449 20.757)">
            <path id="Path_8119" data-name="Path 8119" d="M2322.971,950.43s6.838,16.431,18.233,22.367c0,0-4.653,25.833-29.843.321S2322.971,950.43,2322.971,950.43Z" transform="translate(-2302.546 -950.338)" fill="#f0b0ad"/>
          </g>
          <g id="Path_6841" data-name="Path 6841" transform="translate(21.372 24.132)">
            <path id="Path_8120" data-name="Path 8120" d="M2335.3,957.535s-13.736-1.049-20.055,17.54c-1.066,3.144,7.4,9.414,9.211,11.04,5.7,5.128,11.748,9.828,17.718,14.634,36.565,29.435,76.75,53.4,122.82,64.29q3.426.807,6.872,1.522a176.484,176.484,0,0,0,31.989,3.778c9.784.206,21.345.545,30.3-3.977,18.652-9.418,13.2-35.091,1.014-47.532-9.334-9.53-23.943-12.488-36.706-13.726-15.056-1.459-29.973-2.375-44.748-5.809C2413.317,989.9,2371.524,978.229,2335.3,957.535Z" transform="translate(-2315.155 -957.524)" fill="#ffca00"/>
          </g>
        </g>
        <g id="Group_9880" data-name="Group 9880" transform="translate(188.352 186.057)">
          <g id="Path_6860" data-name="Path 6860">
            <path id="Path_8121" data-name="Path 8121" d="M2719.385,1089.213c-34.03-88.83-97.826-110.608-97.826-110.608h0a146.537,146.537,0,0,0-58.15,101.023l-1.949,23.3C2601.037,1110.3,2653.15,1108.285,2719.385,1089.213Z" transform="translate(-2561.46 -978.605)" fill="#ffca00"/>
          </g>
        </g>
        <g id="Group_9883" data-name="Group 9883">
          <g id="Group_9882" data-name="Group 9882">
            <g id="Group_10092" data-name="Group 10092">
              <g id="Group_10767" data-name="Group 10767" transform="translate(0.235 0.234)">
                <g id="Group_10766" data-name="Group 10766" clip-path="url(#clip-path)">
                  <g id="Group_10091-2" data-name="Group 10091-2" transform="translate(0.821 16.565)">
                    <g id="Group_9881" data-name="Group 9881">
                      <g id="Group_9932" data-name="Group 9932" transform="translate(26.34)">
                        <g id="Group_9919" data-name="Group 9919">
                          <g id="Group_9918" data-name="Group 9918">
                            <g id="Line_28" data-name="Line 28" transform="translate(31.106)">
                              <rect id="Rectangle_2331" data-name="Rectangle 2331" width="0.939" height="27.806" fill="#439489"/>
                            </g>
                            <g id="Line_29" data-name="Line 29" transform="translate(18.71 18.556)">
                              <rect id="Rectangle_2332" data-name="Rectangle 2332" width="0.939" height="9.25" fill="#439489"/>
                            </g>
                            <g id="Group_9917" data-name="Group 9917" transform="translate(50.232 13.876)">
                              <g id="Line_30" data-name="Line 30" transform="translate(2.941 0.196)">
                                <rect id="Rectangle_2333" data-name="Rectangle 2333" width="0.939" height="13.734" fill="#439489"/>
                              </g>
                              <g id="Line_31" data-name="Line 31">
                                <rect id="Rectangle_2334" data-name="Rectangle 2334" width="6.82" height="0.939" fill="#439489"/>
                              </g>
                            </g>
                            <g id="Group_9910" data-name="Group 9910" transform="translate(4.24 44.529)">
                              <g id="Path_6894" data-name="Path 6894">
                                <path id="Path_8122" data-name="Path 8122" d="M2239.218,713.047H2227.8v6.329l4.515,4.515h8.374Z" transform="translate(-2227.796 -713.047)" fill="#219788"/>
                              </g>
                              <g id="Path_6895" data-name="Path 6895" transform="translate(0 3.781)">
                                <path id="Path_8123" data-name="Path 8123" d="M2239.729,721.1l.955,7.061h-8.374l-4.515-4.515V721.1Z" transform="translate(-2227.796 -721.098)" fill="#219788"/>
                              </g>
                            </g>
                            <g id="Group_9916" data-name="Group 9916" transform="translate(0 12.178)">
                              <g id="Path_6896" data-name="Path 6896" transform="translate(76.25 30.712)">
                                <path id="Path_8124" data-name="Path 8124" d="M2392.355,709.557v19.261h-.579v-12.8h-4.754v12.8h-.58v-12.8h-4.752v12.8h-.579V709.557Z" transform="translate(-2381.112 -709.557)" fill="#219788"/>
                              </g>
                              <g id="Group_9911" data-name="Group 9911" transform="translate(11.874 11.685)">
                                <g id="Path_6897" data-name="Path 6897">
                                  <path id="Path_8125" data-name="Path 8125" d="M2244.432,669.048h12.56v11.763h5.461V669.048h30.879l-2.26,9.737V704.4l-23.367-1v6.3h-15.649v-6.3h-5.08v-30.67l-2.824-3.029a.384.384,0,0,1,.282-.645Z" transform="translate(-2244.049 -669.048)" fill="#a8d7d6"/>
                                </g>
                                <g id="Path_6898" data-name="Path 6898" transform="translate(10.689 24.864)">
                                  <path id="Path_8126" data-name="Path 8126" d="M2303.083,731.845h2.317V727.1l-5.111-5.111h-33.484V724.3h32.523l3.755,3.754Z" transform="translate(-2266.806 -721.985)" fill="#fbfbfb"/>
                                </g>
                              </g>
                              <g id="Group_9912" data-name="Group 9912" transform="translate(56.572 46.404)">
                                <g id="Rectangle_1852" data-name="Rectangle 1852" transform="translate(4.479 10.191)">
                                  <rect id="Rectangle_2335" data-name="Rectangle 2335" width="274.917" height="7.412" fill="#a8d7d6"/>
                                </g>
                                <g id="Rectangle_1853" data-name="Rectangle 1853" transform="translate(257.365 4.021)">
                                  <rect id="Rectangle_2336" data-name="Rectangle 2336" width="1.891" height="12.338" fill="#49b0a7"/>
                                </g>
                                <g id="Rectangle_1854" data-name="Rectangle 1854" transform="translate(250.912 4.021)">
                                  <rect id="Rectangle_2337" data-name="Rectangle 2337" width="1.891" height="12.338" fill="#49b0a7"/>
                                </g>
                                <g id="Rectangle_1855" data-name="Rectangle 1855" transform="translate(244.46 4.021)">
                                  <rect id="Rectangle_2338" data-name="Rectangle 2338" width="1.891" height="12.338" fill="#49b0a7"/>
                                </g>
                                <g id="Rectangle_1856" data-name="Rectangle 1856" transform="translate(238.007 4.021)">
                                  <rect id="Rectangle_2339" data-name="Rectangle 2339" width="1.891" height="12.338" fill="#49b0a7"/>
                                </g>
                                <g id="Rectangle_1857" data-name="Rectangle 1857" transform="translate(231.555 4.021)">
                                  <rect id="Rectangle_2340" data-name="Rectangle 2340" width="1.891" height="12.338" fill="#49b0a7"/>
                                </g>
                                <g id="Rectangle_1858" data-name="Rectangle 1858" transform="translate(225.103 4.021)">
                                  <rect id="Rectangle_2341" data-name="Rectangle 2341" width="1.891" height="12.338" fill="#49b0a7"/>
                                </g>
                                <g id="Rectangle_1859" data-name="Rectangle 1859" transform="translate(218.651 4.021)">
                                  <rect id="Rectangle_2342" data-name="Rectangle 2342" width="1.891" height="12.338" fill="#49b0a7"/>
                                </g>
                                <g id="Rectangle_1860" data-name="Rectangle 1860" transform="translate(212.198 4.021)">
                                  <rect id="Rectangle_2343" data-name="Rectangle 2343" width="1.891" height="12.338" fill="#49b0a7"/>
                                </g>
                                <g id="Rectangle_1861" data-name="Rectangle 1861" transform="translate(205.746 4.021)">
                                  <rect id="Rectangle_2344" data-name="Rectangle 2344" width="1.891" height="12.338" fill="#49b0a7"/>
                                </g>
                                <g id="Rectangle_1862" data-name="Rectangle 1862" transform="translate(199.294 4.021)">
                                  <rect id="Rectangle_2345" data-name="Rectangle 2345" width="1.891" height="12.338" fill="#49b0a7"/>
                                </g>
                                <g id="Rectangle_1863" data-name="Rectangle 1863" transform="translate(192.841 4.021)">
                                  <rect id="Rectangle_2346" data-name="Rectangle 2346" width="1.891" height="12.338" fill="#49b0a7"/>
                                </g>
                                <g id="Rectangle_1864" data-name="Rectangle 1864" transform="translate(186.389 4.021)">
                                  <rect id="Rectangle_2347" data-name="Rectangle 2347" width="1.891" height="12.338" fill="#49b0a7"/>
                                </g>
                                <g id="Rectangle_1865" data-name="Rectangle 1865" transform="translate(179.937 4.021)">
                                  <rect id="Rectangle_2348" data-name="Rectangle 2348" width="1.891" height="12.338" fill="#49b0a7"/>
                                </g>
                                <g id="Rectangle_1866" data-name="Rectangle 1866" transform="translate(173.484 4.021)">
                                  <rect id="Rectangle_2349" data-name="Rectangle 2349" width="1.891" height="12.338" fill="#49b0a7"/>
                                </g>
                                <g id="Rectangle_1867" data-name="Rectangle 1867" transform="translate(167.032 4.021)">
                                  <rect id="Rectangle_2350" data-name="Rectangle 2350" width="1.891" height="12.338" fill="#49b0a7"/>
                                </g>
                                <g id="Rectangle_1868" data-name="Rectangle 1868" transform="translate(160.58 4.021)">
                                  <rect id="Rectangle_2351" data-name="Rectangle 2351" width="1.891" height="12.338" fill="#49b0a7"/>
                                </g>
                                <g id="Rectangle_1869" data-name="Rectangle 1869" transform="translate(154.127 4.021)">
                                  <rect id="Rectangle_2352" data-name="Rectangle 2352" width="1.891" height="12.338" fill="#49b0a7"/>
                                </g>
                                <g id="Rectangle_1870" data-name="Rectangle 1870" transform="translate(147.675 4.021)">
                                  <rect id="Rectangle_2353" data-name="Rectangle 2353" width="1.891" height="12.338" fill="#49b0a7"/>
                                </g>
                                <g id="Rectangle_1871" data-name="Rectangle 1871" transform="translate(141.222 4.021)">
                                  <rect id="Rectangle_2354" data-name="Rectangle 2354" width="1.891" height="12.338" fill="#49b0a7"/>
                                </g>
                                <g id="Rectangle_1872" data-name="Rectangle 1872" transform="translate(134.77 4.021)">
                                  <rect id="Rectangle_2355" data-name="Rectangle 2355" width="1.891" height="12.338" fill="#49b0a7"/>
                                </g>
                                <g id="Rectangle_1873" data-name="Rectangle 1873" transform="translate(128.318 4.021)">
                                  <rect id="Rectangle_2356" data-name="Rectangle 2356" width="1.891" height="12.338" fill="#49b0a7"/>
                                </g>
                                <g id="Rectangle_1874" data-name="Rectangle 1874" transform="translate(121.866 4.021)">
                                  <rect id="Rectangle_2357" data-name="Rectangle 2357" width="1.891" height="12.338" fill="#49b0a7"/>
                                </g>
                                <g id="Rectangle_1875" data-name="Rectangle 1875" transform="translate(115.413 4.021)">
                                  <rect id="Rectangle_2358" data-name="Rectangle 2358" width="1.891" height="12.338" fill="#49b0a7"/>
                                </g>
                                <g id="Rectangle_1876" data-name="Rectangle 1876" transform="translate(108.961 4.021)">
                                  <rect id="Rectangle_2359" data-name="Rectangle 2359" width="1.891" height="12.338" fill="#49b0a7"/>
                                </g>
                                <g id="Rectangle_1877" data-name="Rectangle 1877" transform="translate(102.509 4.021)">
                                  <rect id="Rectangle_2360" data-name="Rectangle 2360" width="1.891" height="12.338" fill="#49b0a7"/>
                                </g>
                                <g id="Rectangle_1878" data-name="Rectangle 1878" transform="translate(96.056 4.021)">
                                  <rect id="Rectangle_2361" data-name="Rectangle 2361" width="1.891" height="12.338" fill="#49b0a7"/>
                                </g>
                                <g id="Rectangle_1879" data-name="Rectangle 1879" transform="translate(89.604 4.021)">
                                  <rect id="Rectangle_2362" data-name="Rectangle 2362" width="1.891" height="12.338" fill="#49b0a7"/>
                                </g>
                                <g id="Rectangle_1880" data-name="Rectangle 1880" transform="translate(83.152 4.021)">
                                  <rect id="Rectangle_2363" data-name="Rectangle 2363" width="1.891" height="12.338" fill="#49b0a7"/>
                                </g>
                                <g id="Rectangle_1881" data-name="Rectangle 1881" transform="translate(76.699 4.021)">
                                  <rect id="Rectangle_2364" data-name="Rectangle 2364" width="1.891" height="12.338" fill="#49b0a7"/>
                                </g>
                                <g id="Rectangle_1882" data-name="Rectangle 1882" transform="translate(70.247 4.021)">
                                  <rect id="Rectangle_2365" data-name="Rectangle 2365" width="1.891" height="12.338" fill="#49b0a7"/>
                                </g>
                                <g id="Rectangle_1883" data-name="Rectangle 1883" transform="translate(63.795 4.021)">
                                  <rect id="Rectangle_2366" data-name="Rectangle 2366" width="1.891" height="12.338" fill="#49b0a7"/>
                                </g>
                                <g id="Rectangle_1884" data-name="Rectangle 1884" transform="translate(57.342 4.021)">
                                  <rect id="Rectangle_2367" data-name="Rectangle 2367" width="1.891" height="12.338" fill="#49b0a7"/>
                                </g>
                                <g id="Rectangle_1885" data-name="Rectangle 1885" transform="translate(50.89 4.021)">
                                  <rect id="Rectangle_2368" data-name="Rectangle 2368" width="1.891" height="12.338" fill="#49b0a7"/>
                                </g>
                                <g id="Rectangle_1886" data-name="Rectangle 1886" transform="translate(44.437 4.021)">
                                  <rect id="Rectangle_2369" data-name="Rectangle 2369" width="1.891" height="12.338" fill="#fff"/>
                                </g>
                                <g id="Rectangle_1887" data-name="Rectangle 1887" transform="translate(37.985 4.021)">
                                  <rect id="Rectangle_2370" data-name="Rectangle 2370" width="1.891" height="12.338" fill="#fff"/>
                                </g>
                                <g id="Rectangle_1888" data-name="Rectangle 1888" transform="translate(31.533 4.021)">
                                  <rect id="Rectangle_2371" data-name="Rectangle 2371" width="1.891" height="12.338" fill="#fff"/>
                                </g>
                                <g id="Rectangle_1889" data-name="Rectangle 1889" transform="translate(25.08 4.021)">
                                  <rect id="Rectangle_2372" data-name="Rectangle 2372" width="1.891" height="12.338" fill="#fff"/>
                                </g>
                                <g id="Rectangle_1890" data-name="Rectangle 1890" transform="translate(18.628 4.021)">
                                  <rect id="Rectangle_2373" data-name="Rectangle 2373" width="1.891" height="12.338" fill="#fff"/>
                                </g>
                                <g id="Rectangle_1891" data-name="Rectangle 1891" transform="translate(12.863 9.54)">
                                  <rect id="Rectangle_2374" data-name="Rectangle 2374" width="250.791" height="1.159" fill="#49b0a7"/>
                                </g>
                                <g id="Rectangle_1892" data-name="Rectangle 1892" transform="translate(6.338 4.43)">
                                  <rect id="Rectangle_2375" data-name="Rectangle 2375" width="269.792" height="1.159" fill="#49b0a7"/>
                                </g>
                                <g id="Rectangle_1893" data-name="Rectangle 1893" transform="translate(0 2.592)">
                                  <rect id="Rectangle_2376" data-name="Rectangle 2376" width="282.468" height="1.837" fill="#a8d7d6"/>
                                </g>
                                <g id="Rectangle_1894" data-name="Rectangle 1894" transform="translate(12.863)">
                                  <rect id="Rectangle_2377" data-name="Rectangle 2377" width="250.791" height="1.159" fill="#219788"/>
                                </g>
                              </g>
                              <g id="Path_6899" data-name="Path 6899" transform="translate(0 34.908)">
                                <path id="Path_8127" data-name="Path 8127" d="M2621.605,728.361s-13.6,14.339-13.968,24.025H2218.769V729.666h61.273l16.389,16.389h226.1l10.185-4.459,30.229-13.234h15.644v-9.87l6.332,3.352v6.518Z" transform="translate(-2218.769 -718.491)" fill="#189788"/>
                              </g>
                              <g id="Group_9915" data-name="Group 9915" transform="translate(359.601)">
                                <g id="Group_9913" data-name="Group 9913" transform="translate(0 13.683)">
                                  <g id="Rectangle_1895" data-name="Rectangle 1895">
                                    <rect id="Rectangle_2378" data-name="Rectangle 2378" width="5.613" height="3.309" fill="#cf1013"/>
                                  </g>
                                  <g id="Rectangle_1896" data-name="Rectangle 1896" transform="translate(2.807)">
                                    <rect id="Rectangle_2379" data-name="Rectangle 2379" width="2.806" height="3.309" fill="#189788"/>
                                  </g>
                                </g>
                                <g id="Rectangle_1897" data-name="Rectangle 1897" transform="translate(5.411)">
                                  <rect id="Rectangle_2380" data-name="Rectangle 2380" width="0.579" height="40.495" fill="#fff"/>
                                </g>
                                <g id="Path_6900" data-name="Path 6900" transform="translate(5.613 3.716)">
                                  <path id="Path_8128" data-name="Path 8128" d="M2996.425,682.571h3.058V652.082h-3.142v.58h2.562v29.33h-2.479Z" transform="translate(-2996.341 -652.082)" fill="#fff"/>
                                </g>
                                <g id="Group_9914" data-name="Group 9914" transform="translate(5.613 8.115)">
                                  <g id="Rectangle_1898" data-name="Rectangle 1898">
                                    <rect id="Rectangle_2381" data-name="Rectangle 2381" width="2.852" height="0.579" fill="#fff"/>
                                  </g>
                                  <g id="Rectangle_1899" data-name="Rectangle 1899" transform="translate(0 5.278)">
                                    <rect id="Rectangle_2382" data-name="Rectangle 2382" width="2.852" height="0.579" fill="#fff"/>
                                  </g>
                                  <g id="Rectangle_1900" data-name="Rectangle 1900" transform="translate(0 10.556)">
                                    <rect id="Rectangle_2383" data-name="Rectangle 2383" width="2.852" height="0.579" fill="#fff"/>
                                  </g>
                                  <g id="Rectangle_1901" data-name="Rectangle 1901" transform="translate(0 15.834)">
                                    <rect id="Rectangle_2384" data-name="Rectangle 2384" width="2.852" height="0.579" fill="#fff"/>
                                  </g>
                                  <g id="Rectangle_1902" data-name="Rectangle 1902" transform="translate(0 21.112)">
                                    <rect id="Rectangle_2385" data-name="Rectangle 2385" width="2.852" height="0.579" fill="#fff"/>
                                  </g>
                                </g>
                              </g>
                            </g>
                          </g>
                          <g id="Path_6901" data-name="Path 6901" transform="translate(0.007 80.696)">
                            <path id="Path_8129" data-name="Path 8129" d="M2607.646,790.061l-11.1,17.331H2232.391l-13.608-17.342Z" transform="translate(-2218.783 -790.051)" fill="#189788"/>
                          </g>
                        </g>
                        <g id="Group_9920" data-name="Group 9920" transform="translate(33.312 27.023)">
                          <g id="Rectangle_1903" data-name="Rectangle 1903" transform="translate(17)">
                            <rect id="Rectangle_2386" data-name="Rectangle 2386" width="5.463" height="5.463" fill="#fbfbfb"/>
                          </g>
                          <g id="Rectangle_1904" data-name="Rectangle 1904" transform="translate(8.5)">
                            <rect id="Rectangle_2387" data-name="Rectangle 2387" width="5.463" height="5.463" fill="#fbfbfb"/>
                          </g>
                          <g id="Rectangle_1905" data-name="Rectangle 1905">
                            <rect id="Rectangle_2388" data-name="Rectangle 2388" width="5.463" height="5.463" fill="#fbfbfb"/>
                          </g>
                        </g>
                      </g>
                      <g id="Path_6456" data-name="Path 6456" transform="translate(0 86.938)">
                        <path id="Path_8130" data-name="Path 8130" d="M2324.333,865.252V805.179a8.867,8.867,0,0,1-10.808,0,8.861,8.861,0,0,0-10.808,0,8.783,8.783,0,0,1-10.747,0,8.861,8.861,0,0,0-10.808,0,8.768,8.768,0,0,1-10.737,0,8.861,8.861,0,0,0-10.808,0,8.665,8.665,0,0,1-10.662,0,8.99,8.99,0,0,0-10.892,0,8.665,8.665,0,0,1-10.662,0,8.861,8.861,0,0,0-10.808,0,8.766,8.766,0,0,1-10.736,0,8.861,8.861,0,0,0-10.807,0,8.783,8.783,0,0,1-10.747,0,8.861,8.861,0,0,0-10.808,0,8.867,8.867,0,0,1-10.808,0v60.073Z" transform="translate(-2162.688 -803.341)" fill="#1daee9"/>
                      </g>
                    </g>
                  </g>
                </g>
              </g>
              <g id="Path_7029" data-name="Path 7029">
                <path id="Path_8132" data-name="Path 8132" d="M2242.489,746.225h-.172q-.62,0-1.24-.009l.007-.47q.616.008,1.234.009h.172Zm2.824-.054-.017-.47q.7-.025,1.4-.062l.024.469Q2246.02,746.145,2245.313,746.171Zm-7.06-.045q-.707-.035-1.411-.081l.031-.469q.7.047,1.4.081Zm11.29-.215-.04-.468q.7-.061,1.4-.134l.05.467Q2250.249,745.85,2249.543,745.911Zm-15.516-.1q-.7-.07-1.4-.154l.055-.466q.7.082,1.4.153Zm19.728-.377-.065-.465q.7-.1,1.389-.207l.074.464Q2254.455,745.334,2253.755,745.433Zm-23.931-.155q-.7-.107-1.4-.226l.08-.463q.692.119,1.386.225Zm28.111-.541-.089-.461q.69-.134,1.377-.279l.1.459Q2258.629,744.6,2257.934,744.738Zm-32.282-.21q-.693-.143-1.381-.3l.1-.458q.685.154,1.374.3Zm36.421-.7-.113-.456q.683-.168,1.36-.349l.121.454Q2262.76,743.656,2262.073,743.826Zm-40.548-.264q-.685-.179-1.364-.37l.126-.452q.676.19,1.356.368Zm44.634-.862-.137-.449q.673-.205,1.341-.42l.144.447Q2266.836,742.493,2266.159,742.7Zm-48.7-.317q-.677-.216-1.348-.443l.15-.445q.667.225,1.34.439Zm52.725-1.02-.16-.442q.66-.238,1.317-.489l.168.439Q2270.845,741.121,2270.18,741.363Zm-56.742-.376q-.663-.251-1.322-.511l.173-.437q.655.259,1.315.509Zm60.68-1.167-.183-.433q.645-.273,1.284-.555l.19.429Q2274.767,739.546,2274.119,739.82Zm-64.616-.436q-.65-.285-1.293-.58l.2-.426q.64.293,1.285.576Zm68.465-1.307-.2-.423q.631-.306,1.255-.621l.212.419Q2278.6,737.77,2277.968,738.077Zm-72.31-.5q-.634-.318-1.26-.646l.218-.416q.623.326,1.252.642Zm76.066-1.443-.227-.411q.614-.339,1.222-.686l.233.407Q2282.341,735.8,2281.724,736.136Zm-79.811-.558q-.615-.349-1.224-.71l.238-.4q.606.358,1.218.706ZM2285.375,734l-.246-.4q.6-.368,1.185-.748l.254.395Q2285.975,733.631,2285.375,734Zm-87.1-.618q-.6-.38-1.186-.772l.26-.392q.587.389,1.179.768Zm90.635-1.7-.268-.386q.577-.4,1.146-.809l.274.382Q2289.494,731.28,2288.914,731.682Zm-94.15-.673q-.575-.411-1.143-.833l.28-.377q.564.418,1.137.827Zm97.565-1.827-.287-.372q.556-.429,1.1-.868l.294.367Q2292.888,728.75,2292.329,729.182Zm-100.95-.728q-.553-.44-1.1-.89l.3-.363q.542.447,1.092.884Zm104.235-1.947-.306-.356q.532-.458,1.058-.924l.312.351Q2296.149,726.047,2295.613,726.507Zm-107.483-.777q-.53-.468-1.051-.945l.318-.347q.517.474,1.045.939Zm110.626-2.063-.324-.341q.509-.484,1.009-.977l.329.335Q2299.267,723.18,2298.756,723.667Zm-113.729-.824q-.5-.494-1-1l.334-.33q.494.5,1,.992Zm116.721-2.176-.342-.323q.483-.51.958-1.028l.346.318Q2302.234,720.154,2301.749,720.667Zm-119.671-.866q-.479-.519-.947-1.047l.35-.312q.467.523.943,1.041Zm122.507-2.284-.357-.3q.456-.535.9-1.077l.362.3Q2305.043,716.98,2304.584,717.517Zm-125.3-.9q-.45-.543-.892-1.094l.366-.294q.44.547.888,1.088Zm127.967-2.388-.373-.286q.428-.557.848-1.122l.377.28Q2307.686,713.664,2307.255,714.224Zm-130.586-.939q-.423-.564-.834-1.138l.381-.274q.409.57.829,1.131Zm133.085-2.489-.387-.267q.4-.578.789-1.164l.391.26Q2310.155,710.214,2309.754,710.8Zm-135.529-.966q-.391-.586-.774-1.178l.395-.255q.381.59.771,1.172Zm137.848-2.588-.4-.247q.369-.6.727-1.2l.4.24Q2312.444,706.641,2312.073,707.243Zm-140.11-.988q-.36-.605-.711-1.216l.407-.234q.349.608.708,1.21Zm142.242-2.682-.412-.226q.337-.617.665-1.24l.416.218Q2314.544,702.951,2314.2,703.573Zm-144.315-1q-.328-.622-.648-1.251l.419-.213q.316.625.644,1.244Zm146.254-2.773-.423-.2q.3-.634.6-1.275l.427.2Q2316.451,699.157,2316.144,699.8Zm-148.132-1.014q-.3-.638-.582-1.281l.429-.191q.283.641.578,1.275Zm149.874-2.861-.433-.182q.272-.649.532-1.3l.437.173Q2318.16,695.266,2317.886,695.92ZM2166.333,694.9q-.264-.655-.516-1.315l.438-.168q.252.657.513,1.308Zm153.09-2.948-.442-.158q.237-.663.463-1.332l.445.151Q2319.66,691.29,2319.423,691.957Zm-154.569-1.024q-.229-.668-.447-1.34l.447-.145q.216.669.445,1.333Zm155.9-3.015-.449-.135q.2-.672.392-1.349l.452.127Q2320.954,687.242,2320.751,687.918Zm-157.167-1.028q-.195-.678-.377-1.362l.454-.121q.181.679.374,1.354Zm158.279-3.062-.456-.111q.167-.681.322-1.368l.457.1Q2322.03,683.142,2321.863,683.828Zm-159.337-1.041q-.159-.688-.305-1.38l.46-.1q.146.688.3,1.372Zm160.234-3.1-.461-.088q.13-.689.25-1.382l.463.079Q2322.891,678.993,2322.76,679.686Zm-161.077-1.053q-.122-.695-.233-1.394l.464-.073q.109.695.231,1.386ZM2323.44,675.5l-.465-.064q.095-.695.178-1.393l.466.055Q2323.536,674.8,2323.44,675.5Zm-162.383-1.062q-.087-.7-.16-1.4l.467-.049q.074.7.159,1.4Zm162.847-3.151-.469-.039q.059-.7.106-1.4l.469.031Q2323.963,670.588,2323.9,671.291Zm-163.255-1.067q-.05-.7-.088-1.41l.469-.025q.038.7.088,1.4Zm163.5-3.163-.47-.016q.022-.7.034-1.4l.47.007Q2324.173,666.356,2324.15,667.061Zm-163.693-1.071q-.014-.705-.016-1.413h.47q0,.7.016,1.4Zm.453-1.641h-.469q0-.708.012-1.413l.469.008Q2160.911,663.645,2160.91,664.349Zm162.8-1.518q-.012-.7-.038-1.4l.47-.016q.025.7.038,1.409Zm-162.692-2.694-.469-.024q.036-.707.084-1.41l.469.032Q2161.053,659.435,2161.018,660.137Zm162.508-1.514q-.049-.7-.109-1.4l.468-.04q.06.7.11,1.409Zm-162.186-2.687-.467-.048q.073-.7.156-1.4l.466.056Q2161.413,655.235,2161.34,655.936Zm161.786-1.507q-.085-.7-.181-1.393l.465-.065q.1.7.182,1.4Zm-161.247-2.673-.465-.071q.108-.7.23-1.395l.462.081Q2161.986,651.063,2161.879,651.757Zm160.631-1.495q-.121-.693-.254-1.382l.461-.089q.133.693.255,1.39Zm-159.877-2.65-.459-.1q.144-.692.3-1.38l.458.1Q2162.777,646.924,2162.633,647.612Zm159.045-1.481q-.156-.686-.325-1.366l.456-.113q.169.686.327,1.375Zm-158.076-2.62-.454-.12q.181-.684.372-1.363l.452.128Q2163.781,642.83,2163.6,643.511Zm157.03-1.462q-.192-.676-.4-1.348l.449-.137q.205.676.4,1.356Zm-155.848-2.582-.448-.143q.217-.676.445-1.348l.445.152Q2165,638.794,2164.784,639.466Zm154.591-1.438q-.228-.667-.466-1.326l.442-.16q.24.664.468,1.333Zm-153.2-2.552-.439-.167q.252-.663.514-1.321l.437.173Q2166.431,634.817,2166.179,635.476Zm151.731-1.4q-.261-.65-.532-1.294l.433-.183q.272.648.535,1.3Zm-150.129-2.51-.43-.189q.286-.649.582-1.292l.427.2Q2168.065,630.922,2167.781,631.566Zm148.465-1.347q-.294-.636-.6-1.266l.424-.2q.305.633.6,1.273Zm-146.663-2.473-.419-.211q.319-.633.649-1.259l.416.219Q2169.9,627.118,2169.583,627.746Zm144.8-1.294q-.328-.621-.664-1.234l.412-.225q.338.616.668,1.24Zm-142.8-2.424-.408-.233q.352-.614.712-1.223l.4.239Q2171.931,623.418,2171.581,624.028Zm140.747-1.244q-.359-.6-.727-1.2l.4-.247q.371.6.731,1.205Zm-138.559-2.364-.4-.254q.383-.6.775-1.184l.391.261Q2174.148,619.828,2173.769,620.42Zm136.316-1.193q-.389-.585-.789-1.16l.386-.268q.4.581.793,1.167Zm-133.946-2.3-.381-.274q.413-.575.834-1.141l.377.28Q2176.55,616.36,2176.139,616.931Zm131.521-1.143q-.419-.564-.847-1.118l.372-.287q.43.559.852,1.125Zm-128.973-2.218-.367-.294q.442-.552.892-1.1l.362.3Q2179.125,613.021,2178.686,613.57Zm126.374-1.094q-.448-.54-.9-1.073l.356-.305q.46.536.909,1.08ZM2181.4,610.345l-.351-.312q.469-.528.947-1.048l.346.317Q2181.868,609.819,2181.4,610.345Zm120.891-1.043q-.475-.516-.959-1.026l.34-.324q.487.512.964,1.032Zm-118.014-2.036-.335-.329q.5-.5,1-1l.329.334Q2184.771,606.765,2184.278,607.266Zm115.085-.992q-.5-.492-1.01-.976l.323-.34q.512.486,1.017.981Zm-112.055-1.935-.317-.346q.52-.478,1.048-.946l.312.351Q2187.826,603.864,2187.309,604.339Zm108.975-.94q-.527-.466-1.06-.923l.305-.357q.536.459,1.066.928Zm-105.8-1.826-.3-.362q.544-.45,1.1-.89l.292.367Q2191.026,601.126,2190.485,601.573Zm102.571-.888q-.548-.439-1.106-.867l.287-.372q.561.432,1.113.873Zm-99.258-1.71-.281-.377q.566-.421,1.14-.832l.273.382Q2194.361,598.557,2193.8,598.975Zm95.9-.835q-.572-.409-1.15-.81l.267-.386q.582.4,1.156.814Zm-92.456-1.588-.261-.391q.587-.391,1.18-.772l.254.395Q2197.821,596.164,2197.238,596.553Zm88.965-.781q-.593-.379-1.191-.749l.247-.4q.6.372,1.2.753Zm-85.405-1.461-.24-.4q.606-.359,1.218-.709l.233.408Q2201.4,593.954,2200.8,594.311Zm81.794-.724q-.611-.349-1.229-.687l.226-.412q.621.339,1.236.69Zm-78.125-1.329-.219-.416q.622-.328,1.253-.645l.211.419Q2205.087,591.932,2204.468,592.258Zm74.406-.667q-.629-.316-1.263-.623l.2-.423q.638.308,1.271.625Zm-70.637-1.193-.2-.427q.639-.294,1.283-.579l.19.429Q2208.871,590.105,2208.236,590.4Zm66.817-.607q-.644-.284-1.294-.556l.182-.433q.654.274,1.3.559Zm-62.959-1.055-.174-.435q.655-.262,1.316-.514l.167.44Q2212.746,588.477,2212.094,588.737Zm59.048-.544q-.658-.249-1.323-.488l.159-.442q.668.24,1.33.49Zm-55.1-.918-.151-.445q.668-.228,1.341-.444l.144.447Q2216.71,587.047,2216.046,587.275Zm51.105-.475q-.671-.214-1.347-.418l.135-.45q.681.2,1.355.42Zm-47.083-.779-.128-.452q.679-.192,1.362-.373l.12.454Q2220.743,585.829,2220.068,586.021Zm43.032-.4q-.678-.178-1.362-.346l.112-.456q.687.168,1.369.348Zm-38.949-.642-.1-.458q.688-.157,1.381-.3l.1.46Q2224.835,584.821,2224.151,584.977Zm34.848-.325q-.687-.142-1.378-.274l.088-.461q.695.133,1.385.276Zm-30.717-.505-.081-.462q.695-.121,1.394-.231l.073.464Q2228.973,584.027,2228.282,584.148Zm26.571-.245q-.693-.108-1.39-.2l.063-.465q.7.1,1.4.2Zm-22.4-.368-.057-.466q.7-.085,1.4-.157l.047.467Q2233.146,583.45,2232.451,583.534Zm18.223-.168q-.7-.071-1.4-.13l.039-.468q.705.059,1.407.131Zm-14.029-.228-.032-.469q.7-.049,1.41-.085l.024.469Q2237.345,583.089,2236.645,583.138Zm9.826-.092q-.7-.034-1.4-.058l.015-.47q.708.023,1.412.059Zm-5.617-.091-.008-.47q.705-.013,1.412-.013v.47Q2241.556,582.943,2240.855,582.955Z" transform="translate(-2160.441 -582.473)" fill="#16142f"/>
              </g>
            </g>
          </g>
        </g>
        <g id="Path_6840" data-name="Path 6840" transform="translate(68.312 142.128)">
          <path id="Path_8133" data-name="Path 8133" d="M2324.742,915.822s-6.036-15.337-7.479-25.445-6.548-4.992-5.8,8.877-5.579,5.609-5.579,5.609l1.15,13.592Z" transform="translate(-2305.883 -885.077)" fill="#f0b0ad"/>
        </g>
      </g>
      <g id="Group_9885" data-name="Group 9885" transform="translate(87.179 94.206)">
        <g id="Path_6866" data-name="Path 6866" transform="translate(100.58 126.477)">
          <path id="Path_8134" data-name="Path 8134" d="M2594.624,1052.436c2.742-2.056-30.808,25.486-34.428,46.633" transform="translate(-2560.196 -1052.328)" fill="#ffca00"/>
        </g>
        <g id="Path_6867" data-name="Path 6867" transform="translate(117.401 142.708)">
          <path id="Path_8135" data-name="Path 8135" d="M2622.6,1086.884s-11,56.195-26.587,64.065" transform="translate(-2596.01 -1086.884)" fill="#ffca00"/>
        </g>
        <g id="Path_7438" data-name="Path 7438" transform="translate(123.735 110.066)">
          <path id="Path_8136" data-name="Path 8136" d="M2643.865,1017.387s-14.219,72.643-34.369,82.814" transform="translate(-2609.496 -1017.387)" fill="#eeb700"/>
        </g>
        <g id="Path_6868" data-name="Path 6868" transform="translate(121.739 151.087)">
          <path id="Path_8137" data-name="Path 8137" d="M2646.235,1104.724s-42.323,38.569-40.956,55.976" transform="translate(-2605.246 -1104.724)" fill="#ffca00"/>
        </g>
        <g id="Path_6869" data-name="Path 6869" transform="translate(75.338 113.851)">
          <path id="Path_8138" data-name="Path 8138" d="M2506.455,1121.064c23.08,7.789,51.856,12.032,86.838,10.269,34.822-28.839,67.848-63.375,61.691-74.691-7.844-14.419-26.307-22.179-36.378-18.953a46.23,46.23,0,0,0-19.61,12.56l-44.557,62.338,34.155-83.713-15.331-3.429Z" transform="translate(-2506.455 -1025.445)" fill="#ffca00"/>
        </g>
        <g id="Group_10094" data-name="Group 10094" transform="translate(113.567)">
          <g id="Path_7030" data-name="Path 7030" transform="translate(0 28.108)">
            <path id="Path_8139" data-name="Path 8139" d="M2612.561,842.89l-24.28,24.839a1.521,1.521,0,0,0,.629,2.515l37.743,11.93Z" transform="translate(-2587.847 -842.89)" fill="#f0b0ad"/>
          </g>
          <g id="Group_10093" data-name="Group 10093" transform="translate(7.954)">
            <g id="Path_7031" data-name="Path 7031">
              <path id="Path_8140" data-name="Path 8140" d="M2713.047,850.206c7.512-28.046,3.919-53.619-23.289-63.686-30.284-11.206-63.759,5.691-73.489,36.481l-9.41,29.778,12.121,3.831s-6.268,4.849-13.906,2.962c-2.319,15.048,9.432,24.37,25.592,29.477l21,6.637C2682.37,905.388,2704.715,881.311,2713.047,850.206Z" transform="translate(-2604.781 -783.046)" fill="#f0b0ad"/>
            </g>
            <g id="Path_7032" data-name="Path 7032" transform="translate(16.768 0.808)">
              <path id="Path_8141" data-name="Path 8141" d="M2640.482,812.06l39.486-27.294A57.236,57.236,0,0,0,2640.482,812.06Z" transform="translate(-2640.482 -784.766)" fill="#052335"/>
            </g>
          </g>
          <g id="Ellipse_3247" data-name="Ellipse 3247" transform="translate(37.785 41.173)">
            <circle id="Ellipse_3883" data-name="Ellipse 3883" cx="2.492" cy="2.492" r="2.492" fill="#052335"/>
          </g>
          <g id="Path_7033" data-name="Path 7033" transform="translate(26.147 0.009)">
            <path id="Path_8142" data-name="Path 8142" d="M2646.212,1003.153c21.118.316,44.793-1.684,71.181-6.683l6.728-46.613,12.174-84.341c.983-6.814,2.084-13.615,3.522-20.348a57.418,57.418,0,0,0-.361-25.956c-3.7-14.743-12.956-26.687-29.155-32.681a55.871,55.871,0,0,0-47.044,3.871,59.642,59.642,0,0,0,39.97,54.847l-10.121.946-36.241,114.674-13.348,42.237h0Z" transform="translate(-2643.517 -783.066)" fill="#052335"/>
          </g>
          <g id="Ellipse_3248" data-name="Ellipse 3248" transform="translate(63.463 54.283)">
            <circle id="Ellipse_3884" data-name="Ellipse 3884" cx="13.108" cy="13.108" r="13.108" fill="#f0b0ad"/>
          </g>
        </g>
        <g id="Group_9887" data-name="Group 9887" transform="translate(103.695 56.73)">
          <g id="Path_6870" data-name="Path 6870">
            <path id="Path_8143" data-name="Path 8143" d="M2689.589,925.713l-4.642-14.48-1.08-3.374a5.8,5.8,0,0,0-7.292-3.752l-22.416,7.186a5.8,5.8,0,0,0-3.752,7.292l1.948,6.076a6.587,6.587,0,0,1-3.506,7.979A168.542,168.542,0,0,1,2610,945.092a6.587,6.587,0,0,1-7.491-4.454l-1.948-6.076a5.8,5.8,0,0,0-7.292-3.752l-22.41,7.175a5.8,5.8,0,0,0-3.752,7.292l1.08,3.374,4.641,14.481a5.832,5.832,0,0,0,4.737,3.976c16.293,2.305,37.2.264,58.785-6.655s39.782-17.411,51.7-28.758A5.807,5.807,0,0,0,2689.589,925.713Z" transform="translate(-2566.829 -903.829)" fill="#cf1013"/>
          </g>
        </g>
        <g id="Path_6872" data-name="Path 6872" transform="translate(139.183 84.886)">
          <path id="Path_8144" data-name="Path 8144" d="M2646.88,991.259c-4.2-.726-13.091-22.722,17.679-27.123,6.972-1,16.717,0,15.579,4.045Z" transform="translate(-2642.386 -963.776)" fill="#d79d9d"/>
        </g>
        <g id="Path_6871" data-name="Path 6871" transform="translate(0 102.014)">
          <path id="Path_8145" data-name="Path 8145" d="M2493,1118.631a256.022,256.022,0,0,1-38.768-2.828c-21.176-3.241-40.149-9.278-56.392-17.941-14.341-7.649-26.177-17.1-35.179-28.092-16.028-19.569-21.039-42.489-12.469-57.033,6.042-10.255,17.6-14.4,32.552-11.676,43.395,7.913,78.133-.636,78.479-.723l.115.455c-.347.088-35.177,8.663-78.678.73-14.74-2.688-26.127,1.379-32.063,11.452-8.47,14.375-3.476,37.08,12.428,56.5,19.261,23.516,51.678,39.805,91.28,45.867,50.954,7.8,112.336-.584,182.435-24.92l.154.444C2583.67,1109.339,2535.453,1118.63,2493,1118.631Z" transform="translate(-2346.053 -1000.243)" fill="#cf1013"/>
        </g>
        <g id="Path_6872-2" data-name="Path 6872-2" transform="translate(138.459 86.179)">
          <path id="Path_8146" data-name="Path 8146" d="M2645.513,995.594c-4.364-.755-13.6-23.609,18.368-28.181,7.244-1.037,16.62-1.979,15.438,2.229-2.007,7.148-12.7,19.588-17.889,25.33-1.559,1.726-2.622,2.84-2.622,2.84Z" transform="translate(-2640.844 -966.53)" fill="#f0b0ad"/>
        </g>
        <g id="Path_6873" data-name="Path 6873" transform="translate(148.632 109.835)">
          <path id="Path_8147" data-name="Path 8147" d="M2662.5,1023.307s17.515,3.516,26.479-2.148c0,0,3.037-.915-9.227-2.729-3.075-.455-7.113-.967-12.4-1.535" transform="translate(-2662.504 -1016.895)" fill="#f0b0ad"/>
        </g>
      </g>
    </g>
    <g id="Group_9867" data-name="Group 9867" transform="translate(1891.873 556.769)">
      <g id="Group_9866" data-name="Group 9866" transform="translate(0 0)">
        <g id="Group_10098" data-name="Group 10098">
          <g id="Group_10771" data-name="Group 10771" transform="translate(0.235 0.235)">
            <g id="Group_10770" data-name="Group 10770" clip-path="url(#clip-path-2)">
              <g id="Group_10097" data-name="Group 10097" transform="translate(-4.689 8.545)">
                <g id="Group_9865" data-name="Group 9865">
                  <g id="Group_8416" data-name="Group 8416">
                    <g id="Path_5371" data-name="Path 5371" transform="translate(96.984 50.231)">
                      <path id="Path_8157" data-name="Path 8157" d="M2117.875,1042.495h5.2a5.2,5.2,0,0,1-5.2,5.2h0Z" transform="translate(-2117.875 -1042.495)" fill="#cf1013"/>
                    </g>
                    <g id="Path_5372" data-name="Path 5372" transform="translate(67.834 27.247)">
                      <path id="Path_8158" data-name="Path 8158" d="M2055.811,1000.609h12.643v-.728a6.322,6.322,0,0,0-12.643,0h0Z" transform="translate(-2055.811 -993.559)" fill="#cf1013"/>
                    </g>
                    <g id="Rectangle_1741" data-name="Rectangle 1741" transform="translate(72.734)">
                      <rect id="Rectangle_2397" data-name="Rectangle 2397" width="2.846" height="28.441" fill="#cf1013"/>
                    </g>
                    <g id="Path_5373" data-name="Path 5373" transform="translate(51.346 32.762)">
                      <path id="Path_8159" data-name="Path 8159" d="M2066.327,1037.138h-45.62v-21.559a10.278,10.278,0,0,1,10.278-10.277h25.064a10.278,10.278,0,0,1,10.278,10.277Z" transform="translate(-2020.707 -1005.302)" fill="#e0f2fb"/>
                    </g>
                    <g id="Path_5374" data-name="Path 5374" transform="translate(46.054 50.231)">
                      <path id="Path_8160" data-name="Path 8160" d="M2014.64,1042.495h-5.2a5.2,5.2,0,0,0,5.2,5.2h0Z" transform="translate(-2009.441 -1042.495)" fill="#cf1013"/>
                    </g>
                    <g id="Path_5375" data-name="Path 5375" transform="translate(43.755 59.14)">
                      <path id="Path_8161" data-name="Path 8161" d="M2010.312,1067.121l-5.765,2.8V1087.2s-.47,26.326,30.154,26.581v.01l.223,0,.225,0v-.01c30.6-.255,30.158-26.581,30.158-26.581h0v-17.278l-6.144-2.944a56.162,56.162,0,0,0-48.85.141" transform="translate(-2004.546 -1061.462)" fill="#189788"/>
                    </g>
                    <g id="Path_5376" data-name="Path 5376" transform="translate(43.755 52.4)">
                      <path id="Path_8162" data-name="Path 8162" d="M2065.314,1062.357s-8.9-11.565-30.381-15.245v.009l-.006-.009c-21.481,3.679-30.381,15.245-30.381,15.245Z" transform="translate(-2004.546 -1047.112)" fill="#12234b"/>
                    </g>
                    <g id="Path_5377" data-name="Path 5377" transform="translate(55.889 37.251)">
                      <path id="Path_8163" data-name="Path 8163" d="M2036.4,1020.877h-6.017v-1.606a4.411,4.411,0,0,1,4.411-4.41h1.606Z" transform="translate(-2030.379 -1014.86)" fill="#cf1013"/>
                    </g>
                    <g id="Rectangle_1742" data-name="Rectangle 1742" transform="translate(66.062 37.249)">
                      <rect id="Rectangle_2398" data-name="Rectangle 2398" width="6.017" height="6.017" fill="#cf1013"/>
                    </g>
                    <g id="Rectangle_1743" data-name="Rectangle 1743" transform="translate(76.235 37.249)">
                      <rect id="Rectangle_2399" data-name="Rectangle 2399" width="6.017" height="6.017" fill="#cf1013"/>
                    </g>
                    <g id="Path_5378" data-name="Path 5378" transform="translate(86.407 37.252)">
                      <path id="Path_8164" data-name="Path 8164" d="M2101.372,1020.877h-6.016v-6.016h1.606a4.41,4.41,0,0,1,4.41,4.41h0Z" transform="translate(-2095.356 -1014.861)" fill="#cf1013"/>
                    </g>
                    <g id="Path_5379" data-name="Path 5379" transform="translate(57.194 46.317)">
                      <path id="Path_8165" data-name="Path 8165" d="M2036.56,1035.862a1.7,1.7,0,1,1-1.7-1.7h0a1.7,1.7,0,0,1,1.7,1.7h0" transform="translate(-2033.158 -1034.161)" fill="#12234b"/>
                    </g>
                    <g id="Path_5380" data-name="Path 5380" transform="translate(67.281 46.317)">
                      <path id="Path_8166" data-name="Path 8166" d="M2058.037,1035.862a1.7,1.7,0,1,1-1.7-1.7h0a1.7,1.7,0,0,1,1.7,1.7h0" transform="translate(-2054.634 -1034.161)" fill="#12234b"/>
                    </g>
                    <g id="Path_5381" data-name="Path 5381" transform="translate(77.364 46.317)">
                      <path id="Path_8167" data-name="Path 8167" d="M2079.5,1035.862a1.7,1.7,0,1,1-1.7-1.7h0a1.7,1.7,0,0,1,1.7,1.7h0" transform="translate(-2076.102 -1034.161)" fill="#12234b"/>
                    </g>
                    <g id="Path_5382" data-name="Path 5382" transform="translate(87.448 46.317)">
                      <path id="Path_8168" data-name="Path 8168" d="M2100.973,1035.862a1.7,1.7,0,1,1-1.7-1.7,1.7,1.7,0,0,1,1.7,1.7h0" transform="translate(-2097.571 -1034.161)" fill="#12234b"/>
                    </g>
                    <g id="Path_6456-2-2" data-name="Path 6456-2-2" transform="translate(0 97.233)">
                      <path id="Path_8169" data-name="Path 8169" d="M2059.7,1199.375v-55.121a8.137,8.137,0,0,1-9.917,0,8.131,8.131,0,0,0-9.916,0,8.056,8.056,0,0,1-9.861,0,8.131,8.131,0,0,0-9.916,0,8.044,8.044,0,0,1-9.852,0,8.131,8.131,0,0,0-9.916,0,7.95,7.95,0,0,1-9.784,0,8.247,8.247,0,0,0-9.994,0,7.95,7.95,0,0,1-9.784,0,8.131,8.131,0,0,0-9.916,0,8.043,8.043,0,0,1-9.851,0,8.131,8.131,0,0,0-9.916,0,8.056,8.056,0,0,1-9.861,0,8.131,8.131,0,0,0-9.916,0,8.137,8.137,0,0,1-9.917,0v55.121Z" transform="translate(-1911.387 -1142.567)" fill="#1daee9"/>
                    </g>
                  </g>
                </g>
              </g>
            </g>
          </g>
          <g id="Ellipse_3252" data-name="Ellipse 3252">
            <path id="Path_8170" data-name="Path 8170" d="M1991.026,1055.207l0-.47q.7,0,1.4-.024l.013.47Q1991.733,1055.2,1991.026,1055.207Zm-2.826-.038q-.707-.023-1.412-.061l.024-.469q.7.036,1.4.06Zm7.062-.116-.032-.469q.7-.047,1.4-.107l.041.468Q1995.969,1055.006,1995.262,1055.053Zm-11.293-.15q-.7-.066-1.406-.145l.053-.467q.7.079,1.4.144Zm15.513-.257-.059-.466q.7-.088,1.391-.191l.069.465Q2000.184,1054.557,1999.482,1054.646Zm-19.72-.263q-.7-.108-1.4-.23l.082-.463q.69.121,1.385.228Zm23.909-.4-.088-.461q.691-.132,1.377-.275l.1.459Q2004.366,1053.854,2003.67,1053.985Zm-28.077-.376q-.692-.149-1.379-.314l.109-.457q.682.163,1.369.312Zm32.217-.538-.115-.455q.681-.173,1.357-.358l.125.453Q2008.5,1052.9,2007.81,1053.071Zm-36.331-.486q-.681-.193-1.357-.4l.137-.449q.671.2,1.348.4Zm40.408-.677-.143-.448q.67-.214,1.333-.44l.152.445Q2012.56,1051.692,2011.887,1051.907Zm-44.452-.6q-.671-.234-1.335-.481l.164-.441q.66.246,1.326.479Zm48.45-.813-.17-.438q.655-.254,1.3-.521l.179.434Q2016.545,1050.241,2015.885,1050.5Zm-52.421-.711q-.654-.274-1.3-.561l.191-.43q.643.286,1.293.558Zm56.318-.938-.2-.426q.636-.293,1.266-.6l.2.423Q2020.424,1048.553,2019.783,1048.848Zm-60.186-.824q-.636-.313-1.265-.64l.217-.417q.624.324,1.256.635Zm63.974-1.056-.222-.414q.619-.331,1.229-.673l.229.41Q2024.193,1046.635,2023.571,1046.967Zm-67.725-.937q-.615-.352-1.223-.716l.242-.4q.6.361,1.214.71Zm71.393-1.171-.247-.4q.6-.368,1.186-.747l.254.395Q2027.841,1044.488,2027.24,1044.859Zm-75.015-1.047q-.592-.388-1.176-.787l.265-.388q.58.4,1.169.782Zm78.55-1.28-.271-.385q.574-.4,1.139-.818l.278.379Q2031.353,1042.124,2030.775,1042.531Zm-82.028-1.153q-.567-.422-1.126-.856l.288-.371q.555.431,1.119.852Zm85.418-1.386-.293-.367q.548-.438,1.087-.886l.3.362Q2034.717,1039.551,2034.165,1039.992Zm-88.741-1.251q-.54-.456-1.071-.924l.311-.352q.526.465,1.064.918Zm91.971-1.489-.315-.349q.521-.471,1.033-.95l.321.342Q2037.919,1036.779,2037.4,1037.252Zm-95.127-1.346q-.512-.487-1.013-.986l.331-.333q.5.5,1.006.98Zm98.187-1.587-.334-.329q.491-.5.973-1.011l.342.322Q2040.951,1033.816,2040.455,1034.32Zm-101.164-1.432q-.481-.517-.951-1.046l.35-.312q.467.524.944,1.039Zm104.042-1.681-.354-.308q.461-.53.911-1.069l.361.3Q2043.8,1030.673,2043.332,1031.206Zm-106.83-1.512q-.448-.547-.885-1.1l.369-.291q.434.552.879,1.093Zm109.514-1.772-.372-.286q.428-.557.844-1.123l.378.278Q2046.447,1027.361,2046.016,1027.923Zm-112.1-1.584q-.414-.572-.816-1.152l.386-.268q.4.576.811,1.145Zm114.58-1.859-.39-.262q.394-.583.775-1.173l.394.255Q2048.891,1023.893,2048.5,1024.479Zm-116.956-1.647q-.378-.6-.743-1.2l.4-.243q.363.6.738,1.191Zm119.221-1.942-.4-.238q.357-.606.7-1.219l.41.229Q2051.12,1020.281,2050.761,1020.89Zm-121.378-1.7q-.34-.617-.668-1.242l.417-.217q.325.621.663,1.233Zm123.419-2.024-.419-.213q.319-.627.625-1.261l.423.2Q2053.123,1016.535,2052.8,1017.166Zm-125.347-1.743q-.3-.637-.589-1.279l.428-.193q.287.638.586,1.271Zm127.154-2.1-.431-.187q.281-.645.546-1.3l.435.178Q2054.891,1012.671,2054.609,1013.321Zm-128.844-1.773q-.263-.656-.512-1.317l.44-.166q.248.657.508,1.309Zm130.411-2.177-.442-.16q.239-.662.465-1.33l.445.15Q2056.417,1008.7,2056.176,1009.37Zm-131.863-1.807q-.22-.67-.429-1.347l.448-.138q.207.672.426,1.339Zm133.181-2.237-.45-.132q.2-.672.379-1.351l.453.122Q2057.692,1004.649,2057.494,1005.327Zm-134.383-1.829q-.179-.683-.344-1.371l.457-.11q.164.683.342,1.362Zm135.445-2.276-.458-.1q.155-.683.294-1.372l.46.094Q2058.712,1000.533,2058.556,1001.222Zm-136.392-1.857q-.137-.693-.259-1.39l.462-.082q.123.693.257,1.381Zm137.2-2.305-.463-.075q.111-.692.209-1.388l.465.065Q2059.474,996.362,2059.361,997.059Zm-137.885-1.878q-.094-.7-.173-1.4l.467-.053q.078.7.172,1.394Zm138.432-2.327-.468-.046q.069-.7.124-1.4l.468.037Q2059.976,992.152,2059.907,992.854Zm-138.862-1.891q-.049-.7-.085-1.411l.469-.024q.036.7.086,1.4Zm139.148-2.339-.47-.017q.026-.7.038-1.4l.47.007Q2060.22,987.92,2060.193,988.625Zm-139.318-1.9q0-.347,0-.7t0-.718l.47,0q0,.356,0,.713c0,.23,0,.461,0,.69Zm138.878-2.331q-.016-.7-.046-1.4l.469-.021q.032.7.048,1.41Zm-138.323-1.883-.469-.024q.036-.708.086-1.411l.469.034Q1921.465,981.809,1921.43,982.512Zm138.1-2.318q-.059-.7-.133-1.4l.467-.049q.074.7.133,1.408Zm-137.753-1.879-.467-.052q.08-.7.173-1.4l.466.063Q1921.851,977.616,1921.772,978.315Zm137.269-2.3q-.1-.7-.219-1.387l.463-.078q.116.7.221,1.4Zm-136.669-1.865-.462-.081q.122-.7.259-1.39l.46.091Q1922.495,973.454,1922.372,974.147Zm135.928-2.281q-.145-.687-.3-1.371l.458-.106c.106.458.208.919.306,1.379Zm-135.071-1.842-.457-.11q.166-.688.345-1.371l.454.119Q1923.394,969.341,1923.229,970.025Zm134.074-2.249q-.188-.678-.389-1.349l.45-.135q.2.676.391,1.359Zm-132.963-1.813-.449-.138q.208-.679.431-1.352l.446.148Q1924.546,965.288,1924.34,965.962Zm131.713-2.208q-.229-.664-.471-1.323l.44-.162q.245.662.475,1.332Zm-130.347-1.789-.44-.165q.25-.665.514-1.322l.436.174Q1925.954,961.307,1925.705,961.966Zm128.854-2.141q-.268-.646-.55-1.287l.43-.189q.283.644.554,1.3Zm-127.243-1.76-.428-.193q.29-.646.594-1.287l.424.2Q1927.6,957.421,1927.316,958.065ZM2052.826,956q-.308-.629-.629-1.251l.418-.216q.323.626.634,1.259Zm-123.663-1.728-.416-.219q.33-.626.672-1.247l.411.227Q1929.492,953.649,1929.163,954.271Zm121.7-1.987q-.348-.609-.706-1.211l.4-.241q.361.606.71,1.219ZM1931.241,950.6l-.4-.244q.367-.6.747-1.2l.4.252Q1931.605,950,1931.241,950.6Zm117.431-1.906q-.385-.587-.78-1.165l.389-.265q.4.583.784,1.174Zm-115.132-1.627-.386-.268q.4-.581.818-1.154l.381.276Q1933.94,946.491,1933.539,947.068Zm112.725-1.822q-.419-.564-.849-1.117l.371-.288q.433.558.855,1.124Zm-110.216-1.563-.369-.291q.438-.555.887-1.1l.363.3Q1936.484,943.133,1936.048,943.683Zm107.6-1.735q-.452-.536-.916-1.063l.353-.31q.466.531.922,1.071Zm-104.891-1.49-.35-.313q.471-.527.952-1.044l.344.32Q1939.225,939.935,1938.758,940.457Zm102.08-1.644q-.485-.507-.979-1.006l.334-.331q.5.5.985,1.014Zm-99.181-1.409-.33-.334q.5-.5,1.013-.984l.324.34Q1942.156,936.911,1941.657,937.4Zm96.182-1.549q-.514-.479-1.038-.946l.313-.35q.528.47,1.046.952Zm-93.1-1.321-.309-.353q.531-.465,1.071-.921l.3.36Q1945.263,934.071,1944.735,934.534Zm89.932-1.452q-.543-.446-1.095-.882l.291-.369q.556.438,1.1.887Zm-86.685-1.226-.288-.372q.558-.432,1.124-.854l.281.377Q1948.535,931.426,1947.982,931.855Zm83.349-1.349q-.569-.413-1.147-.814l.268-.385q.581.4,1.154.819Zm-79.949-1.126-.265-.388q.583-.4,1.174-.784l.257.394Q1951.96,928.985,1951.382,929.379Zm76.462-1.244q-.593-.377-1.194-.742l.244-.4q.606.368,1.2.748Zm-72.919-1.02-.24-.4q.605-.361,1.218-.711l.232.408Q1955.526,926.756,1954.924,927.116Zm69.294-1.134q-.616-.34-1.239-.669l.219-.416q.627.331,1.247.674Zm-65.622-.91-.215-.418q.626-.323,1.257-.635l.208.421Q1959.218,924.75,1958.6,925.072Zm61.869-1.02q-.635-.3-1.277-.593l.194-.428q.646.292,1.286.6Zm-58.082-.8-.19-.429q.644-.285,1.293-.557l.182.433Q1963.022,922.971,1962.383,923.254Zm54.217-.9q-.652-.263-1.312-.513l.167-.44q.663.253,1.32.517Zm-50.321-.683-.163-.44q.662-.246,1.33-.479l.155.443Q1966.936,921.425,1966.279,921.669Zm46.358-.775q-.665-.222-1.336-.431l.139-.449q.677.211,1.345.434Zm-42.367-.572-.137-.45q.676-.2,1.356-.4l.128.452Q1970.94,920.118,1970.269,920.322Zm38.333-.64q-.677-.182-1.36-.349l.112-.456q.688.169,1.369.351Zm-34.269-.461-.109-.457q.686-.164,1.378-.314l.1.458Q1975.015,919.059,1974.333,919.221Zm30.169-.5q-.687-.139-1.379-.265l.085-.463q.7.128,1.388.268Zm-26.045-.349-.081-.462q.7-.122,1.395-.23l.072.464Q1979.148,918.249,1978.457,918.37Zm21.9-.363q-.695-.1-1.392-.182l.056-.466q.7.084,1.4.182Zm-17.726-.236-.053-.467q.7-.079,1.406-.145l.043.468Q1983.322,917.691,1982.626,917.771Zm13.54-.225q-.7-.055-1.4-.1l.028-.469q.707.042,1.41.1Zm-9.343-.124-.025-.469q.7-.037,1.412-.061l.015.47Q1987.522,917.386,1986.823,917.422Zm5.138-.084q-.7-.014-1.4-.014v-.47q.708,0,1.413.014Z" transform="translate(-1920.871 -916.854)" fill="#16142f"/>
          </g>
        </g>
      </g>
    </g>
    <g id="Group_9876" data-name="Group 9876" transform="translate(2083.105 281.626)">
      <g id="Group_9875" data-name="Group 9875" transform="translate(0)">
        <g id="Group_10102" data-name="Group 10102">
          <g id="Group_10773" data-name="Group 10773" transform="translate(0.235 0.235)">
            <g id="Group_10772" data-name="Group 10772" clip-path="url(#clip-path-3)">
              <g id="Group_10101" data-name="Group 10101" transform="translate(-28.943 30.047)">
                <g id="Group_9874" data-name="Group 9874">
                  <g id="Group_9868" data-name="Group 9868" transform="translate(56.287)">
                    <g id="Path_6853" data-name="Path 6853" transform="translate(2.635 7.75)">
                      <path id="Path_8171" data-name="Path 8171" d="M2355.038,386.11h-30.18v6.96l6.7-.578,23.479-3.194Z" transform="translate(-2324.858 -386.11)" fill="#ffca00"/>
                    </g>
                    <g id="Path_6854" data-name="Path 6854" transform="translate(5.319)">
                      <path id="Path_8172" data-name="Path 8172" d="M2355.382,376.158v-3.713H2351.6v-2.836h-11.46l-9.565,6.817" transform="translate(-2330.571 -369.609)" fill="#ffca00"/>
                    </g>
                    <g id="Path_6855" data-name="Path 6855" transform="translate(0 4.562)">
                      <path id="Path_8173" data-name="Path 8173" d="M2353.361,379.322h-34.114l2.615,3.188h30.221l2.615-3.188Z" transform="translate(-2319.247 -379.322)" fill="#16142f"/>
                    </g>
                    <g id="Path_6856" data-name="Path 6856" transform="translate(10.906)">
                      <path id="Path_8174" data-name="Path 8174" d="M2346.446,369.609h11.46v2.836h-15.439Z" transform="translate(-2342.467 -369.609)" fill="#16142f"/>
                    </g>
                  </g>
                  <g id="Group_9873" data-name="Group 9873" transform="translate(41.355 10.939)">
                    <g id="Path_6857" data-name="Path 6857">
                      <path id="Path_8175" data-name="Path 8175" d="M2294.873,429.809l-7.417-10.2V406.39a7.715,7.715,0,0,1,2.114-5.3h0a7.72,7.72,0,0,1,3.076-1.984h0a112.761,112.761,0,0,1,36.879-6.2h5.446a3.954,3.954,0,0,1,3.955,3.954v.047c-.066,5.767-.152,15.712.05,15.51.282-.282,100.766,0,100.766,0l3.125,3.125v6.913l-6.662,7.862Z" transform="translate(-2287.456 -392.899)" fill="#ffca00"/>
                    </g>
                    <g id="Group_9869" data-name="Group 9869" transform="translate(14.584 0.588)">
                      <g id="Path_6858" data-name="Path 6858">
                        <path id="Path_8176" data-name="Path 8176" d="M2321.845,403.8l31.667-9.648a3.951,3.951,0,0,1,1.879,3.411c-.065,5.661-.148,15.348.04,15.51l-32.264-.166a4.684,4.684,0,0,1-4.66-4.684h0a4.584,4.584,0,0,1,3.338-4.423Z" transform="translate(-2318.507 -394.15)" fill="#16142f"/>
                      </g>
                      <g id="Path_6859" data-name="Path 6859" transform="translate(36.935 18.921)">
                        <path id="Path_8177" data-name="Path 8177" d="M2397.145,434.435" transform="translate(-2397.145 -434.435)" fill="#ebebed"/>
                      </g>
                    </g>
                    <g id="Group_9872" data-name="Group 9872" transform="translate(19.269 4.574)">
                      <g id="Group_9871" data-name="Group 9871">
                        <g id="Rectangle_1777" data-name="Rectangle 1777" transform="translate(19.857 8.856)">
                          <rect id="Rectangle_2400" data-name="Rectangle 2400" width="7.406" height="2.472" fill="#fff"/>
                        </g>
                        <g id="Rectangle_1778" data-name="Rectangle 1778" transform="translate(9.936 8.856)">
                          <rect id="Rectangle_2401" data-name="Rectangle 2401" width="7.406" height="2.472" fill="#fff"/>
                        </g>
                        <g id="Rectangle_1779" data-name="Rectangle 1779" transform="translate(0.015 8.856)">
                          <rect id="Rectangle_2402" data-name="Rectangle 2402" width="7.406" height="2.472" fill="#fff"/>
                        </g>
                        <g id="Group_9870" data-name="Group 9870">
                          <g id="Rectangle_1780" data-name="Rectangle 1780" transform="translate(21.758)">
                            <rect id="Rectangle_2403" data-name="Rectangle 2403" width="5.505" height="5.583" rx="2.752" fill="#fff"/>
                          </g>
                          <g id="Rectangle_1781" data-name="Rectangle 1781" transform="translate(10.879)">
                            <rect id="Rectangle_2404" data-name="Rectangle 2404" width="5.505" height="5.583" rx="2.752" fill="#fff"/>
                          </g>
                          <g id="Rectangle_1782" data-name="Rectangle 1782">
                            <rect id="Rectangle_2405" data-name="Rectangle 2405" width="5.505" height="5.583" rx="2.752" fill="#fff"/>
                          </g>
                        </g>
                      </g>
                      <g id="Rectangle_1783" data-name="Rectangle 1783" transform="translate(31.114 6.79)">
                        <rect id="Rectangle_2406" data-name="Rectangle 2406" width="31.749" height="2.007" fill="#16142f"/>
                      </g>
                      <g id="Rectangle_1784" data-name="Rectangle 1784" transform="translate(31.114 12.813)">
                        <rect id="Rectangle_2407" data-name="Rectangle 2407" width="31.749" height="2.007" fill="#16142f"/>
                      </g>
                    </g>
                  </g>
                  <g id="Path_6456-3" data-name="Path 6456-3" transform="translate(0 42.229)">
                    <path id="Path_8178" data-name="Path 8178" d="M2199.407,518.563V461.272a8.458,8.458,0,0,0,10.307,0,8.45,8.45,0,0,1,10.306,0,8.376,8.376,0,0,0,10.25,0,8.45,8.45,0,0,1,10.307,0,8.36,8.36,0,0,0,10.239,0,8.451,8.451,0,0,1,10.307,0,8.265,8.265,0,0,0,10.169,0,8.574,8.574,0,0,1,10.387,0,8.265,8.265,0,0,0,10.169,0,8.451,8.451,0,0,1,10.307,0,8.359,8.359,0,0,0,10.239,0,8.45,8.45,0,0,1,10.307,0,8.374,8.374,0,0,0,10.249,0,8.45,8.45,0,0,1,10.307,0,8.459,8.459,0,0,0,10.308,0v57.29Z" transform="translate(-2199.407 -459.519)" fill="#1daee9"/>
                  </g>
                </g>
              </g>
            </g>
          </g>
          <g id="Ellipse_3254" data-name="Ellipse 3254">
            <path id="Path_8179" data-name="Path 8179" d="M2314.935,411.378l-.007-.47q.7-.011,1.4-.038l.018.47Q2315.643,411.368,2314.935,411.378Zm-2.828-.033q-.709-.027-1.413-.071l.029-.469q.7.044,1.4.07Zm7.063-.19-.042-.468q.7-.063,1.4-.146l.055.466Q2319.877,411.091,2319.169,411.156Zm-11.294-.134q-.7-.082-1.4-.181l.066-.465q.693.1,1.391.179Zm15.5-.417-.08-.463q.693-.119,1.379-.255l.092.461Q2324.075,410.484,2323.377,410.6Zm-19.695-.236q-.7-.137-1.385-.291l.1-.458q.683.154,1.373.289Zm23.846-.645-.116-.455q.681-.173,1.355-.364l.128.452Q2328.215,409.549,2327.528,409.723Zm-27.974-.336q-.683-.191-1.358-.4l.138-.449q.669.206,1.346.4Zm32.042-.869-.152-.445q.666-.227,1.322-.469l.163.44Q2332.267,408.29,2331.6,408.518Zm-36.081-.435q-.667-.245-1.325-.507l.173-.436q.654.26,1.314.5Zm40.042-1.089-.186-.431q.642-.278,1.276-.571l.2.426Q2336.205,406.715,2335.557,406.994Zm-43.972-.536q-.645-.3-1.28-.611l.207-.421q.631.31,1.27.6Zm47.792-1.293-.219-.415q.619-.327,1.229-.669l.23.409Q2340,404.836,2339.376,405.165Zm-51.58-.636q-.619-.347-1.228-.709l.24-.4q.6.359,1.217.7Zm55.245-1.488-.251-.4q.592-.376,1.173-.765l.261.39Q2343.638,402.663,2343.041,403.041Zm-58.868-.735q-.59-.394-1.167-.8l.271-.383q.573.407,1.157.8Zm62.356-1.673-.282-.376q.56-.421,1.109-.855l.292.368Q2347.095,400.209,2346.529,400.634Zm-65.79-.826q-.555-.44-1.1-.893l.3-.361q.539.449,1.09.885Zm69.079-1.85-.312-.352q.527-.465,1.04-.941l.32.344Q2350.349,397.49,2349.819,397.958Zm-72.3-.913q-.519-.481-1.025-.976l.328-.336q.5.491,1.016.967Zm75.374-2.016-.337-.327q.487-.5.962-1.02l.346.318Q2353.381,394.522,2352.889,395.029Zm-78.37-.991q-.478-.52-.944-1.053l.353-.309q.463.528.937,1.044Zm81.2-2.172-.362-.3q.446-.54.879-1.093l.37.289Q2356.169,391.322,2355.718,391.867Zm-83.947-1.061q-.437-.557-.858-1.124l.377-.28q.417.563.85,1.114Zm86.518-2.316-.385-.27q.4-.574.789-1.16l.392.258Q2358.695,387.909,2358.289,388.489Zm-89-1.123q-.389-.589-.764-1.188l.4-.25q.372.6.758,1.178Zm91.294-2.452-.406-.238q.356-.605.7-1.22l.411.226Q2360.942,384.3,2360.583,384.914Zm-93.492-1.172q-.342-.617-.667-1.245l.417-.217q.322.622.661,1.234Zm95.493-2.575-.423-.2q.305-.632.594-1.273l.429.193Q2362.893,380.529,2362.584,381.167Zm-97.393-1.211q-.29-.643-.564-1.293l.433-.183q.271.645.56,1.282Zm99.087-2.689-.438-.17q.253-.655.49-1.318l.442.158Q2364.535,376.605,2364.279,377.267ZM2263.6,376.031q-.239-.666-.459-1.339l.446-.147q.219.668.455,1.327Zm102.049-2.79-.451-.133q.2-.671.38-1.35l.454.121Q2365.852,372.564,2365.652,373.241Zm-103.317-1.26q-.185-.682-.349-1.372l.456-.109q.164.683.346,1.359Zm104.356-2.855-.459-.1q.144-.686.27-1.377l.462.085Q2366.836,368.434,2366.691,369.126ZM2261.4,367.842q-.127-.7-.237-1.4l.464-.072q.108.695.235,1.382Zm106-2.9-.466-.059q.087-.7.157-1.394l.467.047Q2367.483,364.24,2367.394,364.941Zm-106.594-1.3q-.071-.7-.124-1.41l.469-.035q.052.7.123,1.4Zm106.958-2.928-.469-.022q.033-.7.046-1.4l.469.009Q2367.79,360.009,2367.757,360.713Zm-107.217-1.308q-.013-.572-.012-1.146v-.27l.47,0v.267q0,.569.012,1.135Zm106.775-2.92q-.025-.7-.066-1.4l.469-.028q.042.7.067,1.414Zm-106.229-1.3-.469-.027q.04-.708.1-1.411l.468.04Q2261.127,354.488,2261.086,355.189Zm105.92-2.9q-.079-.7-.177-1.391l.466-.066q.1.7.179,1.4ZM2261.5,351l-.465-.064q.1-.7.214-1.4l.464.077Q2261.6,350.308,2261.5,351Zm104.864-2.869q-.136-.689-.29-1.372l.459-.1q.154.688.292,1.385Zm-104.117-1.27-.458-.1q.155-.693.326-1.377l.456.115Q2262.4,346.18,2262.246,346.865Zm103.138-2.82q-.19-.676-.4-1.345l.449-.139q.21.674.4,1.357ZM2263.327,342.8l-.449-.139q.21-.68.439-1.351l.445.151Q2263.535,342.129,2263.327,342.8Zm100.75-2.754q-.244-.656-.5-1.3l.436-.175q.264.653.509,1.314Zm-99.341-1.219-.436-.175q.265-.659.546-1.309l.431.186Q2265,338.174,2264.736,338.827Zm97.72-2.651q-.3-.635-.609-1.259l.42-.21q.315.63.614,1.271Zm-95.994-1.193-.42-.21q.317-.635.65-1.26l.415.221Q2266.776,334.354,2266.462,334.984Zm94.065-2.536q-.346-.609-.708-1.208l.4-.243q.366.6.715,1.219Zm-92.037-1.154-.4-.243q.366-.606.748-1.2l.4.253Q2268.854,330.693,2268.49,331.294Zm89.815-2.412q-.4-.579-.8-1.148l.381-.274q.412.573.811,1.158Zm-87.5-1.1-.382-.274q.413-.575.841-1.138l.374.283Q2271.219,327.209,2270.809,327.78Zm85-2.277q-.438-.546-.892-1.081l.358-.3q.457.538.9,1.091Zm-82.406-1.04-.359-.3q.456-.54.928-1.069l.351.313Q2273.85,323.926,2273.4,324.462Zm79.645-2.131q-.482-.51-.976-1.007l.333-.332q.5.5.984,1.017Zm-76.8-.97-.333-.331q.5-.5,1.01-.991l.324.34Q2276.733,320.863,2276.239,321.361Zm73.8-1.975q-.519-.471-1.053-.928l.306-.357q.538.461,1.063.937Zm-70.72-.891-.306-.356q.535-.461,1.083-.907l.3.364Q2279.848,318.038,2279.316,318.5Zm67.49-1.808q-.556-.429-1.123-.843l.277-.38q.571.418,1.133.85Zm-64.2-.805-.277-.379q.57-.417,1.151-.819l.267.386Q2283.173,315.469,2282.608,315.882Zm60.766-1.632q-.59-.383-1.187-.752l.246-.4q.6.371,1.2.758Zm-57.28-.713-.247-.4q.6-.371,1.211-.726l.236.406Q2286.689,313.169,2286.094,313.537Zm53.662-1.446q-.617-.335-1.244-.656l.214-.418q.632.323,1.254.661Zm-50-.616-.215-.419q.626-.321,1.263-.627l.2.423Q2290.373,311.156,2289.752,311.475Zm46.226-1.251q-.642-.286-1.292-.556l.18-.434q.656.273,1.3.561Zm-42.42-.516-.18-.434q.651-.271,1.312-.527l.17.438Q2294.205,309.439,2293.559,309.708Zm38.5-1.047q-.664-.235-1.333-.452l.145-.447q.677.219,1.345.456Zm-34.56-.416-.146-.447q.672-.219,1.351-.422l.134.45Q2298.168,308.027,2297.5,308.245Zm30.536-.83q-.677-.181-1.36-.344l.109-.457q.689.165,1.372.347Zm-26.489-.317-.11-.457q.686-.166,1.379-.313l.1.459Q2302.23,306.935,2301.55,307.1Zm22.385-.606q-.688-.127-1.382-.236l.072-.464q.7.11,1.4.238Zm-18.261-.217-.073-.464q.7-.11,1.4-.2l.062.466Q2306.366,306.165,2305.674,306.275Zm14.1-.38q-.7-.073-1.4-.127l.036-.468q.708.054,1.409.128Zm-9.92-.117-.038-.468q.7-.056,1.412-.094l.025.469Q2310.549,305.722,2309.852,305.778Zm5.722-.153q-.7-.018-1.4-.018h-.116v-.47h.117q.712,0,1.414.018Z" transform="translate(-2260.528 -305.137)" fill="#16142f"/>
          </g>
        </g>
      </g>
    </g>
    <g id="Group_9883-2" data-name="Group 9883-2" transform="translate(2191.165 345.87)">
      <g id="Group_9882-2" data-name="Group 9882-2" transform="translate(0)">
        <g id="Group_10092-2" data-name="Group 10092-2">
          <g id="Group_10775" data-name="Group 10775" transform="translate(0.222 0.235)">
            <g id="Group_10774" data-name="Group 10774" clip-path="url(#clip-path-4)">
              <g id="Group_10091-3" data-name="Group 10091-3" transform="translate(-186.9 11.112)">
                <g id="Group_9881-2" data-name="Group 9881-2">
                  <g id="Group_9932-2" data-name="Group 9932-2">
                    <g id="Group_9919-2" data-name="Group 9919-2">
                      <g id="Group_9918-2" data-name="Group 9918-2">
                        <g id="Line_28-2" data-name="Line 28-2" transform="translate(248.575)">
                          <rect id="Rectangle_2408" data-name="Rectangle 2408" width="0.939" height="18.653" fill="#cf1013"/>
                        </g>
                        <g id="Line_29-2" data-name="Line 29-2" transform="translate(256.89 12.448)">
                          <rect id="Rectangle_2409" data-name="Rectangle 2409" width="0.939" height="6.205" fill="#cf1013"/>
                        </g>
                        <g id="Group_9917-2" data-name="Group 9917-2" transform="translate(231.955 9.153)">
                          <g id="Line_30-2" data-name="Line 30-2" transform="translate(1.817 0.287)">
                            <rect id="Rectangle_2410" data-name="Rectangle 2410" width="0.939" height="9.212" fill="#cf1013"/>
                          </g>
                          <g id="Line_31-2" data-name="Line 31-2">
                            <rect id="Rectangle_2411" data-name="Rectangle 2411" width="4.575" height="0.939" fill="#cf1013"/>
                          </g>
                        </g>
                        <g id="Group_9910-2" data-name="Group 9910-2" transform="translate(258.736 29.87)">
                          <g id="Path_6894-2" data-name="Path 6894-2" transform="translate(0.001)">
                            <path id="Path_8180" data-name="Path 8180" d="M2693.64,276.29h7.662v4.245l-3.028,3.029h-5.617Z" transform="translate(-2692.657 -276.29)" fill="#cf1013"/>
                          </g>
                          <g id="Path_6895-2" data-name="Path 6895-2" transform="translate(0 2.537)">
                            <path id="Path_8181" data-name="Path 8181" d="M2693.3,281.691l-.641,4.737h5.617l3.028-3.029v-1.708Z" transform="translate(-2692.655 -281.691)" fill="#cf1013"/>
                          </g>
                        </g>
                        <g id="Group_9916-2" data-name="Group 9916-2" transform="translate(0 8.169)">
                          <g id="Path_6896-2" data-name="Path 6896-2" transform="translate(211.535 20.602)">
                            <path id="Path_8182" data-name="Path 8182" d="M2592.159,273.949V286.87h.388v-8.584h3.188v8.584h.389v-8.584h3.188v8.584h.389V273.949Z" transform="translate(-2592.159 -273.949)" fill="#cf1013"/>
                          </g>
                          <g id="Group_9911-2" data-name="Group 9911-2" transform="translate(229.202 7.838)">
                            <g id="Path_6897-2" data-name="Path 6897-2" transform="translate(0.001)">
                              <path id="Path_8183" data-name="Path 8183" d="M2662.577,246.775h-8.425v7.891h-3.664v-7.891h-20.713l1.517,6.531v17.182l15.675-.673v4.227h10.494v-4.227h3.408V249.243l1.895-2.032a.258.258,0,0,0-.188-.433Z" transform="translate(-2629.775 -246.775)" fill="#f0b0ad"/>
                            </g>
                            <g id="Path_6898-2" data-name="Path 6898-2" transform="translate(0 16.678)">
                              <path id="Path_8184" data-name="Path 8184" d="M2631.327,288.9h-1.554v-3.186l3.429-3.429h22.46v1.555h-21.816l-2.519,2.518Z" transform="translate(-2629.773 -282.285)" fill="#fbfbfb"/>
                            </g>
                          </g>
                          <g id="Group_9912-2" data-name="Group 9912-2" transform="translate(42.795 31.128)">
                            <g id="Rectangle_1852-2" data-name="Rectangle 1852-2" transform="translate(2.061 6.836)">
                              <rect id="Rectangle_2412" data-name="Rectangle 2412" width="184.416" height="4.972" fill="#f0b0ad"/>
                            </g>
                            <g id="Rectangle_1853-2" data-name="Rectangle 1853-2" transform="translate(15.571 2.697)">
                              <rect id="Rectangle_2413" data-name="Rectangle 2413" width="1.269" height="8.276" fill="#cf1013"/>
                            </g>
                            <g id="Rectangle_1854-2" data-name="Rectangle 1854-2" transform="translate(19.899 2.697)">
                              <rect id="Rectangle_2414" data-name="Rectangle 2414" width="1.269" height="8.276" fill="#cf1013"/>
                            </g>
                            <g id="Rectangle_1855-2" data-name="Rectangle 1855-2" transform="translate(24.227 2.697)">
                              <rect id="Rectangle_2415" data-name="Rectangle 2415" width="1.269" height="8.276" fill="#cf1013"/>
                            </g>
                            <g id="Rectangle_1856-2" data-name="Rectangle 1856-2" transform="translate(28.556 2.697)">
                              <rect id="Rectangle_2416" data-name="Rectangle 2416" width="1.269" height="8.276" fill="#cf1013"/>
                            </g>
                            <g id="Rectangle_1857-2" data-name="Rectangle 1857-2" transform="translate(32.884 2.697)">
                              <rect id="Rectangle_2417" data-name="Rectangle 2417" width="1.269" height="8.276" fill="#cf1013"/>
                            </g>
                            <g id="Rectangle_1858-2" data-name="Rectangle 1858-2" transform="translate(37.212 2.697)">
                              <rect id="Rectangle_2418" data-name="Rectangle 2418" width="1.269" height="8.276" fill="#cf1013"/>
                            </g>
                            <g id="Rectangle_1859-2" data-name="Rectangle 1859-2" transform="translate(41.54 2.697)">
                              <rect id="Rectangle_2419" data-name="Rectangle 2419" width="1.269" height="8.276" fill="#cf1013"/>
                            </g>
                            <g id="Rectangle_1860-2" data-name="Rectangle 1860-2" transform="translate(45.869 2.697)">
                              <rect id="Rectangle_2420" data-name="Rectangle 2420" width="1.269" height="8.276" fill="#cf1013"/>
                            </g>
                            <g id="Rectangle_1861-2" data-name="Rectangle 1861-2" transform="translate(50.198 2.697)">
                              <rect id="Rectangle_2421" data-name="Rectangle 2421" width="1.269" height="8.276" fill="#cf1013"/>
                            </g>
                            <g id="Rectangle_1862-2" data-name="Rectangle 1862-2" transform="translate(54.525 2.697)">
                              <rect id="Rectangle_2422" data-name="Rectangle 2422" width="1.269" height="8.276" fill="#cf1013"/>
                            </g>
                            <g id="Rectangle_1863-2" data-name="Rectangle 1863-2" transform="translate(58.854 2.697)">
                              <rect id="Rectangle_2423" data-name="Rectangle 2423" width="1.269" height="8.276" fill="#cf1013"/>
                            </g>
                            <g id="Rectangle_1864-2" data-name="Rectangle 1864-2" transform="translate(63.182 2.697)">
                              <rect id="Rectangle_2424" data-name="Rectangle 2424" width="1.269" height="8.276" fill="#cf1013"/>
                            </g>
                            <g id="Rectangle_1865-2" data-name="Rectangle 1865-2" transform="translate(67.51 2.697)">
                              <rect id="Rectangle_2425" data-name="Rectangle 2425" width="1.269" height="8.276" fill="#cf1013"/>
                            </g>
                            <g id="Rectangle_1866-2" data-name="Rectangle 1866-2" transform="translate(71.839 2.697)">
                              <rect id="Rectangle_2426" data-name="Rectangle 2426" width="1.269" height="8.276" fill="#cf1013"/>
                            </g>
                            <g id="Rectangle_1867-2" data-name="Rectangle 1867-2" transform="translate(76.167 2.697)">
                              <rect id="Rectangle_2427" data-name="Rectangle 2427" width="1.269" height="8.276" fill="#cf1013"/>
                            </g>
                            <g id="Rectangle_1868-2" data-name="Rectangle 1868-2" transform="translate(80.495 2.697)">
                              <rect id="Rectangle_2428" data-name="Rectangle 2428" width="1.269" height="8.276" fill="#cf1013"/>
                            </g>
                            <g id="Rectangle_1869-2" data-name="Rectangle 1869-2" transform="translate(84.823 2.697)">
                              <rect id="Rectangle_2429" data-name="Rectangle 2429" width="1.269" height="8.276" fill="#cf1013"/>
                            </g>
                            <g id="Rectangle_1870-2" data-name="Rectangle 1870-2" transform="translate(89.152 2.697)">
                              <rect id="Rectangle_2430" data-name="Rectangle 2430" width="1.269" height="8.276" fill="#cf1013"/>
                            </g>
                            <g id="Rectangle_1871-2" data-name="Rectangle 1871-2" transform="translate(93.48 2.697)">
                              <rect id="Rectangle_2431" data-name="Rectangle 2431" width="1.269" height="8.276" fill="#cf1013"/>
                            </g>
                            <g id="Rectangle_1872-2" data-name="Rectangle 1872-2" transform="translate(97.808 2.697)">
                              <rect id="Rectangle_2432" data-name="Rectangle 2432" width="1.269" height="8.276" fill="#cf1013"/>
                            </g>
                            <g id="Rectangle_1873-2" data-name="Rectangle 1873-2" transform="translate(102.137 2.697)">
                              <rect id="Rectangle_2433" data-name="Rectangle 2433" width="1.269" height="8.276" fill="#cf1013"/>
                            </g>
                            <g id="Rectangle_1874-2" data-name="Rectangle 1874-2" transform="translate(106.465 2.697)">
                              <rect id="Rectangle_2434" data-name="Rectangle 2434" width="1.269" height="8.276" fill="#cf1013"/>
                            </g>
                            <g id="Rectangle_1875-2" data-name="Rectangle 1875-2" transform="translate(110.793 2.697)">
                              <rect id="Rectangle_2435" data-name="Rectangle 2435" width="1.269" height="8.276" fill="#cf1013"/>
                            </g>
                            <g id="Rectangle_1876-2" data-name="Rectangle 1876-2" transform="translate(115.122 2.697)">
                              <rect id="Rectangle_2436" data-name="Rectangle 2436" width="1.269" height="8.276" fill="#cf1013"/>
                            </g>
                            <g id="Rectangle_1877-2" data-name="Rectangle 1877-2" transform="translate(119.45 2.697)">
                              <rect id="Rectangle_2437" data-name="Rectangle 2437" width="1.269" height="8.276" fill="#cf1013"/>
                            </g>
                            <g id="Rectangle_1878-2" data-name="Rectangle 1878-2" transform="translate(123.778 2.697)">
                              <rect id="Rectangle_2438" data-name="Rectangle 2438" width="1.269" height="8.276" fill="#cf1013"/>
                            </g>
                            <g id="Rectangle_1879-2" data-name="Rectangle 1879-2" transform="translate(128.107 2.697)">
                              <rect id="Rectangle_2439" data-name="Rectangle 2439" width="1.269" height="8.276" fill="#cf1013"/>
                            </g>
                            <g id="Rectangle_1880-2" data-name="Rectangle 1880-2" transform="translate(132.435 2.697)">
                              <rect id="Rectangle_2440" data-name="Rectangle 2440" width="1.269" height="8.276" fill="#cf1013"/>
                            </g>
                            <g id="Rectangle_1881-2" data-name="Rectangle 1881-2" transform="translate(136.763 2.697)">
                              <rect id="Rectangle_2441" data-name="Rectangle 2441" width="1.269" height="8.276" fill="#cf1013"/>
                            </g>
                            <g id="Rectangle_1882-2" data-name="Rectangle 1882-2" transform="translate(141.091 2.697)">
                              <rect id="Rectangle_2442" data-name="Rectangle 2442" width="1.269" height="8.276" fill="#cf1013"/>
                            </g>
                            <g id="Rectangle_1883-2" data-name="Rectangle 1883-2" transform="translate(145.42 2.697)">
                              <rect id="Rectangle_2443" data-name="Rectangle 2443" width="1.269" height="8.276" fill="#cf1013"/>
                            </g>
                            <g id="Rectangle_1884-2" data-name="Rectangle 1884-2" transform="translate(149.748 2.697)">
                              <rect id="Rectangle_2444" data-name="Rectangle 2444" width="1.269" height="8.276" fill="#cf1013"/>
                            </g>
                            <g id="Rectangle_1885-2" data-name="Rectangle 1885-2" transform="translate(154.076 2.697)">
                              <rect id="Rectangle_2445" data-name="Rectangle 2445" width="1.269" height="8.276" fill="#cf1013"/>
                            </g>
                            <g id="Rectangle_1886-2" data-name="Rectangle 1886-2" transform="translate(158.404 2.697)">
                              <rect id="Rectangle_2446" data-name="Rectangle 2446" width="1.269" height="8.276" fill="#cf1013"/>
                            </g>
                            <g id="Rectangle_1887-2" data-name="Rectangle 1887-2" transform="translate(162.733 2.697)">
                              <rect id="Rectangle_2447" data-name="Rectangle 2447" width="1.269" height="8.276" fill="#cf1013"/>
                            </g>
                            <g id="Rectangle_1888-2" data-name="Rectangle 1888-2" transform="translate(167.061 2.697)">
                              <rect id="Rectangle_2448" data-name="Rectangle 2448" width="1.269" height="8.276" fill="#cf1013"/>
                            </g>
                            <g id="Rectangle_1889-2" data-name="Rectangle 1889-2" transform="translate(171.389 2.697)">
                              <rect id="Rectangle_2449" data-name="Rectangle 2449" width="1.269" height="8.276" fill="#cf1013"/>
                            </g>
                            <g id="Rectangle_1890-2" data-name="Rectangle 1890-2" transform="translate(175.717 2.697)">
                              <rect id="Rectangle_2450" data-name="Rectangle 2450" width="1.269" height="8.276" fill="#cf1013"/>
                            </g>
                            <g id="Rectangle_1891-2" data-name="Rectangle 1891-2" transform="translate(12.621 6.399)">
                              <rect id="Rectangle_2451" data-name="Rectangle 2451" width="168.232" height="0.777" fill="#cf1013"/>
                            </g>
                            <g id="Rectangle_1892-2" data-name="Rectangle 1892-2" transform="translate(4.252 2.971)">
                              <rect id="Rectangle_2452" data-name="Rectangle 2452" width="180.979" height="0.777" fill="#cf1013"/>
                            </g>
                            <g id="Rectangle_1893-2" data-name="Rectangle 1893-2" transform="translate(0 1.739)">
                              <path id="Path_8185" data-name="Path 8185" d="M2232.9,300.063h189.482V301.3H2232.9Z" transform="translate(-2232.897 -300.063)" fill="#f0b0ad"/>
                            </g>
                            <g id="Rectangle_1894-2" data-name="Rectangle 1894-2" transform="translate(12.621)">
                              <rect id="Rectangle_2453" data-name="Rectangle 2453" width="168.232" height="0.777" fill="#cf1013"/>
                            </g>
                          </g>
                          <g id="Path_6899-2" data-name="Path 6899-2" transform="translate(0 23.416)">
                            <path id="Path_8186" data-name="Path 8186" d="M2141.782,286.563s9.12,9.62,9.369,16.116h260.856V287.438h-41.1l-10.994,10.994H2208.245l-6.833-2.991-20.278-8.877H2170.64v-6.623l-4.248,2.249v4.372Z" transform="translate(-2141.782 -279.941)" fill="#cf1013"/>
                          </g>
                          <g id="Group_9915-2" data-name="Group 9915-2" transform="translate(23.13)">
                            <g id="Group_9913-2" data-name="Group 9913-2" transform="translate(2.108 9.179)">
                              <g id="Rectangle_1895-2" data-name="Rectangle 1895-2">
                                <rect id="Rectangle_2454" data-name="Rectangle 2454" width="3.765" height="2.22" fill="#cf1013"/>
                              </g>
                              <g id="Rectangle_1896-2" data-name="Rectangle 1896-2">
                                <rect id="Rectangle_2455" data-name="Rectangle 2455" width="1.882" height="2.22" fill="#189788"/>
                              </g>
                            </g>
                            <g id="Rectangle_1897-2" data-name="Rectangle 1897-2" transform="translate(1.854)">
                              <rect id="Rectangle_2456" data-name="Rectangle 2456" width="0.388" height="27.165" fill="#fff"/>
                            </g>
                            <g id="Path_6900-2" data-name="Path 6900-2" transform="translate(0 2.493)">
                              <path id="Path_8187" data-name="Path 8187" d="M2193.08,255.846h-2.052V235.394h2.108v.389h-1.719v19.675h1.663Z" transform="translate(-2191.028 -235.394)" fill="#fff"/>
                            </g>
                            <g id="Group_9914-2" data-name="Group 9914-2" transform="translate(0.194 5.444)">
                              <g id="Rectangle_1898-2" data-name="Rectangle 1898-2">
                                <rect id="Rectangle_2457" data-name="Rectangle 2457" width="1.913" height="0.388" fill="#fff"/>
                              </g>
                              <g id="Rectangle_1899-2" data-name="Rectangle 1899-2" transform="translate(0 3.541)">
                                <rect id="Rectangle_2458" data-name="Rectangle 2458" width="1.913" height="0.388" fill="#fff"/>
                              </g>
                              <g id="Rectangle_1900-2" data-name="Rectangle 1900-2" transform="translate(0 7.081)">
                                <rect id="Rectangle_2459" data-name="Rectangle 2459" width="1.913" height="0.388" fill="#fff"/>
                              </g>
                              <g id="Rectangle_1901-2" data-name="Rectangle 1901-2" transform="translate(0 10.622)">
                                <rect id="Rectangle_2460" data-name="Rectangle 2460" width="1.913" height="0.388" fill="#fff"/>
                              </g>
                              <g id="Rectangle_1902-2" data-name="Rectangle 1902-2" transform="translate(0 14.162)">
                                <rect id="Rectangle_2461" data-name="Rectangle 2461" width="1.913" height="0.388" fill="#fff"/>
                              </g>
                            </g>
                          </g>
                        </g>
                      </g>
                      <g id="Path_6901-2" data-name="Path 6901-2" transform="translate(9.37 54.132)">
                        <path id="Path_8188" data-name="Path 8188" d="M2161.731,327.952l7.448,11.626h244.276l9.128-11.633Z" transform="translate(-2161.731 -327.945)" fill="#dd504d"/>
                      </g>
                    </g>
                    <g id="Group_9920-2" data-name="Group 9920-2" transform="translate(232.812 18.127)">
                      <g id="Rectangle_1903-2" data-name="Rectangle 1903-2">
                        <rect id="Rectangle_2462" data-name="Rectangle 2462" width="3.664" height="3.664" fill="#fbfbfb"/>
                      </g>
                      <g id="Rectangle_1904-2" data-name="Rectangle 1904-2" transform="translate(5.702)">
                        <rect id="Rectangle_2463" data-name="Rectangle 2463" width="3.664" height="3.664" fill="#fbfbfb"/>
                      </g>
                      <g id="Rectangle_1905-2" data-name="Rectangle 1905-2" transform="translate(11.403)">
                        <rect id="Rectangle_2464" data-name="Rectangle 2464" width="3.664" height="3.664" fill="#fbfbfb"/>
                      </g>
                    </g>
                  </g>
                  <g id="Path_6456-4" data-name="Path 6456-4" transform="translate(187.447 58.318)">
                    <path id="Path_8189" data-name="Path 8189" d="M2540.874,378.389v-40.3a5.95,5.95,0,0,0,7.25,0,5.944,5.944,0,0,1,7.25,0,5.892,5.892,0,0,0,7.209,0,5.944,5.944,0,0,1,7.25,0,5.883,5.883,0,0,0,7.2,0,5.944,5.944,0,0,1,7.25,0,5.814,5.814,0,0,0,7.152,0,6.029,6.029,0,0,1,7.306,0,5.813,5.813,0,0,0,7.152,0,5.945,5.945,0,0,1,7.25,0,5.882,5.882,0,0,0,7.2,0,5.944,5.944,0,0,1,7.25,0,5.892,5.892,0,0,0,7.209,0,5.944,5.944,0,0,1,7.25,0,5.95,5.95,0,0,0,7.25,0v40.3Z" transform="translate(-2540.874 -336.857)" fill="#1daee9"/>
                  </g>
                </g>
              </g>
            </g>
          </g>
          <g id="Path_7029-2" data-name="Path 7029-2">
            <path id="Path_8191" data-name="Path 8191" d="M2594.224,298.535h-.307l0-.47h.306q.551,0,1.1-.011l.01.47C2594.963,298.531,2594.594,298.535,2594.224,298.535Zm-3.135-.087q-.708-.04-1.411-.1l.038-.468q.7.056,1.4.1Zm7.068-.051-.033-.469q.7-.049,1.4-.117l.046.468Q2598.864,298.347,2598.156,298.4Zm-11.292-.35q-.7-.094-1.4-.2l.074-.465q.691.111,1.388.2Zm15.51-.111-.069-.464q.7-.1,1.385-.224l.081.462Q2603.076,297.831,2602.374,297.935Zm-19.69-.612q-.693-.149-1.38-.314l.11-.457q.682.163,1.368.311Zm23.86-.173-.1-.458q.685-.156,1.364-.331l.116.455Q2607.235,296.992,2606.544,297.15Zm-27.973-.874q-.68-.2-1.351-.42l.145-.447q.666.217,1.339.416Zm32.069-.232-.14-.449q.672-.21,1.338-.437l.152.445Q2611.319,295.831,2610.641,296.044Zm-36.087-1.131q-.662-.253-1.315-.523l.179-.434q.648.267,1.3.519Zm40.1-.295-.174-.435q.653-.262,1.3-.54l.186.431Q2615.307,294.355,2614.649,294.618Zm-43.99-1.373q-.638-.3-1.267-.622l.212-.419q.624.316,1.256.617Zm47.874-.359-.207-.421q.63-.311,1.252-.638l.219.416Q2619.169,292.572,2618.532,292.886Zm-51.627-1.6q-.613-.351-1.216-.717l.244-.4q.6.364,1.2.712Zm55.362-.422-.24-.4q.6-.359,1.2-.733l.251.4Q2622.877,290.5,2622.267,290.859Zm-58.954-1.825q-.584-.4-1.158-.81l.274-.381q.569.409,1.148.8Zm62.52-.483-.271-.384q.574-.4,1.137-.823l.281.377Q2626.412,288.143,2625.833,288.551Zm-65.93-2.036q-.553-.441-1.093-.9l.3-.359q.535.452,1.083.889Zm69.306-.539-.3-.362q.542-.447,1.07-.907l.309.354Q2629.755,285.526,2629.209,285.976Zm-72.514-2.235q-.518-.483-1.022-.978l.329-.335q.5.492,1.013.97Zm75.682-.59-.326-.338q.5-.487,1-.986l.333.33Q2632.885,282.66,2632.376,283.151Zm-78.67-2.423q-.479-.521-.944-1.054l.354-.308q.461.528.936,1.045Zm81.611-.635-.35-.312q.465-.524.919-1.059l.358.3Q2635.787,279.565,2635.317,280.092Zm-84.359-2.6q-.437-.556-.861-1.124l.377-.281q.419.564.853,1.115Zm87.056-.675-.373-.285q.423-.557.834-1.126l.381.275Q2638.441,276.257,2638.013,276.819Zm-89.55-2.762q-.393-.588-.772-1.187l.4-.251q.375.594.766,1.177Zm91.986-.707-.394-.255q.379-.588.744-1.186l.4.245Q2640.833,272.758,2640.449,273.35Zm-94.208-2.913q-.346-.617-.678-1.245l.416-.219q.328.622.672,1.234Zm96.369-.732-.413-.224q.333-.614.651-1.239l.418.214Q2642.946,269.086,2642.611,269.7Zm-98.307-3.052q-.3-.643-.58-1.294l.431-.186q.279.646.575,1.283Zm100.18-.746-.429-.191q.285-.638.553-1.284l.434.18Q2644.77,265.263,2644.483,265.907Zm-101.817-3.176q-.248-.666-.479-1.337l.445-.152q.229.666.474,1.325Zm103.389-.752-.442-.158q.235-.659.453-1.327l.447.146Q2646.293,261.313,2646.056,261.978Zm-104.716-3.284q-.2-.68-.371-1.365l.455-.117q.175.681.368,1.354Zm105.981-.767-.453-.123q.183-.675.348-1.358l.457.111Q2647.505,257.246,2647.321,257.928Zm-106.989-3.355q-.141-.692-.264-1.39l.462-.082q.122.691.262,1.378Zm107.937-.78-.461-.087q.129-.688.242-1.381l.463.075Q2648.4,253.1,2648.269,253.792Zm-108.622-3.406q-.088-.7-.157-1.407l.468-.046q.068.7.155,1.394Zm109.247-.79-.467-.051q.076-.7.135-1.4l.468.039Q2648.971,248.894,2648.894,249.6Zm-109.608-3.438q-.034-.7-.049-1.414l.47-.01q.015.7.048,1.4Zm109.908-.794-.47-.016q.023-.7.028-1.4l.469,0Q2649.217,244.659,2649.194,245.364Zm.03-1.828h-.47q0-.7-.018-1.4l.47-.012Q2649.224,242.825,2649.224,243.535Zm-109.507-1.607-.47-.014q.021-.708.059-1.413l.469.025Q2539.738,241.226,2539.718,241.929Zm108.877-2.6q-.053-.7-.124-1.4l.467-.048q.072.7.126,1.409Zm-108.6-1.6-.467-.049q.075-.7.167-1.4l.466.061Q2540.072,237.033,2540,237.731Zm108.116-2.578q-.107-.695-.231-1.383l.462-.084q.126.694.233,1.4ZM2540.6,233.568l-.462-.085q.129-.7.275-1.388l.459.1Q2540.731,232.877,2540.6,233.568Zm106.71-2.545q-.161-.684-.339-1.361l.454-.119q.18.683.341,1.373Zm-105.786-1.558-.454-.121q.183-.685.382-1.363l.45.133Q2541.707,228.786,2541.526,229.465Zm104.666-2.5q-.214-.671-.445-1.336l.444-.154q.232.671.448,1.348Zm-103.425-1.523-.443-.156q.234-.669.487-1.329l.438.167Q2543,224.782,2542.767,225.445ZM2644.757,223q-.266-.652-.547-1.3l.43-.189q.285.65.552,1.308Zm-100.445-1.464-.429-.19q.285-.646.586-1.283l.424.2Q2544.595,220.9,2544.312,221.538Zm98.706-2.376q-.315-.628-.645-1.249l.415-.22q.333.626.651,1.26Zm-96.863-1.4-.414-.223q.334-.621.684-1.234l.408.233Q2546.486,217.149,2546.155,217.766Zm94.833-2.3q-.363-.6-.74-1.194l.4-.252q.38.6.746,1.2Zm-92.7-1.326-.4-.253q.381-.595.777-1.179l.389.263Q2548.662,213.556,2548.284,214.145Zm90.4-2.2q-.407-.573-.829-1.133l.375-.282q.424.566.836,1.143Zm-87.994-1.252-.375-.284q.426-.564.866-1.116l.368.293Q2551.109,210.138,2550.686,210.7Zm85.422-2.082q-.449-.538-.913-1.066l.352-.31q.468.531.921,1.075Zm-82.76-1.173-.352-.311q.468-.531.95-1.048l.344.32Q2553.812,206.917,2553.348,207.442Zm79.941-1.952q-.489-.5-.991-.993l.328-.335q.507.495,1,1Zm-77.037-1.092-.328-.336q.507-.493,1.028-.973l.318.345Q2556.755,203.91,2556.252,204.4Zm73.989-1.807q-.526-.463-1.064-.914l.3-.359q.541.453,1.072.921Zm-70.86-1.006-.3-.361q.544-.452,1.1-.891l.291.369Q2559.922,201.138,2559.382,201.586Zm67.6-1.65q-.559-.421-1.13-.828l.273-.383q.575.411,1.139.836Zm-64.263-.915-.271-.383q.577-.409,1.166-.8l.261.39Q2563.292,198.615,2562.719,199.021Zm60.809-1.481q-.59-.376-1.19-.738l.242-.4q.607.366,1.2.745Zm-57.282-.82-.241-.4q.608-.364,1.226-.713l.23.409Q2566.849,196.359,2566.246,196.72Zm53.657-1.3q-.617-.329-1.242-.644l.211-.419q.63.316,1.253.649Zm-49.963-.721-.209-.42q.634-.316,1.277-.616l.2.426Q2570.569,194.383,2569.941,194.7Zm46.187-1.115q-.639-.28-1.287-.545l.177-.435q.655.267,1.3.55Zm-42.343-.617-.176-.436q.656-.265,1.322-.515l.165.44Q2574.436,192.7,2573.785,192.965Zm38.433-.922q-.661-.23-1.331-.446l.144-.447q.675.217,1.342.449Zm-34.464-.506-.142-.448q.674-.213,1.354-.41l.13.451Q2578.421,191.326,2577.753,191.537Zm30.442-.726q-.676-.179-1.361-.341l.108-.457q.69.163,1.373.343Zm-26.385-.387-.107-.458q.688-.161,1.382-.3l.095.46Q2582.491,190.266,2581.81,190.425Zm22.28-.529q-.689-.127-1.383-.234l.073-.465q.7.11,1.395.236Zm-18.149-.266-.071-.464q.7-.106,1.4-.195l.059.466Q2586.632,189.524,2585.941,189.629Zm13.984-.331q-.7-.072-1.4-.127l.037-.468c.47.037.941.079,1.409.129Zm-9.8-.142-.035-.469q.7-.052,1.412-.086l.023.469Q2590.818,189.1,2590.12,189.157Zm5.607-.132q-.7-.019-1.4-.021v-.47q.709,0,1.415.021Z" transform="translate(-2539.237 -188.535)" fill="#16142f"/>
          </g>
        </g>
      </g>
    </g>
  </g>
</svg>
