<svg xmlns="http://www.w3.org/2000/svg" width="15.262" height="10.58" viewBox="0 0 15.262 10.58"><defs><style>.a{fill:#82D3F1;}</style></defs><g transform="translate(0 0)"><path class="a" d="M-700.182,532.575l-.406.246-6.5,3.937a.811.811,0,0,1-.42.117.811.811,0,0,1-.42-.117l-6.3-3.814-.406-.246-.406-.246v7.572a1.186,1.186,0,0,0,1.185,1.185h12.893a1.186,1.186,0,0,0,1.185-1.185v-7.695Z" transform="translate(715.038 -530.628)"/><path class="a" d="M-709.791,491.381l6.651,4.028,6.78-4.106.357-.216.35-.212a1.183,1.183,0,0,0-.94-.464h-12.893a1.184,1.184,0,0,0-1,.551l.347.21Z" transform="translate(710.67 -490.41)"/></g></svg>
