<svg xmlns="http://www.w3.org/2000/svg" width="15.519" height="20.168" viewBox="0 0 15.519 20.168"><defs><style>.a{fill:#00bfff;}</style></defs><path class="a" d="M1001-174.992c.011-.054.02-.108.033-.161a.9.9,0,0,1,.421-.6q1.69-.943,3.382-1.884a.629.629,0,0,1,.873.306q.652,1.033,1.3,2.067l.182.288a13.5,13.5,0,0,0,5.371-6.98l-.394-.419-1.436-1.527a1.116,1.116,0,0,1-.218-1.119q.722-2.2,1.449-4.395a.782.782,0,0,1,.552-.569.167.167,0,0,0,.03-.014h.194c.005,0,.01.012.016.013l1.592.474c.539.161,1.078.32,1.616.488a.822.822,0,0,1,.525.654c.011.045.019.09.028.136v.672c0,.038-.009.077-.01.115a22.922,22.922,0,0,1-.239,2.784,21.609,21.609,0,0,1-1.494,5.374,16.857,16.857,0,0,1-5.365,7.068,11.97,11.97,0,0,1-4.279,2.058,10.794,10.794,0,0,1-1.884.3c-.125.009-.249.02-.373.03h-.517a.09.09,0,0,0-.022-.014.836.836,0,0,1-.594-.745c-.206-1.146-.408-2.294-.612-3.441-.042-.236-.086-.472-.13-.707Z" transform="translate(-1001 190)"/><path class="a" d="M1001-174.992c.011-.054.02-.108.033-.161a.9.9,0,0,1,.421-.6q1.69-.943,3.382-1.884a.629.629,0,0,1,.873.306q.652,1.033,1.3,2.067l.182.288a13.5,13.5,0,0,0,5.371-6.98l-.394-.419-1.436-1.527a1.116,1.116,0,0,1-.218-1.119q.722-2.2,1.449-4.395a.782.782,0,0,1,.552-.569.167.167,0,0,0,.03-.014h.194c.005,0,.01.012.016.013l1.592.474c.539.161,1.078.32,1.616.488a.822.822,0,0,1,.525.654c.011.045.019.09.028.136v.672c0,.038-.009.077-.01.115a22.922,22.922,0,0,1-.239,2.784,21.609,21.609,0,0,1-1.494,5.374,16.857,16.857,0,0,1-5.365,7.068,11.97,11.97,0,0,1-4.279,2.058,10.794,10.794,0,0,1-1.884.3c-.125.009-.249.02-.373.03h-.517a.09.09,0,0,0-.022-.014.836.836,0,0,1-.594-.745c-.206-1.146-.408-2.294-.612-3.441-.042-.236-.086-.472-.13-.707Z" transform="translate(-1001 190)"/></svg>