<svg version="1.1" id="Layer_1" xmlns="http://www.w3.org/2000/svg" xmlns:xlink="http://www.w3.org/1999/xlink" x="0px" y="0px"
	 viewBox="0 0 29.9 22.8" style="enable-background:new 0 0 29.9 22.8;" xml:space="preserve">
<style type="text/css">
	.st0{fill:#012169;}
</style>
<path class="st0" d="M16.1,16.1c3.7-3.7,3.7-9.7,0-13.3c0,0,0,0,0,0c-3.7-3.7-9.7-3.7-13.3,0c0,0,0,0,0,0c-3.7,3.7-3.7,9.7,0,13.3
	c0,0,0,0,0,0l0,0l0,0l6.7,6.7L16.1,16.1L16.1,16.1L16.1,16.1z M6.8,12.1c-1.5-1.5-1.5-3.8,0-5.3l0,0c1.5-1.5,3.8-1.5,5.3,0l0,0
	c1.5,1.5,1.5,3.8,0,5.3l0,0C10.6,13.5,8.3,13.5,6.8,12.1L6.8,12.1L6.8,12.1z"/>
</svg>
