<?xml version="1.0" encoding="utf-8"?>
<!-- Generator: Adobe Illustrator 25.3.1, SVG Export Plug-In . SVG Version: 6.00 Build 0)  -->
<svg version="1.1" id="Layer_1" xmlns="http://www.w3.org/2000/svg" xmlns:xlink="http://www.w3.org/1999/xlink" x="0px" y="0px"
	 viewBox="0 0 1343.2 676.7" style="enable-background:new 0 0 1343.2 676.7;" xml:space="preserve">
<style type="text/css">
	.st0{fill:none;stroke:#CAE1F7;stroke-width:4;stroke-linecap:round;stroke-linejoin:round;}
	.st1{fill:none;stroke:#7EF081;stroke-width:4;stroke-linecap:round;stroke-linejoin:round;stroke-dasharray:10,10;}
	.st2{clip-path:url(#SVGID_2_);}
	.st3{clip-path:url(#SVGID_4_);}
	.st4{clip-path:url(#SVGID_6_);}
	.st5{fill:#C4E2F9;}
	.st6{clip-path:url(#SVGID_8_);}
	.st7{clip-path:url(#SVGID_10_);}
	.st8{clip-path:url(#SVGID_12_);}
	.st9{clip-path:url(#SVGID_14_);}
	.st10{clip-path:url(#SVGID_16_);}
	.st11{clip-path:url(#SVGID_18_);}
	.st12{enable-background:new    ;}
	.st13{fill:#FFFFFF;}
	.st14{fill:#C7503F;}
</style>
<g id="Group_65" transform="translate(-270.494 -321.472)">
	<g id="Group_44" transform="translate(350.472 323.421)">
		<path id="Path_45" class="st0" d="M559.3,141.8c-1.1,5.4-1.9,9,6.5,6.7c6.7-1.8,10.8,0.9,5.2,8.7c-1.9,2.6-2,6.7-2.7,10.1
			c-1.6,7.6-4.7,13-14,11.5c-8.2-1.3-15,1.3-16.3,10.2c-1.1,7.5-3.4,18.1,0.4,22.3c7.4,8,3.4,13.1-0.9,18.3
			c-5.1,6.2-9.6,11.6-10.6,20.5c-0.5,4.7-7.4,9.2-12.2,12.7c-11.2,8-17,17.5-15.6,32c0.7,7.4-1.9,15.7-4.9,22.8
			c-4,9.5-3.4,17.2,4.1,24.3c10.2,9.7,20.9,19.1,30.4,29.4c8.2,8.9,16.3,10,27,5.1c17.6-8.2,17.7-7.8,30.5,5
			c1.3,1.3,2.8,3.8,3.8,3.6c19-4.2,18.4,10.6,21.8,21.8c1.2,4,2.9,7.8,5.1,11.4c8.4,14.2,10.5,29,5,44.6
			c-4.6,13.2-1.9,25.5,2.3,38.3c3.1,9.3,3,19.6,5.5,29.2c3.6,13.3,8.1,26.5,12.8,39.4c0.7,1.9,4.8,3.7,7.4,3.7
			c21.7,0.5,35.4-11.6,46-29.1c4.9-8,11.5-15,16.2-23.1c2.2-3.9,3.4-9.5,2.4-13.8c-1.4-6.4-1.4-11.2,4.1-15.4
			c4.1-3.1,7.9-6.5,11.5-10.2c9.6-9.7,11.7-20.2,5.4-33.2c-9.1-18.6-5.1-33.1,11.3-47c15.7-13.4,30.1-27.5,35.7-48.4
			c3-10.9-0.3-15.9-11.5-16.7c-5.5-0.4-14.1,4-14.1-7.5c0-10.6,7.9-12.7,15.3-12.5c15.8,0.5,29.6-1.8,38.2-16.8
			c6.8-11.8,2.1-21.6-11.5-24.3c-7.3-1.4-14.9-2.3-21.5-5.4c-5.8-2.7-11.1-7.6-15.2-12.6c-4.5-5.5-3.2-13.1,2.6-15.8
			c4.2-2,11.8-0.4,16.1,2.3c7.3,4.6,8.9,16.4,20.6,16.4c5.9,0,11.9,2.3,17.8,2.2c10.6,0,18.7,2.7,24.5,12.7
			c2.8,4.9,8.5,9.1,13.8,11.4c12,5.1,13.8,15.5,13.6,25.7c-0.3,14.3,5.4,25.9,13.2,36.8c1.6,2.3,5.3,5.1,7.4,4.7s5.3-5,4.9-7.1
			c-4.8-23.8,14.7-33.4,27-47.2c1.6-1.8,3.3-3.5,5.1-5.1c5-3.9,10.2-7.7,15.3-11.5c3.8,7.6,7.7,15.2,11.4,23c0.7,1.4-0.5,3.6,0.2,5
			c1.3,2.7,2.7,6.4,5.1,7.5c9.7,4.7,11.5,6.6,12.7,15.5c2.4,17.8,12.7,31.6,24.3,44.5c1.2,1.3,5.3,2,6,1.2c1.6-1.9,3.3-5.5,2.5-7.3
			c-1.6-3.8-4.9-6.9-7.3-10.3c-3.9-5.5-8.7-10.6-11.1-16.7c-1.5-3.9,0.5-9.2,0.9-13.9c3.4,2.1,8.4,3.5,9.8,6.5
			c2.9,6,5.7,12.3,12.9,8.4c7.9-4.3,6.6-12.8,3.9-20c-2.4-6.6-6.6-12.6-8.6-19.2c-3.5-11.1,1.4-17.8,12.5-16.2
			c12.2,1.7,22.5-0.3,27.8-11.8c5.7-12.4,12.7-25.2,4.1-39.4c-3.9-6.3-8.5-12.4-11.1-19.2c-1.3-3.4,1.3-8.4,2.2-12.6
			c3.8,0.8,8.6,0.6,11.3,2.8c4.6,3.8,7.5,9.5,11.8,13.6c2,1.9,6.7,3.4,8.5,2.3c2.2-1.3,3.7-5.5,3.8-8.5c0.1-3.9-0.8-7.8-2.4-11.4
			c-3.6-7.6-4-14,2.5-20.6c2.9-3,3.4-8.4,5.4-12.5c1.8-3.6,3.4-8,6.4-10c7.4-4.7,6.4-9.3,4.1-16.9c-4.5-14.9-15.4-20.6-28.5-23.9
			c-6.3-1.6-14.7-1.4-12.2-10.2c2-7.1,7-11.7,17.6-8.5c8.5,2.6,20.8,4.8,26.8-8.1c0.9-2,6.1-4.4,7.2-3.6c3,2.1,5.2,5.2,6.4,8.6
			c1.1,3.5,0.2,7.6,0.2,11.4c0.2,11.7,9.8,25,20.4,28c6.1,1.8,12.5-5.4,10-12.7c-2.3-6.7-6.6-12.8-9.9-19.2
			c-3-5.8-6.4-11.8,5.1-11.6c2.1,0,4.3-2.3,6.4-2.3c11.6,0.2,11.1-5.2,6.4-12.9c-0.8-1.3-1.7-2.5-2.5-3.9c-0.1-0.1,0.7-1.1,1.2-1.2
			c2.1-0.5,4.2-1.3,6.4-1.2c3.4,0.1,6.8,1,10.2,1.1c4.2,0.2,8.5,0.1,12.7,0.1c-3-3-5.4-7.2-9-8.6c-6-2.5-12.5-3.8-19-3.9
			c-19.8,0.2-38.6-2.1-56.3-12.6c-5.9-3.5-14.3-4.4-21.4-3.9c-22.4,1.7-44.3,2.6-66.4-3.7c-8.6-2.5-18.9-1.9-27.8,0
			c-9.7,2.1-17.6,4.4-25.7-4.1c-8.6-9-20-3.2-28.9-0.8c-10.2,2.7-16.3,1.9-21.9-7c-9.7-15.1-23.3-8.6-35.5-4.9
			c-13.9,4.2-27.2,10-40.8,15.1c-9.5,3.6-19,4.6-28-1.4c-4.2-2.8-7.8-3.7-10.2,1.4c-8.8,18.7-28.1,16.2-43.4,21.5
			c-7,2.5-14.3,4.2-21.6,5c-9,1-18.6,3.8-25.6-6.1c-4.8-6.9-12.7-6-20.2-6.6c-21.3-1.7-40.8,0.9-56.2,17.9c-3.8,3.9-8,7.4-12.7,10.2
			c-9.5,6.1-10.4,12.5-2.5,20.5c9.3,9.4,22.1,10.9,27.7,2.4c2.6-3.9,1.6-10.1,3-15.1c1.2-4.4,2.4-9.5,5.4-12.3
			c1.5-1.4,10.2-3.4,9.7,4.7c-0.7,10.7-1.2,21.6-4.1,31.7c-2.3,8-9.3,12.6-18.7,11.6c-4.6-0.5-9.4,0.2-14-0.1
			c-9.3-0.8-17.6-0.3-21.9,10.2c-1,2.4-4.9,3.5-7.4,5.2c-1.7-3-3.7-5.8-5-8.9c-4.4-10.5-7.8-21.6-13.4-31.5
			c-1.2-2.2-12-2.5-14.3,0.1c-8.7,9.7-15.8,20.8-23.2,31.6c-0.7,1,0.2,4.1,1.3,4.8c1.7,1.1,4.4,1.8,6.2,1.3
			c3.6-1.1,6.8-3.4,10.3-4.9c6.5-2.9,12.2-2.6,15.3,5.1"/>
		<path id="Path_46" class="st0" d="M393.7,1.6c-11,1.3-22.5,1.2-33,4.2c-8.9,2.6-19.8,2.8-23.6,16c-2.4,8.3-11.2,9.2-18.5,2.7
			c-1.3-1.2-2.4-2.8-3.9-3.8c-9-6.2-16.7-2.5-19.1,8.9c-3.7,17.7-16.1,22.2-29.2,10.1c-7.4-6.8-14.7-12.2-25.6-11.5
			c-13.8,0.9-16.8,4.9-14.3,19.3c0.5,3.1-1.5,7.5-3.9,9.8c-1.3,1.3-6.6,0.5-8.5-1.1c-11-9.6-23.7-9.7-35.7-4.6
			c-16.6,7-32.9,4.3-48.4-0.7c-14.7-4.7-28.9-5.9-43.4-1.9c-5.1,1.4-11.9,4.7-13.6,8.9C68.8,68.6,59.4,68.8,51,71.7
			c-2,0.7-6,0.7-6.1,1.3c-1.2,13.9-15.8,19.3-19.8,31.7c-1.6,5.1-7.7,9.1-12.4,12.8c-5.5,4.3-15.7,7.6-11.9,15.1
			c3.8,7.6,11.9-0.6,17-2.6C37.3,122,56,112,75.4,103.8c5.2-2.2,12-2.3,17.6-1.2c4.7,1,12.1,2.5,9,11.1c-0.1,0.4-0.2,1,0,1.2
			c12.3,11.8,3.1,27.5,7.4,40.9c2.2,6.9-3.2,11.2-8.6,15.3c-17,13-18.4,19.1-7.6,36.7c6.9,11.2,9.2,23,8.8,35.8
			c-0.5,12.9,4,22,16.3,28.5c6.9,3.7,13,11.5,16.4,18.8c5.4,11.5,11.3,21.1,24.6,24c21.2,4.6,35.6,19.7,50.9,33.2
			c7.5,6.6,14.4,11.9,25.7,6.7c6.7-3.1,11.5,2.6,11.1,9.8c-0.3,5.1-1,11.1-3.8,15.1c-17,24.5-10.2,48.5,0.2,72.8
			c5.9,13.9,14,26.1,26.9,34.2c9.8,6.2,13,14.7,12.7,25.6c-0.3,14.4,0.4,28.9-0.2,43.3c-0.7,18.3,2.8,35.3,9.8,52.4
			c4.3,10.4,3.9,22.7,5.6,34.2c3,20.6,20.8,23.9,35.8,30.3c1.8,0.8,5-1.5,7.5-2.3c-0.8-1.7-1.3-3.9-2.6-5c-9.6-8-11.2-17.3-8.1-29.5
			c2-7.8,0.6-17.6-2.5-25.2c-3.8-9.3-1.6-13.5,6.8-16.8c9.8-3.8,15.9-10,14.1-21.6c-0.9-5.8,1.2-9.5,7.5-11.6
			c13.5-4.7,17.7-15.8,17.9-29.1c0.2-11.7,4-20.7,16.5-24.3c10.6-3.1,15.1-10.7,14-21.6c-1.5-14.3,3.6-26.2,12.7-37
			c3.2-3.7,6.4-8.1,7.5-12.7c2.2-9.1-2.7-14.6-11.2-17.9c-7.1-2.8-13.9-6.2-20.4-10.2c-7.3-4.4-12.6-11.4-23-10.6
			c-5.9,0.5-10.3-5.6-11.4-12.3c-1.9-11.5-7.2-18.4-20.4-18.3c-4.2,0-9.6-4.7-12.5-8.6c-8.8-11.8-19.2-18.4-34.6-16.7
			c-4.9,0.5-10.1-2.4-15.3-3.5c-7-1.5-13.9-3.5-20.5,2.4c-11.8,10.5-20.9,7.9-23.8-7.6c-1.6-8.7,0.7-17.9-13.1-17.1
			c-1.4,0.1-6.2-10.7-4.5-13c5.5-7.8-0.6-11.4-4.7-13.9c-2-1.2-7.7,2.4-11,4.7c-3.4,2.3-5.5,7-9.1,8.5c-5,2-10.9,2-16.4,2.8
			c-0.8-5.5-2.7-11.1-2.3-16.5c0.4-5.2,4.4-10.2,4.6-15.3c0.5-18,7.3-26,25.7-28c11.8-1.3,22.5-0.6,28.3,12.6
			c1.4,3.2,5.7,5.2,8.7,7.7c3-3.8,7.2-7.2,8.6-11.6c1.5-4.6,0.7-10.1,0.3-15.2c-0.9-11.6,5.3-17.4,15.2-21.9c7.4-3.4,15.9-7.6,20-14
			c9.7-15.2,23.3-20.2,39.9-21.6c4.4-0.4,9-2.5,12.6-5.1c6.1-4.3,5.3-9.8-1.1-17.8c-2.3-2.9-3.5-6.7-5.2-10.1
			c3.8-0.9,7.7-2.7,11.4-2.3c9.3,0.9,17.3,3.4,19.4,15c1.4,7.6,8.1,11.9,16.2,10.1c5.8-1.3,9.3-12.6,6.4-18.9
			c-3.5-7.4-6.5-14-2.9-23.1c4-10.3-3.8-19.4-14.8-18.8c-10.4,0.5-18.6-2.9-25.5-10.4c-11-12-18.5-9.3-29.3,0
			c-3.6,3.1-6.6,7.1-10.3,10.1c-6.3,5.1-12.7,11.1-21.6,5.1c-8-5.4-9.2-16.2-5.3-26.8c3.9-10.8,12.8-15.4,22-18.8
			c10.3-3.8,20.9-6.3,31.8-7.4c3.9-0.4,9.8,3.7,12.4,7.3c7.9,10.9,19.1,16.2,32,12.3c3.4-1,7.8-4.4,8.6-7.5c1.7-6.6,0.3-13.4-6-17.7
			c-4.1-2.8-8.8-4.7-12.6-7.8c-3.5-2.8-8.9-7.2-8.3-9.9c0.8-3.9,5.6-8,9.6-10.1c13.7-7.3,27.9-13.8,41.9-20.6
			c2.6-1.2,5.1-2.5,7.6-3.8c-3-1.3-5.8-2.9-8.9-3.7c-2.4-0.6-5.1-0.1-7.6-0.1"/>
		<path id="Path_47" class="st0" d="M1128.6,470.4c-0.1-5.3,13.6-6.3,4.9-13.8c-5.9-5.1-12.9-4.5-19,1.1c-2.9,2.6-6,5-8.9,7.7
			c-2.2,2-5,6.4-6.3,6c-15.2-5.2-19.5,8-25.1,15.9c-5.6,8-12.2,12.2-20.8,15c-18.4,6-21.3,10.6-21.8,29.2c-0.3,11,4.3,23.4-7.3,32.1
			c-0.5,0.4,0.9,4.9,2.5,6c3,1.9,7.2,4.5,10,3.7c12.1-3.5,23.7-8.7,35.8-12.2c6.6-1.8,13.5-2.7,20.3-2.5c3.4,0.1,9.6,2.9,9.7,4.8
			c0.6,8.3,4.6,10.6,11.9,10.3c1.2,0,3.3,2.2,3.7,3.7c0.9,3.7-7.4,9,1.5,11.3c6.6,1.7,15.4,5,20,2.2c22-13.3,40-31.5,49.4-55.8
			c2.5-6.4,0-18.9-5-23.4c-13.6-12.3-14.4-28.1-17.5-43.8c-0.6-3.3-4-6-6.2-9c-2.1,3-5.4,5.7-6.1,9c-1.6,6.9-4.1,14-11.6,13.4
			c-4.9-0.4-9.4-6.2-14.1-9.6"/>
		<path id="Path_48" class="st0" d="M554.2,9.3c-6.1-6.5-13.3-3.9-20.4-2.6c-5.3,1-9,2.2-14.7-3c-5.1-4.6-16.4-4-24.7-3
			c-23,2.6-46,5.7-68.7,10.2c-11.4,2.3-22.3,7.9-33.1,12.6c-2,0.9-2.7,4.9-3.9,7.4h8.9c3.4,0,6.9,0.4,10.2-0.1
			c10.2-1.5,13.1,2.6,13.1,12.8c0,9.8,2,18.6-6.4,27.1c-6.5,6.6-0.8,19.3,9.8,26.4c9.6,6.4,16.7,5.6,22.7-5.2
			c8.3-15.1,19.4-23.1,37.2-21.7c8.1,0.7,16-2.6,17.5-11.3C503.2,50,509,47.2,516,45c7.8-2.4,12.3-6.3,11.6-15.4
			c-0.8-10.4,6.6-12.7,15.1-14.2c4-0.7,7.7-3.2,11.5-4.9"/>
		<path id="Path_49" class="st0" d="M663.7,230.9c14.4,1.3,28.9,2.6,43.3,3.8c6.5,0.5,11.5-0.9,11.5-8.9s-5.1-9.7-11.5-8.8
			c-13.9,1.8-24.8-1.8-33.5-13.8c-2.9-4-12-7.7-15.9-6.1c-11.1,4.8-17.7-0.9-24.4-7.1c-8.9-8.1-18.7-13.8-30.5-8.5
			c-6.9,3.2-12.9,8-17.7,13.9c-6,7.5-11.9,13.6-21.9,15.3c-2.8,0.5-5.1,4-7.7,6.1c3.4,2.9,5.2,7.2,11.7,3c5.9-3.8,14.2-3.8,21.4-5.5
			c10-2.5,18.2,1.1,22.9,10.2c8.2,15.8,28.7,20.6,43.3,10.2c2.3-1.6,5.1-2.6,7.6-3.9"/>
		<path id="Path_50" class="st0" d="M1164.3,441.1c5.1,3.4,9.9,7.5,15.4,10c3.7,1.7,8.4,1.1,12.6,1.5c-0.4-3.8,0.1-8.1-1.5-11.3
			c-1.8-3.6-5.7-6-8.6-9.1c-7.3-7.6-16.2-14.3-21.2-23.2c-5.4-9.8-13.4-10.4-20.7-8.2c-8.9,2.7-15.9,3-23.2-2.9
			c-1.8-1.4-5-1-7.5-1.4c0.7,2.6,1.6,5.1,2.6,7.6c0.8,1.6,2.1,3,3.8,3.8c13.9,5.7,25.8,12.4,29.8,29.2c1.6,6.8,10.9,4.5,17.2,2.7"/>
		<path id="Path_51" class="st0" d="M783.4,467.8c-1.3-3-2.5-5.9-3.8-8.9c-2.5,2.1-6.1,3.7-7.5,6.5c-3.9,7.7-9.7,11.9-18,14
			c-11,2.8-15.1,10.7-12.9,21.6c0.9,4.5,0.2,9.3,0.1,14c-0.1,6.7-1.5,15.5,6.5,17.1c3.8,0.8,11.1-5.1,13.5-9.7
			c7-13,12.4-26.9,18.1-40.6c1.7-4.1,2.6-8.5,3.9-12.7"/>
		<path id="Path_52" class="st0" d="M1207.6,628.3c8.7-0.7,15.7-5.2,18.9-12.8c4.7-11.4,15.7-13.8,24.6-18.7
			c8.8-4.8,12.5-10.1,8.6-19.4c-1-2.4-3.1-5.8-5-6s-5.9,2.8-6.1,4.7c-1.8,18.9-19,20.6-30.9,27.9c-5.2,3.1-10.8,5.7-16.5,7.6
			c-5.3,1.8-9.8,3.5-8.9,10.3c1,8.1,7.1,4.6,11.5,5.1c0.9,0.3,1.8,0.7,2.6,1.2"/>
		<path id="Path_53" class="st0" d="M766.9,167.2c0.4-1.7,0.8-3.4,1.3-5.1c-6.4-1.3-13.1-4.5-19-3.3c-7.2,1.4-7.1,9.5-0.1,14.7
			c6.6,4.9,12.7,8.5,8.1,19.4c-3.7,8.7,6.4,18.5,16.1,19c7.7,0.4,8.1-5.7,6.1-8.8c-7.1-10.7-3.1-25-12.4-34.6"/>
		<path id="Path_54" class="st0" d="M682.8,186.3c11.7-2.7,22.7-3.6,33.5,4.6c2.6,2,11.3-0.6,14.5-3.8c3.1-3.2-7.8-15-14.9-16.1
			c-2.5-0.4-5.9-1.1-7.5,0.1c-7.5,5.6-8.4-0.1-10.4-5.2c-3.7-9.3-10-10.7-14.9-2.4c-4.2,7-10.9,15.4-1.6,24"/>
		<path id="Path_55" class="st0" d="M1056,364.6c-7.8,8.8-13.6,19.2-25.2,24.8c-3.2,1.6-5.3,11.4-3.6,15.7c2.8,7.1,11,10,18.4,7.5
			c3.7-1.2,6.6-6.1,8.9-9.9c2-3.4,1.9-8.1,4.1-11.3c8.8-12.3,8.9-14.6-1.4-26.9"/>
		<path id="Path_56" class="st0" d="M235.7,276.8c14.9,5.9,29.8,11.8,44.5,18c1.5,0.6,2.8,4.3,2.4,6.1c-0.5,2-3.5,5.1-4.8,4.9
			c-4.5-0.8-8.8-2.5-12.7-4.9c-8.6-5.8-16.3-12.1-28.2-9.2c-4.7,1.1-12.2-1.2-12.1-8.5c0-2.2,6.3-4.3,9.7-6.4"/>
		<path id="Path_57" class="st0" d="M978.3,406.7c9.8,11.5,18,25,29.7,33.8c11.6,8.6,26.7,12.6,40.4,18.3c2.5,1,6,0.6,8.8,0
			c2.3-0.5,4.3-2.4,6.4-3.7c-1.1-2.2-2.4-4.3-3.9-6.3c-0.7-0.9-2.4-1.2-3.7-1.3c-18.6-2.1-30.4-12.9-38.4-29.2
			c-1.2-2.5-5.5-4.1-8.7-5.1c-9.2-2.9-18.6-5.2-28-7.8"/>
		<path id="Path_58" class="st0" d="M1099.3,223.3c2.5,0,5.2,0.5,7.6-0.1c5.6-1.4,15.5-2.9,15.7-5.1c0.7-6.6-2.2-13.6-4.5-20.2
			c-0.6-1.8-4-2.6-6.1-3.9c-0.4,2.1-1.3,4.3-1.2,6.4c0.3,10.3-6.5,15.6-14.1,20.4"/>
		<path id="Path_59" class="st0" d="M1114.6,620.7c7.2-3,14.6-5.6,21.5-9.2c1.4-0.7,2-6.6,1.2-7.1c-3-1.6-8.6-3.8-9.7-2.6
			c-4.2,4.8-7.1,10.7-10.5,16.2"/>
		<path id="Path_60" class="st0" d="M507,85.7c6.8-2.1,14-3.5,20.2-6.7c2.7-1.4,3.6-6.5,5.3-9.9c-3.4,0-6.8-0.2-10.2,0.1
			c-3,0.2-5.9,0.8-8.9,1.2c-3.8,0.5-7.6,0.9-11.5,1.3l3.8,14"/>
		<path id="Path_61" class="st0" d="M1085.3,390.1c-9.3,2.1-17.5,6.4-18.7,16.6c-0.5,3.9,3.6,8.6,6.2,12.5c0.5,0.7,4.6,0,6-1.3
			c1.5-1.4,3.1-5.4,2.5-6c-7.4-7.4-2.4-10.7,3.9-14.4c1.2-0.7,1-4,1.4-6.2"/>
		<path id="Path_62" class="st0" d="M1105.7,164.7c-6.5,2.7-7.2,8.5-3.5,12.4c3.5,3.6,9.7,5.4,15,6.3c2.1,0.4,5-3.8,7.6-6
			c-2.1-2.1-4-4.6-6.4-6.3c-3.6-2.5-7.6-4.3-11.4-6.5"/>
		<path id="Path_63" class="st0" d="M766.9,27.1c-15.4-2.9-25.9,1-29.1,11.5c-0.7,2.2,0.4,5.2,1.3,7.5c0.2,0.6,4.5,0.5,4.7,0
			c2.9-9.8,12.4-9.2,19.2-12.8c1.7-0.9,2.6-3.3,3.9-5"/>
		<path id="Path_64" class="st0" d="M904.4,349.4c-1.7,5.1-4,10.1-4.8,15.3c-0.4,2.3,2.3,5,3.5,7.6c2.1-2.1,6-4.2,6-6.4
			c0.2-5.5-1.4-11-2.2-16.5"/>
		<path id="Path_65" class="st0" d="M1071.3,301c-11.8,13.8-11.6,18.5-1.5,30.8c3.9,4.8,5.6,11.6,7.8,17.7c1.3,3.6,0.7,8.5,2.9,11.2
			c2.6,3.1,7.8,6.8,11.1,6.1c8.1-1.6,2.5-6.8,1.5-11c-2-8-2.2-16.7-5.5-24c-4.6-10.4-8.4-21.2-15-30.7"/>
		<path id="Path_66" class="st0" d="M707,247.5c-6.1,2.7-6.9,6.9-2.5,11.4c5.8,5.8,9.2,11.8,9.2,20.5c0,4.2,3.8,8.5,6,12.7
			c4.2,8.1,8.5,16.1,12.7,24.2c1.5,2.9,2,6.4,4,8.8c1.7,2,4.9,2.7,7.5,4c0.8-2.5,2.7-5.3,2.3-7.6c-1.1-6.5-2.4-13.1-5-19.1
			c-8.8-19.5-15.8-40.3-33-54.8"/>
		<path id="Path_67" class="st1" d="M547.6,119.3c0,0,11.5,52.2,64.5,49.7s117.9,41.3,149.9,56.4S963.3,301.2,997,265
			c33.7-36.2,9.4-154.1,48.9-167.6c39.5-13.5,37.8-28.6,90.9-23.6"/>
		<path id="Path_68" class="st1" d="M10.8,126.6c0,0,52.1-54.7,80-40.9s45.5,53.1,33.8,88.9S96.7,268.4,190.7,322
			s84.4,33.8,115.3,49.9s92.5,60.2,103.5,58.7"/>
		<path id="Path_69" class="st1" d="M540.2,366c0,0-39-17.1-32.3-60.2s36-39.5,43.3-58.3s-8.1-39.3,2.9-48.9s25-24,25-24"/>
	</g>
	<g id="Group_50" transform="translate(801.144 699.132)">
		<g>
			<defs>
				
					<rect id="SVGID_1_" x="8.9" y="8.9" transform="matrix(0.6181 -0.7861 0.7861 0.6181 -12.443 35.9509)" width="43.8" height="43.8"/>
			</defs>
			<clipPath id="SVGID_2_">
				<use xlink:href="#SVGID_1_"  style="overflow:visible;"/>
			</clipPath>
			<g id="Group_49" class="st2">
				<g id="Group_48">
					<g>
						<defs>
							
								<rect id="SVGID_3_" x="8.9" y="8.9" transform="matrix(0.6181 -0.7861 0.7861 0.6181 -12.443 35.9509)" width="43.8" height="43.8"/>
						</defs>
						<clipPath id="SVGID_4_">
							<use xlink:href="#SVGID_3_"  style="overflow:visible;"/>
						</clipPath>
						<g id="Group_47" class="st3">
							<g id="Group_46" transform="translate(-809.409 -709.014)">
								<g>
									<defs>
										<rect id="SVGID_5_" x="0" y="0" width="1978.7" height="1113"/>
									</defs>
									<clipPath id="SVGID_6_">
										<use xlink:href="#SVGID_5_"  style="overflow:visible;"/>
									</clipPath>
									<g id="Group_45" class="st4">
										<path id="Path_70" class="st5" d="M817.5,733.2c0.7-0.5,1.6-0.6,2.4-0.5c6.6,0.3,13.1,0.5,19.7,0.7c0.8,0.1,1.5-0.2,2-0.8
											c1.8-2.3,3.7-4.5,5.6-6.7c0.7-0.9,1.5-1.7,2.3-2.5c0.6-0.7,1.5-1.1,2.4-1.2c1.3-0.3,2.5,0.5,2.8,1.8
											c0,0.2,0.1,0.4,0.1,0.5c0.1,1.2-0.3,2.3-1,3.3c-1.9,2.6-3.8,5.1-5.7,7.6c-0.4,0.5-0.8,1-1.1,1.6c-0.4,0.6-0.5,1.3-0.3,2
											c1.7,6.1,3.5,12.3,5.2,18.4c0.1,0.4,0.2,0.7,0.3,1.1c0.3,1,0,2.1-0.7,2.8c-0.6,0.6-0.9,0.6-1.5-0.1
											c-2.5-3.5-5.1-7-7.6-10.4c-0.8-1.1-1.7-2.3-2.5-3.4c-0.4-0.5-0.8-0.6-1.2-0.1c-1.3,1.6-2.6,3.1-3.9,4.7
											c-0.1,0.2-0.2,0.4-0.2,0.6c0,1.9,0,3.8,0,5.7c0,1.2-0.8,1.8-1.5,2.5c-0.3,0.3-0.6,0-0.7-0.3c-0.3-0.7-0.7-1.4-1-2.2
											c-0.2-0.6-0.5-1.1-0.7-1.7c-0.2-0.3-0.4-0.6-0.7-0.9c-0.3-0.3-0.6-0.2-1,0c-0.7,0.5-1.4,0.9-2,1.4l-0.3-0.2
											c0-0.8,0.2-1.5,0.7-2.2c0.4-0.7,0.3-1-0.4-1.4c-0.3-0.1-0.6-0.2-0.9-0.3c-1.1-0.2-2.3-0.4-3.4-0.6c-0.2,0-0.4-0.1-0.7-0.2
											c-0.4-0.1-0.5-0.4-0.3-0.8c0.2-0.3,0.5-0.6,0.7-0.9c0.3-0.5,0.8-0.8,1.4-0.9c1.8-0.4,3.6-0.8,5.4-1.3
											c0.3-0.1,0.6-0.3,0.8-0.5c1-1.2,1.9-2.5,2.9-3.7c0.3-0.3,0.5-0.7,0.7-1c0.3-0.5,0.2-0.9-0.3-1.1c-0.1-0.1-0.3-0.1-0.4-0.2
											l-15.3-6.3c-0.9-0.4-1-0.5-0.8-1.3L817.5,733.2z"/>
									</g>
								</g>
							</g>
						</g>
					</g>
				</g>
			</g>
		</g>
	</g>
	<g id="Group_56" transform="translate(270.494 431)">
		<g>
			<defs>
				
					<rect id="SVGID_7_" x="0.6" y="0.6" transform="matrix(0.9996 -2.936967e-02 2.936967e-02 0.9996 -0.6529 0.672)" width="43.8" height="43.9"/>
			</defs>
			<clipPath id="SVGID_8_">
				<use xlink:href="#SVGID_7_"  style="overflow:visible;"/>
			</clipPath>
			<g id="Group_55" class="st6">
				<g id="Group_54" transform="translate(0 0)">
					<g>
						<defs>
							
								<rect id="SVGID_9_" x="0.6" y="0.6" transform="matrix(0.9996 -2.936967e-02 2.936967e-02 0.9996 -0.6529 0.672)" width="43.8" height="43.9"/>
						</defs>
						<clipPath id="SVGID_10_">
							<use xlink:href="#SVGID_9_"  style="overflow:visible;"/>
						</clipPath>
						<g id="Group_53" class="st7">
							<g id="Group_52" transform="translate(-278.759 -440.882)">
								<g>
									<defs>
										<rect id="SVGID_11_" x="0" y="0" width="1978.7" height="1113"/>
									</defs>
									<clipPath id="SVGID_12_">
										<use xlink:href="#SVGID_11_"  style="overflow:visible;"/>
									</clipPath>
									<g id="Group_51" class="st8">
										<path id="Path_71" class="st5" d="M291.8,441.8c0.8,0.3,1.5,0.8,2,1.5c4,5.2,8,10.4,12,15.6c0.4,0.6,1.1,1,1.9,1
											c2.9,0,5.8-0.1,8.7-0.1c1.1,0,2.3,0,3.4,0.1c0.9,0.1,1.8,0.4,2.5,1.1c1,0.8,1.2,2.3,0.4,3.3c-0.1,0.1-0.2,0.3-0.4,0.4
											c-0.9,0.8-2,1.3-3.1,1.3c-3.2,0.2-6.3,0.4-9.5,0.5c-0.6,0-1.3,0.1-1.9,0.1c-0.7,0-1.4,0.4-1.7,1
											c-3.6,5.3-7.2,10.5-10.8,15.8c-0.2,0.3-0.4,0.6-0.6,0.9c-0.6,0.9-1.6,1.4-2.6,1.2c-0.8-0.1-1.1-0.3-0.9-1.2
											c1-4.2,2.1-8.4,3.1-12.5c0.3-1.4,0.7-2.7,1-4.1c0.2-0.6-0.1-1-0.7-1c-2,0-4.1,0-6.1,0.1c-0.2,0-0.4,0.1-0.6,0.3
											c-1.5,1.2-2.9,2.4-4.4,3.7c-0.9,0.8-1.9,0.6-2.9,0.5c-0.4,0-0.4-0.4-0.2-0.7c0.3-0.7,0.7-1.4,1-2.2
											c0.3-0.5,0.6-1.1,0.8-1.6c0.1-0.3,0.2-0.7,0.2-1.1c0-0.4-0.2-0.6-0.7-0.8c-0.8-0.2-1.6-0.5-2.4-0.7l0-0.3
											c0.6-0.5,1.3-0.8,2.1-0.9c0.8-0.1,1-0.4,0.8-1.2c-0.1-0.3-0.2-0.6-0.3-0.8c-0.6-1-1.2-2-1.7-3c-0.1-0.2-0.2-0.4-0.3-0.6
											c-0.2-0.4,0-0.7,0.4-0.7c0.4,0,0.8,0,1.1-0.1c0.6-0.1,1.2,0.1,1.6,0.5c1.5,1.1,3,2.2,4.5,3.3c0.3,0.2,0.6,0.3,0.9,0.3
											c1.6,0,3.1-0.1,4.7-0.2c0.4,0,0.8,0,1.2-0.1c0.6-0.1,0.8-0.4,0.7-1c0-0.1-0.1-0.3-0.1-0.4c-1.6-5.3-3.3-10.5-4.9-15.8
											c-0.3-0.9-0.3-1,0.5-1.5L291.8,441.8z"/>
									</g>
								</g>
							</g>
						</g>
					</g>
				</g>
			</g>
		</g>
	</g>
	<g id="Group_62" transform="translate(1546.306 372.454)">
		<g>
			<defs>
				
					<rect id="SVGID_13_" x="2.2" y="2.2" transform="matrix(0.9945 -0.1048 0.1048 0.9945 -2.393 2.6572)" width="43.8" height="43.9"/>
			</defs>
			<clipPath id="SVGID_14_">
				<use xlink:href="#SVGID_13_"  style="overflow:visible;"/>
			</clipPath>
			<g id="Group_61" transform="translate(0)" class="st9">
				<g id="Group_60">
					<g>
						<defs>
							
								<rect id="SVGID_15_" x="2.2" y="2.2" transform="matrix(0.9945 -0.1048 0.1048 0.9945 -2.393 2.6572)" width="43.8" height="43.9"/>
						</defs>
						<clipPath id="SVGID_16_">
							<use xlink:href="#SVGID_15_"  style="overflow:visible;"/>
						</clipPath>
						<g id="Group_59" class="st10">
							<g id="Group_58" transform="translate(-1554.571 -382.335)">
								<g>
									<defs>
										<rect id="SVGID_17_" x="0" y="0" width="1978.7" height="1113"/>
									</defs>
									<clipPath id="SVGID_18_">
										<use xlink:href="#SVGID_17_"  style="overflow:visible;"/>
									</clipPath>
									<g id="Group_57" class="st11">
										<path id="Path_72" class="st5" d="M1567.5,385.6c0.8,0.2,1.6,0.7,2.1,1.4c4.4,4.9,8.8,9.7,13.2,14.6
											c0.5,0.6,1.2,0.9,2,0.8c2.9-0.2,5.8-0.5,8.7-0.7c1.1-0.1,2.3-0.1,3.4-0.1c0.9,0,1.8,0.3,2.6,0.9c1.1,0.7,1.4,2.2,0.7,3.3
											c-0.1,0.1-0.2,0.3-0.3,0.4c-0.8,0.9-1.9,1.4-3,1.5c-3.1,0.4-6.3,0.8-9.4,1.3c-0.6,0.1-1.3,0.2-1.9,0.3
											c-0.7,0.1-1.3,0.5-1.6,1.2c-3.2,5.5-6.4,11-9.6,16.5c-0.2,0.3-0.4,0.7-0.6,1c-0.5,0.9-1.5,1.5-2.5,1.4
											c-0.8,0-1.1-0.3-0.9-1.1c0.7-4.2,1.4-8.5,2.2-12.7c0.2-1.4,0.5-2.8,0.7-4.2c0.1-0.6-0.1-1-0.8-0.9c-2,0.2-4.1,0.3-6.1,0.5
											c-0.2,0-0.4,0.2-0.6,0.3c-1.4,1.3-2.8,2.6-4.1,4c-0.8,0.8-1.8,0.7-2.8,0.7c-0.4,0-0.4-0.4-0.3-0.7
											c0.3-0.7,0.6-1.5,0.9-2.2c0.2-0.6,0.5-1.1,0.7-1.7c0.1-0.4,0.2-0.7,0.2-1.1c0-0.4-0.3-0.6-0.7-0.7
											c-0.8-0.1-1.6-0.3-2.4-0.5l0-0.3c0.6-0.6,1.3-0.9,2-1c0.7-0.2,0.9-0.5,0.7-1.2c-0.1-0.3-0.2-0.6-0.4-0.8
											c-0.6-1-1.3-1.9-2-2.9c-0.1-0.2-0.2-0.4-0.3-0.6c-0.2-0.4-0.1-0.7,0.4-0.7c0.4-0.1,0.8-0.1,1.1-0.1c0.6-0.1,1.2,0,1.7,0.4
											c1.5,1,3.1,2,4.7,2.9c0.3,0.2,0.6,0.2,0.9,0.2c1.6-0.1,3.1-0.3,4.6-0.5c0.4-0.1,0.8-0.1,1.2-0.2c0.6-0.1,0.8-0.4,0.6-1
											c-0.1-0.1-0.1-0.3-0.2-0.4c-2-5.1-4.1-10.2-6.1-15.3c-0.4-0.9-0.3-1,0.4-1.5L1567.5,385.6z"/>
									</g>
								</g>
							</g>
						</g>
					</g>
				</g>
			</g>
		</g>
	</g>
	<g id="Group_64" transform="translate(483.014 404.584)">
		<g id="Group_63">
			<g class="st12">
				<path class="st13" d="M336.2,37.8l3-0.3c0.2,1,0.5,1.7,1.1,2.2c0.5,0.5,1.3,0.7,2.2,0.7c1,0,1.7-0.2,2.2-0.6
					c0.5-0.4,0.7-0.9,0.7-1.5c0-0.4-0.1-0.7-0.3-0.9c-0.2-0.2-0.6-0.5-1.1-0.7c-0.4-0.1-1.2-0.3-2.4-0.7c-1.6-0.4-2.8-0.9-3.4-1.5
					c-0.9-0.8-1.4-1.8-1.4-3c0-0.8,0.2-1.5,0.7-2.1c0.4-0.7,1.1-1.2,1.9-1.5c0.8-0.3,1.8-0.5,3-0.5c1.9,0,3.3,0.4,4.3,1.2
					c1,0.8,1.5,1.9,1.5,3.3l-3,0.1c-0.1-0.8-0.4-1.3-0.8-1.7c-0.4-0.3-1.1-0.5-1.9-0.5c-0.9,0-1.6,0.2-2.1,0.5
					c-0.3,0.2-0.5,0.5-0.5,0.9c0,0.4,0.2,0.7,0.5,0.9c0.4,0.3,1.3,0.7,2.8,1c1.5,0.3,2.6,0.7,3.3,1.1c0.7,0.4,1.3,0.9,1.7,1.5
					c0.4,0.6,0.6,1.4,0.6,2.4c0,0.9-0.2,1.7-0.7,2.4c-0.5,0.8-1.2,1.3-2,1.7c-0.9,0.4-2,0.5-3.3,0.5c-1.9,0-3.4-0.4-4.4-1.3
					C337,40.8,336.4,39.5,336.2,37.8z"/>
				<path class="st13" d="M355.2,42.7V30.2h-4.5v-2.5h11.9v2.5h-4.5v12.5H355.2z"/>
				<path class="st13" d="M377.4,42.7h-3.3l-1.3-3.4h-6l-1.2,3.4h-3.2l5.9-15h3.2L377.4,42.7z M371.8,36.8l-2.1-5.6l-2,5.6H371.8z"
					/>
				<path class="st13" d="M379.8,42.7v-15h6.4c1.6,0,2.8,0.1,3.5,0.4c0.7,0.3,1.3,0.8,1.7,1.4s0.7,1.5,0.7,2.4c0,1.1-0.3,2.1-1,2.8
					c-0.7,0.7-1.7,1.2-3,1.4c0.7,0.4,1.2,0.8,1.6,1.3c0.4,0.5,1,1.3,1.7,2.4l1.8,2.9h-3.6l-2.2-3.3c-0.8-1.2-1.3-1.9-1.6-2.2
					c-0.3-0.3-0.6-0.5-0.9-0.6c-0.3-0.1-0.8-0.2-1.5-0.2h-0.6v6.3H379.8z M382.9,34.1h2.2c1.5,0,2.4-0.1,2.7-0.2s0.6-0.3,0.9-0.6
					s0.3-0.7,0.3-1.1c0-0.5-0.1-0.9-0.4-1.2c-0.3-0.3-0.7-0.5-1.1-0.6c-0.2,0-1-0.1-2.2-0.1h-2.4V34.1z"/>
				<path class="st13" d="M399.2,42.7V30.2h-4.5v-2.5h11.9v2.5h-4.5v12.5H399.2z"/>
			</g>
			<g class="st12">
				<path class="st14" d="M505.1,280h-3.3l-1.3-3.4h-6l-1.2,3.4H490l5.9-15h3.2L505.1,280z M499.5,274l-2.1-5.6l-2,5.6H499.5z"/>
				<path class="st14" d="M507.5,280v-15h10.3v2.5h-7.3v3.6h6.3v2.5h-6.3v6.4H507.5z"/>
				<path class="st14" d="M521.2,280v-15h6.4c1.6,0,2.8,0.1,3.5,0.4c0.7,0.3,1.3,0.8,1.7,1.4s0.7,1.5,0.7,2.4c0,1.1-0.3,2.1-1,2.8
					c-0.7,0.7-1.7,1.2-3,1.4c0.7,0.4,1.2,0.8,1.6,1.3c0.4,0.5,1,1.3,1.7,2.4l1.8,2.9H531l-2.2-3.3c-0.8-1.2-1.3-1.9-1.6-2.2
					c-0.3-0.3-0.6-0.5-0.9-0.6c-0.3-0.1-0.8-0.2-1.5-0.2h-0.6v6.3H521.2z M524.2,271.3h2.2c1.5,0,2.4-0.1,2.7-0.2s0.6-0.3,0.9-0.6
					s0.3-0.7,0.3-1.1c0-0.5-0.1-0.9-0.4-1.2c-0.3-0.3-0.7-0.5-1.1-0.6c-0.2,0-1-0.1-2.2-0.1h-2.4V271.3z"/>
				<path class="st14" d="M537,280v-15h3v15H537z"/>
				<path class="st14" d="M553.4,274.4l2.9,0.9c-0.5,1.6-1.2,2.9-2.3,3.7c-1,0.8-2.4,1.2-4,1.2c-2,0-3.6-0.7-4.9-2
					c-1.3-1.4-1.9-3.2-1.9-5.6c0-2.5,0.6-4.4,1.9-5.8c1.3-1.4,3-2.1,5.1-2.1c1.8,0,3.3,0.5,4.5,1.6c0.7,0.6,1.2,1.6,1.5,2.8l-3,0.7
					c-0.2-0.8-0.5-1.4-1.1-1.8c-0.6-0.5-1.2-0.7-2.1-0.7c-1.1,0-2,0.4-2.7,1.2c-0.7,0.8-1,2.1-1,3.9c0,1.9,0.3,3.3,1,4.1
					s1.6,1.2,2.7,1.2c0.8,0,1.5-0.3,2.1-0.8C552.7,276.3,553.1,275.5,553.4,274.4z"/>
				<path class="st14" d="M573.3,280H570l-1.3-3.4h-6l-1.2,3.4h-3.2l5.9-15h3.2L573.3,280z M567.7,274l-2.1-5.6l-2,5.6H567.7z"/>
			</g>
			<g class="st12">
				<path class="st14" d="M798,164l2.9,0.9c-0.5,1.6-1.2,2.9-2.3,3.7c-1,0.8-2.4,1.2-4,1.2c-2,0-3.6-0.7-4.9-2
					c-1.3-1.4-1.9-3.2-1.9-5.6c0-2.5,0.6-4.4,1.9-5.8c1.3-1.4,3-2.1,5.1-2.1c1.8,0,3.3,0.5,4.5,1.6c0.7,0.6,1.2,1.6,1.5,2.8l-3,0.7
					c-0.2-0.8-0.5-1.4-1.1-1.8s-1.2-0.7-2.1-0.7c-1.1,0-2,0.4-2.7,1.2c-0.7,0.8-1,2.1-1,3.9c0,1.9,0.3,3.3,1,4.1s1.6,1.2,2.7,1.2
					c0.8,0,1.5-0.3,2.1-0.8C797.3,165.9,797.7,165.1,798,164z"/>
				<path class="st14" d="M804.3,169.5v-15h3v5.9h5.9v-5.9h3v15h-3v-6.6h-5.9v6.6H804.3z"/>
				<path class="st14" d="M820.2,169.5v-15h3v15H820.2z"/>
				<path class="st14" d="M826.9,169.5v-15h3l6.2,10v-10h2.8v15h-3l-6.1-9.8v9.8H826.9z"/>
				<path class="st14" d="M856.4,169.5h-3.3l-1.3-3.4h-6l-1.2,3.4h-3.2l5.9-15h3.2L856.4,169.5z M850.8,163.5l-2.1-5.6l-2,5.6H850.8
					z"/>
			</g>
			<g class="st12">
				<path class="st14" d="M35.4,37.2l2.9,0.9c-0.5,1.6-1.2,2.9-2.3,3.7c-1,0.8-2.4,1.2-4,1.2c-2,0-3.6-0.7-4.9-2
					c-1.3-1.4-1.9-3.2-1.9-5.6c0-2.5,0.6-4.4,1.9-5.8c1.3-1.4,3-2.1,5.1-2.1c1.8,0,3.3,0.5,4.5,1.6c0.7,0.6,1.2,1.6,1.5,2.8l-3,0.7
					c-0.2-0.8-0.5-1.4-1.1-1.8c-0.6-0.5-1.2-0.7-2.1-0.7c-1.1,0-2,0.4-2.7,1.2c-0.7,0.8-1,2.1-1,3.9c0,1.9,0.3,3.3,1,4.1
					s1.6,1.2,2.7,1.2c0.8,0,1.5-0.3,2.1-0.8C34.7,39.1,35.1,38.3,35.4,37.2z"/>
				<path class="st14" d="M55.3,42.7H52l-1.3-3.4h-6l-1.2,3.4h-3.2l5.9-15h3.2L55.3,42.7z M49.7,36.8l-2.1-5.6l-2,5.6H49.7z"/>
				<path class="st14" d="M57.7,42.7v-15h3l6.2,10v-10h2.8v15h-3l-6.1-9.8v9.8H57.7z"/>
				<path class="st14" d="M87.2,42.7h-3.3l-1.3-3.4h-6l-1.2,3.4h-3.2l5.9-15h3.2L87.2,42.7z M81.6,36.8l-2.1-5.6l-2,5.6H81.6z"/>
				<path class="st14" d="M89.6,27.7h5.5c1.3,0,2.2,0.1,2.9,0.3c0.9,0.3,1.6,0.7,2.3,1.4c0.6,0.7,1.1,1.5,1.4,2.4
					c0.3,1,0.5,2.1,0.5,3.6c0,1.2-0.2,2.3-0.5,3.2c-0.4,1.1-0.9,2-1.6,2.7c-0.5,0.5-1.2,0.9-2.1,1.2c-0.7,0.2-1.6,0.3-2.7,0.3h-5.7
					V27.7z M92.6,30.2v10h2.3c0.8,0,1.5,0,1.8-0.1c0.5-0.1,0.9-0.3,1.2-0.6c0.3-0.3,0.6-0.8,0.8-1.5c0.2-0.7,0.3-1.6,0.3-2.8
					s-0.1-2.1-0.3-2.7s-0.5-1.1-0.9-1.5c-0.4-0.3-0.8-0.6-1.4-0.7c-0.4-0.1-1.3-0.1-2.5-0.1H92.6z"/>
				<path class="st14" d="M119.1,42.7h-3.3l-1.3-3.4h-6l-1.2,3.4H104l5.9-15h3.2L119.1,42.7z M113.5,36.8l-2.1-5.6l-2,5.6H113.5z"/>
			</g>
			<g class="st12">
				<path class="st14" d="M526.6,54.1V39h11.1v2.5h-8.1v3.3h7.5v2.5h-7.5v4.1h8.4v2.5H526.6z"/>
				<path class="st14" d="M541.4,39h3v8.1c0,1.3,0,2.1,0.1,2.5c0.1,0.6,0.4,1.1,0.9,1.5c0.5,0.4,1.2,0.6,2,0.6
					c0.9,0,1.5-0.2,1.9-0.5c0.4-0.4,0.7-0.8,0.8-1.3s0.1-1.4,0.1-2.6V39h3v7.9c0,1.8-0.1,3.1-0.2,3.8c-0.2,0.7-0.5,1.4-0.9,1.9
					c-0.4,0.5-1,0.9-1.8,1.2c-0.7,0.3-1.7,0.5-2.9,0.5c-1.4,0-2.5-0.2-3.3-0.5c-0.7-0.3-1.3-0.8-1.8-1.3c-0.4-0.5-0.7-1.1-0.9-1.7
					c-0.2-0.9-0.3-2.1-0.3-3.8V39z"/>
				<path class="st14" d="M557.4,54.1V39h6.4c1.6,0,2.8,0.1,3.5,0.4c0.7,0.3,1.3,0.8,1.7,1.4s0.7,1.5,0.7,2.4c0,1.1-0.3,2.1-1,2.8
					c-0.7,0.7-1.7,1.2-3,1.4c0.7,0.4,1.2,0.8,1.6,1.3c0.4,0.5,1,1.3,1.7,2.4l1.8,2.9h-3.6l-2.2-3.3c-0.8-1.2-1.3-1.9-1.6-2.2
					c-0.3-0.3-0.6-0.5-0.9-0.6c-0.3-0.1-0.8-0.2-1.5-0.2h-0.6v6.3H557.4z M560.4,45.4h2.2c1.5,0,2.4-0.1,2.7-0.2s0.6-0.3,0.9-0.6
					s0.3-0.7,0.3-1.1c0-0.5-0.1-0.9-0.4-1.2c-0.3-0.3-0.7-0.5-1.1-0.6c-0.2,0-1-0.1-2.2-0.1h-2.4V45.4z"/>
				<path class="st14" d="M572.7,46.6c0-1.5,0.2-2.8,0.7-3.9c0.3-0.8,0.8-1.5,1.4-2.1c0.6-0.6,1.2-1.1,1.9-1.4
					c0.9-0.4,2-0.6,3.2-0.6c2.2,0,4,0.7,5.3,2.1c1.3,1.4,2,3.3,2,5.7c0,2.4-0.7,4.3-2,5.7c-1.3,1.4-3.1,2.1-5.3,2.1
					c-2.2,0-4-0.7-5.3-2C573.4,50.9,572.7,49,572.7,46.6z M575.8,46.5c0,1.7,0.4,3,1.2,3.9c0.8,0.9,1.8,1.3,3,1.3s2.2-0.4,3-1.3
					c0.8-0.9,1.2-2.2,1.2-3.9c0-1.7-0.4-3-1.1-3.9c-0.8-0.8-1.8-1.3-3-1.3s-2.3,0.4-3,1.3C576.2,43.5,575.8,44.8,575.8,46.5z"/>
				<path class="st14" d="M590.5,54.1V39h4.9c1.8,0,3,0.1,3.6,0.2c0.9,0.2,1.6,0.7,2.2,1.5c0.6,0.8,0.9,1.7,0.9,2.9
					c0,0.9-0.2,1.7-0.5,2.3s-0.8,1.1-1.3,1.5c-0.5,0.4-1,0.6-1.6,0.7c-0.7,0.1-1.8,0.2-3.1,0.2h-2v5.7H590.5z M593.5,41.6v4.3h1.7
					c1.2,0,2-0.1,2.4-0.2s0.7-0.4,0.9-0.7c0.2-0.3,0.3-0.7,0.3-1.2c0-0.5-0.2-1-0.5-1.4c-0.3-0.4-0.7-0.6-1.2-0.7
					c-0.4-0.1-1.1-0.1-2.2-0.1H593.5z"/>
				<path class="st14" d="M605.3,54.1V39h11.1v2.5h-8.1v3.3h7.5v2.5h-7.5v4.1h8.4v2.5H605.3z"/>
			</g>
			<g class="st12">
				<path class="st14" d="M788.4,27V12h6.4c1.6,0,2.8,0.1,3.5,0.4c0.7,0.3,1.3,0.8,1.7,1.4s0.7,1.5,0.7,2.4c0,1.1-0.3,2.1-1,2.8
					c-0.7,0.7-1.7,1.2-3,1.4c0.7,0.4,1.2,0.8,1.6,1.3c0.4,0.5,1,1.3,1.7,2.4l1.8,2.9h-3.6l-2.2-3.3c-0.8-1.2-1.3-1.9-1.6-2.2
					c-0.3-0.3-0.6-0.5-0.9-0.6c-0.3-0.1-0.8-0.2-1.5-0.2h-0.6V27H788.4z M791.4,18.3h2.2c1.5,0,2.4-0.1,2.7-0.2s0.6-0.3,0.9-0.6
					s0.3-0.7,0.3-1.1c0-0.5-0.1-0.9-0.4-1.2c-0.3-0.3-0.7-0.5-1.1-0.6c-0.2,0-1-0.1-2.2-0.1h-2.4V18.3z"/>
				<path class="st14" d="M804.3,12h3v8.1c0,1.3,0,2.1,0.1,2.5c0.1,0.6,0.4,1.1,0.9,1.5c0.5,0.4,1.2,0.6,2,0.6
					c0.9,0,1.5-0.2,1.9-0.5c0.4-0.4,0.7-0.8,0.8-1.3c0.1-0.5,0.1-1.4,0.1-2.6V12h3v7.9c0,1.8-0.1,3.1-0.2,3.8
					c-0.2,0.7-0.5,1.4-0.9,1.9c-0.4,0.5-1,0.9-1.8,1.2c-0.7,0.3-1.7,0.5-2.9,0.5c-1.4,0-2.5-0.2-3.3-0.5c-0.7-0.3-1.3-0.8-1.8-1.3
					c-0.4-0.5-0.7-1.1-0.9-1.7c-0.2-0.9-0.3-2.1-0.3-3.8V12z"/>
				<path class="st14" d="M819.5,22.1l3-0.3c0.2,1,0.5,1.7,1.1,2.2c0.5,0.5,1.3,0.7,2.2,0.7c1,0,1.7-0.2,2.2-0.6
					c0.5-0.4,0.7-0.9,0.7-1.5c0-0.4-0.1-0.7-0.3-0.9c-0.2-0.2-0.6-0.5-1.1-0.7c-0.4-0.1-1.2-0.3-2.4-0.7c-1.6-0.4-2.8-0.9-3.4-1.5
					c-0.9-0.8-1.4-1.8-1.4-3c0-0.8,0.2-1.5,0.7-2.1c0.4-0.7,1.1-1.2,1.9-1.5c0.8-0.3,1.8-0.5,3-0.5c1.9,0,3.3,0.4,4.3,1.2
					c1,0.8,1.5,1.9,1.5,3.3l-3,0.1c-0.1-0.8-0.4-1.3-0.8-1.7c-0.4-0.3-1.1-0.5-1.9-0.5c-0.9,0-1.6,0.2-2.1,0.5
					c-0.3,0.2-0.5,0.5-0.5,0.9c0,0.4,0.2,0.7,0.5,0.9c0.4,0.3,1.3,0.7,2.8,1c1.5,0.3,2.6,0.7,3.3,1.1c0.7,0.4,1.3,0.9,1.7,1.5
					c0.4,0.6,0.6,1.4,0.6,2.4c0,0.9-0.2,1.7-0.7,2.4c-0.5,0.8-1.2,1.3-2,1.7c-0.9,0.4-2,0.5-3.3,0.5c-1.9,0-3.4-0.4-4.4-1.3
					C820.3,25.1,819.7,23.8,819.5,22.1z"/>
				<path class="st14" d="M834.3,22.1l3-0.3c0.2,1,0.5,1.7,1.1,2.2c0.5,0.5,1.3,0.7,2.2,0.7c1,0,1.7-0.2,2.2-0.6
					c0.5-0.4,0.7-0.9,0.7-1.5c0-0.4-0.1-0.7-0.3-0.9c-0.2-0.2-0.6-0.5-1.1-0.7c-0.4-0.1-1.2-0.3-2.4-0.7c-1.6-0.4-2.8-0.9-3.4-1.5
					c-0.9-0.8-1.4-1.8-1.4-3c0-0.8,0.2-1.5,0.7-2.1c0.4-0.7,1.1-1.2,1.9-1.5c0.8-0.3,1.8-0.5,3-0.5c1.9,0,3.3,0.4,4.3,1.2
					c1,0.8,1.5,1.9,1.5,3.3l-3,0.1c-0.1-0.8-0.4-1.3-0.8-1.7c-0.4-0.3-1.1-0.5-1.9-0.5c-0.9,0-1.6,0.2-2.1,0.5
					c-0.3,0.2-0.5,0.5-0.5,0.9c0,0.4,0.2,0.7,0.5,0.9c0.4,0.3,1.3,0.7,2.8,1c1.5,0.3,2.6,0.7,3.3,1.1c0.7,0.4,1.3,0.9,1.7,1.5
					c0.4,0.6,0.6,1.4,0.6,2.4c0,0.9-0.2,1.7-0.7,2.4c-0.5,0.8-1.2,1.3-2,1.7c-0.9,0.4-2,0.5-3.3,0.5c-1.9,0-3.4-0.4-4.4-1.3
					C835.1,25.1,834.5,23.8,834.3,22.1z"/>
				<path class="st14" d="M849.8,27V12h3v15H849.8z"/>
				<path class="st14" d="M870.1,27h-3.3l-1.3-3.4h-6l-1.2,3.4H855l5.9-15h3.2L870.1,27z M864.5,21.1l-2.1-5.6l-2,5.6H864.5z"/>
			</g>
			<g class="st12">
				<path class="st14" d="M698.9,111.8h-3.3l-1.3-3.4h-6l-1.2,3.4h-3.2l5.9-15h3.2L698.9,111.8z M693.3,105.8l-2.1-5.6l-2,5.6H693.3
					z"/>
				<path class="st14" d="M700.5,106.9l3-0.3c0.2,1,0.5,1.7,1.1,2.2c0.5,0.5,1.3,0.7,2.2,0.7c1,0,1.7-0.2,2.2-0.6
					c0.5-0.4,0.7-0.9,0.7-1.5c0-0.4-0.1-0.7-0.3-0.9c-0.2-0.2-0.6-0.5-1.1-0.7c-0.4-0.1-1.2-0.3-2.4-0.7c-1.6-0.4-2.8-0.9-3.4-1.5
					c-0.9-0.8-1.4-1.8-1.4-3c0-0.8,0.2-1.5,0.7-2.1c0.4-0.7,1.1-1.2,1.9-1.5c0.8-0.3,1.8-0.5,3-0.5c1.9,0,3.3,0.4,4.3,1.2
					c1,0.8,1.5,1.9,1.5,3.3l-3,0.1c-0.1-0.8-0.4-1.3-0.8-1.7c-0.4-0.3-1.1-0.5-1.9-0.5c-0.9,0-1.6,0.2-2.1,0.5
					c-0.3,0.2-0.5,0.5-0.5,0.9c0,0.4,0.2,0.7,0.5,0.9c0.4,0.3,1.3,0.7,2.8,1c1.5,0.3,2.6,0.7,3.3,1.1c0.7,0.4,1.3,0.9,1.7,1.5
					c0.4,0.6,0.6,1.4,0.6,2.4c0,0.9-0.2,1.7-0.7,2.4c-0.5,0.8-1.2,1.3-2,1.7c-0.9,0.4-2,0.5-3.3,0.5c-1.9,0-3.4-0.4-4.4-1.3
					C701.3,109.9,700.7,108.6,700.5,106.9z"/>
				<path class="st14" d="M716,111.8v-15h3v15H716z"/>
				<path class="st14" d="M736.3,111.8H733l-1.3-3.4h-6l-1.2,3.4h-3.2l5.9-15h3.2L736.3,111.8z M730.7,105.8l-2.1-5.6l-2,5.6H730.7z
					"/>
			</g>
			<g class="st12">
				<path class="st14" d="M15.1,133.6h-3.3l-1.3-3.4h-6l-1.2,3.4H0l5.9-15h3.2L15.1,133.6z M9.5,127.6l-2.1-5.6l-2,5.6H9.5z"/>
				<path class="st14" d="M17.5,133.6v-15H22l2.7,10.3l2.7-10.3H32v15h-2.8v-11.8l-3,11.8h-2.9l-3-11.8v11.8H17.5z"/>
				<path class="st14" d="M35.8,133.6v-15h11.1v2.5h-8.1v3.3h7.5v2.5h-7.5v4.1h8.4v2.5H35.8z"/>
				<path class="st14" d="M50.6,133.6v-15H57c1.6,0,2.8,0.1,3.5,0.4c0.7,0.3,1.3,0.8,1.7,1.4s0.7,1.5,0.7,2.4c0,1.1-0.3,2.1-1,2.8
					c-0.7,0.7-1.7,1.2-3,1.4c0.7,0.4,1.2,0.8,1.6,1.3s1,1.3,1.7,2.4l1.8,2.9h-3.6l-2.2-3.3c-0.8-1.2-1.3-1.9-1.6-2.2
					c-0.3-0.3-0.6-0.5-0.9-0.6c-0.3-0.1-0.8-0.2-1.5-0.2h-0.6v6.3H50.6z M53.6,124.9h2.2c1.5,0,2.4-0.1,2.7-0.2s0.6-0.3,0.9-0.6
					s0.3-0.7,0.3-1.1c0-0.5-0.1-0.9-0.4-1.2c-0.3-0.3-0.7-0.5-1.1-0.6c-0.2,0-1-0.1-2.2-0.1h-2.4V124.9z"/>
				<path class="st14" d="M66.5,133.6v-15h3v15H66.5z"/>
				<path class="st14" d="M82.8,128l2.9,0.9c-0.5,1.6-1.2,2.9-2.3,3.7c-1,0.8-2.4,1.2-4,1.2c-2,0-3.6-0.7-4.9-2
					c-1.3-1.4-1.9-3.2-1.9-5.6c0-2.5,0.6-4.4,1.9-5.8c1.3-1.4,3-2.1,5.1-2.1c1.8,0,3.3,0.5,4.5,1.6c0.7,0.6,1.2,1.6,1.5,2.8l-3,0.7
					c-0.2-0.8-0.5-1.4-1.1-1.8c-0.6-0.5-1.2-0.7-2.1-0.7c-1.1,0-2,0.4-2.7,1.2c-0.7,0.8-1,2.1-1,3.9c0,1.9,0.3,3.3,1,4.1
					s1.6,1.2,2.7,1.2c0.8,0,1.5-0.3,2.1-0.8C82.1,130,82.5,129.2,82.8,128z"/>
				<path class="st14" d="M102.7,133.6h-3.3l-1.3-3.4h-6l-1.2,3.4h-3.2l5.9-15h3.2L102.7,133.6z M97.1,127.6l-2.1-5.6l-2,5.6H97.1z"
					/>
			</g>
			<g class="st12">
				<path class="st14" d="M149.9,354.6l3-0.3c0.2,1,0.5,1.7,1.1,2.2c0.5,0.5,1.3,0.7,2.2,0.7c1,0,1.7-0.2,2.2-0.6
					c0.5-0.4,0.7-0.9,0.7-1.5c0-0.4-0.1-0.7-0.3-0.9c-0.2-0.2-0.6-0.5-1.1-0.7c-0.4-0.1-1.2-0.3-2.4-0.7c-1.6-0.4-2.8-0.9-3.4-1.5
					c-0.9-0.8-1.4-1.8-1.4-3c0-0.8,0.2-1.5,0.7-2.1c0.4-0.7,1.1-1.2,1.9-1.5c0.8-0.3,1.8-0.5,3-0.5c1.9,0,3.3,0.4,4.3,1.2
					c1,0.8,1.5,1.9,1.5,3.3l-3,0.1c-0.1-0.8-0.4-1.3-0.8-1.7c-0.4-0.3-1.1-0.5-1.9-0.5c-0.9,0-1.6,0.2-2.1,0.5
					c-0.3,0.2-0.5,0.5-0.5,0.9c0,0.4,0.2,0.7,0.5,0.9c0.4,0.3,1.3,0.7,2.8,1c1.5,0.3,2.6,0.7,3.3,1.1c0.7,0.4,1.3,0.9,1.7,1.5
					c0.4,0.6,0.6,1.4,0.6,2.4c0,0.9-0.2,1.7-0.7,2.4c-0.5,0.8-1.2,1.3-2,1.7c-0.9,0.4-2,0.5-3.3,0.5c-1.9,0-3.4-0.4-4.4-1.3
					C150.7,357.6,150.1,356.3,149.9,354.6z"/>
				<path class="st14" d="M164.9,352.1c0-1.5,0.2-2.8,0.7-3.9c0.3-0.8,0.8-1.5,1.4-2.1s1.2-1.1,1.9-1.4c0.9-0.4,2-0.6,3.2-0.6
					c2.2,0,4,0.7,5.3,2.1s2,3.3,2,5.7c0,2.4-0.7,4.3-2,5.7c-1.3,1.4-3.1,2.1-5.3,2.1c-2.2,0-4-0.7-5.3-2
					C165.5,356.4,164.9,354.5,164.9,352.1z M168,352c0,1.7,0.4,3,1.2,3.9c0.8,0.9,1.8,1.3,3,1.3s2.2-0.4,3-1.3
					c0.8-0.9,1.2-2.2,1.2-3.9c0-1.7-0.4-3-1.1-3.9s-1.8-1.3-3-1.3s-2.3,0.4-3,1.3C168.4,349,168,350.3,168,352z"/>
				<path class="st14" d="M182.6,344.5h3v8.1c0,1.3,0,2.1,0.1,2.5c0.1,0.6,0.4,1.1,0.9,1.5c0.5,0.4,1.2,0.6,2,0.6
					c0.9,0,1.5-0.2,1.9-0.5c0.4-0.4,0.7-0.8,0.8-1.3s0.1-1.4,0.1-2.6v-8.3h3v7.9c0,1.8-0.1,3.1-0.2,3.8c-0.2,0.7-0.5,1.4-0.9,1.9
					c-0.4,0.5-1,0.9-1.8,1.2c-0.7,0.3-1.7,0.5-2.9,0.5c-1.4,0-2.5-0.2-3.3-0.5c-0.7-0.3-1.3-0.8-1.8-1.3c-0.4-0.5-0.7-1.1-0.9-1.7
					c-0.2-0.9-0.3-2.1-0.3-3.8V344.5z"/>
				<path class="st14" d="M202,359.5V347h-4.5v-2.5h11.9v2.5H205v12.5H202z"/>
				<path class="st14" d="M212.2,359.5v-15h3v5.9h5.9v-5.9h3v15h-3v-6.6h-5.9v6.6H212.2z"/>
			</g>
			<g class="st12">
				<path class="st14" d="M164.2,384.5h-3.3l-1.3-3.4h-6l-1.2,3.4h-3.2l5.9-15h3.2L164.2,384.5z M158.6,378.6l-2.1-5.6l-2,5.6H158.6
					z"/>
				<path class="st14" d="M166.6,384.5v-15h4.5l2.7,10.3l2.7-10.3h4.6v15h-2.8v-11.8l-3,11.8h-2.9l-3-11.8v11.8H166.6z"/>
				<path class="st14" d="M184.9,384.5v-15h11.1v2.5H188v3.3h7.5v2.5H188v4.1h8.4v2.5H184.9z"/>
				<path class="st14" d="M199.7,384.5v-15h6.4c1.6,0,2.8,0.1,3.5,0.4c0.7,0.3,1.3,0.8,1.7,1.4s0.7,1.5,0.7,2.4c0,1.1-0.3,2.1-1,2.8
					c-0.7,0.7-1.7,1.2-3,1.4c0.7,0.4,1.2,0.8,1.6,1.3s1,1.3,1.7,2.4l1.8,2.9h-3.6l-2.2-3.3c-0.8-1.2-1.3-1.9-1.6-2.2
					c-0.3-0.3-0.6-0.5-0.9-0.6c-0.3-0.1-0.8-0.2-1.5-0.2h-0.6v6.3H199.7z M202.8,375.8h2.2c1.5,0,2.4-0.1,2.7-0.2s0.6-0.3,0.9-0.6
					s0.3-0.7,0.3-1.1c0-0.5-0.1-0.9-0.4-1.2c-0.3-0.3-0.7-0.5-1.1-0.6c-0.2,0-1-0.1-2.2-0.1h-2.4V375.8z"/>
				<path class="st14" d="M215.6,384.5v-15h3v15H215.6z"/>
				<path class="st14" d="M231.9,379l2.9,0.9c-0.5,1.6-1.2,2.9-2.3,3.7c-1,0.8-2.4,1.2-4,1.2c-2,0-3.6-0.7-4.9-2
					c-1.3-1.4-1.9-3.2-1.9-5.6c0-2.5,0.6-4.4,1.9-5.8c1.3-1.4,3-2.1,5.1-2.1c1.8,0,3.3,0.5,4.5,1.6c0.7,0.6,1.2,1.6,1.5,2.8l-3,0.7
					c-0.2-0.8-0.5-1.4-1.1-1.8c-0.6-0.5-1.2-0.7-2.1-0.7c-1.1,0-2,0.4-2.7,1.2c-0.7,0.8-1,2.1-1,3.9c0,1.9,0.3,3.3,1,4.1
					s1.6,1.2,2.7,1.2c0.8,0,1.5-0.3,2.1-0.8C231.3,380.9,231.7,380.1,231.9,379z"/>
				<path class="st14" d="M251.8,384.5h-3.3l-1.3-3.4h-6l-1.2,3.4h-3.2l5.9-15h3.2L251.8,384.5z M246.3,378.6l-2.1-5.6l-2,5.6H246.3
					z"/>
			</g>
		</g>
	</g>
</g>
</svg>
