<?xml version="1.0" encoding="utf-8"?>
<!-- Generator: Adobe Illustrator 25.0.1, SVG Export Plug-In . SVG Version: 6.00 Build 0)  -->
<svg version="1.1" id="Layer_1" xmlns="http://www.w3.org/2000/svg" xmlns:xlink="http://www.w3.org/1999/xlink" x="0px" y="0px"
	 viewBox="0 0 375.9 598.5" style="enable-background:new 0 0 375.9 598.5;" xml:space="preserve">
<style type="text/css">
	.st0{fill:#4DD2FF;}
	.st1{fill:#012169;}
	.st2{fill:none;stroke:#012169;stroke-width:2;}
</style>
<path class="st0" d="M276.3,0l-21.4,16.6L260,29l-5.1,3.7l8.3,5.1l3.1,2.9l-3.1,9l3.1,3.7l3.4-7.6l6.6-13.2l-4.2-5.7h4.2v-5.3
	l4.4-7.8V0H276.3z"/>
<path class="st0" d="M243.3,41.6l1.9,0.9L246,40h-2L243.3,41.6z"/>
<path class="st0" d="M278.5,24.3l1.9,0.9l3.2-3.3l-4.4,0.8L278.5,24.3z"/>
<path class="st0" d="M256.1,72.9l1.9,0.9l0.8-2.5h-2L256.1,72.9z"/>
<path class="st0" d="M233.8,81.9l1.9,0.9l0.8-2.5h-2L233.8,81.9z"/>
<path class="st0" d="M230.3,84.5l7,1.6l-3.8,2.2H229v2.5l3.5,3.2v3.7h-5.7l1.3-4.6l-1.3-3.2l2.2-3.8L230.3,84.5z"/>
<path class="st0" d="M219.7,82.7l3.9,4.4l2.7,0.4l-0.3,1.7l0.8,3.3l-0.8,1.4l-2-0.9l-0.5-3.8l-1.3-0.5l-0.8-2.4H218v-3.1L219.7,82.7
	z"/>
<path class="st0" d="M215.7,92.1l4.9,3.2l-0.3-1.8h1.5l-1.2-1.1l1.6-0.3l-1-0.6l-2.6-0.2l-1.8-0.4L215.7,92.1z"/>
<path class="st0" d="M222.4,97.8l1.3-0.2l1.5-1.3c0,0-0.6,2-0.6,2.1c0.3,0.6,0.7,1.2,1.1,1.8l-1.9,0.3l-2.5-1l-0.6-2.5L222.4,97.8z"
	/>
<path class="st0" d="M213.3,92.5l5.3,6.2l-3.4,1.3l-0.3,1.1h5.7l2.8,2.8l4.3-1l-1.9,3.5l-3.9,1.3l1.1,4l-2,5.3l-2.1-0.8l0.3-4.4
	l1.8-2.8l-0.5-3.2l-4.2-1.5l-1.7,1.7l-2.9-3.1l-1.5,1.8l-1.6-4.7l1.6-1.6l-1.9-1.9l1.9-3.2L213.3,92.5z"/>
<path class="st0" d="M207.5,105.9l-0.6,2.7l3.1,4.1l5.2,0.9l2.1-1.8l-0.6-2.5h-2.9l-3.2-3.5L207.5,105.9z"/>
<path class="st0" d="M206.1,122.2l1-4.8l3.3,1.6l9.3,0.6l-5.9,8.7l4.4,2.1l-5.4,8.8l-6.7,3.5l-3,3.5l-8.4,6l-2.1,3.8l-4.4,1.5
	l1.9,2.3l-4.6,5.2l-8.7-7.5h-2l4.6,5.5l4.1,0.8h6l5.8-1.6l-5.2,10.2l-3.4-3.1l-7.3,1.5l-4.6,6.9h2l4.4-4.4l3.4-0.9h4.3l-5.4,6.5v2.2
	H176l-2.2,1.7h4.9v1.6l4.2-2l4.4-3.1l2.7-3.7h3.5l2.4-2.9l4.6-0.4l-0.6,1.7h3l0.3-4.2l8-0.6l1.7,2.3l2.9,1.7l7.5-2.5l11.3,1.6
	l10.3-1.6l6.3,3.9v3l2.7,2.5l-1.6,8.5l-3.3,3.9l-2.5-4.4l0.6,4.4l-1.6,5.8l-2,2.4l3,2.7l-5.4,7.3l1.8,5l-4.7,5.5h-0.5l-6.1,3.8
	l2.3,2.9l-1.3,6.4L227,238l-3.8,1l-4.3-2.6l-6.1,4l-4.6,4.2l-2.1,1.3l9.1-3.1h1.2l3.6-2.3l3.2,0.9v2.6l-3.2,2h2.1l1.8,0.8l4.8,2
	l-1.7,4.3l-5.6,2.7l-2.5-2.7l-1.9,1.2v2.2l-4.2,2.3l-1.7,2.7l-4,1.1l-3.2,2.2l-3.4-1.6l-2.1-0.6l-3.7-1.1l-3.4-2.7l1.3,3.3l2.1,1.1
	l1.2,1.6l2.6-0.8l2.1,1.7h4.6l12.5,2.4l4.6-5.9l7.6,0.5v3h2.9l5.1,4.1l5.2,1.1l0.5,0.7l3,0.6l-1.5,2.4l3.5,5.1l3.8,1.5l0.6,4.6
	l3.9,1.8l3.1,5.1l1.3,5.5l-1.3,2.3l1.3,3.2l1.2,1l-0.8,1.8l2.2,3.4l-1.5,3l1.5,2.1l2.8,4.8l-2.8,2.1l2.8-1.1l2.2,2.6v3.6l1.5,5.3
	v1.2l3.3,4.2l0.9,5.9l1.5-2.4l4.7,2.4h2.8v1.4h3.4l1.7,0.9v0.9l2.2,0.8l4.8,3.9v1.9l1.8,0.8l3.4,7.7l3.7,1.9v1.2l6.4,3.8l-5.2,2.7
	v3.8l2.2,5.8l11.7,16.7l-4.4-2.2l-2.6,0.8l-6-5.2h-5l-3.2,1.2h-2.7l-1.5-2.1l-4.7,2.1l2.2,1.3l2.5-1.3l2.7,2.7l2.6-1.4h3l3.2-1.3
	v1.3l5.2,5.2l5.7,4v0.8l3.4,1.7l1.2,3l2,5.5l1.2,1.5l2.9,4.8v4.6l-0.6,0.6l-2.3,1.1l-4.9,4.5l-2.9,3.5l-1.9,3l3.7,0.5l3.7,2.8
	l7.2,3.9v-3.9l3.1-2.8l-1.1-2.6l1.6-1.9l7.7-1h9.1l4.6,1l7.6,0.9l9.3,7.5l4.5,5.4v12.3l-1.1,2.6v3.3l-1,2.4l-1.1,1.8l-0.5,7.7
	l-0.7,0.7l0.7,2.6l-4.9,2.2l-2.3,3.8l-2.9-3.8l1.2,3.8l-0.6,1.9l-3.4-3.1H357l2.2,1.9h0.9l-4.7,1.1l1.7,0.9h3.9l-2.2,3.2l2.2,1.2
	h1.1l-1.1,2.1l-3.9,2.2l-3.9,0.7l-3.3-2.5h-3.3l0.9,1.8l-0.9,0.7l-5.2,1.8l0.5,2h4.6l1.4-0.7v-1.8l1.9,0.5v4.4l0.9,1.2l-4.1,1.7
	l-2.8-1.7l2.8,3.2h-2.1v0.6l1.4,1.4l-0.8,1.3l-6.6-1.3l0.8,1.3l-2.5,1.6l-3.5-1.6l1.9,1.6l-1.9,0.6v2.4h-4.6l-1.4-1.4H324l2.8,1.9
	l5,1.7l1.9-1.2V516c0.4,0.1,0.8,0.1,1.1,0c0.4-0.2,7-1,7-1l0.6,1l-0.6,2.4l-2.8-0.5h-0.8l-1.1,1l-2.2,2.1h6.4l3.6,1.5l4.9,1l4.6-2.6
	h12.1l1.4-1.3v3.8l-0.7,1h-1.6l1,7.4l-5.6,4.9l-5.6,1.2l-3.2,4.4l1,4.2l-6.6-1.6l-6.4,4.7l-9.3,3.5l-3.9,4l-10.2-2.2l-8.2-2.5
	l-9.2,2.5l-10.7,1.4l3.1,2.7l-5.9-4l2.1-1.8h-3v3.2l-4.8-0.5l-1.4-3.9l-0.7,3l-6.1-3c-1.5-0.8-3.1-7-3.1-7l-0.7,4.1l2.6,4.2
	l-2.6,2.7l-3.7,3.2l-7.5-0.6l-4.1,2.4h-3.6l-2.9-1.1l-0.6,2l6.4,3.2l-3.6,3.1l-12.2-2.4l-3.4-0.7v5.4l-5.1-7.6l-13.2-4.3l-4,2.4H207
	l-5.1,1.5v3.3l-5.6-2.9v3.9l-2.6,4.5l-1.2,5.3l2.6,1.3l-2.6,3.3l-1.5-0.5l-1.6,2.6v2.5l-4.1,2.3l-0.6-3.1l-1.1,2.5l-2.2-1.6v-3h-1.9
	l-1.5-0.7h-2.6l-1.9-0.9l-0.8-2.5l-2.8-0.7h-2.8l2.8,0.7v2h-1.4l-2.5-1.4h-2.8l-1.5-0.6l-2.6,2l-4.2-0.5l-1.6-0.9h-1.8l-2,0.9v4.7
	l-1.4,0.9h-1.5l-1.4,0.8l-1,0.8l-1-0.8c-0.5,0.4-0.8,0.9-1,1.5c-0.2,0.8-0.5,1.7-0.8,2.5l-1.5-2.5v-4.1l-2.6,6v4.3l1.1,1.2l-2.4,2.3
	l-3.1,1.1l-1.9-2.7l-0.9-3.7l-3.6-0.7l-3.7-1.4h-1.6v3l-5.9,2l0.7-7.5l5.8-3.1l3.2,0.9l3.4-2.5l0.9,0.7l3.5-1.1v-2.1l1.8-2l3.7-4.5
	h1.5l1.5-5.8l1.8-1.4v1.4l4.4,1.4l-2.5-2.8v-1l2.9-0.7h2.2v-4.1l4.6-1.1l1.3-3.5l2.1-0.7l-0.7-8.2l3.3-5.6l4.6,0.5h3l1.4-3.6l1,2.8
	l1.3-2.8h3.2l-5.5-1.4v-3.3l1-2.6l14.5-0.9l5.7,0.9l2.7-0.5l6.6,1.7l11.5-0.6l-1.1,1.9l1.1,1l0.9-2.3l0.8-2.1l-1.7-3l1.7-3.1
	l1.3-0.8v-1.6h1.2l6.1-6.4h2.4v-2.6l0.8-1.2l3.4-3.9l4.4-4.8l2.7-1.5l-1.6-2.1v-2.2l-2.3,2.2l1.2,1l-2.8,2.6v1.2l-4.2,2.9l-2.8,3.7
	l-7.3,3.9l-2-1.2l-5.5,3.4l-2.1,5.5l-12.7-1.9l-3.4-4.5h-2.1l-4.6-7.6l-4.2-0.7l-1.5,2.1l1.5,1.8l-4.9-0.8l-1.1,0.8l-5,1.2v-4.4
	l1.4-2l2.2,0.7l4.1-0.7l-2.7-1.1l-2.1-1.1l-4.3,1.1l-1.1-3.9h2l-1.5-1.6l1.5-2.7l-3.5,3.2l-1.3-2.2v3.3h-7l-2.8,3.9l-3.8,1.1l-4.4,2
	l-2.9-2v-1.1l-2.3-2.4h4.2l3.9,1.2l-2.9-2.7l2.9-0.6H144l-4.2,0.6l-2.6,1.5v-2.6l1.1-1.5l2.5-0.7v-4.9h-7l6-4.9l2.3-1.1v-2h2.9v0.8
	l2.9-1.3l3.5,0.5v-1.5l3.3-3.6l1.3,2.3v-2.3l7-1.4l4.9-3.9l3.4-0.8l5.8-8.4l1.5-7.2l4.9-3l-5.7,0.6l-1.7-5.3l6.3-5.6l-4.6,1.1
	L176,442v-5.2l3.3-1.2l-3.3-0.9l-10.3,2.7l-2.3,2.2l1.3,3.6h-1.8l-1.7-2.3h-2.5L155,442l7.8-9.1h1.8l3-3.2l2.9-2.6v-2.8l4.5-3.9V419
	l5.5-0.7l3.5-2.2l2.5-2l-0.7-1.1l4.1,1.1l6.1,2l7.3-3.9l2.7,2.9l7.6,4.6l-5.5-9.3l3.3-2.5l1.7,2.5l5.6,7.8l5.4-2.2l-1.1-2l2.8-1.9
	l-4,0.8l-0.9,1.6l-4.2-3.1l-2.2-3.4l-1.3-3.7l-2.5-4.1l8.8-8.2l1.4,1.2V392l2.8-1.7l-8.2,1.2l-2.3-2.7l0.5-5v-3h0.8v3l1,0.6v-3.6
	l3.3-0.6l0.7-0.7l0.8-4.7l-2.3,0.8v-2.7l5-2.4l-2.7-4.3l-3.6,2.1h-1.2l-1.8-1.6l-3,3.8l-2.5,1.7v2.6l-2.1-5.2h1.5l0.5-3.4l1.1-2.4
	l-1.1-1.7l-2.1,2.6l0.7,0.9l-0.7,1l-2.7-1l-1.8-5.6v-2.7h1.8l-1.8-1l-0.7,1l-7-9.3l2.2-3.8l2-6.8l4.3-6.2l0.5-3.1l2.4-2.2l1.5,2.2
	l0.9-2.2l1.7-0.7h-3.2l3.2-1.3l2.2,1.3l4-1.3l-1.8-1.1l0.8-3.1l-3,3.1l-3.9-0.6h-4.2l-2.5-1.3v0.7h-2.8l-1.7-2.4v4.8l0.9,2.7
	l-1.2,1.5l-3.7-1.5l-2.4,1.5l-0.8-1.5v1.5h-1.5l1,1.7l-6.5,3.6l-1-4.6l-1.5,4.6l-3.8-3.6l1.7-3.9l-3.2,2.9l-3.2-2.1l-1.9-3.8h-1.2
	l1.2,1.9l0.6,2l-1.1,2.1l3.1,1.7l-0.7,2v3.7l-1.4,1.3l-6.6-4.1l-5.4-4.6l-1.4-1.7l-4,2.7l2.3,7.2v1.2l0.8,1.3h-3.1l-0.9-2.5l0.9-1.7
	l-0.9-1.8l-4.2-5.3l-1.3-2.2v-3.1l-1.4-3.1l0.8-1.1l2.7-1.1l1.5,4.7l0.8,2.5h2l-0.9-2.5v-0.6l-1.1-2.9l-0.8-2l2.8-4v-1.6l3.1-2.7
	l1.8-4.5v-2.4l4-5.5l2.9-0.6v-3.3l-1.6-2l0.6-3.4l-4.6-2.9l-2.1-4l2.1-2.4l-2.1-4.2l1.4-4.5l0.8-2h4l5.4,2l-5.9-4.6h-1.8l-1.6,0.8
	l0.7-6l2.7-5.8l-4.3,4.8l-0.5-3.6v6.1l-1.8,6.2l-0.8,3.8l-1.7,0.5l-2.6-6.8v4l-3.5-0.6l-1.4,3.4l1.4,1.8l-5-4l2.3-6.5l4-5l1-1.5
	l2.5-0.6l2.6-4.9l-2.6,0.5l-1.1,3.6l-4.9,2.2l-1.9,3.9l-1.6,2.3l-1.6-1.1v6.6l0.8,4.1l1.4,1l0.5,3.2l-2.7,2l-2.2,3.7l-1.2,6.2l-2,6
	l0.8,2.5l-2.1,4.6l-3.2,0.9H128v-6.4l2-2.3v-7l3.5-5.9l-0.5-2.9l4.4-3.8l2-3.7l-4.9,4.3l-1.5-2.6l3.1-6l-2.6,0.9v-3.4l2.6-6.2
	l2.5-0.6l-0.6-2l0.6-2.1l-2.5,1.2l1.9-4.6l1.9-1.5H136V246l-2.1,5.4l1.4-6.7h2l4.2-7.2h1.9v-2.1h-1.1v-0.9h4.2v-1.9l-1.9,0.5
	l-1.2-0.5l3.1-4.5v-1.8l3.6-1.2l-1.5-1.1l6.6-8.2l-7.4-0.6l4.2,2.4l-6.1,6.5l-9.8,9.7l-6.1-1.2l-5-5.6h5.8l2.2-3h2.4l-0.9-2
	l-4.4,0.6l-5,1.4l-5.4-1.4h-1.5l2.3-2.8l7.6-1.3l1.2,1.3l1.6-4l5.9-2.7h-5.9l4.5-6.4l3.2,3.2l4.4-2.2h-3.7l-1.3-1.1l-2.6-1.7
	l3.2-4.1l5.4,1.7l-3.2-4.3l-2.2,1.1l-0.6-1.6l2.8-2.1h-3.4l-2.9,2.1l-3.1,4.8l-3.8,2.4v-3.6l3.2-3.1l2.2-0.9h-3.8l-0.6-2.2l-0.5,1.2
	l-1.3,3.1L126,197h-2.1l-1.6,2.5l-4.2-3.1l-0.6-4.9c0,0-2.5-2.1-2.2-2.2c1.2-0.7,2.3-1.4,3.4-2.2l-2.2-1.8l-1.1,1.8l-0.5-2.3l-2,0.5
	v2.6l-5.7-4.3v-4.4l2.8-2.7l1.5,7l1.4-2.2l-1.9-2.9l3-0.4l-2.5-3.2l1.4-2.2l0.5,2.6l6.3,5l-2.1-7.2h2.1l-1.5-2.6l2.3-1.7l0.7-1
	l4.9,5.3l0.6,10.4l-2.7,0.7l2.1,2.8v1.7l2.4,1.1l-1.9,1.6l6.3,1.3l-1,2.3l4.8-3.7l3.3,1.9h2l-4.1-3.5l5-1.1l3.3-4L142,187h-1.3v-1.8
	l-4.8,2.6l-2.2-1.8l2.2-1.8l-2.2-1.4l0.7-7.5l2.9,2.4l8.6,2.7l-1.5-2.7l-6.4-1.1l-2.6-4.7l1.4-1.7h2.6v-2.3h-4l2-5.9v-1.2h3.4v6.2
	l2.2-1.8l-0.9-7.5h1.5l2.4,4.3l0.4-2h3.2l4.5,2.5l-5.5-4.8l6.1,3.1l2,3.3h1.6l-1.6-4.1l-2.6-3.2l0.7-2.4l-3.5-2l-2.2-0.5l0.5,1.2
	h-2.3v-2.9l0.6-1.5h1.7l0.6,0.6h2.5v-4.5l-1.3-2.8l-1.2-1.7h9.1l2,1.2l1.3-1.2l-5-2.3l-0.8-1.9v-4.3l2.5-1.4l0.7-1.3l-0.7-1.6
	l-0.9-0.6l2-2l0.9-4.6l6.5,1.7l-1,4.1l2.9-3.4l1.2,1.8l-3,4.7l3-1.2l3.1-5.3c0,0,2.9,1.1,3.4,1.2s-0.4,3.6-0.4,3.6l4.4-2.6l1.8,2
	l2.5-2h1.2l1.5-0.5l1.3,0.5V123c0,0,0.7,0.8,1,0.7c1-0.1,2-0.1,3,0l1.7,0.6l6.1-1.8h2.3L206.1,122.2z"/>
<path class="st0" d="M262.1,563.4l1.8-1.8l6.1-2.6l3-1.7v2.2l0.6-1.2l2.6,0.7h1.4l3.5,1.8l-4.8,3.2l1.9,1.3l-2.9,2.5l-3.4-1.3
	l-4.1-2.5L262.1,563.4z"/>
<path class="st0" d="M158.4,412.8l2.6,3.5h1.7l2.3,5.1c0,0,3.9-0.3,4.2,0s3.9-0.5,3.9-0.5l2.6-3.7l2-0.5l2.2-2.2l-1.3-0.7l-1.8-1
	l-2.1,1l-1.9-3.2l-0.9-2.9l-4-0.4l-5.1,0.4c0,0-0.5,5.7-0.5,6.1S158.4,412.8,158.4,412.8z"/>
<path class="st0" d="M141,283.2l1.3,5.6v5.2l8.7,2.3l-2.5-7.5l2.5-1l-3.5-3.8v-5.1L141,283.2z"/>
<path class="st0" d="M148.7,269.5l4,9.5l1.7-4.5L148.7,269.5z"/>
<path class="st0" d="M156.4,275.3l-1,2.5l1.6-0.7L156.4,275.3z"/>
<path class="st0" d="M154.4,279.3l1.1-0.4v1.1L154.4,279.3z"/>
<path class="st0" d="M129.4,281.2v-1.9l0.5-0.4v-1.1l0.6,0.2l0.5,2.1L129.4,281.2z"/>
<path class="st0" d="M127.6,256.1l5.2-1.5l0.7,1.1l-0.5,1.5l-3,2.3l-0.3,2.4l-2.5,2.5v3.4l-3.2,5.7l-3.2-0.3l-1.1-5.4l1.6-1.3
	l3.7-1.1l-0.5-0.9l-2.3-0.7l-0.6-0.6l5-4L127.6,256.1z"/>
<path class="st0" d="M105,278.2l2.4-3.2l-1.2-2.9l5-3.8l1.3-0.7v2.4c0,0,1.1-0.2,1.3,0s0.4-3.5,0.4-3.5l3.1-0.6h1.7l-0.7,5.4l3.4,4
	l-2.1,5.4l-4.2,1.9l-2.2,2h-1.3l0.3-3.4l2-0.6l-0.7-2.4l-1.9-1.2l0.8-1.9l2.2-0.3l-1.4-1h-1.6l-1.1,1.4l0.2,1.9l-1.8,2.8L105,278.2z
	"/>
<path class="st0" d="M115.4,260.6l0.9-3.3l4-4l-3.5,6.2L115.4,260.6z"/>
<path class="st0" d="M131.5,252.8l0.8,0.7l1.5-1.1l-0.6-0.8L131.5,252.8z"/>
<path class="st0" d="M112.5,243.3l0.8,3.4c0,0,3.2,1.1,3.4,1.1c0.6-0.3,1.1-0.7,1.6-1.1h4.4l0.8-1.7c0,0,2.7,0,2.9,0
	s2.4-2.5,2.4-2.5l-1.5,3l4.6-1v-2.8l2.5-0.3l-0.8-2.5l1.4-0.4l0.5-1.7l-9.3-3.3l-1.3-2.1l-2.8-2.1V228l-0.9-1.6l-5.5,1.1L114,229
	l-0.7,2.3l6.9,3.5l-4.6-0.2l5,2.4l4.9-1.7l-7.9,6.4l2.2,1.3l4-2.8l1,1.5l-1,2.1L112.5,243.3z"/>
<path class="st0" d="M96.6,234l2.8,1.4l1.2-2.1l3.2-2.3l5.6-2.9l2.5-0.8l2.6-3.9l-5.1,0.3l-0.2,2.3l-5,2.7l-3.6,1.6l-2,1.5L96.6,234
	z"/>
<path class="st0" d="M114.6,205.7l3.8,4l3.3-2.8l-2-3.2l-1.6-0.6L114.6,205.7z"/>
<path class="st0" d="M122,211.4l-0.8,0.8l2.7,1.2l1.6-1.4l-1-1.7l-0.8-0.3L122,211.4z"/>
<path class="st0" d="M111.1,203.2l-0.8,0.3l2.7,0.7l1.6-0.6l-1-0.8l-0.8-0.2L111.1,203.2z"/>
<path class="st0" d="M119.3,214.7l-0.5,0.5l2.6,0.8v-0.9l-0.6-1l-0.5-0.2L119.3,214.7z"/>
<path class="st0" d="M77,215.6l1-1.3l1.5-1.9l0.7-2.5l1.5-6.4l5.2-2.7l1.8,1.7l-1.2,2h-2.9l-0.9,4.3v2L77,215.6z"/>
<path class="st0" d="M89.5,200.8l-3.3-4.7l1.1-3.1l-1.1-3.8l2.3-1.6l-1.2-3.6l1.2-1.5h0.9l-0.9-3.4l2.4-2.3l-1.5-3.1l-3.3-2.7
	l5.6-2.7v-2.4l1.4,1.5l2.7-2.3c0,0,2.3,2.6,2.8,3.3s2.2,2.3,2.2,2.3l-3.2,1.8l-1.8,3l-1.9,0.7l1.1,2.2l-1.9,2.7l0.8,0.9l-3.1,3.1
	c0.6,0.6,1.1,1.1,1.6,1.8c0.3,0.4,0,3.1,0,3.1l-3.1,2.5c0.6,0.4,1.2,1,1.5,1.7c0.3,0.8-1,3.2-1,3.2c0.2,0.5,0.6,0.9,1,1.2
	c0.4,0.4,1,0.7,1.6,0.8l-0.8,1.6L89.5,200.8z"/>
<path class="st0" d="M94.5,161l-0.5,1.3l2,1.1V161l-1.5-0.7V161z"/>
<path class="st0" d="M80.5,174.1l2.5-0.3l0.5,1.8L82,176h-2.2L80.5,174.1z"/>
<path class="st0" d="M98.4,159.6l4.4,4.8l4.2-3.4l3.2-0.3l-2.4-4h1.2l2,2.3l2.8,0.4l-1.8-1.9v-4.6l3.8,3.4l4.1-3.9l-1.5-1.8l4.5-0.2
	l-2.3-4.1l-1.4-1.9l0.5-0.7h0.9l0.7-2.3l6.3-1c0,0-5.3-1.1-5.4-1.1s2.7-4.4,2.7-4.4l2.8-1l-1.3-2.2l1.3-9.2l-11,7.7l-6.7,2.3l-2,2.7
	l3.1,4.2v2.1l-3.1-0.7l-0.9,1.3l-3-0.6v-3.2h-2.2c-0.9,1.9-1.9,3.8-3,5.6c-0.3,0.1,3.2,3.7,3.4,3.8c0.7,0.2,1.4,0.5,2.1,0.8
	c0.2,0.1-2.8,1.6-2.8,1.6l-3.6-0.6l-0.4,1.3l4.3,1.5l1.2,0.3l-0.2,0.5l-0.6,1.3H101l-1.8,1.7l2.3,0.9v1.3l-1.4,1h-1.3L98.4,159.6z"
	/>
<path class="st0" d="M158.4,362.9l4.2-1.8l1.1-6.9l2.8-1.7h4.1v4.7l2.7,1.7c0,0-4.6,4.9-4.8,5.5s-4.4,5.4-4.4,5.4l-2.1,3.7l-2.3-2.3
	h-2v1.7l-2.8-1.2v-1.9l4.7-0.8l-2-1.5L158.4,362.9z"/>
<path class="st0" d="M55.2,332.5l3.7-2.4h3.6v-3.7l4.2,0.9l-2.3-3.6l1.8-3.9l2.7-2.9V315l3.6-0.5l4.5-1.3c0,0,2.6-0.7,3-0.7
	s0,2.6,0,2.6v0.9l1.1-1.5v-2.8h2.8l1.4-1.7l1.2,1.7c0,0,0.1,2.9,0,3.3c0.3,1.2,0.7,2.4,1.1,3.5l-2.3,3.3v2l5-3.9l-2.7-6.7l1.1-2.3
	h3.9l0.6-5.5l6.6,4.6l4.1,3.2l-4.7,2.8l-6,6.9l7.7-1.9l1.9-5h4.9l2.3-0.9l8.7-0.5l2.6,2.5l3.2-1v4.4l3.4,4.3l-2.7,2.6
	c0,0,3.8,2.3,4.2,2.8s0.4,3,0.4,3l1.8,0.5v-2.3l1.6,1.7v3l-5.4,1.7l-2.7,2.7h10.3l1.8,4.7c0.4,1.6,0.6,3.2,0.7,4.8l-0.7,2.1
	l-1.3,1.8l-1.1-3.4l0.5-3.4l-1-1.9l-2.8-1.8v1.8l0.7,1.9l0.9,2.1l-1.6,3.4l1.6,1.3l1.7,1.3l-1.7,2.7l-2.4,0.5h-2.9l-1.9,1.2v3.2
	l-1.5,2l-1.8,2l-5.6-4.7v1.9l1.6,2.1v2.2l-4.6-1.6l-0.6,4.7l2,2v2.4l1.1,0.7v3.9l1.6,5.2l1.4,1.7l-3,5.1l3,2.1l-3,0.5l-1.1,2.6
	l3.2,1.1v4l3.1,4.2l-1.3,5.5l-2.3,2.4v1.2l-4.8,9.4l0.6,4.1l-0.6,2.3h-0.6l-2.8,4.7h-3l0.7,2.4l2.3,2.1l-1.3,5l-3.8-2.4L97,443v-1.9
	l-2.7,5v-4.2l-1.8,3.1l-3.9,1.1v-2.4l-15.5,3.9l4.5,0.9l-3.6,3.2h-2.7l-3.3-1.3v1.3l-0.5,1.7h-1l2.8,2h-4.2l-0.9,2.1h-3.9l-1.7-0.9
	l1.7-1.9l-4.5-0.6l0.9,2.5v1.9l-7.8,5.8h-4.4l-1.3,0.9h-3.8l-0.7,1.9l-2.7-0.8h-3.7l-0.6,0.8l-6,2.1l3.3-3.9l-3.3,0.5h-3.8l-1,1.4
	h-2.8l-1.7,0.9h-1.3l8-5.8l-8,2.2l5.9-3.4h3.4l1.5-1.6l-2.1-0.8l-2.3,0.8l-9.2,0.6l-0.8,1l-6.1,1.2l3.8-3.7l14-8h-2.6l-0.5,1.3
	l-6.3,0.7L6,455.5l-0.6-1.3l0.6-2.3l-1.3-0.5l-1.3,1.2l-0.6-2L2,449l2.8-2.2l-0.6-2.1l12.9-4.3l3.1-1.6l-7.7-1.8l-5.8,0.9H0l2-3.9
	h1.5l3.9-3h3.4v2.1h1.6l0.7-2.1h2.2v4.5l4.3-1.5l-2.9-1.9l1.7-2.8l-1.3-3h1.3l5-2.7h1.2l0.6-2.9l11.2,1.5l10-2.4l5-0.8l-7.7-1.6
	l-0.9-3.4l-4.1,5.8h-4c-0.8,0-1.6,0-2.5,0c-0.4-0.1-3.8-1.5-3.8-1.5L18,421.4l8.2-6l7.8-8.7l-1.8-1.2l5.6-8.2l7.6,0.5l1-1.7
	l-2.8-2.5H30.7V392l-3.6,0.8v-1.9h2.3l0.5-3.3l-1.6-0.8l-2.2,2l-4.4,0.8l-1-2l5.3-1.7l-2-1.9l-2.3,0.7l-5.9-2.2l2.6-1.3l-2.6-3.9
	l5.3,0.9l-1-3l6.9,0.7l-3.7-4.6l1.8-1.3l1.9-0.6l4.4-0.8v-1.3l1.1-1.6l-2.8-2.8l-4.7,1.5l-8.5-5.9h6.1l1.8,2l4.3-0.6l-2.8-2.4
	l0.5-2.5H24l1.1-4.1l-1.1-0.8l-3.3,3.5l-0.5-1.4l1-4.4l4-0.9l0.9,0.9l2.2-1.4v-1.6c0,0,3-0.4,3.3,0s7.6,2.2,8.3,2.1s3.8,0,3.8,0v5.4
	l2.8,1.4l1.7-4.6h1.6c0,0,0.5,2.3,1,2.6s5.4,0,5.4,0l2.9,2V351h2.2l-1.6-2.4l-3.5-2.1l7.6-1.6v-2.5h3.5l3.5-1.6l-0.8-2.1l3.4-2.9h-7
	l-3,1.7l-3.6-1.7l-4.4-1.7L55.2,332.5z"/>
<path class="st0" d="M62.6,319.4l-0.5,1.1l1.7,1.4v-1.4L62.6,319.4z"/>
<path class="st0" d="M118.8,311l2.8,2.4l0.7-2.9L118.8,311z"/>
<path class="st0" d="M23.4,396.5l3.9,2.2v-3.4L23.4,396.5z"/>
<path class="st0" d="M28,400.2l1.5-0.9l-1.1-0.7L28,400.2z"/>
<path class="st0" d="M29.5,400.9l2.4-0.3l-0.6-1.2L29.5,400.9z"/>
<g transform="translate(35.961 25.555)">
	<g transform="translate(80.285 0)">
		<ellipse class="st1" cx="252.3" cy="427.5" rx="4.7" ry="4.7"/>
		<path class="st1" d="M71,139.6c2.2-2.2,2.2-5.8,0-8s-5.8-2.2-8,0l0,0c-2.2,2.2-2.2,5.8,0,8l0,0l0,0l4,4L71,139.6L71,139.6
			L71,139.6z M65.4,137.1c-0.9-0.9-0.9-2.3,0-3.2s2.3-0.9,3.2,0l0,0c0.9,0.9,0.9,2.3,0,3.2S66.3,138,65.4,137.1L65.4,137.1
			L65.4,137.1z"/>
		<path class="st1" d="M60.2,239.4c2.2-2.2,2.2-5.8,0-8s-5.8-2.2-8,0l0,0c-2.2,2.2-2.2,5.8,0,8l0,0l0,0l4,4L60.2,239.4L60.2,239.4
			L60.2,239.4z M54.6,236.9c-0.9-0.9-0.9-2.3,0-3.2s2.3-0.9,3.2,0l0,0c0.9,0.9,0.9,2.3,0,3.2C56.9,237.8,55.5,237.8,54.6,236.9
			L54.6,236.9L54.6,236.9z"/>
		<path class="st1" d="M111.1,208.7c2.2-2.2,2.2-5.8,0-8s-5.8-2.2-8,0l0,0c-2.2,2.2-2.2,5.8,0,8l0,0l0,0l4,4L111.1,208.7
			L111.1,208.7L111.1,208.7z M105.5,206.2c-0.9-0.9-0.9-2.3,0-3.2s2.3-0.9,3.2,0l0,0c0.9,0.9,0.9,2.3,0,3.2
			C107.8,207.1,106.4,207.1,105.5,206.2L105.5,206.2L105.5,206.2z"/>
		<path class="st1" d="M94,227.8c2.2-2.2,2.2-5.8,0-8s-5.8-2.2-8,0l0,0c-2.2,2.2-2.2,5.8,0,8l0,0l0,0l4,4L94,227.8L94,227.8
			L94,227.8z M88.4,225.4c-0.9-0.9-0.9-2.3,0-3.2s2.3-0.9,3.2,0l0,0c0.9,0.9,0.9,2.3,0,3.2C90.7,226.3,89.3,226.3,88.4,225.4
			L88.4,225.4L88.4,225.4z"/>
		<path class="st1" d="M120.2,199.1c2.2-2.2,2.2-5.8,0-8s-5.8-2.2-8,0l0,0c-2.2,2.2-2.2,5.8,0,8l0,0l0,0l4,4L120.2,199.1
			L120.2,199.1L120.2,199.1z M114.6,196.6c-0.9-0.9-0.9-2.3,0-3.2s2.3-0.9,3.2,0l0,0c0.9,0.9,0.9,2.3,0,3.2
			C116.9,197.5,115.5,197.5,114.6,196.6L114.6,196.6L114.6,196.6z"/>
		<g transform="translate(132.254 269.944)">
			<path class="st1" d="M9.7,9.7c2.2-2.2,2.2-5.8,0-8s-5.8-2.2-8,0l0,0c-2.2,2.2-2.2,5.8,0,8l0,0l0,0l2.7,2.7l1.3,1.3L9.7,9.7
				L9.7,9.7L9.7,9.7z M4.1,7.3C3.2,6.4,3.2,5,4.1,4.1s2.3-0.9,3.2,0l0,0c0.9,0.9,0.9,2.3,0,3.2C6.4,8.1,5,8.2,4.1,7.3L4.1,7.3
				L4.1,7.3z"/>
		</g>
		<path class="st1" d="M146.4,295c2.2-2.2,2.2-5.8,0-8s-5.8-2.2-8,0l0,0c-2.2,2.2-2.2,5.8,0,8l0,0l0,0l4,4L146.4,295L146.4,295
			L146.4,295z M140.8,292.6c-0.9-0.9-0.9-2.3,0-3.2c0.9-0.9,2.3-0.9,3.2,0l0,0c0.9,0.9,0.9,2.3,0,3.2
			C143.1,293.4,141.7,293.4,140.8,292.6L140.8,292.6L140.8,292.6z"/>
		<path class="st1" d="M191.2,357.7c2.2-2.2,2.2-5.8,0-8s-5.8-2.2-8,0l0,0c-2.2,2.2-2.2,5.8,0,8l0,0l0,0l4,4L191.2,357.7
			L191.2,357.7L191.2,357.7z M185.6,355.3c-0.9-0.9-0.9-2.3,0-3.2c0.9-0.9,2.3-0.9,3.2,0l0,0c0.9,0.9,0.9,2.3,0,3.2
			C187.8,356.1,186.4,356.1,185.6,355.3L185.6,355.3L185.6,355.3z"/>
		<path class="st1" d="M185.4,373.1c2.2-2.2,2.2-5.8,0-8s-5.8-2.2-8,0l0,0c-2.2,2.2-2.2,5.8,0,8l0,0l0,0l4,4L185.4,373.1
			L185.4,373.1L185.4,373.1z M179.8,370.6c-0.9-0.9-0.9-2.3,0-3.2c0.9-0.9,2.3-0.9,3.2,0l0,0c0.9,0.9,0.9,2.3,0,3.2
			C182.1,371.5,180.7,371.5,179.8,370.6L179.8,370.6L179.8,370.6z"/>
		<path class="st1" d="M109.4,377.5c2.2-2.2,2.2-5.8,0-8s-5.8-2.2-8,0l0,0c-2.2,2.2-2.2,5.8,0,8l0,0l0,0l4,4L109.4,377.5
			L109.4,377.5L109.4,377.5z M103.8,375.1c-0.9-0.9-0.9-2.3,0-3.2c0.9-0.9,2.3-0.9,3.2,0l0,0c0.9,0.9,0.9,2.3,0,3.2
			C106.1,376,104.7,376,103.8,375.1L103.8,375.1L103.8,375.1z"/>
		<path class="st1" d="M9.7,311.6c2.2-2.2,2.2-5.8,0-8s-5.8-2.2-8,0l0,0c-2.2,2.2-2.2,5.8,0,8l0,0l0,0l4,4L9.7,311.6L9.7,311.6
			L9.7,311.6z M4.1,309.2c-0.9-0.9-0.9-2.3,0-3.2c0.9-0.9,2.3-0.9,3.2,0l0,0c0.9,0.9,0.9,2.3,0,3.2C6.4,310.1,5,310.1,4.1,309.2
			L4.1,309.2L4.1,309.2z"/>
		<path class="st1" d="M115.1,490.8c2.2-2.2,2.2-5.8,0-8s-5.8-2.2-8,0l0,0c-2.2,2.2-2.2,5.8,0,8l0,0l0,0l4,4L115.1,490.8
			L115.1,490.8L115.1,490.8z M109.5,488.3c-0.9-0.9-0.9-2.3,0-3.2c0.9-0.9,2.3-0.9,3.2,0l0,0c0.9,0.9,0.9,2.3,0,3.2
			C111.8,489.2,110.4,489.2,109.5,488.3L109.5,488.3L109.5,488.3z"/>
		<path class="st1" d="M156,517c2.2-2.2,2.2-5.8,0-8.1c-2.2-2.2-5.8-2.2-8,0l0,0c-2.2,2.2-2.2,5.8,0,8.1l0,0l0,0l4,4L156,517
			L156,517L156,517z M150.4,514.5c-0.9-0.9-0.9-2.3,0-3.2c0.9-0.9,2.3-0.9,3.2,0l0,0c0.9,0.9,0.9,2.3,0,3.2S151.3,515.4,150.4,514.5
			L150.4,514.5L150.4,514.5z"/>
		<path class="st1" d="M218.6,483.1c2.2-2.2,2.2-5.8,0-8s-5.8-2.2-8,0l0,0c-2.2,2.2-2.2,5.8,0,8l0,0l0,0l4,4L218.6,483.1
			L218.6,483.1L218.6,483.1z M213,480.6c-0.9-0.9-0.9-2.3,0-3.2c0.9-0.9,2.3-0.9,3.2,0l0,0c0.9,0.9,0.9,2.3,0,3.2
			C215.3,481.5,213.9,481.5,213,480.6L213,480.6L213,480.6z"/>
		<path class="st1" d="M249.9,451.1c2.2-2.2,2.2-5.8,0-8s-5.8-2.2-8,0l0,0c-2.2,2.2-2.2,5.8,0,8l0,0l0,0l4,4L249.9,451.1
			L249.9,451.1L249.9,451.1z M244.3,448.7c-0.9-0.9-0.9-2.3,0-3.2c0.9-0.9,2.3-0.9,3.2,0l0,0c0.9,0.9,0.9,2.3,0,3.2
			C246.6,449.5,245.2,449.5,244.3,448.7L244.3,448.7L244.3,448.7z"/>
		<path class="st1" d="M156.7,9.7c2.2-2.2,2.2-5.8,0-8s-5.8-2.2-8,0l0,0c-2.2,2.2-2.2,5.8,0,8l0,0l0,0l4,4L156.7,9.7L156.7,9.7
			L156.7,9.7z M151.1,7.3c-0.9-0.9-0.9-2.3,0-3.2s2.3-0.9,3.2,0l0,0c0.9,0.9,0.9,2.3,0,3.2C153.3,8.1,151.9,8.2,151.1,7.3L151.1,7.3
			L151.1,7.3z"/>
		<path class="st1" d="M125.3,172.2c2.2-2.2,2.2-5.8,0-8s-5.8-2.2-8,0l0,0c-2.2,2.2-2.2,5.8,0,8l0,0l0,0l4,4L125.3,172.2
			L125.3,172.2L125.3,172.2z M119.7,169.7c-0.9-0.9-0.9-2.3,0-3.2s2.3-0.9,3.2,0l0,0c0.9,0.9,0.9,2.3,0,3.2
			C122,170.6,120.6,170.6,119.7,169.7L119.7,169.7L119.7,169.7z"/>
	</g>
	<g transform="translate(0 102.493)">
		<ellipse class="st2" cx="179.6" cy="1.7" rx="1.7" ry="1.7"/>
		<ellipse class="st2" cx="183" cy="45.8" rx="1.7" ry="1.7"/>
		<ellipse class="st2" cx="210.2" cy="44.2" rx="1.7" ry="1.7"/>
		<ellipse class="st2" cx="214.9" cy="54.4" rx="1.7" ry="1.7"/>
		<ellipse class="st2" cx="210.9" cy="148.8" rx="1.7" ry="1.7"/>
		<ellipse class="st2" cx="122.6" cy="151" rx="1.7" ry="1.7"/>
		<ellipse class="st2" cx="98" cy="167.3" rx="1.7" ry="1.7"/>
		<ellipse class="st2" cx="59.2" cy="193.8" rx="1.7" ry="1.7"/>
		<ellipse class="st2" cx="30.6" cy="206.3" rx="1.7" ry="1.7"/>
		<ellipse class="st2" cx="1.7" cy="294.8" rx="1.7" ry="1.7"/>
		<ellipse class="st2" cx="19.9" cy="326" rx="1.7" ry="1.7"/>
		<ellipse class="st2" cx="81.5" cy="263.8" rx="1.7" ry="1.7"/>
		<ellipse class="st2" cx="175.2" cy="242.7" rx="1.7" ry="1.7"/>
		<g transform="translate(230.846 203.832)">
			<ellipse class="st2" cx="1.7" cy="1.7" rx="1.7" ry="1.7"/>
		</g>
		<ellipse class="st2" cx="199" cy="281" rx="1.7" ry="1.7"/>
		<ellipse class="st2" cx="189" cy="286" rx="1.7" ry="1.7"/>
		<ellipse class="st2" cx="183.5" cy="286.3" rx="1.7" ry="1.7"/>
		<ellipse class="st2" cx="129.7" cy="164.3" rx="1.7" ry="1.7"/>
		<ellipse class="st2" cx="238" cy="212.6" rx="1.7" ry="1.7"/>
		<ellipse class="st2" cx="276.2" cy="275" rx="1.7" ry="1.7"/>
		<ellipse class="st2" cx="248.7" cy="265.8" rx="1.7" ry="1.7"/>
		<ellipse class="st2" cx="278.7" cy="305.4" rx="1.7" ry="1.7"/>
		<ellipse class="st2" cx="290.5" cy="315.7" rx="1.7" ry="1.7"/>
		<ellipse class="st2" cx="337.2" cy="335.7" rx="1.7" ry="1.7"/>
		<ellipse class="st2" cx="316.1" cy="354.8" rx="1.7" ry="1.7"/>
		<ellipse class="st2" cx="311.6" cy="368.5" rx="1.7" ry="1.7"/>
		<ellipse class="st2" cx="301.8" cy="389.8" rx="1.7" ry="1.7"/>
		<ellipse class="st2" cx="306.9" cy="393.3" rx="1.7" ry="1.7"/>
		<ellipse class="st2" cx="330" cy="394.8" rx="1.7" ry="1.7"/>
		<ellipse class="st2" cx="326" cy="408.3" rx="1.7" ry="1.7"/>
		<ellipse class="st2" cx="315.9" cy="413.4" rx="1.7" ry="1.7"/>
		<ellipse class="st2" cx="286.1" cy="425.7" rx="1.7" ry="1.7"/>
		<ellipse class="st2" cx="269.8" cy="424.1" rx="1.7" ry="1.7"/>
		<ellipse class="st2" cx="245.8" cy="424.9" rx="1.7" ry="1.7"/>
		<ellipse class="st2" cx="212.3" cy="430.3" rx="1.7" ry="1.7"/>
		<ellipse class="st2" cx="196.3" cy="442.5" rx="1.7" ry="1.7"/>
		<ellipse class="st2" cx="158.2" cy="443.8" rx="1.7" ry="1.7"/>
		<ellipse class="st2" cx="101.3" cy="460.3" rx="1.7" ry="1.7"/>
		<ellipse class="st2" cx="145.4" cy="379.2" rx="1.7" ry="1.7"/>
		<ellipse class="st2" cx="150.3" cy="381.6" rx="1.7" ry="1.7"/>
		<ellipse class="st2" cx="170.4" cy="389.3" rx="1.7" ry="1.7"/>
		<ellipse class="st2" cx="178.2" cy="385.6" rx="1.7" ry="1.7"/>
	</g>
</g>
</svg>
