<svg xmlns="http://www.w3.org/2000/svg" width="532" height="532" viewBox="0 0 532 532">
  <g id="Group_84" data-name="Group 84" transform="translate(1127.532 -626.097)">
    <g id="Group_87" data-name="Group 87" transform="translate(-1127.532 626.097)">
      <path id="Path_79" data-name="Path 79" d="M-861.531,1158.1c-146.674,0-266-119.327-266-266s119.327-266,266-266,266,119.327,266,266S-714.859,1158.1-861.531,1158.1Zm0-518.5c-139.227,0-252.5,113.268-252.5,252.5s113.271,252.5,252.5,252.5,252.5-113.27,252.5-252.5S-722.3,639.6-861.531,639.6Z" transform="translate(1127.532 -626.097)" fill="#fff"/>
      <path id="Path_80" data-name="Path 80" d="M-868.57,1123.927c-131.712,0-238.868-107.155-238.868-238.869s107.156-238.869,238.868-238.869S-629.7,753.346-629.7,885.058-736.857,1123.927-868.57,1123.927Zm0-475.038c-130.223,0-236.168,105.944-236.168,236.168s105.945,236.169,236.168,236.169S-632.4,1015.281-632.4,885.058-738.348,648.89-868.57,648.89Z" transform="translate(1134.571 -619.058)" fill="#fff"/>
      <g id="Group_84-2" data-name="Group 84" transform="translate(50.679 78.506)">
        <path id="Path_81" data-name="Path 81" d="M-860.514,725.288c-12.077-7.516-14.311-17.444-6.387-30.18s17.714-13.491,29.182-6.357c11.42,7.105,15.259,16.339,7.336,29.074S-848.436,732.8-860.514,725.288Zm18.058-14.778c3.889-6.251,3.335-10.18-.848-12.781s-7.941-1.487-11.888,4.858c-4.005,6.44-3.55,10.633.632,13.235C-850.332,718.453-846.4,716.856-842.456,710.51Z" transform="translate(1166.528 -684.236)" fill="#fff"/>
        <path id="Path_82" data-name="Path 82" d="M-790.4,731.692c-2.961,2.67-8.731,8.089-15.1,14.158-6.652,6.34-11.181,10.653-14.991,14.436l-9.736-10.219c1.464-3.839,3.708-12.477,5.569-19.753a65.642,65.642,0,0,1,3.649-8.446l-.076-.081c-2.414,2.682-4.664,5.054-6.952,7.388-5.854,5.653-9.861,9.47-11.429,11.194l-8.476-8.9c4.046-3.778,8.692-8.13,15.1-14.238,6.372-6.071,11.062-10.538,14.953-14.4l10.728,11.262c-1.16,2.633-3.711,12.555-6.039,19.742a50.906,50.906,0,0,1-3.224,7.124l.115.042c2.093-2.375,4.144-4.559,6.067-6.39,4.37-4.241,9.265-9.134,11.556-11.622Z" transform="translate(1174.798 -677.719)" fill="#fff"/>
        <path id="Path_83" data-name="Path 83" d="M-773.113,761.731c-1.033.536-2.88,1.545-4.268,2.352-1.483.863-3.542,2.058-4.539,2.767-3.346-5.869-7-12.261-9.779-17.048l-5.026,2.921c3.31,5.7,6.9,11.871,9.768,16.477-1.8.983-5.963,3.4-7.878,4.514-2.6-4.7-6.171-10.948-9.452-16.6l-5.219,3.031c2.81,4.834,6.752,11.506,9.971,16.936-1.2.573-3.31,1.8-4.984,2.769-1.437.835-3.351,1.947-4.491,2.739l-16.747-28.815c4.918-2.666,10.375-5.836,18.034-10.287,7.609-4.422,13.3-7.733,17.865-10.574Z" transform="translate(1182.573 -667.181)" fill="#fff"/>
        <path id="Path_84" data-name="Path 84" d="M-759.248,816.008c-5.619.982-11.759,2.183-20.38,3.948s-14.469,3.018-20.293,4.38l-2.809-13.719c3.925-.691,9.848-1.847,14.577-2.76-.344-1.963-.79-4.132-1.234-6.3s-.888-4.339-1.342-6.279c-4.718.967-10.564,2.22-14.489,3.194l-2.81-13.721c5.9-.983,11.759-2.182,20.38-3.948s14.751-3.019,20.293-4.38l2.81,13.719c-3.829.616-9.969,1.816-14.849,2.815.346,1.964.736,4.143,1.18,6.313s.943,4.328,1.4,6.268c4.869-1.053,10.986-2.363,14.76-3.249Z" transform="translate(1188.783 -651.941)" fill="#fff"/>
        <path id="Path_85" data-name="Path 85" d="M-802.653,842.763c1.5-.093,4.4-.392,7.975-.937.117-2.377.234-4.7.323-6.525.085-1.714.2-4.093.323-6.526-3.392-.888-6.186-1.581-7.833-1.884l.7-14.158c10.229,3.888,35.226,11.836,40.908,13.5l-1.1,22.177c-5.882,1.261-31.325,6.764-42.065,9.834Zm16.579-2.285c4.081-.685,8.275-1.419,11.917-2.181,2.86-.69,5.6-1.163,7.615-1.507l.008-.166c-1.967-.6-4.591-1.336-7.537-2.315-3.551-1.007-7.6-2.15-11.535-3.288l-.231,4.7Z" transform="translate(1190.398 -639.219)" fill="#fff"/>
        <path id="Path_86" data-name="Path 86" d="M-772.969,897.582c-3.773-1.292-11.313-3.7-19.717-6.324-8.773-2.736-14.744-4.6-19.9-6.091l4.2-13.478c4.069-.586,12.711-2.821,19.974-4.73a65.925,65.925,0,0,1,9.158-.914l.032-.105c-3.516-.806-6.684-1.62-9.836-2.486-7.786-2.371-13.071-4.02-15.34-4.555l3.659-11.732c5.269,1.7,11.329,3.65,19.786,6.287,8.4,2.621,14.586,4.549,19.851,6.075l-4.632,14.851c-2.867.267-12.78,2.859-20.193,4.316a50.818,50.818,0,0,1-7.8.64l.019.123c3.095.675,6,1.407,8.535,2.2,5.831,1.761,12.487,3.662,15.776,4.456Z" transform="translate(1187.185 -627.156)" fill="#fff"/>
        <path id="Path_87" data-name="Path 87" d="M-785.135,916.791c-7.453,12.053-14.274,15.19-27.458,7.038-14.124-8.735-15.685-16.208-7.708-29.109l10.161-16.431c4.885,3.15,10.034,6.4,17.521,11.029s13.117,8.047,17.789,10.805Zm-20.719-4.807c7.439,4.6,9.791,3.322,12.674-1.34.9-1.458,1.7-2.853,2.421-4.231-2.814-1.87-5.921-3.79-8.981-5.683-3.578-2.212-6.216-3.843-8.364-5.106-.937,1.307-1.695,2.53-2.626,4.037C-813.642,904.371-813.574,907.209-805.854,911.984Z" transform="translate(1182.802 -616.253)" fill="#fff"/>
        <path id="Path_88" data-name="Path 88" d="M-831.661,916.313c-3.662-3.129-3.963-6.442-1.194-9.683,2.732-3.2,6.051-3.423,9.714-.293,3.62,3.091,3.758,6.34,1.061,9.5C-824.812,919.033-828.042,919.405-831.661,916.313Z" transform="translate(1179.439 -607.209)" fill="#fff"/>
        <path id="Path_89" data-name="Path 89" d="M-854.652,928.819c11.649-8.166,21.659-6.325,30.269,5.959s5.465,21.588-5.6,29.34c-11.015,7.721-21.014,7.631-29.623-4.652S-866.3,936.984-854.652,928.819Zm6.511,22.409c4.226,6.028,8.059,7.061,12.092,4.232s4.48-6.723.193-12.843c-4.354-6.21-8.39-7.436-12.426-4.609C-852.359,940.867-852.429,945.108-848.141,951.228Z" transform="translate(1168.844 -600.291)" fill="#fff"/>
        <path id="Path_90" data-name="Path 90" d="M-885.154,990.85c-1.287-3.774-4-11.213-7.073-19.464-3.208-8.611-5.392-14.473-7.372-19.468l13.231-4.929c2.956,2.857,10.013,8.323,15.97,12.9a65.672,65.672,0,0,1,6.33,6.681l.1-.039c-1.515-3.276-2.811-6.279-4.056-9.3-2.892-7.608-4.825-12.794-5.793-14.917l11.518-4.29c1.881,5.208,4.051,11.194,7.143,19.495,3.073,8.249,5.335,14.319,7.353,19.416l-14.579,5.431c-1.965-2.1-10.084-8.354-15.776-13.325a50.735,50.735,0,0,1-5.281-5.771l-.084.09c1.36,2.86,2.559,5.605,3.488,8.094,2.177,5.688,4.749,12.115,6.136,15.2Z" transform="translate(1156.704 -595.327)" fill="#fff"/>
        <path id="Path_91" data-name="Path 91" d="M-922.6,994.043c-.082-1.161-.28-3.258-.471-4.85-.205-1.705-.49-4.068-.745-5.265,6.714-.752,14.031-1.577,19.528-2.239l-.694-5.771c-6.542.787-13.634,1.639-19,2.453-.19-2.042-.766-6.824-1.03-9.023,5.346-.531,12.5-1.337,18.985-2.116l-.721-5.991c-5.552.667-13.241,1.647-19.5,2.458-.049-1.333-.34-3.751-.573-5.675-.2-1.65-.462-3.848-.739-5.211l33.094-3.981c.5,5.573,1.258,11.84,2.316,20.634,1.052,8.741,1.838,15.283,2.645,20.6Z" transform="translate(1146.909 -591.54)" fill="#fff"/>
        <path id="Path_92" data-name="Path 92" d="M-963.6,967.621a14.2,14.2,0,0,1-3.3-1.271c-3.919-2.181-4.885-5.3-3.935-10.14,1.473-7.5,6.264-10.057,15.935-8.157l24.885,4.89c-1.392,5.651-2.576,11.682-4.274,20.321s-2.914,14.833-3.731,20.428l-24.341-4.782c-8.911-1.75-13.312-5.492-11.741-13.479.917-4.672,2.6-6.654,6.369-7.439a14.172,14.172,0,0,1,4.083-.1Zm7.01,14.016c2.174.427,4.466.821,6.987,1.2.524-2.381,1.1-5.314,1.7-8.356-2.478-.6-4.769-1-6.835-1.4-3.542-.64-5.385.408-6.035,3.721C-961.345,979.688-960.072,980.954-956.594,981.637Zm-1.45-20.486c-.618,3.15.755,4.493,4.5,5.228,2.065.406,4.413.81,6.976,1.257.577-2.933,1.088-5.824,1.524-8.333-2.7-.643-4.923-1.08-6.934-1.476C-955.723,957.093-957.382,957.782-958.044,961.152Z" transform="translate(1130.491 -592.024)" fill="#fff"/>
        <path id="Path_93" data-name="Path 93" d="M-965.606,945.473c-2.362,5.495-4.568,11.051-7.82,19.231-3.271,8.232-5.477,13.788-7.509,19.354L-994,978.867c2.27-5.411,4.476-10.969,7.747-19.2,3.252-8.18,5.458-13.737,7.583-19.387Z" transform="translate(1123.632 -594.536)" fill="#fff"/>
        <path id="Path_94" data-name="Path 94" d="M-1028.717,958.208c6.157-2.93,17.13-9.046,23.864-9.98a16.554,16.554,0,0,1-2.048-9.331c-.34-8.716.03-13.78,0-16.022l12.048,7.573c1.5.944,1.92,1.731,1.805,3.161-.154,5.135-.6,12.705.185,17.186l.421.265c3.153-5.015,5.994-9.639,8.417-13.806l11.952,7.515c-3.38,5.068-6.551,10.006-11.236,17.46-4.714,7.5-7.848,12.592-10.861,17.7l-11.953-7.513c3.046-4.431,6.61-10.1,10.264-15.914l-.235-.147c-2.4.909-4.894,1.959-7.214,3.05a114.382,114.382,0,0,0-12.191,7.116Z" transform="translate(1111.47 -600.633)" fill="#fff"/>
        <path id="Path_95" data-name="Path 95" d="M-1051.759,934.153c.862-.783,2.389-2.231,3.524-3.366,1.213-1.213,2.9-2.9,3.678-3.836,4.738,4.815,9.9,10.06,13.821,13.976l4.11-4.11c-4.66-4.659-9.709-9.71-13.664-13.428,1.488-1.41,4.894-4.817,6.461-6.382,3.717,3.875,8.769,9,13.389,13.624l4.267-4.267c-3.955-3.954-9.475-9.4-13.977-13.819,1.018-.862,2.74-2.585,4.112-3.954,1.173-1.176,2.74-2.741,3.639-3.8l23.567,23.567c-4.07,3.838-8.534,8.3-14.8,14.563-6.225,6.225-10.884,10.884-14.563,14.8Z" transform="translate(1103.398 -606.969)" fill="#fff"/>
        <path id="Path_96" data-name="Path 96" d="M-1039.695,898.64c3.873-2.861,7.17-2.4,9.7,1.024,2.5,3.384,1.965,6.669-1.908,9.529-3.829,2.829-7.026,2.228-9.491-1.11C-1043.891,904.7-1043.524,901.467-1039.695,898.64Z" transform="translate(1106.474 -609.782)" fill="#fff"/>
        <path id="Path_97" data-name="Path 97" d="M-1037.9,874.4c5.306,13.2,1.241,22.532-12.681,28.126s-22.266.419-27.3-12.116c-5.016-12.481-2.657-22.2,11.262-27.8S-1043.211,861.195-1037.9,874.4Zm-23.3,1.252c-6.833,2.745-8.707,6.244-6.87,10.815s5.531,5.893,12.464,3.1c7.038-2.828,9.15-6.48,7.312-11.052C-1050.158,873.891-1054.273,872.859-1061.207,875.647Z" transform="translate(1093.398 -622.594)" fill="#fff"/>
        <path id="Path_98" data-name="Path 98" d="M-1090,830c3.969-.393,11.832-1.335,20.565-2.447,9.117-1.16,15.325-1.949,20.64-2.736l1.781,14.007c-3.458,2.227-10.388,7.852-16.2,12.611a65.81,65.81,0,0,1-7.951,4.64l.014.109c3.535-.729,6.755-1.306,9.983-1.828,8.068-1.08,13.561-1.78,15.847-2.237l1.55,12.193c-5.5.644-11.823,1.394-20.613,2.51-8.734,1.111-15.161,1.928-20.584,2.729l-1.963-15.434c2.5-1.435,10.437-7.916,16.574-12.323a50.737,50.737,0,0,1,6.826-3.827l-.069-.1c-3.1.674-6.041,1.215-8.679,1.55-6.036.822-12.881,1.861-16.2,2.506Z" transform="translate(1090.001 -634.987)" fill="#fff"/>
        <path id="Path_99" data-name="Path 99" d="M-1086.228,793.432c1.149.178,3.235.459,4.833.63,1.705.184,4.073.438,5.3.458-.778,6.711-1.619,14.027-2.21,19.533l5.781.621c.7-6.552,1.466-13.653,1.881-19.067,2.031.273,6.821.789,9.023,1.025-.685,5.328-1.507,12.48-2.2,18.975l6,.645c.6-5.561,1.371-13.274,1.99-19.555,1.308.251,3.731.512,5.658.718,1.651.178,3.853.413,5.242.452l-3.561,33.142c-5.542-.763-11.818-1.437-20.626-2.383-8.755-.94-15.306-1.643-20.664-2.051Z" transform="translate(1090.075 -645.981)" fill="#fff"/>
        <path id="Path_100" data-name="Path 100" d="M-1073.056,760.729c5.855-12.906,12.222-16.887,26.338-10.484,15.126,6.861,17.629,14.076,11.362,27.89l-7.982,17.6c-5.249-2.5-10.771-5.069-18.788-8.7s-14.039-6.309-19.025-8.449Zm21.167,2.125c-7.967-3.615-10.137-2.046-12.4,2.945-.709,1.564-1.323,3.048-1.862,4.506,3.03,1.5,6.357,3.006,9.634,4.491,3.832,1.739,6.656,3.021,8.948,4,.764-1.415,1.36-2.726,2.092-4.34C-1043.193,769.413-1043.622,766.6-1051.889,762.854Z" transform="translate(1093.101 -662.164)" fill="#fff"/>
        <path id="Path_101" data-name="Path 101" d="M-1019.847,752.921c-8.907,11.1-19.035,12.13-30.739,2.737s-11.282-19.207-2.826-29.744c8.422-10.495,18.051-13.2,29.754-3.812S-1010.942,741.822-1019.847,752.921Zm-12.519-19.7c-5.744-4.61-9.713-4.53-12.8-.686s-2.425,7.71,3.406,12.389c5.916,4.746,10.137,4.8,13.221.953C-1025.417,741.99-1026.535,737.9-1032.366,733.22Z" transform="translate(1100.656 -672.984)" fill="#fff"/>
        <path id="Path_102" data-name="Path 102" d="M-996.669,700.736c10.314,12.125,12.767,20.256-1.16,30.752-11.584,8.729-21.466,6.746-30.128-4.75-8.629-11.451-7.222-20.9,4.406-29.661s19.2-6.91,23.662-.984c.466.62.9,1.2,1.356,1.888-1.493,1.055-3.561,2.543-5.551,4.043-2.034,1.531-3.979,3-5.239,4.09-.266-.354-.521-.785-.755-1.1-2.032-2.7-4.568-2.657-7.751-.259-4.158,3.131-4.26,6.675,1.071,13.75,5.031,6.676,8.755,8.307,13.4,4.809,3.316-2.5,3.655-4.9,1.254-8.639-2.121,1.6-4.387,3.376-6.122,4.752-.456-.7-1.656-2.287-2.189-3-1.033-1.371-1.9-2.521-2.61-3.376,2.864-2.086,5.694-4.22,7.816-5.818,2.344-1.766,5.428-4.021,8.457-6.438Z" transform="translate(1109.792 -681.841)" fill="#fff"/>
        <path id="Path_103" data-name="Path 103" d="M-985.211,704.23c2.256,4.256,1.318,7.45-2.448,9.447-3.717,1.971-6.888.957-9.144-3.3-2.231-4.208-1.165-7.28,2.5-9.224C-990.583,699.184-987.442,700.024-985.211,704.23Z" transform="translate(1122.244 -678.664)" fill="#fff"/>
      </g>
      <g id="Group_86" data-name="Group 86" transform="translate(114.241 114.079)">
        <path id="Path_104" data-name="Path 104" d="M-930.918,773.372c-3.476,0-5.185-.951-6.074-6.659a3.317,3.317,0,0,1,.741-2.652,3.334,3.334,0,0,1,2.5-1.186c1.633-.024,9.88.03,11.279,3.812.651,1.765-.3,3.716-2.814,5.8h0a3.32,3.32,0,0,1-2,.741c-.618.023-1.188.053-1.714.08C-929.693,773.345-930.331,773.372-930.918,773.372Zm4.767-1.923h0Zm-7.078-5.877c-.159,0-.32,0-.481,0a.624.624,0,0,0-.474.224.614.614,0,0,0-.139.5c.708,4.547.878,4.537,5.182,4.314.537-.027,1.123-.057,1.758-.08a.643.643,0,0,0,.371-.124c1.712-1.418,2.148-2.385,2-2.783C-925.386,766.609-928.745,765.572-933.23,765.572Z" transform="translate(1080.029 -692.259)" fill="#fff"/>
        <path id="Path_105" data-name="Path 105" d="M-902.378,743.278a4.815,4.815,0,0,1-.721-.057h0a3.145,3.145,0,0,1-1.377-.6c-2.707-2.017-4.964-5.6-4.028-8.546.39-1.231,1.695-3.314,6.037-3.424a.726.726,0,0,0,.255-.04,14.552,14.552,0,0,0,2.009-1.177l.247-.162a3.258,3.258,0,0,1,3.97.279,3.284,3.284,0,0,1,.814,3.924c-.374.785-.724,1.692-1.094,2.652C-897.5,739.336-899.022,743.278-902.378,743.278Zm-.3-2.725c1.588.248,2.614-2.082,3.892-5.4.373-.966.756-1.965,1.176-2.842a.586.586,0,0,0-.154-.728.555.555,0,0,0-.713-.054l-.242.159a17.131,17.131,0,0,1-2.393,1.387,3.332,3.332,0,0,1-1.288.275c-1.146.03-3.129.269-3.532,1.542-.464,1.462.913,3.958,3.069,5.563A.513.513,0,0,0-902.679,740.553Z" transform="translate(1089.946 -704.222)" fill="#fff"/>
        <path id="Path_106" data-name="Path 106" d="M-864.009,898.82a2.388,2.388,0,0,1-.327-.022c-1.984-.247-3.035-2.678-3.519-8.124a3.326,3.326,0,0,1,.806-2.47c1.481-1.7,3.609-4.071,5.839-6.521a3.249,3.249,0,0,1,4.152-.612,3.239,3.239,0,0,1,1.426,3.939C-859.785,896.837-862.213,898.82-864.009,898.82Zm.158-2.648h0Zm5.073-12.881a.574.574,0,0,0-.435.213c-2.219,2.435-4.333,4.794-5.8,6.475a.629.629,0,0,0-.153.456h0c.353,3.971.949,5.232,1.2,5.6.532-.382,2.416-2.328,5.786-11.919a.567.567,0,0,0-.263-.725A.681.681,0,0,0-858.778,883.291Z" transform="translate(1104.258 -651.022)" fill="#fff"/>
        <path id="Path_107" data-name="Path 107" d="M-920.4,800.218a2.9,2.9,0,0,1-1.869-.617c-1.865-1.507-1.195-4.819,1.995-9.848h0a.608.608,0,0,0,.047-.623c-.18-.315-.378-.641-.582-.978-1.458-2.394-3.659-6.012-.747-9.527a3.42,3.42,0,0,1,2.52-1.241,3.085,3.085,0,0,1,2.4.974c1.527,1.616,2.07,4.189,2.644,6.914.474,2.255.965,4.584,2.009,6.006a3.318,3.318,0,0,1-.354,4.3C-914.745,797.949-917.971,800.218-920.4,800.218ZM-918,791.2c-2.663,4.2-2.737,6.019-2.552,6.326.436.19,2.961-.566,6.316-3.869a.607.607,0,0,0,.072-.782c-1.39-1.891-1.942-4.511-2.475-7.047-.471-2.239-.96-4.552-1.963-5.613a.417.417,0,0,0-.35-.131.733.733,0,0,0-.529.263c-1.568,1.892-.632,3.762.974,6.4.219.359.431.709.621,1.045A3.294,3.294,0,0,1-918,791.2Z" transform="translate(1084.838 -687.177)" fill="#fff"/>
        <path id="Path_108" data-name="Path 108" d="M-926.552,794.676a2.341,2.341,0,0,1-.82-.147c-.632-.23-2.555-.932-2.448-7.59a3.339,3.339,0,0,1,2.613-3.21,4.738,4.738,0,0,1,5.236,1.893c1.176,1.857.821,4.4-.926,6.63l-.016.021C-923.434,792.911-924.871,794.676-926.552,794.676Zm.67-8.4a3.275,3.275,0,0,0-.729.086.641.641,0,0,0-.508.617c-.051,3.173.412,4.561.66,4.949a4.956,4.956,0,0,0,1.443-1.353c1.017-1.3,1.31-2.649.763-3.511A1.837,1.837,0,0,0-925.882,786.279Zm1.923,5.142h0Z" transform="translate(1082.554 -685.006)" fill="#fff"/>
        <path id="Path_109" data-name="Path 109" d="M-996.878,832.928a3.5,3.5,0,0,1-.785-.09h0a26.814,26.814,0,0,1-6.179-2.687,29,29,0,0,0-2.8-1.385,1.352,1.352,0,0,1-1.179.8,1.337,1.337,0,0,1-1.4-1.295h0c-.128-3.184,1.163-4.544,2.27-5.125,3.906-2.047,10.711,2.817,12.035,3.813A3.244,3.244,0,0,1-993.911,831,3.245,3.245,0,0,1-996.878,832.928Zm-.178-2.722a.578.578,0,0,0,.7-.346.567.567,0,0,0-.182-.744c-3.743-2.817-7.677-4.359-9.158-3.581a1.239,1.239,0,0,0-.509.539,20.1,20.1,0,0,1,3.645,1.7,25.01,25.01,0,0,0,5.508,2.435Zm-9.471-2.12v.018l0-.018Z" transform="translate(1054.735 -671.319)" fill="#fff"/>
        <path id="Path_110" data-name="Path 110" d="M-992.08,836.6a11.347,11.347,0,0,1-1.2-.063,3.2,3.2,0,0,1-2.907-3.123,3.285,3.285,0,0,1,2.721-3.43c.5-.092,1-.169,1.479-.239l.454-.069a3.3,3.3,0,0,1,1.888.25c2.528,1.163,3.6,2.525,3.179,4.047C-986.96,835.765-989.535,836.6-992.08,836.6Zm1.082-4.266a.723.723,0,0,0-.119.011h0l-.465.07c-.447.066-.92.138-1.387.224a.6.6,0,0,0-.514.667.506.506,0,0,0,.491.546,6.944,6.944,0,0,0,3.765-.536,5.8,5.8,0,0,0-1.545-.939A.543.543,0,0,0-991,832.338Zm-.328-1.325h0Z" transform="translate(1059.304 -668.87)" fill="#fff"/>
        <g id="Group_85" data-name="Group 85">
          <path id="Path_111" data-name="Path 111" d="M-869.552,810.742a3.2,3.2,0,0,1-1.525-.385c-2.857-1.547-5.324-1.572-8.877-1.073h0a3.289,3.289,0,0,1-3.221-1.442,3.311,3.311,0,0,1-.1-3.543c1.884-3.2,5.756-6.611,9.223-6.64h.023a3.207,3.207,0,0,1,2.335,1.06c.356.381.832.814,1.352,1.291,2.081,1.913,4.671,4.294,4.575,6.915a4.068,4.068,0,0,1-1.7,3.081A3.357,3.357,0,0,1-869.552,810.742Zm-6.926-4.448a13.341,13.341,0,0,1,6.687,1.689.62.62,0,0,0,.648-.093c.591-.469.671-.832.679-1.065.05-1.375-2.209-3.452-3.7-4.826-.573-.528-1.1-1.01-1.489-1.429a.588.588,0,0,0-.367-.211h0c-2.063.018-5.231,2.45-6.916,5.311a.614.614,0,0,0,.013.673.582.582,0,0,0,.6.266h0A27.923,27.923,0,0,1-876.477,806.294Zm-3.663,1.651h0Z" transform="translate(1098.699 -680.073)" fill="#fff"/>
          <path id="Path_112" data-name="Path 112" d="M-887.576,829.389a3.34,3.34,0,0,1-1.92-.606c-.689-.481-1.443-.978-2.228-1.495-3.688-2.428-7.866-5.18-9.685-8.995a.619.619,0,0,0-.527-.3,34.856,34.856,0,0,0-6.282.645c-4.6.721-7.914,1.24-8.931-.81-.766-1.538.249-3.4,3.616-6.652a.7.7,0,0,0,.109-.134c.281-.467.531-.9.76-1.295,1.8-3.1,2.886-4.968,7.512-3.647a3.337,3.337,0,0,1,1.589,1.026c.236.27.548.594.884.943a.679.679,0,0,0,.664.261.6.6,0,0,0,.448-.411c.346-1.061.775-2.386,2.083-2.7,1.29-.305,2.622.494,5.287,3.175a3.282,3.282,0,0,1,.957,2.215c.034,1.028.112,3.432.7,3.813.159.105.651.1,1.5-.239a.614.614,0,0,0,.336-.324c.621-1.584,1.541-3.437,3.146-3.716,1.546-.258,2.652,1,3.624,2.115.62.71,1.495,1.7,2.009,1.637.2-.019.961-.243,2.227-2.368a3.26,3.26,0,0,1,2.1-1.534,3.375,3.375,0,0,1,2.617.506,24.389,24.389,0,0,0,5.731,2.306c4.218,1.34,9,2.86,10.078,6.761h0a3.26,3.26,0,0,1-.729,3.026c-6.183,6.841-13.694,4.4-22.388,1.584l-.875-.284a1,1,0,0,0-.41-.035c0,.073-.123.664-.2,1.056a7.211,7.211,0,0,1-1.356,3.341A3.155,3.155,0,0,1-887.576,829.389Zm-14.869-14.108c.228,0,.448.007.66.019a3.294,3.294,0,0,1,2.813,1.83c1.495,3.138,5.341,5.67,8.731,7.9.809.531,1.584,1.043,2.292,1.538a.564.564,0,0,0,.736-.03,4.946,4.946,0,0,0,.8-2.165,3.94,3.94,0,0,1,1.466-2.826,3.138,3.138,0,0,1,2.533-.249l.967.311c8.441,2.737,14.54,4.717,19.551-.826a.558.558,0,0,0,.13-.5h0c-.687-2.49-4.553-3.719-8.292-4.908a25.871,25.871,0,0,1-6.425-2.643.671.671,0,0,0-.513-.108.583.583,0,0,0-.374.278c-1.411,2.372-2.779,3.542-4.3,3.68-1.922.173-3.233-1.338-4.29-2.553a8.486,8.486,0,0,0-1.148-1.172,5.932,5.932,0,0,0-1.072,1.986,3.3,3.3,0,0,1-1.839,1.843c-1.656.668-2.958.666-3.986,0-1.631-1.063-1.835-3.341-1.922-5.989a.6.6,0,0,0-.173-.4,15.905,15.905,0,0,0-2.622-2.3c-.1.249-.208.575-.265.749a3.288,3.288,0,0,1-2.413,2.208,3.285,3.285,0,0,1-3.131-.932c-.451-.471-.794-.828-1.053-1.125a.667.667,0,0,0-.3-.207c-2.613-.748-2.715-.568-4.437,2.4-.235.406-.493.849-.781,1.329a3.458,3.458,0,0,1-.551.691,14.37,14.37,0,0,0-2.911,3.414,28.811,28.811,0,0,0,5.933-.566A43.465,43.465,0,0,1-902.445,815.281Z" transform="translate(1086.91 -677.444)" fill="#fff"/>
          <path id="Path_113" data-name="Path 113" d="M-876.935,967.31a5.515,5.515,0,0,1-2.25-.447c-3.651-1.6-4.252-6.787-4.89-12.283-.573-4.926-1.163-10.018-3.815-12.42a3.356,3.356,0,0,1-1.065-2.316,55.858,55.858,0,0,1,.336-8.284c.448-4.838.871-9.409-1.335-15.267a3.037,3.037,0,0,1-.146-1.406c.1-.979-1.225-2.718-2.293-4.116-1.576-2.062-3.065-4.01-2.648-6a3.478,3.478,0,0,1,1.715-2.262.34.34,0,0,0,.051-.088c-.039-.113-.537-.736-2.251-1.465-3.322-1.408-7.475-1.78-8.56-1.426a2.962,2.962,0,0,1-1.637,1.931A19.243,19.243,0,0,1-924.5,898.9a24.1,24.1,0,0,1-10.052-20.484,3.777,3.777,0,0,1,.088-.61c1.655-7.223,5.87-16.066,12.526-26.294,2.028-3.211,2.756-5.663,2.5-6.2a2.036,2.036,0,0,1-.906-.211,7.525,7.525,0,0,1-4.278-9.822c1.565-4.721,6.768-9.217,11.725-8.1a.535.535,0,0,0,.532-.185,9.6,9.6,0,0,0,1.214-2.181.588.588,0,0,0-.121-.613.556.556,0,0,0-.577-.189c-.157.041-.3.089-.415.13a1.709,1.709,0,0,1-1.978-.319c-.728-.845-.38-1.515.918-4a3.383,3.383,0,0,1,1.784-1.57c4.56-1.789,7.623-7.354,10.583-12.734.587-1.064,1.163-2.113,1.742-3.112a3.172,3.172,0,0,1,2.925-1.638,3.348,3.348,0,0,1,2.9,1.824,3.231,3.231,0,0,0,.5.764,2.016,2.016,0,0,0,.24-.231,1.351,1.351,0,0,1,1.449-.369c1.745.609,4.06.186,6.359-1.165,2.938-1.729,5.285-4.641,5.708-7.084a3.222,3.222,0,0,1,1.5-2.179l.948-.582c.8-.494,1.668-1.025,2.319-1.464-.787-.115-2.038-.236-4.024-.335a3.238,3.238,0,0,1-2.817-1.834c-.764-1.66-.749-4.233-.735-6.719a27.94,27.94,0,0,0-.125-3.639,14.858,14.858,0,0,0-2.055,2.254.718.718,0,0,0-.131.266,25.763,25.763,0,0,0-.367,7.134c.167,3.754.34,7.636-2.508,12.066a3.3,3.3,0,0,1-4.051,1.307,7.1,7.1,0,0,1-3.142-3.2c-1.03-1.7-1.342-2.219-4.089-.631a3.37,3.37,0,0,1-2.933.207,3.162,3.162,0,0,1-1.88-2.054c-1.743-6,3.468-17.12,9.046-24.9,2.437-3.4,8.7-11.336,14.2-11.582a3.13,3.13,0,0,1,2.446,1.038c1.063,1.206,7.354,2.952,9.721,3.609.675.186,1.253.348,1.676.474a3.3,3.3,0,0,1,1.608,1.067c.2.242.294.344.633.7.521.554,1.557,1.657,4.128,4.485.194.216.37.4.525.558-.134-.84-.352-1.82-.475-2.374-.419-1.881-.577-2.585.031-3.227a1.42,1.42,0,0,1,.586-.363,3.472,3.472,0,0,1,3.285.293c.423.242,1.064.612,4.834-2.72a3.22,3.22,0,0,1,1.812-.776,3.462,3.462,0,0,0,.762-.147,7.1,7.1,0,0,0-4.025-2.482,3.258,3.258,0,0,1-1.823-1.038c-3.654-4.131-4.058-11.628-2.548-14.666a2.679,2.679,0,0,1,2.6-1.745c1.287.1,3.277,1.107,5.7,8.7a.67.67,0,0,0,.17.278c4.91,4.651,6.449,4.572,6.808,4.443,1-.377,1.33-3.931,1.6-6.785.416-4.46.887-9.514,3.509-13.056a1.35,1.35,0,0,1,1.889-.282,1.351,1.351,0,0,1,.282,1.889c-2.174,2.936-2.609,7.593-2.992,11.7-.421,4.52-.754,8.09-3.334,9.061-2.173.82-5.047-.681-9.618-5.01a3.425,3.425,0,0,1-.884-1.418c-1.614-5.057-2.815-6.4-3.227-6.73a5.435,5.435,0,0,0-.581,2.283c-.261,2.864.456,7.074,2.648,9.552a.546.546,0,0,0,.3.173c2.609.493,6.409,2.99,6.3,5.426-.028.667-.4,2.252-3.271,2.544a.53.53,0,0,0-.3.114c-4.438,3.92-6.1,4.1-7.964,3.038l-.008,0c.028.128.057.254.082.371.655,2.937,1.221,5.474-.439,6.332-1.4.728-2.87-.589-4.248-2.113-2.549-2.8-3.578-3.9-4.094-4.449-.406-.431-.52-.555-.756-.843a.589.589,0,0,0-.293-.192c-.409-.121-.968-.278-1.623-.458-4.971-1.381-9.554-2.757-11.025-4.428a.4.4,0,0,0-.3-.126c-2.949.132-7.593,4.139-12.121,10.457-6.168,8.607-9.886,18.313-8.647,22.576a.47.47,0,0,0,.292.3.663.663,0,0,0,.574-.038c4.652-2.693,6.38-.7,7.752,1.57a4.766,4.766,0,0,0,1.92,2.123.617.617,0,0,0,.691-.3c2.383-3.707,2.243-6.849,2.081-10.485a27.969,27.969,0,0,1,.432-7.855,3.391,3.391,0,0,1,.641-1.333c1.95-2.485,3.58-4.031,5.207-3.46,1.831.639,1.818,3.109,1.8,6.527-.012,1.988-.026,4.46.488,5.576a.586.586,0,0,0,.5.265c5.146.258,7.043.628,7.443,2.189.413,1.616-1.215,2.617-4.46,4.609l-.941.579a.55.55,0,0,0-.262.34c-.566,3.271-3.314,6.785-7,8.951a10.822,10.822,0,0,1-7.82,1.618,2.606,2.606,0,0,1-1.93.563c-1.5-.2-2.3-1.758-2.567-2.273a.64.64,0,0,0-.562-.359.558.558,0,0,0-.52.292c-.567.983-1.134,2.013-1.711,3.061-3.044,5.531-6.494,11.8-11.963,13.945a.736.736,0,0,0-.377.3l-.149.286a3.306,3.306,0,0,1,1.824,1.053,3.283,3.283,0,0,1,.616,3.395,12.273,12.273,0,0,1-1.58,2.832,3.227,3.227,0,0,1-3.268,1.18c-3.393-.756-7.4,2.776-8.573,6.32-.564,1.705-.951,4.821,2.819,6.509a2.5,2.5,0,0,0,.275.062,2.619,2.619,0,0,1,2,1.535c1,2.293-1.261,6.455-2.7,8.731-6.491,9.975-10.581,18.526-12.165,25.436a1.211,1.211,0,0,0-.026.174,21.352,21.352,0,0,0,8.932,18.127,16.6,16.6,0,0,0,16.174,2.263c-.005-.02.051-.092.143-.433.277-1.03,1.241-1.628,2.864-1.781,3.424-.323,11.394,1.411,12.889,4.52a2.76,2.76,0,0,1-.629,3.231,1.275,1.275,0,0,1-.319.244c-.244.136-.547.347-.6.581-.162.775,1.175,2.525,2.151,3.8,1.5,1.962,3.05,3.992,2.833,6.041a.767.767,0,0,0-.005.188c2.417,6.418,1.946,11.517,1.491,16.447a53.566,53.566,0,0,0-.33,7.9.679.679,0,0,0,.182.454c3.4,3.082,4.055,8.687,4.683,14.11.521,4.5,1.061,9.143,3.291,10.119,1.313.574,4.2.3,10.51-4.309a3,3,0,0,1,.506-.3c7.018-3.271,12.324-15.926,13.63-20.1a3.321,3.321,0,0,1,1.381-1.781c5.894-3.88,5.492-13.919,5.276-19.314-.036-.913-.068-1.711-.069-2.359a3.167,3.167,0,0,1,.132-.941c.87-2.907,4.448-7.035,8.236-11.4,4.229-4.881,10.021-11.563,8.976-13.942-.329-.749-1.719-1.2-3.912-1.261a1.245,1.245,0,0,1-.255-.034c-2.011-.448-4.351-1.206-4.6-3.1-.336-2.52,3.324-4.452,8.866-7.378,5.042-2.663,11.948-6.309,12.266-9.427.034-.335.138-1.35-1.623-2.8a1.374,1.374,0,0,1-.244-.265c-1.445-2.052-1.912-1.977-2.944-1.815a6.389,6.389,0,0,1-4.289-.585,1.347,1.347,0,0,1-.234-.146c-1.024-.8-2.585-2.1-4.074-3.4a3.288,3.288,0,0,1-.825-3.9,3.293,3.293,0,0,1,3.522-1.884c24.978,3.875,41.941,19.47,45.372,41.717a1.35,1.35,0,0,1-1.129,1.539,1.356,1.356,0,0,1-1.541-1.129c-3.242-21.022-19.361-35.773-43.116-39.458a.581.581,0,0,0-.66.352.577.577,0,0,0,.153.722c1.377,1.2,2.868,2.45,3.847,3.218a3.775,3.775,0,0,0,2.555.281c1.762-.279,3.289-.246,5.466,2.783,1.811,1.541,2.634,3.237,2.449,5.041-.464,4.556-7.492,8.267-13.691,11.54-2.7,1.425-6.7,3.539-7.377,4.6a6.807,6.807,0,0,0,2.321.832c3.357.12,5.376,1.06,6.172,2.872,1.732,3.942-3.68,10.186-9.408,16.794-3.434,3.963-6.985,8.06-7.689,10.412a.5.5,0,0,0-.019.165c0,.617.031,1.381.066,2.252.239,5.928.681,16.96-6.49,21.678a.687.687,0,0,0-.288.332c-1.5,4.792-7.128,18.04-15.075,21.744C-870.643,965.655-874.2,967.31-876.935,967.31Z" transform="translate(1080.884 -702.257)" fill="#fff"/>
          <path id="Path_114" data-name="Path 114" d="M-943.1,993.977a2.987,2.987,0,0,1-.709-.089c-4.89-1.19-16.963-17.121-18.724-24.707a99.976,99.976,0,0,1-5.293-15.267c-3.029-10.439-6.161-21.234-13.833-26.934a1.055,1.055,0,0,1-.112-.093c-.961-.891-2.266-1.963-3.646-3.1-5.305-4.362-11.907-9.791-12.26-15.078a1.324,1.324,0,0,1,.039-.424,5.055,5.055,0,0,0-2.374-5.659,3.232,3.232,0,0,1-1.148-4.077,14.994,14.994,0,0,0,1.762-6.128.543.543,0,0,0-.239-.435c-1.082-.717-2.352-1.39-3.7-2.1-3.2-1.693-6.83-3.612-8.676-6.737a.677.677,0,0,0-.176-.213c-4.556-3.225-10.932-5.736-17.1-8.164a108.19,108.19,0,0,1-12.96-5.725,1.349,1.349,0,0,1-.514-1.838,1.346,1.346,0,0,1,1.839-.514,106.506,106.506,0,0,0,12.624,5.565c6.317,2.487,12.848,5.06,17.672,8.472a3.367,3.367,0,0,1,.94,1.044c1.458,2.468,4.587,4.124,7.613,5.724,1.407.744,2.736,1.446,3.929,2.239a3.241,3.241,0,0,1,1.446,2.626c.057,2.632-1.248,5.742-2.031,7.361a.551.551,0,0,0,.243.675,7.7,7.7,0,0,1,3.519,8.322c.454,4.09,6.691,9.219,11.263,12.979,1.388,1.141,2.7,2.22,3.713,3.153,8.357,6.252,11.61,17.462,14.756,28.3,1.572,5.42,3.057,10.541,5.111,14.785a3.1,3.1,0,0,1,.221.631c1.695,7.311,13.2,21.566,16.481,22.64.053-.741-.174-3.019-2.844-9.358-4.524-8.595-1.546-17.394,1.334-25.9,1.845-5.45,3.586-10.6,3.446-15.652a3.307,3.307,0,0,1,1.527-2.936c6.55-4,11.075-16.289,9.312-25.288-.748-3.811-2.929-8.56-9.076-9.6-6.406-.167-10.138-4.083-13.749-7.871-2.287-2.4-4.447-4.664-7.245-6.017a.627.627,0,0,0-.244-.05c-4.217-.266-7.963-3.361-9.8-6.31a.661.661,0,0,0-.69-.323c-3.264.546-6.28-.363-9.2-1.237-2.574-.772-5-1.5-7.464-1.226a.666.666,0,0,0-.311.162c-4.788,3.992-9.567,3.418-14.191,2.861-.622-.076-1.25-.153-1.884-.217a3.3,3.3,0,0,1-2.969-3.289l0-5.948a.54.54,0,0,0-.167-.4.656.656,0,0,0-.466-.177c-3.145.065-5.021-.5-6.09-1.878-1.454-1.87-.832-4.671-.005-7.617a.576.576,0,0,0-.177-.621c-.732-.482-1.469.018-3.31,1.761-2.132,2.021-5.357,5.077-9.444,1.454a1.44,1.44,0,0,1-.14-.146c-3.826-4.58-5.25-8.741-4.236-12.362,1.847-6.6,11.109-9.766,18.551-12.307l.716-.246a3.144,3.144,0,0,1,1.862-.084c2.927.817,4.629,3.705,6.13,6.252l.465.783a.571.571,0,0,0,.722.262.555.555,0,0,0,.412-.616c-.683-7.317,1.718-9.732,7.517-15.565l.351-.352a.616.616,0,0,0,.14-.235c3.314-10.275,12.179-17.28,26.35-20.825a1.215,1.215,0,0,1,.139-.028,1.887,1.887,0,0,0,.911-.271c-.007-.529-1.645-2.48-2.525-3.528l-.292-.348a3.351,3.351,0,0,1-.575-3.284,3.2,3.2,0,0,1,2.458-2.088,19.816,19.816,0,0,0,4.278-1.523,3.248,3.248,0,0,1,3.854.817,3.3,3.3,0,0,1,.333,3.948.641.641,0,0,0,.124.906c.527.382,1.078.851,1.637,1.326A10.31,10.31,0,0,0-955,808.055a.471.471,0,0,0,.358-.065.617.617,0,0,0,.281-.4c1.1-5.576-.907-10.5-3.031-15.721-1.723-4.232-3.505-8.608-3.47-13.347a.648.648,0,0,0-.362-.6.544.544,0,0,0-.6.059c-1.722,1.327-3.519,2.556-4.938,1.745-.83-.477-1.164-1.412-.991-2.786a1.37,1.37,0,0,1,.13-.431,4.806,4.806,0,0,0-.455-4.938,5.281,5.281,0,0,0-4.486-2.516,3.616,3.616,0,0,0-2.942,2.428c-.529,1.395-1.028,2.951-1.556,4.594-1.681,5.239-3.587,11.178-8.193,15.344-.654.812-1.122,1.491-1.483,2.015-.772,1.118-1.38,2-2.508,1.65-1.2-.375-1.2-1.245-1.206-4.906a.651.651,0,0,0-.143-.393c-11.414-14.173-8.249-18.379-.005-26.538,2.1-2.082,4.487-4.441,6.993-7.424a1.538,1.538,0,0,1,.209-.2c.66-.51,2.206-1.708,3.47-.789,1.418,1.032.622,3.248-.384,6.055a.592.592,0,0,0,.1.583.616.616,0,0,0,.556.227c2.108-.259,2.983-.344,3.377-.37a1.021,1.021,0,0,0,.379-.267,3.911,3.911,0,0,0-.925-1.334c-.4-.465-1.082-1.24-.523-2.155a1.4,1.4,0,0,1,1.3-.667c2.416-.724,4.761-4.684,6.657-7.883,2.219-3.747,3.963-6.7,6.428-6.429,2.166.243,3.322,3.009,4.086,5.391a3.359,3.359,0,0,1,.005,2.013c-1.62,5.164-3.537,7.065-6.965,9.153a.626.626,0,0,0-.282.551c.085,3.789,1.738,5.8,4.779,5.8h.012c4.667,0,10.7-4.746,10.843-10.1a1.184,1.184,0,0,0-.122-.281c-1.072-2.009-.7-4.755-.332-7.408.251-1.841.6-4.36-.066-4.956a3.888,3.888,0,0,1-.8-.9,26.031,26.031,0,0,1-2.725-6.51c-1.1-3.726-1.608-5.426-12.348-7.587a1.352,1.352,0,0,1-1.057-1.591,1.351,1.351,0,0,1,1.591-1.057c11.809,2.378,13.005,4.752,14.4,9.468a23.308,23.308,0,0,0,2.452,5.89,2.445,2.445,0,0,0,.27.262c1.745,1.566,1.36,4.375.953,7.347-.29,2.124-.62,4.532.041,5.771a3.28,3.28,0,0,1,.438,1.623c-.184,7.053-7.555,12.723-13.542,12.723h-.018c-4.561-.008-7.355-3.162-7.474-8.441a3.33,3.33,0,0,1,1.58-2.921c2.953-1.8,4.413-3.26,5.792-7.654a.671.671,0,0,0,0-.379c-1.059-3.295-1.815-3.53-1.823-3.532-.791.05-2.672,3.226-3.8,5.124-1.957,3.3-4.132,6.976-6.929,8.545a3.481,3.481,0,0,1,.714,2.76,3.276,3.276,0,0,1-2.165,2.209,1.351,1.351,0,0,1-.516.1c-.045,0-.516.012-3.366.362a3.281,3.281,0,0,1-2.995-1.219,3.282,3.282,0,0,1-.529-3.181c.127-.358.325-.91.512-1.479-2.287,2.636-4.439,4.765-6.36,6.667-7.6,7.521-10.157,10.053.208,22.926a3.343,3.343,0,0,1,.741,2.082v.042c.108-.14.22-.285.338-.432a3.211,3.211,0,0,1,.34-.365c4.074-3.682,5.785-9.014,7.439-14.168.539-1.681,1.049-3.271,1.639-4.817,1.136-2.471,2.972-3.888,5.208-4.073a7.953,7.953,0,0,1,6.943,3.69,7.493,7.493,0,0,1,1.015,6.754c.335-.213.776-.521,1.356-.967a3.246,3.246,0,0,1,3.449-.339,3.336,3.336,0,0,1,1.861,3.037c-.031,4.2,1.573,8.138,3.272,12.308,2.179,5.355,4.435,10.893,3.18,17.261a3.319,3.319,0,0,1-1.516,2.174,3.158,3.158,0,0,1-2.5.366,11.585,11.585,0,0,1-3.966-2.576c-.5-.429-1-.851-1.47-1.2a3.329,3.329,0,0,1-.884-4.432.64.64,0,0,0-.011-.822.569.569,0,0,0-.7-.15,20.894,20.894,0,0,1-4.926,1.727.514.514,0,0,0-.4.35.645.645,0,0,0,.108.632l.289.344c1.889,2.25,3.674,4.374,2.934,6.3-.392,1.022-1.38,1.66-2.937,1.9-13.355,3.353-21.326,9.574-24.371,19.015a3.3,3.3,0,0,1-.8,1.314l-.35.352c-5.615,5.646-7.308,7.35-6.744,13.409a3.238,3.238,0,0,1-2.259,3.434,3.259,3.259,0,0,1-3.881-1.441l-.474-.8c-1.3-2.212-2.651-4.5-4.529-5.023a.6.6,0,0,0-.263.039l-.717.244c-6.842,2.337-15.359,5.246-16.822,10.48-.755,2.7.47,6,3.642,9.824,1.989,1.718,3.222.909,5.721-1.458,1.692-1.6,4.01-3.8,6.656-2.052a3.281,3.281,0,0,1,1.288,3.6c-.624,2.224-1.111,4.4-.463,5.231.465.6,1.805.886,3.89.834a3.466,3.466,0,0,1,2.42.944,3.234,3.234,0,0,1,.982,2.335l0,5.948a.6.6,0,0,0,.547.6c.65.068,1.292.146,1.928.221,4.425.536,8.245,1,12.139-2.254a3.3,3.3,0,0,1,1.743-.771c3.006-.332,5.816.509,8.535,1.323,2.745.825,5.338,1.6,7.98,1.16a3.378,3.378,0,0,1,3.424,1.557c1.427,2.287,4.441,4.841,7.682,5.045a3.291,3.291,0,0,1,1.256.315c3.235,1.565,5.669,4.117,8.02,6.584,3.4,3.563,6.607,6.93,11.949,7.036a1.519,1.519,0,0,1,.189.018c6.045.98,10.088,5.158,11.382,11.761,1.986,10.129-3.045,23.527-10.556,28.111a.625.625,0,0,0-.234.555c.154,5.54-1.749,11.159-3.588,16.593-2.821,8.336-5.486,16.209-1.453,23.883,3.828,9.073,3.383,11.406,2.447,12.5A2.2,2.2,0,0,1-943.1,993.977Z" transform="translate(1042.93 -705.493)" fill="#fff"/>
          <path id="Path_115" data-name="Path 115" d="M-951.8,800.148a3.089,3.089,0,0,1-.5-.041,4.64,4.64,0,0,1-3.069-2.026c-3.149-4.424-2.142-15.225-1.488-19.011a3.192,3.192,0,0,1,.639-1.425c4.3-5.548,6.209-15.657,5.1-27.038-.119-.591-.2-.633-1.366-.646a3.317,3.317,0,0,1-2.747-.944,4.168,4.168,0,0,1-.508-3.366c.319-2.3,2.891-5.655,6.488-10.144.525-.656,1.126-1.4,1.677-2.116-.505.294-1.1.652-1.788,1.084a.738.738,0,0,0-.119.1c-8.975,9.281-15.564,12.784-19.053,10.133-4.1-3.115-1.619-13.611,6.471-27.391a1.349,1.349,0,0,1,1.849-.481,1.349,1.349,0,0,1,.481,1.847c-8.67,14.771-9,22.482-7.166,23.874,1.276.964,5.964-.023,15.478-9.859a3.433,3.433,0,0,1,.633-.513c4.8-2.994,6.3-3.476,7.3-2.354,1.184,1.333-.132,2.976-3.65,7.367-2.262,2.822-5.679,7.086-5.928,8.869a3.939,3.939,0,0,0-.078,1.165,6.119,6.119,0,0,0,.69.03c1.119.011,3.451.034,4.01,2.961,1.2,12.172-.917,23-5.631,29.077a.48.48,0,0,0-.113.228c-.871,5.046-1.146,13.934,1.026,16.989a2.024,2.024,0,0,0,1.31.926.6.6,0,0,0,.548-.367,25.361,25.361,0,0,1,6.214-9.038,3.648,3.648,0,0,1,.365-.316,73.423,73.423,0,0,1,13.534-7.978c8.1-3.912,12.558-6.066,13.06-20.278a3.365,3.365,0,0,1,.968-2.228c3.162-3.239,4.448-8.04,5.692-12.684,1.091-4.075,2.219-8.288,4.622-11.579a.628.628,0,0,0-.085-.825c-4.212-4.182-2.516-8.4-.552-13.274a54.974,54.974,0,0,0,2.512-7.276,1.35,1.35,0,0,1,1.639-.98,1.351,1.351,0,0,1,.979,1.639,57.142,57.142,0,0,1-2.624,7.625c-2.074,5.151-2.872,7.548-.05,10.349a3.32,3.32,0,0,1,.362,4.334c-2.105,2.882-3.12,6.672-4.2,10.685-1.333,4.977-2.711,10.126-6.365,13.869a.685.685,0,0,0-.2.439c-.56,15.839-6.14,18.533-14.585,22.614a70.165,70.165,0,0,0-13.078,7.7,22.885,22.885,0,0,0-5.747,8.307A3.271,3.271,0,0,1-951.8,800.148Z" transform="translate(1068.312 -710.579)" fill="#fff"/>
          <path id="Path_116" data-name="Path 116" d="M-863.238,850.069a7.727,7.727,0,0,1-1.307-.121,3.275,3.275,0,0,1-1.808-.983c-3.368-3.532-11.089-19.871-9.925-23.228a1.751,1.751,0,0,1,1.4-1.2c1.022-.131,2.281.211,6.442,6.07a3.065,3.065,0,0,1,.207.328c.4.74,1.182,1.928,2.086,3.308,4.332,6.594,7.506,11.849,5.758,14.513A3.169,3.169,0,0,1-863.238,850.069Zm-10.172-21.515c1.271,4.677,6.009,15.4,9.011,18.545a.6.6,0,0,0,.317.186c1.142.2,1.443-.017,1.446-.019.633-.878-1.3-4.764-5.76-11.547-.938-1.431-1.751-2.667-2.2-3.5l-.032-.051C-871.864,830.431-872.766,829.3-873.41,828.554Z" transform="translate(1101.271 -670.666)" fill="#fff"/>
        </g>
      </g>
      <path id="Path_117" data-name="Path 117" d="M-890.987,1015.105c-84.069,0-152.464-68.394-152.464-152.464s68.4-152.463,152.464-152.463,152.464,68.394,152.464,152.463S-806.919,1015.105-890.987,1015.105Zm0-302.227c-82.579,0-149.763,67.183-149.763,149.762S-973.566,1012.4-890.987,1012.4s149.763-67.184,149.763-149.764S-808.408,712.879-890.987,712.879Z" transform="translate(1156.988 -596.641)" fill="#fff"/>
    </g>
    <g id="Group_88" data-name="Group 88" transform="translate(-911.634 674.321)">
      <path id="Path_118" data-name="Path 118" d="M-948.478,722.125a19.19,19.19,0,0,1-19.168-19.171,19.19,19.19,0,0,1,19.168-19.168,19.19,19.19,0,0,1,19.169,19.168A19.191,19.191,0,0,1-948.478,722.125Zm0-35.638a16.487,16.487,0,0,0-16.467,16.467,16.488,16.488,0,0,0,16.467,16.47,16.488,16.488,0,0,0,16.469-16.47A16.487,16.487,0,0,0-948.478,686.487Z" transform="translate(967.646 -654.111)" fill="#fff"/>
      <path id="Path_119" data-name="Path 119" d="M-902.833,722.125A19.19,19.19,0,0,1-922,702.954a19.19,19.19,0,0,1,19.168-19.168,19.191,19.191,0,0,1,19.169,19.168A19.192,19.192,0,0,1-902.833,722.125Zm0-35.638A16.486,16.486,0,0,0-919.3,702.954a16.488,16.488,0,0,0,16.467,16.47,16.488,16.488,0,0,0,16.469-16.47A16.487,16.487,0,0,0-902.833,686.487Z" transform="translate(983.637 -654.111)" fill="#fff"/>
      <path id="Path_120" data-name="Path 120" d="M-930.314,705a5.581,5.581,0,0,1-5.575-5.575,5.581,5.581,0,0,1,5.575-5.574,5.581,5.581,0,0,1,5.574,5.574A5.581,5.581,0,0,1-930.314,705Zm0-8.449a2.878,2.878,0,0,0-2.875,2.874,2.878,2.878,0,0,0,2.875,2.875,2.877,2.877,0,0,0,2.873-2.875A2.877,2.877,0,0,0-930.314,696.554Z" transform="translate(978.771 -650.584)" fill="#fff"/>
      <path id="Path_121" data-name="Path 121" d="M-928.379,708.13h-23.743a1.348,1.348,0,0,1-1.138-.622,1.351,1.351,0,0,1-.086-1.3l15.143-32.565a1.352,1.352,0,0,1,1.795-.655,1.351,1.351,0,0,1,.655,1.795L-950,705.429h21.625a1.351,1.351,0,0,1,1.35,1.35A1.35,1.35,0,0,1-928.379,708.13Z" transform="translate(972.612 -657.936)" fill="#fff"/>
      <path id="Path_122" data-name="Path 122" d="M-937.521,664.511H-950.9a1.351,1.351,0,0,1-1.35-1.35,1.35,1.35,0,0,1,1.35-1.35h13.375a1.35,1.35,0,0,1,1.35,1.35A1.351,1.351,0,0,1-937.521,664.511Z" transform="translate(973.041 -661.81)" fill="#fff"/>
      <path id="Path_123" data-name="Path 123" d="M-927.671,707.948a1.351,1.351,0,0,1-1.25-.841l-17.755-43.436a1.351,1.351,0,0,1,.739-1.761,1.35,1.35,0,0,1,1.761.74l17.755,43.437a1.349,1.349,0,0,1-.739,1.76A1.338,1.338,0,0,1-927.671,707.948Z" transform="translate(974.957 -661.81)" fill="#fff"/>
      <path id="Path_124" data-name="Path 124" d="M-899.926,706.6a1.352,1.352,0,0,1-1.308-1.018l-7.323-28.788L-929.476,703.7a1.351,1.351,0,0,1-1.894.236,1.351,1.351,0,0,1-.238-1.9L-909,672.959a1.347,1.347,0,0,1,1.344-.491,1.35,1.35,0,0,1,1.032.988l8,31.464a1.35,1.35,0,0,1-.976,1.641A1.347,1.347,0,0,1-899.926,706.6Z" transform="translate(980.171 -658.086)" fill="#fff"/>
      <path id="Path_125" data-name="Path 125" d="M-904.3,678.289h-36.61a1.35,1.35,0,0,1-1.35-1.35,1.351,1.351,0,0,1,1.35-1.35h35.26V664.8a1.351,1.351,0,0,1,1.35-1.35h14.077a1.35,1.35,0,0,1,1.308,1.017c.05.2,1.19,4.811-1.061,8.122a7.348,7.348,0,0,1-5.435,3.073,1.429,1.429,0,0,1-.17.011h-1.97a1.35,1.35,0,0,1-1.35-1.35,1.35,1.35,0,0,1,1.35-1.35h1.881a4.679,4.679,0,0,0,3.455-1.893,7.531,7.531,0,0,0,.855-4.929h-11.59v10.793A1.35,1.35,0,0,1-904.3,678.289Z" transform="translate(976.54 -661.237)" fill="#fff"/>
    </g>
  </g>
</svg>
