<svg xmlns="http://www.w3.org/2000/svg" xmlns:xlink="http://www.w3.org/1999/xlink" width="367.574" height="274.347" viewBox="0 0 367.574 274.347">
  <defs>
    <clipPath id="clip-path">
      <circle id="Ellipse_3895" data-name="Ellipse 3895" cx="59.149" cy="59.149" r="59.149" fill="none"/>
    </clipPath>
    <clipPath id="clip-path-2">
      <path id="Path_8568" data-name="Path 8568" d="M1716.363,819.839a45.86,45.86,0,1,0-45.86,45.86h0a45.86,45.86,0,0,0,45.86-45.859Z" transform="translate(-1624.642 -773.979)" fill="none"/>
    </clipPath>
    <clipPath id="clip-path-3">
      <circle id="Ellipse_3920" data-name="Ellipse 3920" cx="64.925" cy="64.925" r="64.925" fill="none"/>
    </clipPath>
    <clipPath id="clip-path-4">
      <circle id="Ellipse_3925" data-name="Ellipse 3925" cx="56.227" cy="56.227" r="56.227" fill="none"/>
    </clipPath>
  </defs>
  <g id="Group_10800" data-name="Group 10800" transform="translate(-1624.141 -294.378)">
    <g id="Path_7709" data-name="Path 7709" transform="matrix(0.899, 0.438, -0.438, 0.899, 1708.664, 338.352)">
      <path id="Path_8572" data-name="Path 8572" d="M127.129,1.509V1.038q.72,0,1.412-.005l0,.471Q127.85,1.509,127.129,1.509Zm-2.826,0q-.7,0-1.414-.006l0-.471,1.413.007Zm-4.241-.026-1.413-.014,0-.47,1.413.014Zm11.307-.006L131.363,1q.727-.01,1.411-.025l.01.47Q132.1,1.465,131.369,1.475Zm-15.546-.04-1.413-.018.007-.47,1.413.018Zm-4.239-.059-1.413-.022.007-.47,1.413.022Zm24.027-.009L135.593.9Q136.34.867,137,.829l.027.47C136.586,1.325,136.113,1.347,135.612,1.368Zm-28.267-.06-1.413-.024.008-.471,1.413.025Zm-4.238-.075L101.7,1.207l.008-.47,1.414.026Zm-4.238-.078-1.409-.027.01-.47,1.408.027Zm-4.23-.08-1.411-.027.01-.47L94.648.6Zm45.222-.034-.07-.466c.99-.149,1.167-.3,1.193-.327l.352.313C141.212.7,140.932.879,139.861,1.04ZM90.4.995,88.99.968,89,.5l1.414.027ZM86.164.916,84.749.89l.008-.47,1.39.025ZM81.921.841,80.555.818,80.512.582l0-.235,1.413.024ZM77.683.771,76.27.749l.007-.47L77.69.3ZM73.445.709,72.032.69l.007-.471,1.413.019ZM69.208.657,67.8.643V.172l1.416.014ZM64.971.616,63.559.605l0-.471,1.375.011ZM0,.616,0,.146,1.413.132l0,.471ZM60.735.581,59.322.57l0-.47L60.7.11ZM4.242.579l0-.471L5.651.1l0,.47ZM56.5.551h-.02L55.086.542l0-.47L56.482.08ZM8.48.547l0-.47L9.89.067l0,.47ZM52.262.526,50.884.519,50.851.283l0-.236,1.412.008Zm-39.544,0,0-.47L14.129.043l0,.471ZM48.026.506,46.614.5l0-.47,1.412.005ZM16.954.5l0-.471L18.365.025l0,.471ZM43.789.49l-1.413,0,0-.471,1.412,0Zm-22.6,0,0-.471,1.413,0V.484ZM39.552.479h-.016l-1.4,0V.005l1.4,0ZM25.43.478V.006l1.413,0V.475Zm9.886,0H33.9V0h1.4Zm-5.649,0V0h1.413V.471Z" fill="#2d3c47"/>
    </g>
    <g id="Group_10584" data-name="Group 10584" transform="translate(1872.95 440.849)">
      <g id="Group_10580" data-name="Group 10580" transform="translate(0 0)">
        <g id="Ellipse_3618-5" data-name="Ellipse 3618-5">
          <path id="Path_8540" data-name="Path 8540" d="M2277.313,460.911q-.709,0-1.416-.026l.015-.471q.7.021,1.4.026Zm2.833-.047-.019-.47q.7-.027,1.4-.072l.031.47Q2280.856,460.835,2280.146,460.864Zm-7.077-.132q-.709-.054-1.411-.127l.048-.468q.7.071,1.4.126Zm11.314-.188-.052-.468q.7-.078,1.395-.172l.063.466Q2285.088,460.465,2284.382,460.544Zm-15.536-.292q-.7-.1-1.4-.227l.081-.463q.69.121,1.387.225Zm19.739-.33-.085-.463q.693-.128,1.379-.272l.1.46Q2289.284,459.793,2288.585,459.922Zm-23.916-.45q-.693-.155-1.379-.327l.114-.457q.681.17,1.368.325Zm28.064-.472-.119-.455q.68-.178,1.355-.371l.129.452Q2293.419,458.821,2292.734,459Zm-32.174-.607q-.682-.205-1.356-.426l.146-.447q.67.219,1.346.423Zm36.245-.611-.152-.446q.667-.227,1.326-.467l.162.442Q2297.477,457.554,2296.8,457.782Zm-40.277-.766q-.664-.254-1.321-.524l.179-.436q.651.268,1.311.52Zm44.243-.74-.183-.434q.647-.272,1.285-.559l.193.429Q2301.421,456,2300.77,456.276Zm-48.164-.924q-.643-.3-1.28-.616l.209-.422q.631.314,1.27.612Zm52.008-.861-.213-.419q.625-.318,1.241-.651l.223.414Q2305.245,454.17,2304.615,454.491Zm-55.8-1.079q-.619-.346-1.23-.707l.239-.405q.606.358,1.22.7Zm59.507-.979-.242-.4q.6-.362,1.192-.738l.252.4Q2308.93,452.068,2308.324,452.434Zm-63.144-1.227q-.593-.39-1.177-.792l.267-.388q.579.4,1.168.787Zm66.7-1.09-.271-.385q.574-.4,1.138-.821l.28.378Q2312.458,449.708,2311.88,450.116Zm-70.169-1.37q-.564-.431-1.116-.873l.294-.367q.549.44,1.108.867Zm73.551-1.2-.3-.364q.543-.445,1.077-.9l.306.358Q2315.809,447.1,2315.261,447.549Zm-76.835-1.5q-.531-.469-1.051-.95l.319-.346q.517.479,1.043.943Zm80.027-1.3-.323-.342q.512-.482,1.012-.976l.33.335Q2318.969,444.262,2318.453,444.748Zm-83.109-1.626q-.5-.505-.98-1.023l.344-.321q.48.513.972,1.014Zm86.1-1.4-.346-.319q.476-.518.939-1.046l.354.31Q2321.92,441.2,2321.44,441.726Zm-88.962-1.74q-.46-.539-.9-1.089l.366-.3q.442.546.9,1.08ZM2324.2,438.5l-.367-.293q.438-.55.863-1.11l.375.284Q2324.647,437.943,2324.2,438.5Zm-94.361-1.841q-.419-.57-.824-1.15l.385-.269q.4.574.818,1.14Zm96.89-1.578-.389-.266q.4-.581.782-1.171l.394.257Q2327.134,434.493,2326.733,435.078Zm-99.28-1.93q-.376-.6-.74-1.205l.4-.241q.359.6.734,1.2Zm101.56-1.662-.406-.237q.355-.607.7-1.224l.412.228Q2329.371,430.874,2329.013,431.486Zm-103.692-2.005q-.333-.622-.651-1.254l.42-.211q.315.627.646,1.244Zm105.708-1.742-.422-.207q.311-.632.607-1.271l.427.2Q2331.342,427.1,2331.029,427.738Zm-107.572-2.066q-.287-.644-.559-1.3l.434-.182q.271.647.555,1.286Zm109.314-1.818-.435-.177q.264-.653.514-1.313l.44.167Q2333.038,423.2,2332.771,423.854Zm-110.9-2.112q-.241-.665-.467-1.338l.447-.15q.223.667.462,1.328Zm112.358-1.892-.448-.145q.216-.667.417-1.342l.451.134Q2334.449,419.178,2334.231,419.85Zm-113.66-2.153q-.192-.681-.368-1.368l.456-.117q.175.681.366,1.357Zm114.824-1.934-.457-.112q.167-.682.319-1.369l.459.1Q2335.564,415.077,2335.4,415.764Zm-115.83-2.195q-.142-.693-.269-1.391l.463-.084q.125.694.267,1.38ZM2336.26,411.6l-.464-.08q.119-.691.221-1.387l.466.068Q2336.379,410.908,2336.26,411.6Zm-117.4-2.225c-.061-.468-.118-.936-.168-1.407l.468-.05q.077.7.168,1.4Zm117.968-1.986-.469-.046q.07-.7.121-1.4l.469.035Q2336.895,406.69,2336.826,407.393Zm-118.374-2.243q-.041-.706-.068-1.415l.471-.018q.026.7.067,1.4Zm118.637-2-.47-.013q.018-.7.021-1.405h.47Q2337.109,402.446,2337.09,403.153Zm-118.272-2.246-.47,0q.008-.71.031-1.416l.471.016Q2218.825,400.2,2218.817,400.907Zm117.767-1.983q-.03-.7-.077-1.4l.47-.031q.046.7.078,1.415ZM2219.009,396.7l-.469-.038c.039-.472.082-.942.132-1.411l.468.049Q2219.067,395.994,2219.009,396.7Zm117.244-1.975q-.08-.7-.177-1.395l.466-.065q.1.7.179,1.405ZM2219.5,392.509l-.465-.071q.109-.7.232-1.4l.463.082Q2219.608,391.813,2219.5,392.509Zm116.121-1.955q-.13-.692-.277-1.378l.46-.1q.147.692.278,1.389Zm-115.332-2.185-.458-.1q.158-.692.332-1.378l.456.116Q2220.446,387.683,2220.289,388.369Zm114.4-1.925q-.179-.681-.375-1.355l.452-.132q.2.68.378,1.366Zm-113.317-2.149-.45-.138q.209-.681.432-1.355l.447.148Q2221.582,383.619,2221.375,384.295Zm112.1-1.887q-.229-.666-.472-1.323l.441-.164q.246.664.476,1.335ZM2222.755,380.3l-.439-.17q.257-.663.528-1.319l.435.18Q2223.01,379.642,2222.755,380.3Zm109.207-1.821q-.275-.646-.564-1.283l.428-.195q.291.642.568,1.293Zm-107.543-2.064-.426-.2q.3-.643.622-1.277l.42.211Q2224.72,375.778,2224.419,376.416Zm105.759-1.745q-.321-.625-.656-1.24l.413-.224q.337.62.66,1.249Zm-103.821-2.007-.41-.231q.348-.619.711-1.228l.4.241Q2226.7,372.051,2226.357,372.665ZM2328.124,371q-.363-.6-.742-1.191l.4-.254q.381.595.748,1.2Zm-99.564-1.935-.393-.26q.391-.591.8-1.173l.385.269Q2228.948,368.477,2228.559,369.063Zm97.253-1.584q-.405-.573-.825-1.135l.376-.281q.423.567.833,1.145Zm-94.8-1.85-.373-.286q.434-.562.878-1.113l.365.3Q2231.44,365.073,2231.01,365.63Zm92.244-1.5q-.448-.543-.906-1.074l.357-.308q.461.536.912,1.083Zm-89.555-1.752-.351-.312q.471-.529.955-1.047l.343.321Q2234.168,361.856,2233.7,362.381Zm86.764-1.405q-.484-.51-.98-1.008l.333-.332q.5.5.987,1.016Zm-83.851-1.642-.328-.337q.508-.494,1.026-.976l.321.344Q2237.115,358.843,2236.613,359.334Zm80.842-1.31q-.52-.473-1.05-.936l.309-.355q.534.466,1.058.943Zm-77.722-1.522-.3-.359q.541-.457,1.092-.9l.3.367Q2240.27,356.048,2239.734,356.5Zm74.508-1.21q-.552-.436-1.114-.859l.283-.376q.567.426,1.123.867Zm-71.195-1.392-.277-.381q.572-.416,1.153-.82l.269.387Q2243.614,353.485,2243.047,353.9Zm67.8-1.1q-.582-.4-1.173-.778l.255-.4q.6.385,1.182.784Zm-64.306-1.254-.25-.4q.6-.374,1.208-.735l.24.4Q2247.13,351.169,2246.536,351.54Zm60.734-.994q-.608-.354-1.226-.693l.226-.413q.624.342,1.236.7Zm-57.088-1.109-.22-.415q.624-.331,1.256-.647l.211.421Q2250.8,349.109,2250.182,349.437Zm53.364-.879q-.632-.309-1.273-.6l.2-.427q.646.3,1.284.608Zm-49.58-.955-.19-.43q.645-.285,1.3-.555l.18.435Q2254.606,347.321,2253.966,347.6Zm45.719-.76c-.436-.175-.873-.346-1.314-.51l.164-.441q.667.25,1.325.515Zm-41.809-.8-.158-.443q.666-.238,1.34-.461l.148.447Q2258.538,345.807,2257.876,346.043Zm37.833-.633q-.668-.215-1.343-.413l.132-.451q.681.2,1.354.415Zm-33.815-.643-.126-.453q.682-.19,1.37-.364l.115.456Q2262.57,344.578,2261.894,344.767Zm29.756-.5q-.683-.165-1.37-.315l.1-.459q.693.149,1.381.316Zm-25.658-.486-.092-.462q.693-.14,1.392-.263l.082.463Q2266.68,343.644,2265.992,343.784Zm21.528-.358q-.692-.116-1.388-.215l.066-.466q.7.1,1.4.217Zm-17.369-.327-.06-.467q.7-.09,1.407-.164l.049.468Q2270.847,343.009,2270.152,343.1Zm13.188-.219q-.7-.067-1.4-.116l.033-.47q.708.05,1.412.117Zm-8.99-.168-.027-.47q.705-.04,1.416-.064l.015.47Q2275.05,342.67,2274.35,342.71Zm4.783-.079q-.7-.017-1.405-.017v-.47q.71,0,1.416.017Z" transform="translate(-2218.347 -342.144)" fill="#2d3c47"/>
        </g>
      </g>
      <g id="Group_10588" data-name="Group 10588" transform="translate(0.233 0.235)">
        <g id="Group_10785" data-name="Group 10785">
          <g id="Group_10784" data-name="Group 10784" clip-path="url(#clip-path)">
            <g id="Group_10587" data-name="Group 10587" transform="translate(16.309 15.739)">
              <g id="Mask_Group_5" data-name="Mask Group 5">
                <g id="Group_10582" data-name="Group 10582">
                  <g id="Group_8227" data-name="Group 8227">
                    <g id="Group_8212-2-2" data-name="Group 8212-2-2">
                      <g id="Rectangle_2091" data-name="Rectangle 2091" transform="translate(23.136 23.327)">
                        <rect id="Rectangle_2808" data-name="Rectangle 2808" width="45.536" height="63.029" fill="#052335"/>
                      </g>
                      <g id="Group_7652-2" data-name="Group 7652-2" transform="translate(0 54.686)">
                        <g id="Group_7651-2" data-name="Group 7651-2">
                          <g id="Path_4268-2" data-name="Path 4268-2" transform="translate(45.542)">
                            <path id="Path_8541" data-name="Path 8541" d="M2360.154,555.478c4.022-26.437-.315-49.986-9.846-59.123a13.749,13.749,0,0,1,7.475-3.882c14.529-2.2,30.328,22.449,35.3,55.051q.456,2.964.76,5.866c.948,9.036-6.446,17.052-16.514,17.9h0q-.866.07-1.741.07h-18.858A128.8,128.8,0,0,0,2360.154,555.478Z" transform="translate(-2350.308 -492.336)" fill="#f1b800"/>
                          </g>
                          <g id="Path_5239" data-name="Path 5239" transform="translate(0 0.002)">
                            <path id="Path_8542" data-name="Path 8542" d="M2287.271,555.481c-4.021-26.437.317-49.986,9.847-59.123a13.759,13.759,0,0,0-7.47-3.88c-14.529-2.2-30.329,22.449-35.3,55.051q-.454,2.964-.76,5.866c-.949,9.036,6.445,17.052,16.514,17.9h0q.868.071,1.741.07H2290.7A129.179,129.179,0,0,1,2287.271,555.481Z" transform="translate(-2253.507 -492.341)" fill="#f1b800"/>
                          </g>
                        </g>
                      </g>
                      <g id="Path_4272-2" data-name="Path 4272-2" transform="translate(6.145 51.073)">
                        <path id="Path_8543" data-name="Path 8543" d="M2314.791,487.361l.089.062c17.426,11.515,28.149,41.723,30.894,79.877h-79.205c2.745-38.155,13.467-68.362,30.894-79.877l.083-.062A15.094,15.094,0,0,1,2314.791,487.361Z" transform="translate(-2266.569 -484.657)" fill="#ffca00"/>
                      </g>
                      <g id="Group_10581" data-name="Group 10581" transform="translate(19.69 23.604)">
                        <g id="Ellipse_94-2-2" data-name="Ellipse 94-2-2" transform="translate(43.373)">
                          <circle id="Ellipse_3891" data-name="Ellipse 3891" cx="4.528" cy="4.528" r="4.528" fill="#f0b0ad"/>
                        </g>
                        <g id="Ellipse_95-2-2" data-name="Ellipse 95-2-2">
                          <circle id="Ellipse_3892" data-name="Ellipse 3892" cx="4.528" cy="4.528" r="4.528" fill="#f0b0ad"/>
                        </g>
                      </g>
                      <g id="Path_5236-2-2" data-name="Path 5236-2-2" transform="translate(24.382 0.625)">
                        <path id="Path_8544" data-name="Path 8544" d="M2326.85,377.427a21.523,21.523,0,0,0-21.519,21.522v4.893a21.522,21.522,0,1,0,43.044.047v-4.94a21.523,21.523,0,0,0-21.521-21.522Z" transform="translate(-2305.331 -377.427)" fill="#f0b0ad"/>
                      </g>
                      <g id="Path_4277-2-2" data-name="Path 4277-2-2" transform="translate(47.295 11.822)">
                        <path id="Path_8545" data-name="Path 8545" d="M2354.034,401.227" transform="translate(-2354.034 -401.227)" fill="#fff"/>
                      </g>
                      <g id="Path_5237-2-2" data-name="Path 5237-2-2" transform="translate(42.29 19.305)">
                        <path id="Path_8546" data-name="Path 8546" d="M2349.522,430.4H2343.4l3.063-13.267Z" transform="translate(-2343.396 -417.133)" fill="#dd504d"/>
                      </g>
                      <g id="Ellipse_354-2-2" data-name="Ellipse 354-2-2" transform="translate(54.682 23.454)">
                        <circle id="Ellipse_3893" data-name="Ellipse 3893" cx="1.163" cy="1.163" r="1.163" fill="#052335"/>
                      </g>
                      <g id="Ellipse_355-2-2" data-name="Ellipse 355-2-2" transform="translate(33.691 23.454)">
                        <circle id="Ellipse_3894" data-name="Ellipse 3894" cx="1.163" cy="1.163" r="1.163" fill="#052335"/>
                      </g>
                      <g id="Path_5238-2-2" data-name="Path 5238-2-2" transform="translate(41.721 37.45)">
                        <path id="Path_8547" data-name="Path 8547" d="M2348.821,456.9a4.646,4.646,0,0,1-3.007.941c-2,0-3.629-.959-3.629-2.137l2.5.536Z" transform="translate(-2342.185 -455.699)" fill="#052335"/>
                      </g>
                      <g id="Path_7711" data-name="Path 7711" transform="translate(23.137)">
                        <path id="Path_8548" data-name="Path 8548" d="M2325.453,376.1h0c-12.251,0-22.764,10.569-22.765,23.6,0,0,.68-.01.859-.034,2.452-.326,20.512-3.105,21.909-14.444,1.354,11.006,18.418,13.946,21.656,14.407.341.047,1.112.07,1.112.07C2348.219,386.668,2337.705,376.1,2325.453,376.1Z" transform="translate(-2302.684 -376.099)" fill="#052335"/>
                      </g>
                    </g>
                  </g>
                  <g id="Rectangle_2091-2" data-name="Rectangle 2091-2" transform="translate(23.136 47.093)">
                    <rect id="Rectangle_2809" data-name="Rectangle 2809" width="10.555" height="39.263" fill="#052335"/>
                  </g>
                </g>
              </g>
            </g>
          </g>
        </g>
      </g>
    </g>
    <g id="Group_10561" data-name="Group 10561" transform="translate(1739.091 446.702)">
      <g id="Ellipse_3618-3" data-name="Ellipse 3618-3" transform="translate(0 0)">
        <path id="Path_8549" data-name="Path 8549" d="M1923.782,822.984q-.71-.013-1.417-.046l.021-.469q.7.03,1.4.045Zm2.833-.014-.014-.47q.7-.021,1.4-.059l.026.47Q1927.326,822.949,1926.616,822.97Zm-7.076-.228q-.708-.068-1.409-.152l.056-.467q.7.083,1.4.15Zm11.316-.055-.048-.468q.7-.073,1.4-.164l.061.467Q1931.563,822.613,1930.856,822.687Zm-15.529-.5q-.7-.12-1.394-.257l.091-.461c.458.09.919.175,1.381.254Zm19.735-.1-.083-.463q.692-.126,1.379-.268l.1.461Q1935.761,821.96,1935.062,822.087Zm-23.894-.778q-.689-.172-1.371-.362l.126-.453q.676.189,1.359.359Zm28.044-.138-.119-.455q.682-.178,1.355-.372l.13.452Q1939.9,820.991,1939.212,821.171Zm-32.125-1.05q-.676-.225-1.344-.466l.16-.443q.662.239,1.332.462Zm36.194-.178-.152-.445q.665-.229,1.322-.474l.165.441Q1943.953,819.711,1943.281,819.942Zm-40.183-1.319q-.656-.274-1.3-.566l.193-.43q.642.289,1.293.562Zm44.14-.212-.185-.432q.645-.277,1.279-.57l.2.427Q1947.888,818.133,1947.239,818.412Zm-48-1.583q-.633-.324-1.256-.662l.224-.414q.619.336,1.245.657Zm51.83-.24-.218-.417q.622-.325,1.234-.665l.229.411Q1951.695,816.261,1951.068,816.589Zm-55.544-1.841q-.605-.37-1.2-.755l.255-.4q.591.382,1.191.749Zm59.226-.267-.249-.4q.6-.37,1.181-.757l.259.393Q1955.351,814.107,1954.75,814.481Zm-62.771-2.087q-.576-.415-1.141-.843l.284-.375q.561.424,1.131.836Zm66.286-.294-.278-.379q.567-.415,1.122-.844l.287.372Q1958.837,811.683,1958.266,812.1Zm-69.643-2.317q-.543-.457-1.074-.926l.311-.353q.527.465,1.065.918Zm72.972-.32-.306-.358q.534-.456,1.056-.926l.314.351Q1962.133,809,1961.595,809.464Zm-76.121-2.535q-.506-.495-1-1l.337-.328q.49.5.993.994Zm79.245-.345-.332-.335q.5-.494.984-1l.34.325Q1965.221,806.084,1964.718,806.584Zm-82.172-2.735q-.468-.531-.922-1.074l.36-.3q.452.538.916,1.065Zm85.073-.371-.356-.308q.46-.531.907-1.074l.363.3Q1968.084,802.942,1967.62,803.477Zm-87.76-2.918q-.427-.565-.84-1.14l.383-.274q.409.571.832,1.13Zm90.421-.4-.378-.28q.419-.565.824-1.14l.385.271Q1970.7,799.591,1970.281,800.161Zm-92.854-3.081q-.383-.594-.751-1.2l.4-.246q.366.6.746,1.189Zm95.26-.427-.4-.251q.376-.595.737-1.2l.4.241Q1973.065,796.054,1972.687,796.653Zm-97.423-3.225q-.337-.621-.658-1.25l.419-.214q.318.624.653,1.24Zm99.559-.456-.415-.221q.33-.62.644-1.252l.421.21Q1975.156,792.346,1974.823,792.972Zm-101.44-3.345q-.289-.643-.562-1.3l.433-.182q.272.646.557,1.285Zm103.293-.488-.431-.189q.281-.645.549-1.3l.435.177Q1976.96,788.489,1976.675,789.139Zm-104.88-3.442q-.24-.665-.464-1.338l.447-.149q.221.668.46,1.328Zm106.438-.523-.444-.155q.231-.665.448-1.337l.448.144Q1978.468,784.5,1978.233,785.174Zm-107.728-3.526q-.19-.682-.362-1.371l.457-.114q.171.682.358,1.358Zm108.978-.54-.455-.121q.181-.678.345-1.362l.458.11Q1979.666,780.424,1979.484,781.108Zm-109.958-3.6q-.138-.694-.257-1.394l.464-.079q.118.693.254,1.381Zm110.9-.549-.463-.087q.129-.689.241-1.385l.464.074Q1980.551,776.268,1980.422,776.963Zm-111.56-3.648q-.084-.7-.151-1.409l.468-.044q.067.7.15,1.4Zm112.182-.557-.468-.051q.077-.7.136-1.4l.469.04Q1981.121,772.055,1981.044,772.758Zm-112.529-3.678q-.032-.7-.046-1.414l.47-.009q.015.7.046,1.4Zm112.834-.559-.47-.017q.025-.7.032-1.4l.47,0Q1981.373,767.815,1981.349,768.521Zm-112.394-3.674-.47-.014q.02-.71.06-1.415l.469.026Q1868.974,764.142,1868.954,764.847Zm111.914-.558q-.027-.7-.073-1.4l.47-.03q.045.705.074,1.415Zm-111.634-3.647-.468-.048q.074-.707.165-1.408l.467.061Q1869.308,759.941,1869.235,760.641Zm111.31-.555q-.08-.7-.177-1.394l.466-.065q.1.7.179,1.406Zm-110.714-3.617-.463-.083q.126-.7.271-1.392l.46.1Q1869.956,755.778,1869.831,756.47Zm110.078-.549q-.132-.692-.282-1.376l.459-.1q.151.69.284,1.388Zm-109.169-3.566-.455-.119q.179-.686.375-1.367l.452.13Q1870.917,751.674,1870.74,752.355Zm108.219-.54q-.185-.678-.386-1.351l.451-.135q.2.677.388,1.363Zm-107-3.495-.445-.152q.231-.674.479-1.339l.441.165Q1872.187,747.653,1871.958,748.32Zm105.742-.527q-.236-.663-.487-1.318l.439-.168q.254.66.491,1.329Zm-104.218-3.412-.432-.187q.282-.652.579-1.3l.427.2Q1873.761,743.733,1873.482,744.381Zm102.661-.5q-.284-.641-.583-1.274l.425-.2q.3.638.588,1.284ZM1875.3,740.569l-.416-.218q.33-.63.675-1.249l.411.229Q1875.628,739.946,1875.3,740.569Zm99-.464q-.333-.618-.678-1.227l.409-.232q.35.613.684,1.237Zm-96.9-3.2-.4-.249q.376-.6.767-1.194l.393.259Q1877.772,736.311,1877.4,736.908Zm94.771-.433q-.377-.592-.769-1.173l.391-.263q.395.586.775,1.183Zm-92.4-3.058-.379-.279q.42-.571.854-1.132l.372.288Q1880.185,732.85,1879.767,733.417Zm90.006-.4q-.42-.562-.855-1.113l.37-.291q.438.555.863,1.122Zm-87.385-2.9-.357-.306q.462-.538.936-1.065l.349.315Q1882.847,729.581,1882.389,730.115Zm84.736-.378q-.462-.529-.936-1.047l.346-.318q.479.522.945,1.055Zm-81.875-2.718-.333-.332q.5-.5,1.012-.992l.325.34Q1885.746,726.521,1885.25,727.019Zm78.988-.351q-.5-.494-1.013-.975l.321-.342q.517.485,1.022.982Zm-75.9-2.522-.308-.356q.536-.463,1.083-.912l.3.364Q1888.865,723.687,1888.334,724.146Zm72.8-.324q-.536-.455-1.083-.9l.3-.365q.552.445,1.092.9Zm-69.507-2.308-.28-.377q.568-.421,1.148-.828l.27.385Q1892.185,721.1,1891.622,721.514Zm66.192-.3q-.569-.414-1.148-.813l.268-.388q.584.4,1.157.82Zm-62.717-2.08-.251-.4q.6-.377,1.206-.739l.241.4Q1895.69,718.763,1895.1,719.136Zm59.215-.271q-.6-.371-1.207-.725l.237-.407q.613.358,1.217.731Zm-55.574-1.839-.22-.415q.624-.331,1.257-.646l.21.421Q1899.356,716.7,1898.737,717.027Zm51.9-.243q-.625-.325-1.259-.632l.206-.422q.638.311,1.269.638Zm-48.115-1.585-.188-.431q.647-.283,1.3-.549l.177.435Q1903.167,714.919,1902.525,715.2Zm44.295-.214q-.647-.276-1.3-.535l.173-.438q.662.262,1.315.54Zm-40.376-1.324-.155-.444q.668-.234,1.344-.451l.144.447Q1907.106,713.43,1906.444,713.661Zm36.428-.181q-.667-.226-1.341-.435l.139-.449q.68.211,1.352.439Zm-32.4-1.057-.121-.455q.684-.182,1.374-.347l.109.458Q1911.15,712.242,1910.472,712.423Zm28.354-.142q-.679-.174-1.365-.331l.1-.458q.692.158,1.377.334Zm-24.244-.788-.086-.463q.694-.129,1.4-.242l.075.464Q1915.271,711.365,1914.582,711.493Zm20.125-.1q-.691-.121-1.387-.227l.07-.465q.7.105,1.4.228Zm-15.956-.516-.052-.468q.7-.076,1.41-.137l.039.469Q1919.447,710.8,1918.751,710.877Zm11.781-.059q-.7-.069-1.4-.121l.035-.469q.708.053,1.411.123Zm-7.577-.244-.017-.47q.7-.025,1.416-.032l0,.471Q1923.655,710.55,1922.955,710.574Zm3.371-.016q-.7-.017-1.4-.017v-.47q.71,0,1.417.017Z" transform="translate(-1868.469 -710.07)" fill="#2d3c47"/>
      </g>
    </g>
    <g id="Group_10567" data-name="Group 10567" transform="translate(1804.295 351.039)">
      <g id="Ellipse_3618-4" data-name="Ellipse 3618-4" transform="translate(0.231 0.235)">
        <circle id="Ellipse_3896" data-name="Ellipse 3896" cx="40.861" cy="40.861" r="40.861" fill="#1daee9"/>
      </g>
      <g id="Ellipse_3618-4-2" data-name="Ellipse 3618-4-2" transform="translate(0 0)">
        <path id="Path_8550" data-name="Path 8550" d="M2048.155,588.93l-.022-.47c.484,0,.945-.008,1.4-.023l.016.47Q2048.857,588.93,2048.155,588.93Zm-2.857-.1q-.711-.049-1.415-.121l.048-.468q.7.072,1.4.12Zm7.084-.117-.048-.468q.7-.071,1.392-.166l.065.466Q2053.091,588.643,2052.383,588.714Zm-11.309-.393q-.7-.121-1.394-.267l.1-.461q.685.144,1.378.264Zm15.514-.258-.1-.461q.689-.144,1.369-.31l.112.457Q2057.285,587.919,2056.588,588.064Zm-19.663-.687q-.684-.195-1.359-.411l.144-.448q.666.215,1.343.406Zm23.779-.4-.145-.447q.671-.216,1.329-.452l.159.443Q2061.38,586.761,2060.7,586.978ZM2032.892,586q-.662-.265-1.312-.552l.19-.43q.643.283,1.3.545Zm31.787-.53-.189-.431q.64-.282,1.271-.585l.2.423Q2065.328,585.187,2064.679,585.472Zm-35.656-1.258q-.63-.332-1.245-.685l.234-.408q.609.349,1.232.677Zm39.451-.652-.233-.409q.61-.347,1.2-.715l.247.4Q2069.091,583.211,2068.475,583.562Zm-43.111-1.527q-.591-.395-1.168-.809l.275-.382q.57.41,1.154.8Zm46.692-.767-.274-.382q.57-.408,1.125-.836l.287.373Q2072.632,580.856,2072.055,581.269Zm-50.106-1.777q-.546-.453-1.077-.924l.312-.352q.525.466,1.066.914Zm53.432-.874-.312-.352q.525-.465,1.034-.948l.324.342Q2075.912,578.148,2075.381,578.617Zm-56.565-2.007q-.5-.507-.976-1.03l.347-.317q.474.517.965,1.018Zm59.6-.974-.346-.319q.476-.517.932-1.049l.357.306Q2078.9,575.113,2078.418,575.636ZM2016,573.424q-.441-.555-.865-1.124l.377-.28q.419.563.856,1.111Zm65.137-1.065-.377-.281q.42-.562.82-1.14l.386.269Q2081.557,571.789,2081.133,572.359Zm-67.612-2.394q-.382-.6-.743-1.206l.4-.24q.358.6.735,1.192Zm69.977-1.148-.4-.24q.36-.6.7-1.22l.413.226Q2083.861,568.207,2083.5,568.817Zm-72.081-2.546q-.318-.631-.614-1.276l.427-.2q.294.638.607,1.261Zm74.067-1.224-.427-.2q.295-.638.567-1.287l.434.182Q2085.782,564.4,2085.484,565.047Zm-75.776-2.665q-.251-.663-.479-1.336l.445-.151q.226.666.475,1.321Zm77.359-1.293-.446-.152q.227-.665.431-1.34l.451.136Q2087.295,560.417,2087.067,561.089Zm-78.655-2.761q-.18-.685-.337-1.378l.458-.1q.156.686.334,1.363Zm79.816-1.338-.459-.1q.155-.682.288-1.373l.462.089Q2088.385,556.3,2088.227,556.99Zm-80.684-2.827q-.108-.7-.193-1.406l.467-.056q.084.7.19,1.39Zm81.411-1.365-.467-.056q.083-.694.144-1.4l.468.04Q2089.039,552.094,2088.954,552.8Zm-81.843-2.868q-.036-.706-.048-1.418l.471-.008q.013.7.047,1.4Zm82.134-1.377-.47-.008q.006-.355.006-.711t-.006-.693l.47-.007q.005.349.006.7C2089.251,548.074,2089.25,548.313,2089.245,548.553Zm-81.661-2.854-.47-.024q.036-.711.1-1.416l.468.04Q2007.621,545,2007.584,545.7Zm81.048-1.358q-.061-.7-.143-1.4l.467-.056q.085.7.145,1.411Zm-80.615-2.825-.465-.072q.11-.7.243-1.4l.462.089Q2008.126,540.819,2008.018,541.515Zm80.042-1.342q-.132-.691-.287-1.373l.458-.1q.157.69.29,1.389Zm-79.177-2.775-.455-.12q.183-.687.387-1.365l.45.136Q2009.063,536.718,2008.882,537.4Zm78.175-1.311q-.2-.672-.429-1.336l.446-.151q.228.67.433,1.351Zm-76.885-2.7-.44-.167q.254-.666.529-1.321l.434.183Q2010.422,532.731,2010.172,533.39Zm75.464-1.257q-.272-.646-.563-1.281l.427-.2q.3.642.57,1.3Zm-73.763-2.6-.42-.212q.321-.634.663-1.258l.412.227Q2012.19,528.908,2011.873,529.535Zm71.939-1.187q-.337-.615-.694-1.217l.4-.24q.361.608.7,1.23Zm-69.847-2.468-.4-.255q.384-.6.79-1.181l.386.268Q2014.346,525.29,2013.965,525.881Zm67.64-1.109q-.4-.577-.816-1.14l.378-.28q.422.569.825,1.153Zm-65.181-2.31-.368-.294q.443-.555.907-1.093l.357.307Q2016.862,521.914,2016.424,522.463Zm62.616-1.023q-.456-.533-.929-1.05l.346-.318q.48.522.94,1.063Zm-59.821-2.122-.335-.331q.5-.5,1.014-.993l.323.342Q2019.711,518.818,2019.219,519.317Zm56.926-.93q-.509-.483-1.034-.949l.313-.352q.531.471,1.045.96Zm-53.823-1.911-.3-.363q.548-.452,1.11-.884l.287.373Q2022.863,516.031,2022.322,516.477Zm50.627-.828q-.555-.429-1.126-.839l.275-.382q.577.415,1.14.849Zm-47.249-1.677-.26-.392q.59-.392,1.193-.764l.247.4Q2026.283,513.585,2025.7,513.972Zm43.789-.719q-.6-.37-1.208-.718l.234-.409q.618.353,1.221.726Zm-40.173-1.423-.219-.416q.627-.329,1.265-.636l.2.423Q2029.935,511.506,2029.316,511.83Zm36.48-.6q-.631-.3-1.276-.589l.19-.431q.651.287,1.291.6Zm-32.664-1.152-.173-.438q.658-.262,1.328-.5l.159.443Q2033.783,509.817,2033.131,510.076Zm28.78-.48q-.661-.238-1.332-.453l.143-.449q.68.218,1.348.459Zm-24.8-.871-.128-.453q.682-.192,1.373-.361l.112.457Q2037.789,508.536,2037.116,508.725Zm20.765-.347q-.68-.167-1.368-.311l.1-.46q.7.145,1.384.315Zm-16.662-.581-.08-.464q.7-.12,1.4-.216l.064.466Q2041.908,507.679,2041.219,507.8Zm12.531-.208q-.694-.1-1.393-.168l.048-.468q.708.073,1.409.17Zm-8.354-.289-.032-.47q.7-.047,1.418-.071l.016.47Q2046.093,507.254,2045.4,507.3Zm4.163-.069q-.7-.024-1.4-.024v-.47q.712,0,1.419.024Z" transform="translate(-2007.063 -506.737)" fill="#2d3c47"/>
      </g>
      <g id="Group_10591" data-name="Group 10591" transform="translate(18.405 10.707)">
        <g id="Rectangle_2092" data-name="Rectangle 2092" transform="translate(20.414 12.595)">
          <rect id="Rectangle_2810" data-name="Rectangle 2810" width="4.544" height="42.129" fill="#12234b"/>
        </g>
        <g id="Group_10589" data-name="Group 10589" transform="translate(3.592 56.17)">
          <g id="Rectangle_2093" data-name="Rectangle 2093">
            <path id="Path_8551" data-name="Path 8551" d="M2053.818,648.887h8.236v.49a4.118,4.118,0,0,1-4.116,4.12h0a4.118,4.118,0,0,1-4.118-4.118v-.493Z" transform="translate(-2053.818 -648.887)" fill="#12234b"/>
          </g>
          <g id="Rectangle_2094" data-name="Rectangle 2094" transform="translate(29.954)">
            <path id="Path_8552" data-name="Path 8552" d="M2117.485,648.887h8.236v.49a4.118,4.118,0,0,1-4.116,4.12h0a4.118,4.118,0,0,1-4.118-4.118v-.493Z" transform="translate(-2117.485 -648.887)" fill="#12234b"/>
          </g>
        </g>
        <g id="Rectangle_2095" data-name="Rectangle 2095" transform="translate(0 47.784)">
          <rect id="Rectangle_2811" data-name="Rectangle 2811" width="45.373" height="9.659" fill="#5875a3"/>
        </g>
        <g id="Rectangle_2096" data-name="Rectangle 2096" transform="translate(0 47.784)">
          <rect id="Rectangle_2812" data-name="Rectangle 2812" width="45.373" height="3.447" fill="#12234b"/>
        </g>
        <g id="Group_10227-2" data-name="Group 10227-2" transform="translate(3.86 27.061)">
          <g id="Path_7251-2" data-name="Path 7251-2">
            <path id="Path_8553" data-name="Path 8553" d="M2055.241,607.735a.847.847,0,0,1-.68-1.36c3.582-4.74,15.571-20.194,19.042-19.326,3.44.855,14.711,14.836,18.255,19.316a.847.847,0,0,1-.672,1.372Z" transform="translate(-2054.388 -587.013)" fill="#ffca00"/>
          </g>
        </g>
        <g id="Group_10205" data-name="Group 10205" transform="translate(18.261 31.449)">
          <g id="Group_10201" data-name="Group 10201" transform="translate(4.061 6.778)">
            <g id="Path_7175" data-name="Path 7175">
              <path id="Path_8554" data-name="Path 8554" d="M2093.632,618.313a4.315,4.315,0,0,1,.038-.638q.038-.306.1-.6a8.626,8.626,0,0,1,.321-1.121,10.37,10.37,0,0,1,.995-2.019,10.239,10.239,0,0,1,1.4-1.765,8.416,8.416,0,0,1,.876-.77q.235-.181.5-.347a4.379,4.379,0,0,1,.561-.307,4.5,4.5,0,0,1-.037.638c-.025.2-.059.4-.1.6a8.451,8.451,0,0,1-.321,1.121,10.66,10.66,0,0,1-2.4,3.781,8.491,8.491,0,0,1-.875.77q-.239.181-.5.347A4.321,4.321,0,0,1,2093.632,618.313Z" transform="translate(-2093.631 -610.748)" fill="#49b0a7"/>
            </g>
            <g id="Group_10200" data-name="Group 10200" transform="translate(0 3.171)">
              <g id="Path_7176" data-name="Path 7176">
                <path id="Path_8555" data-name="Path 8555" d="M2093.632,621.882a9.349,9.349,0,0,1,.536-1.2q.3-.577.651-1.126t.738-1.071a9.28,9.28,0,0,1,.853-1,9.366,9.366,0,0,1-.535,1.2q-.3.577-.652,1.125t-.738,1.072A9.446,9.446,0,0,1,2093.632,621.882Z" transform="translate(-2093.632 -617.488)" fill="#189788"/>
              </g>
            </g>
          </g>
          <g id="Group_10202" data-name="Group 10202" transform="translate(1.953 0)">
            <g id="Ellipse_3361" data-name="Ellipse 3361" transform="translate(0 11.243)">
              <ellipse id="Ellipse_3897" data-name="Ellipse 3897" cx="0.661" cy="1.151" rx="0.661" ry="1.151" transform="translate(0 0.934) rotate(-45)" fill="#ffd743"/>
            </g>
            <g id="Ellipse_3362" data-name="Ellipse 3362" transform="translate(1.678 10.314)">
              <ellipse id="Ellipse_3898" data-name="Ellipse 3898" cx="1.151" cy="0.661" rx="1.151" ry="0.661" transform="translate(0 1.627) rotate(-45)" fill="#ffd743"/>
            </g>
            <g id="Ellipse_3363" data-name="Ellipse 3363" transform="translate(0 9.524)">
              <ellipse id="Ellipse_3899" data-name="Ellipse 3899" cx="0.661" cy="1.151" rx="0.661" ry="1.151" transform="translate(0 0.934) rotate(-45)" fill="#ffd743"/>
            </g>
            <g id="Ellipse_3364" data-name="Ellipse 3364" transform="translate(1.678 8.595)">
              <ellipse id="Ellipse_3900" data-name="Ellipse 3900" cx="1.151" cy="0.661" rx="1.151" ry="0.661" transform="translate(0 1.627) rotate(-45)" fill="#ffd743"/>
            </g>
            <g id="Ellipse_3365" data-name="Ellipse 3365" transform="translate(0 7.805)">
              <ellipse id="Ellipse_3901" data-name="Ellipse 3901" cx="0.661" cy="1.151" rx="0.661" ry="1.151" transform="translate(0 0.934) rotate(-45)" fill="#ffd743"/>
            </g>
            <g id="Ellipse_3366" data-name="Ellipse 3366" transform="translate(1.678 6.875)">
              <ellipse id="Ellipse_3902" data-name="Ellipse 3902" cx="1.151" cy="0.661" rx="1.151" ry="0.661" transform="translate(0 1.627) rotate(-45)" fill="#ffd743"/>
            </g>
            <g id="Ellipse_3367" data-name="Ellipse 3367" transform="translate(0 6.086)">
              <ellipse id="Ellipse_3903" data-name="Ellipse 3903" cx="0.661" cy="1.151" rx="0.661" ry="1.151" transform="translate(0 0.934) rotate(-45)" fill="#ffd743"/>
            </g>
            <g id="Ellipse_3368" data-name="Ellipse 3368" transform="translate(1.678 5.157)">
              <ellipse id="Ellipse_3904" data-name="Ellipse 3904" cx="1.151" cy="0.661" rx="1.151" ry="0.661" transform="translate(0 1.627) rotate(-45)" fill="#ffd743"/>
            </g>
            <g id="Ellipse_3369" data-name="Ellipse 3369" transform="translate(0 4.367)">
              <ellipse id="Ellipse_3905" data-name="Ellipse 3905" cx="0.661" cy="1.151" rx="0.661" ry="1.151" transform="translate(0 0.934) rotate(-45)" fill="#ffd743"/>
            </g>
            <g id="Ellipse_3370" data-name="Ellipse 3370" transform="translate(1.678 3.438)">
              <ellipse id="Ellipse_3906" data-name="Ellipse 3906" cx="1.151" cy="0.661" rx="1.151" ry="0.661" transform="translate(0 1.627) rotate(-45)" fill="#ffd743"/>
            </g>
            <g id="Ellipse_3371" data-name="Ellipse 3371" transform="translate(0 2.649)">
              <ellipse id="Ellipse_3907" data-name="Ellipse 3907" cx="0.661" cy="1.151" rx="0.661" ry="1.151" transform="translate(0 0.934) rotate(-45)" fill="#ffd743"/>
            </g>
            <g id="Ellipse_3372" data-name="Ellipse 3372" transform="translate(1.678 1.719)">
              <ellipse id="Ellipse_3908" data-name="Ellipse 3908" cx="1.151" cy="0.661" rx="1.151" ry="0.661" transform="translate(0 1.627) rotate(-45)" fill="#ffd743"/>
            </g>
            <g id="Ellipse_3373" data-name="Ellipse 3373" transform="translate(0 0.929)">
              <ellipse id="Ellipse_3909" data-name="Ellipse 3909" cx="0.661" cy="1.151" rx="0.661" ry="1.151" transform="translate(0 0.934) rotate(-45)" fill="#ffd743"/>
            </g>
            <g id="Ellipse_3374" data-name="Ellipse 3374" transform="translate(1.678)">
              <ellipse id="Ellipse_3910" data-name="Ellipse 3910" cx="1.151" cy="0.661" rx="1.151" ry="0.661" transform="translate(0 1.627) rotate(-45)" fill="#ffd743"/>
            </g>
          </g>
          <g id="Group_10204" data-name="Group 10204" transform="translate(0 6.504)">
            <g id="Path_7177" data-name="Path 7177">
              <path id="Path_8556" data-name="Path 8556" d="M2089.114,618.131a4.231,4.231,0,0,1-.53-.357q-.246-.188-.466-.39a8.572,8.572,0,0,1-.8-.847,10.378,10.378,0,0,1-1.235-1.882,10.244,10.244,0,0,1-.812-2.1,8.252,8.252,0,0,1-.219-1.146q-.036-.3-.047-.606a.366.366,0,1,1,.551-.281c.163.126.319.255.466.39a8.49,8.49,0,0,1,.8.847,10.286,10.286,0,0,1,1.232,1.882,10.46,10.46,0,0,1,.809,2.1,8.538,8.538,0,0,1,.219,1.146c.024.2.039.4.047.605A4.479,4.479,0,0,1,2089.114,618.131Z" transform="translate(-2084.999 -610.166)" fill="#49b0a7"/>
            </g>
            <g id="Group_10203" data-name="Group 10203" transform="translate(1.741 3.34)">
              <g id="Path_7178" data-name="Path 7178">
                <path id="Path_8557" data-name="Path 8557" d="M2091.073,621.89a9.321,9.321,0,0,1-.759-1.072q-.342-.554-.639-1.132t-.548-1.179a9.2,9.2,0,0,1-.427-1.242,9.4,9.4,0,0,1,.759,1.072q.342.555.638,1.133t.548,1.179A9.471,9.471,0,0,1,2091.073,621.89Z" transform="translate(-2088.7 -617.265)" fill="#189788"/>
              </g>
            </g>
          </g>
        </g>
        <g id="Rectangle_2097" data-name="Rectangle 2097" transform="translate(12.195)">
          <rect id="Rectangle_2813" data-name="Rectangle 2813" width="20.984" height="12.595" rx="4.06" fill="#5875a3"/>
        </g>
        <g id="Rectangle_2098" data-name="Rectangle 2098" transform="translate(13.957 2.15)">
          <rect id="Rectangle_2814" data-name="Rectangle 2814" width="17.46" height="3.67" rx="1.666" fill="#12234b"/>
        </g>
        <g id="Group_10590" data-name="Group 10590" transform="translate(17.849 7.993)">
          <g id="Ellipse_3628" data-name="Ellipse 3628">
            <circle id="Ellipse_3911" data-name="Ellipse 3911" cx="1.127" cy="1.127" r="1.127" fill="#12234b"/>
          </g>
          <g id="Ellipse_3629" data-name="Ellipse 3629" transform="translate(3.71)">
            <circle id="Ellipse_3912" data-name="Ellipse 3912" cx="1.127" cy="1.127" r="1.127" fill="#12234b"/>
          </g>
          <g id="Ellipse_3630" data-name="Ellipse 3630" transform="translate(7.42)">
            <circle id="Ellipse_3913" data-name="Ellipse 3913" cx="1.127" cy="1.127" r="1.127" fill="#12234b"/>
          </g>
        </g>
      </g>
    </g>
    <g id="Line_45" data-name="Line 45" transform="translate(1715.838 511.093)">
      <path id="Path_8558" data-name="Path 8558" d="M1819.251,858.706l-.206-.422,1.27-.617.205.422Zm3.808-1.852-.206-.423,1.27-.617.206.423Zm3.808-1.851-.206-.423,1.269-.617.206.422Zm3.807-1.852-.205-.423,1.269-.618.206.423Zm3.808-1.851-.206-.423,1.269-.617.206.422Zm3.808-1.852-.206-.422,1.269-.617.205.423Zm3.808-1.851-.206-.423.493-.239.206.422Z" transform="translate(-1819.045 -846.934)" fill="#2d3c47"/>
    </g>
    <g id="Group_9883-2" data-name="Group 9883-2" transform="translate(1624.141 476.534)">
      <g id="Group_9882-2" data-name="Group 9882-2">
        <g id="Group_10092-2" data-name="Group 10092-2">
          <g id="Group_10593" data-name="Group 10593" transform="translate(0.236 0.235)">
            <g id="Group_10787" data-name="Group 10787">
              <g id="Group_10786" data-name="Group 10786" clip-path="url(#clip-path-2)">
                <g id="Group_10592" data-name="Group 10592" transform="translate(-149.82 9.305)">
                  <g id="Group_10091-2" data-name="Group 10091-2">
                    <g id="Group_9881-2" data-name="Group 9881-2">
                      <g id="Group_9932-2" data-name="Group 9932-2">
                        <g id="Group_9919-3" data-name="Group 9919-3">
                          <g id="Group_9918-3" data-name="Group 9918-3">
                            <g id="Line_28-3" data-name="Line 28-3" transform="translate(208.077)">
                              <rect id="Rectangle_2815" data-name="Rectangle 2815" width="0.941" height="15.619" fill="#439489"/>
                            </g>
                            <g id="Line_29-3" data-name="Line 29-3" transform="translate(215.04 10.423)">
                              <rect id="Rectangle_2816" data-name="Rectangle 2816" width="0.941" height="5.196" fill="#439489"/>
                            </g>
                            <g id="Group_9917-3" data-name="Group 9917-3" transform="translate(194.237 7.588)">
                              <g id="Line_30-3" data-name="Line 30-3" transform="translate(1.445 0.317)">
                                <rect id="Rectangle_2817" data-name="Rectangle 2817" width="0.941" height="7.714" fill="#439489"/>
                              </g>
                              <g id="Line_31-3" data-name="Line 31-3">
                                <rect id="Rectangle_2818" data-name="Rectangle 2818" width="3.831" height="0.941" fill="#439489"/>
                              </g>
                            </g>
                            <g id="Group_9910-3" data-name="Group 9910-3" transform="translate(216.663 25.015)">
                              <g id="Path_6894-3" data-name="Path 6894-3">
                                <path id="Path_8559" data-name="Path 8559" d="M1767.543,846.927h6.416v3.555l-2.536,2.536h-4.7Z" transform="translate(-1766.719 -846.927)" fill="#219788"/>
                              </g>
                              <g id="Path_6895-3" data-name="Path 6895-3" transform="translate(0 2.122)">
                                <path id="Path_8560" data-name="Path 8560" d="M1767.256,851.438l-.536,3.967h4.7l2.536-2.536v-1.431Z" transform="translate(-1766.72 -851.438)" fill="#219788"/>
                              </g>
                            </g>
                            <g id="Group_9916-3" data-name="Group 9916-3" transform="translate(0 6.84)">
                              <g id="Path_6896-3" data-name="Path 6896-3" transform="translate(177.138 17.25)">
                                <path id="Path_8561" data-name="Path 8561" d="M1682.706,844.964v10.821h.325V848.6h2.67v7.188h.326V848.6h2.669v7.188h.325V844.963Z" transform="translate(-1682.706 -844.963)" fill="#219788"/>
                              </g>
                              <g id="Group_9911-3" data-name="Group 9911-3" transform="translate(191.93 6.563)">
                                <g id="Path_6897-3" data-name="Path 6897-3">
                                  <path id="Path_8562" data-name="Path 8562" d="M1741.618,822.248h-7.057v6.608h-3.068v-6.608h-17.346l1.271,5.469V842.1l13.126-.565v3.54h8.79v-3.539h2.853V824.313l1.586-1.7a.216.216,0,0,0-.157-.363Z" transform="translate(-1714.148 -822.248)" fill="#a8d7d6"/>
                                </g>
                                <g id="Path_6898-3" data-name="Path 6898-3" transform="translate(0.001 13.968)">
                                  <path id="Path_8563" data-name="Path 8563" d="M1715.453,857.475h-1.3v-2.668l2.87-2.87h18.808v1.3h-18.27l-2.109,2.109Z" transform="translate(-1714.151 -851.937)" fill="#fbfbfb"/>
                                </g>
                              </g>
                              <g id="Group_9912-3" data-name="Group 9912-3" transform="translate(35.837 26.067)">
                                <g id="Rectangle_1852-3" data-name="Rectangle 1852-3" transform="translate(1.726 5.724)">
                                  <rect id="Rectangle_2819" data-name="Rectangle 2819" width="154.428" height="4.164" fill="#a8d7d6"/>
                                </g>
                                <g id="Rectangle_1853-3" data-name="Rectangle 1853-3" transform="translate(13.039 2.259)">
                                  <rect id="Rectangle_2820" data-name="Rectangle 2820" width="1.062" height="6.931" fill="#49b0a7"/>
                                </g>
                                <g id="Rectangle_1854-3" data-name="Rectangle 1854-3" transform="translate(16.663 2.259)">
                                  <rect id="Rectangle_2821" data-name="Rectangle 2821" width="1.062" height="6.931" fill="#49b0a7"/>
                                </g>
                                <g id="Rectangle_1855-3" data-name="Rectangle 1855-3" transform="translate(20.288 2.259)">
                                  <rect id="Rectangle_2822" data-name="Rectangle 2822" width="1.062" height="6.931" fill="#49b0a7"/>
                                </g>
                                <g id="Rectangle_1856-3" data-name="Rectangle 1856-3" transform="translate(23.912 2.259)">
                                  <rect id="Rectangle_2823" data-name="Rectangle 2823" width="1.062" height="6.931" fill="#49b0a7"/>
                                </g>
                                <g id="Rectangle_1857-3" data-name="Rectangle 1857-3" transform="translate(27.537 2.259)">
                                  <rect id="Rectangle_2824" data-name="Rectangle 2824" width="1.062" height="6.931" fill="#49b0a7"/>
                                </g>
                                <g id="Rectangle_1858-3" data-name="Rectangle 1858-3" transform="translate(31.161 2.259)">
                                  <rect id="Rectangle_2825" data-name="Rectangle 2825" width="1.062" height="6.931" fill="#49b0a7"/>
                                </g>
                                <g id="Rectangle_1859-3" data-name="Rectangle 1859-3" transform="translate(34.785 2.259)">
                                  <rect id="Rectangle_2826" data-name="Rectangle 2826" width="1.062" height="6.931" fill="#49b0a7"/>
                                </g>
                                <g id="Rectangle_1860-3" data-name="Rectangle 1860-3" transform="translate(38.41 2.259)">
                                  <rect id="Rectangle_2827" data-name="Rectangle 2827" width="1.062" height="6.931" fill="#49b0a7"/>
                                </g>
                                <g id="Rectangle_1861-3" data-name="Rectangle 1861-3" transform="translate(42.035 2.259)">
                                  <rect id="Rectangle_2828" data-name="Rectangle 2828" width="1.062" height="6.931" fill="#49b0a7"/>
                                </g>
                                <g id="Rectangle_1862-3" data-name="Rectangle 1862-3" transform="translate(45.659 2.259)">
                                  <rect id="Rectangle_2829" data-name="Rectangle 2829" width="1.062" height="6.931" fill="#49b0a7"/>
                                </g>
                                <g id="Rectangle_1863-3" data-name="Rectangle 1863-3" transform="translate(49.283 2.259)">
                                  <rect id="Rectangle_2830" data-name="Rectangle 2830" width="1.062" height="6.931" fill="#49b0a7"/>
                                </g>
                                <g id="Rectangle_1864-3" data-name="Rectangle 1864-3" transform="translate(52.908 2.259)">
                                  <rect id="Rectangle_2831" data-name="Rectangle 2831" width="1.062" height="6.931" fill="#49b0a7"/>
                                </g>
                                <g id="Rectangle_1865-3" data-name="Rectangle 1865-3" transform="translate(56.532 2.259)">
                                  <rect id="Rectangle_2832" data-name="Rectangle 2832" width="1.062" height="6.931" fill="#49b0a7"/>
                                </g>
                                <g id="Rectangle_1866-3" data-name="Rectangle 1866-3" transform="translate(60.157 2.259)">
                                  <rect id="Rectangle_2833" data-name="Rectangle 2833" width="1.062" height="6.931" fill="#49b0a7"/>
                                </g>
                                <g id="Rectangle_1867-3" data-name="Rectangle 1867-3" transform="translate(63.781 2.259)">
                                  <rect id="Rectangle_2834" data-name="Rectangle 2834" width="1.062" height="6.931" fill="#49b0a7"/>
                                </g>
                                <g id="Rectangle_1868-3" data-name="Rectangle 1868-3" transform="translate(67.405 2.259)">
                                  <rect id="Rectangle_2835" data-name="Rectangle 2835" width="1.062" height="6.931" fill="#49b0a7"/>
                                </g>
                                <g id="Rectangle_1869-3" data-name="Rectangle 1869-3" transform="translate(71.03 2.259)">
                                  <rect id="Rectangle_2836" data-name="Rectangle 2836" width="1.062" height="6.931" fill="#49b0a7"/>
                                </g>
                                <g id="Rectangle_1870-3" data-name="Rectangle 1870-3" transform="translate(74.655 2.259)">
                                  <rect id="Rectangle_2837" data-name="Rectangle 2837" width="1.062" height="6.931" fill="#49b0a7"/>
                                </g>
                                <g id="Rectangle_1871-3" data-name="Rectangle 1871-3" transform="translate(78.279 2.259)">
                                  <rect id="Rectangle_2838" data-name="Rectangle 2838" width="1.062" height="6.931" fill="#49b0a7"/>
                                </g>
                                <g id="Rectangle_1872-3" data-name="Rectangle 1872-3" transform="translate(81.903 2.259)">
                                  <rect id="Rectangle_2839" data-name="Rectangle 2839" width="1.062" height="6.931" fill="#49b0a7"/>
                                </g>
                                <g id="Rectangle_1873-3" data-name="Rectangle 1873-3" transform="translate(85.528 2.259)">
                                  <rect id="Rectangle_2840" data-name="Rectangle 2840" width="1.062" height="6.931" fill="#49b0a7"/>
                                </g>
                                <g id="Rectangle_1874-3" data-name="Rectangle 1874-3" transform="translate(89.152 2.259)">
                                  <rect id="Rectangle_2841" data-name="Rectangle 2841" width="1.062" height="6.931" fill="#49b0a7"/>
                                </g>
                                <g id="Rectangle_1875-3" data-name="Rectangle 1875-3" transform="translate(92.777 2.259)">
                                  <rect id="Rectangle_2842" data-name="Rectangle 2842" width="1.062" height="6.931" fill="#49b0a7"/>
                                </g>
                                <g id="Rectangle_1876-3" data-name="Rectangle 1876-3" transform="translate(96.401 2.259)">
                                  <rect id="Rectangle_2843" data-name="Rectangle 2843" width="1.062" height="6.931" fill="#49b0a7"/>
                                </g>
                                <g id="Rectangle_1877-3" data-name="Rectangle 1877-3" transform="translate(100.026 2.259)">
                                  <rect id="Rectangle_2844" data-name="Rectangle 2844" width="1.062" height="6.931" fill="#49b0a7"/>
                                </g>
                                <g id="Rectangle_1878-3" data-name="Rectangle 1878-3" transform="translate(103.65 2.259)">
                                  <rect id="Rectangle_2845" data-name="Rectangle 2845" width="1.062" height="6.931" fill="#49b0a7"/>
                                </g>
                                <g id="Rectangle_1879-3" data-name="Rectangle 1879-3" transform="translate(107.275 2.259)">
                                  <rect id="Rectangle_2846" data-name="Rectangle 2846" width="1.062" height="6.931" fill="#49b0a7"/>
                                </g>
                                <g id="Rectangle_1880-3" data-name="Rectangle 1880-3" transform="translate(110.899 2.259)">
                                  <rect id="Rectangle_2847" data-name="Rectangle 2847" width="1.062" height="6.931" fill="#49b0a7"/>
                                </g>
                                <g id="Rectangle_1881-3" data-name="Rectangle 1881-3" transform="translate(114.524 2.259)">
                                  <rect id="Rectangle_2848" data-name="Rectangle 2848" width="1.062" height="6.931" fill="#49b0a7"/>
                                </g>
                                <g id="Rectangle_1882-3" data-name="Rectangle 1882-3" transform="translate(118.148 2.259)">
                                  <rect id="Rectangle_2849" data-name="Rectangle 2849" width="1.062" height="6.931" fill="#49b0a7"/>
                                </g>
                                <g id="Rectangle_1883-3" data-name="Rectangle 1883-3" transform="translate(121.772 2.259)">
                                  <rect id="Rectangle_2850" data-name="Rectangle 2850" width="1.062" height="6.931" fill="#49b0a7"/>
                                </g>
                                <g id="Rectangle_1884-3" data-name="Rectangle 1884-3" transform="translate(125.397 2.259)">
                                  <rect id="Rectangle_2851" data-name="Rectangle 2851" width="1.062" height="6.931" fill="#49b0a7"/>
                                </g>
                                <g id="Rectangle_1885-3" data-name="Rectangle 1885-3" transform="translate(129.021 2.259)">
                                  <rect id="Rectangle_2852" data-name="Rectangle 2852" width="1.062" height="6.931" fill="#49b0a7"/>
                                </g>
                                <g id="Rectangle_1886-3" data-name="Rectangle 1886-3" transform="translate(132.646 2.259)">
                                  <rect id="Rectangle_2853" data-name="Rectangle 2853" width="1.062" height="6.931" fill="#fff"/>
                                </g>
                                <g id="Rectangle_1887-3" data-name="Rectangle 1887-3" transform="translate(136.27 2.259)">
                                  <rect id="Rectangle_2854" data-name="Rectangle 2854" width="1.062" height="6.931" fill="#fff"/>
                                </g>
                                <g id="Rectangle_1888-3" data-name="Rectangle 1888-3" transform="translate(139.894 2.259)">
                                  <rect id="Rectangle_2855" data-name="Rectangle 2855" width="1.062" height="6.931" fill="#fff"/>
                                </g>
                                <g id="Rectangle_1889-3" data-name="Rectangle 1889-3" transform="translate(143.519 2.259)">
                                  <rect id="Rectangle_2856" data-name="Rectangle 2856" width="1.062" height="6.931" fill="#fff"/>
                                </g>
                                <g id="Rectangle_1890-3" data-name="Rectangle 1890-3" transform="translate(147.143 2.259)">
                                  <rect id="Rectangle_2857" data-name="Rectangle 2857" width="1.062" height="6.931" fill="#fff"/>
                                </g>
                                <g id="Rectangle_1891-3" data-name="Rectangle 1891-3" transform="translate(10.569 5.359)">
                                  <rect id="Rectangle_2858" data-name="Rectangle 2858" width="140.876" height="0.651" fill="#49b0a7"/>
                                </g>
                                <g id="Rectangle_1892-3" data-name="Rectangle 1892-3" transform="translate(3.56 2.488)">
                                  <rect id="Rectangle_2859" data-name="Rectangle 2859" width="151.549" height="0.651" fill="#49b0a7"/>
                                </g>
                                <g id="Rectangle_1893-3" data-name="Rectangle 1893-3" transform="translate(0 1.456)">
                                  <rect id="Rectangle_2860" data-name="Rectangle 2860" width="158.67" height="1.032" fill="#a8d7d6"/>
                                </g>
                                <g id="Rectangle_1894-3" data-name="Rectangle 1894-3" transform="translate(10.569)">
                                  <rect id="Rectangle_2861" data-name="Rectangle 2861" width="140.876" height="0.651" fill="#219788"/>
                                </g>
                              </g>
                              <g id="Path_6899-3" data-name="Path 6899-3" transform="translate(0 19.609)">
                                <path id="Path_8564" data-name="Path 8564" d="M1306.2,855.521s7.637,8.055,7.846,13.5h218.44V856.254h-34.417l-9.206,9.206H1361.853l-5.722-2.5-16.981-7.433h-8.788v-5.546l-3.557,1.882v3.662Z" transform="translate(-1306.196 -849.976)" fill="#189788"/>
                              </g>
                              <g id="Group_9915-3" data-name="Group 9915-3" transform="translate(19.372)">
                                <g id="Group_9913-3" data-name="Group 9913-3" transform="translate(1.763 7.686)">
                                  <g id="Rectangle_1895-3" data-name="Rectangle 1895-3">
                                    <rect id="Rectangle_2862" data-name="Rectangle 2862" width="3.153" height="1.859" fill="#cf1013"/>
                                  </g>
                                  <g id="Rectangle_1896-3" data-name="Rectangle 1896-3">
                                    <rect id="Rectangle_2863" data-name="Rectangle 2863" width="1.577" height="1.859" fill="#189788"/>
                                  </g>
                                </g>
                                <g id="Rectangle_1897-3" data-name="Rectangle 1897-3" transform="translate(1.551)">
                                  <rect id="Rectangle_2864" data-name="Rectangle 2864" width="0.325" height="22.747" fill="#fff"/>
                                </g>
                                <g id="Path_6900-3" data-name="Path 6900-3" transform="translate(0 2.089)">
                                  <path id="Path_8565" data-name="Path 8565" d="M1349.089,829.862h-1.718V812.737h1.765v.325H1347.7v16.475h1.393Z" transform="translate(-1347.371 -812.737)" fill="#fff"/>
                                </g>
                                <g id="Group_9914-3" data-name="Group 9914-3" transform="translate(0.16 4.558)">
                                  <g id="Rectangle_1898-3" data-name="Rectangle 1898-3">
                                    <rect id="Rectangle_2865" data-name="Rectangle 2865" width="1.602" height="0.325" fill="#fff"/>
                                  </g>
                                  <g id="Rectangle_1899-3" data-name="Rectangle 1899-3" transform="translate(0 2.965)">
                                    <rect id="Rectangle_2866" data-name="Rectangle 2866" width="1.602" height="0.325" fill="#fff"/>
                                  </g>
                                  <g id="Rectangle_1900-3" data-name="Rectangle 1900-3" transform="translate(0 5.93)">
                                    <rect id="Rectangle_2867" data-name="Rectangle 2867" width="1.602" height="0.325" fill="#fff"/>
                                  </g>
                                  <g id="Rectangle_1901-3" data-name="Rectangle 1901-3" transform="translate(0 8.895)">
                                    <rect id="Rectangle_2868" data-name="Rectangle 2868" width="1.602" height="0.325" fill="#fff"/>
                                  </g>
                                  <g id="Rectangle_1902-3" data-name="Rectangle 1902-3" transform="translate(0 11.859)">
                                    <rect id="Rectangle_2869" data-name="Rectangle 2869" width="1.602" height="0.325" fill="#fff"/>
                                  </g>
                                </g>
                              </g>
                            </g>
                          </g>
                          <g id="Path_6901-3" data-name="Path 6901-3" transform="translate(7.847 45.332)">
                            <path id="Path_8566" data-name="Path 8566" d="M1322.874,890.114l6.237,9.736h204.553l7.644-9.739Z" transform="translate(-1322.874 -890.111)" fill="#189788"/>
                          </g>
                        </g>
                        <g id="Group_9920-3" data-name="Group 9920-3" transform="translate(194.955 15.179)">
                          <g id="Rectangle_1903-3" data-name="Rectangle 1903-3">
                            <rect id="Rectangle_2870" data-name="Rectangle 2870" width="3.069" height="3.069" fill="#fbfbfb"/>
                          </g>
                          <g id="Rectangle_1904-3" data-name="Rectangle 1904-3" transform="translate(4.775)">
                            <rect id="Rectangle_2871" data-name="Rectangle 2871" width="3.069" height="3.069" fill="#fbfbfb"/>
                          </g>
                          <g id="Rectangle_1905-3" data-name="Rectangle 1905-3" transform="translate(9.549)">
                            <rect id="Rectangle_2872" data-name="Rectangle 2872" width="3.069" height="3.069" fill="#fbfbfb"/>
                          </g>
                        </g>
                      </g>
                      <g id="Path_6456-3" data-name="Path 6456-3" transform="translate(150.281 48.836)">
                        <path id="Path_8567" data-name="Path 8567" d="M1625.621,932.335V898.591a4.981,4.981,0,0,0,6.069,0,4.977,4.977,0,0,1,6.069,0,4.934,4.934,0,0,0,6.037,0,4.977,4.977,0,0,1,6.069,0,4.926,4.926,0,0,0,6.031,0,4.977,4.977,0,0,1,6.069,0,4.868,4.868,0,0,0,5.989,0,5.048,5.048,0,0,1,6.116,0,4.868,4.868,0,0,0,5.989,0,4.977,4.977,0,0,1,6.069,0,4.925,4.925,0,0,0,6.031,0,4.977,4.977,0,0,1,6.069,0,4.934,4.934,0,0,0,6.037,0,4.977,4.977,0,0,1,6.069,0,4.981,4.981,0,0,0,6.069,0v33.744Z" transform="translate(-1625.621 -897.559)" fill="#1daee9"/>
                      </g>
                    </g>
                  </g>
                </g>
              </g>
            </g>
          </g>
          <g id="Path_7029-2" data-name="Path 7029-2">
            <path id="Path_8569" data-name="Path 8569" d="M1670.237,865.67h-.243l0-.47h.241q.582,0,1.163-.015l.012.47Q1670.826,865.67,1670.237,865.67Zm-3.077-.1q-.71-.047-1.413-.115l.045-.469q.7.068,1.4.114Zm7.084-.071-.041-.469q.7-.061,1.4-.142l.055.468Q1674.952,865.437,1674.244,865.5Zm-11.31-.4q-.7-.112-1.4-.245l.088-.462q.688.131,1.383.242Zm15.526-.156-.083-.464q.692-.124,1.377-.27l.1.461Q1679.159,864.813,1678.459,864.939Zm-19.689-.706q-.689-.176-1.369-.373l.13-.452q.673.195,1.355.369Zm23.836-.241-.126-.453q.678-.189,1.347-.4l.14.449Q1683.291,863.8,1682.606,863.991Zm-27.9-1q-.669-.238-1.328-.5l.172-.438q.652.256,1.314.493Zm31.95-.326-.167-.439q.659-.251,1.307-.522l.181.434Q1687.318,862.408,1686.652,862.661Zm-35.879-1.291q-.642-.3-1.273-.618l.211-.42q.625.314,1.26.611Zm39.785-.411-.208-.422q.631-.31,1.253-.64l.221.415Q1691.2,860.646,1690.558,860.96Zm-43.547-1.561q-.612-.357-1.211-.732l.25-.4q.593.371,1.2.725Zm47.277-.494-.245-.4q.6-.367,1.187-.753l.258.393Q1694.9,858.534,1694.288,858.905Zm-50.843-1.817q-.576-.412-1.139-.842l.285-.374q.557.426,1.128.834Zm54.367-.573-.282-.376q.563-.421,1.112-.859l.293.368Q1698.381,856.091,1697.812,856.516Zm-57.707-2.056q-.537-.464-1.058-.943l.319-.347q.516.476,1.047.935Zm60.995-.645-.315-.349q.521-.471,1.028-.957l.326.339Q1701.626,853.339,1701.1,853.814Zm-64.081-2.28q-.492-.512-.968-1.037l.349-.316q.471.521.958,1.027Zm67.1-.71-.346-.319q.476-.515.935-1.046l.356.309Q1704.6,850.3,1704.124,850.824Zm-69.911-2.487q-.443-.554-.87-1.123l.377-.282q.421.562.86,1.111Zm72.648-.767-.374-.286q.426-.557.835-1.126l.383.275Q1707.291,847.006,1706.861,847.569Zm-75.15-2.677q-.389-.592-.763-1.2l.4-.247q.368.6.755,1.186Zm77.575-.813-.4-.251q.374-.593.727-1.2l.406.238Q1709.664,843.48,1709.286,844.08Zm-79.751-2.847q-.333-.627-.649-1.264l.422-.209q.312.632.642,1.252Zm81.844-.85-.42-.212q.316-.624.613-1.259l.427.2Q1711.7,839.753,1711.38,840.382Zm-83.672-3q-.274-.655-.53-1.32l.439-.168q.252.658.524,1.307Zm85.413-.874-.437-.173q.258-.652.495-1.313l.443.159Q1713.382,835.852,1713.121,836.511Zm-86.876-3.13q-.213-.675-.4-1.36l.453-.127q.189.677.4,1.346Zm88.254-.893-.452-.131q.2-.673.371-1.354l.456.118Q1714.7,831.808,1714.5,832.487Zm-89.337-3.219q-.148-.692-.276-1.391l.464-.084q.125.693.273,1.377Zm90.336-.915-.462-.089q.132-.688.245-1.383l.464.075Q1715.632,827.659,1715.5,828.353Zm-91.031-3.281q-.084-.7-.146-1.411l.468-.041q.063.7.145,1.4Zm91.642-.928-.469-.046q.068-.7.116-1.4l.469.031Q1716.178,823.441,1716.109,824.144Zm-91.951-3.313q-.017-.627-.017-1.257v-.161h.47v.163c0,.414.006.829.017,1.242Zm92.173-.934-.471,0v-.318q0-.706-.021-1.4l.47-.015q.021.707.022,1.418Zm-91.624-3.289-.47-.03q.046-.709.112-1.413l.469.044Q1624.752,815.905,1624.708,816.608Zm90.963-1.239q-.064-.7-.149-1.4l.467-.057q.086.7.151,1.411Zm-90.5-2.944-.465-.074q.111-.7.242-1.4l.462.087Q1625.278,811.729,1625.169,812.425Zm89.926-1.226q-.128-.691-.278-1.376l.459-.1q.152.692.281,1.391Zm-89.08-2.9-.456-.116q.175-.689.371-1.369l.452.129Q1626.19,807.619,1626.015,808.3Zm88.12-1.2q-.192-.677-.4-1.344l.448-.142q.214.674.408,1.358Zm-86.9-2.827-.443-.158q.238-.67.5-1.329l.438.171Q1627.477,803.611,1627.24,804.274ZM1712.8,803.1q-.255-.657-.529-1.3l.434-.184q.277.655.534,1.319Zm-83.965-2.721-.426-.2q.3-.642.615-1.274l.42.211Q1629.129,799.745,1628.833,800.382Zm82.261-1.136q-.315-.63-.647-1.249l.415-.223q.336.625.653,1.262Zm-80.317-2.59-.407-.236q.357-.613.731-1.213l.4.249Q1631.13,796.049,1630.777,796.655Zm78.263-1.09q-.37-.6-.759-1.183l.392-.26q.393.591.767,1.195Zm-75.982-2.444-.383-.273q.411-.577.84-1.141l.375.285Q1633.466,792.551,1633.059,793.122Zm73.6-1.032q-.424-.561-.864-1.108l.367-.295q.445.553.874,1.119Zm-71-2.278-.357-.307q.463-.538.942-1.06l.346.318Q1636.114,789.279,1635.656,789.811Zm68.31-.962q-.473-.519-.962-1.023l.339-.327q.492.509.971,1.034Zm-65.419-2.1-.327-.338q.511-.494,1.036-.97l.316.348Q1639.052,786.263,1638.547,786.751Zm62.443-.879q-.518-.473-1.051-.931l.307-.357q.539.462,1.061.94Zm-59.284-1.9-.294-.366q.554-.445,1.12-.871l.283.375Q1642.254,783.529,1641.706,783.968Zm56.049-.788q-.559-.423-1.131-.829l.272-.384q.578.411,1.143.838Zm-52.645-1.694-.26-.392q.592-.391,1.2-.765l.247.4Q1645.7,781.1,1645.111,781.486Zm49.178-.689q-.595-.369-1.2-.721l.236-.407q.613.356,1.214.728Zm-45.558-1.471-.223-.414q.626-.335,1.264-.651l.208.422Q1649.35,778.994,1648.73,779.326Zm41.888-.582q-.625-.313-1.262-.607l.2-.427q.643.3,1.275.613Zm-38.084-1.233-.183-.434q.656-.276,1.32-.532l.169.439Q1653.183,777.238,1652.535,777.511Zm34.244-.471q-.654-.255-1.315-.488l.156-.444q.669.236,1.33.494Zm-30.283-.986-.142-.448q.675-.213,1.359-.406l.128.453Q1657.163,775.844,1656.5,776.055Zm26.294-.358q-.674-.192-1.356-.365l.115-.456q.69.174,1.371.368Zm-22.225-.721-.1-.46q.692-.15,1.391-.278l.084.463Q1661.25,774.829,1660.564,774.977Zm18.128-.246q-.689-.129-1.384-.237l.073-.465q.7.11,1.4.24Zm-13.977-.451-.056-.467q.7-.085,1.411-.148l.042.469Q1665.41,774.2,1664.715,774.28Zm9.807-.132q-.7-.065-1.4-.109l.029-.47q.71.044,1.414.11Zm-5.609-.18-.013-.47q.666-.018,1.337-.019h.081v.47h-.081Q1669.573,773.949,1668.913,773.968Z" transform="translate(-1624.141 -773.479)" fill="#16142f"/>
          </g>
        </g>
      </g>
    </g>
    <g id="Path_7692" data-name="Path 7692" transform="translate(1827.949 432.949)">
      <path id="Path_8570" data-name="Path 8570" d="M2057.8,703.054l-.461-.1.288-1.383.461.1Zm.864-4.148-.461-.1.288-1.382.461.1Zm.864-4.147-.461-.1.288-1.383.461.1Zm.865-4.148-.462-.1.288-1.382.461.1Zm.864-4.147-.461-.1.289-1.383.461.1Zm.864-4.148-.462-.1.289-1.382.461.1Z" transform="translate(-2057.34 -680.837)" fill="#2d3c47"/>
    </g>
    <g id="Path_7710" data-name="Path 7710" transform="matrix(0.225, 0.974, -0.974, 0.225, 1885.842, 422.765)">
      <path id="Path_8571" data-name="Path 8571" d="M.192,13.085,0,12.656l1.288-.577.192.43Zm3.867-1.723-.191-.43,1.292-.571.19.431Zm3.876-1.7-.189-.431,1.295-.565.187.431Zm3.849-1.712-.213-.42c.18-.091.518-.254,1.268-.6l.2.427C12.3,7.7,11.962,7.856,11.785,7.947Zm3.808-1.759L15.4,5.76l1.283-.58.193.429Zm3.851-1.734-.192-.429,1.285-.576.193.429ZM23.3,2.727l-.192-.43L24.4,1.723l.192.429ZM27.161,1l-.19-.43L28.258,0l.191.43Z" fill="#2d3c47"/>
    </g>
    <g id="Group_10583" data-name="Group 10583" transform="translate(1638.556 294.378)">
      <g id="Group_10559-2" data-name="Group 10559-2" transform="translate(0 0.108)">
        <g id="Ellipse_3619-2" data-name="Ellipse 3619-2">
          <circle id="Ellipse_3914" data-name="Ellipse 3914" cx="64.597" cy="64.597" r="64.597" transform="translate(0.234 0.235)" fill="#12234b"/>
          <path id="Path_8574" data-name="Path 8574" d="M1719.371,516.2q-.71,0-1.416-.02l.012-.471q.7.017,1.406.02Zm2.832-.051-.018-.47q.7-.027,1.4-.07l.029.469Q1722.912,516.116,1722.2,516.144Zm-7.077-.1q-.708-.048-1.411-.112l.042-.469q.7.063,1.4.111Zm11.313-.2-.049-.468q.7-.074,1.4-.162l.059.467Q1727.146,515.765,1726.44,515.84Zm-15.539-.225q-.7-.095-1.4-.2l.073-.465c.462.073.926.14,1.391.2Zm19.746-.355-.079-.464q.694-.118,1.382-.253l.09.462Q1731.347,515.14,1730.647,515.26Zm-23.936-.348q-.7-.14-1.385-.3l.1-.459q.686.154,1.375.294Zm28.1-.508-.111-.458q.685-.164,1.364-.343l.12.455Q1735.5,514.239,1734.808,514.4Zm-32.23-.47q-.685-.186-1.363-.386l.134-.451q.674.2,1.353.383Zm36.326-.657-.14-.45q.672-.209,1.338-.432l.15.446Q1739.581,513.066,1738.9,513.277Zm-40.388-.591q-.673-.231-1.339-.478l.163-.441q.662.243,1.33.473Zm44.4-.8-.169-.439q.657-.252,1.306-.52l.179.435Q1743.577,511.626,1742.916,511.881Zm-48.379-.713q-.656-.275-1.3-.564l.191-.43q.644.287,1.294.56Zm52.284-.941-.2-.427q.637-.294,1.266-.6l.207.422Q1747.462,509.93,1746.821,510.227Zm-56.153-.835q-.635-.318-1.263-.648l.22-.416q.622.328,1.253.644Zm59.938-1.072-.225-.414q.617-.335,1.224-.685l.234.408Q1751.228,507.982,1750.607,508.32Zm-63.68-.955q-.613-.359-1.217-.73l.247-.4q.6.368,1.208.724Zm67.334-1.2-.252-.4q.593-.376,1.177-.765l.26.392Q1754.859,505.79,1754.261,506.169Zm-70.933-1.07q-.587-.4-1.166-.807l.272-.384q.575.407,1.158.8Zm74.441-1.316-.277-.381q.567-.413,1.126-.839l.285.374Q1758.342,503.365,1757.769,503.783Zm-77.883-1.18q-.56-.434-1.11-.881l.3-.366q.546.444,1.1.875Zm81.229-1.432-.3-.361q.54-.45,1.069-.912l.309.355Q1761.659,500.717,1761.116,501.171Zm-84.5-1.283q-.529-.47-1.05-.951l.319-.345q.517.478,1.043.944Zm87.671-1.542-.325-.341q.509-.485,1.008-.98l.332.334Q1764.8,497.859,1764.287,498.346Zm-90.755-1.379q-.5-.5-.985-1.017l.341-.323q.483.51.978,1.009Zm93.735-1.647-.346-.319q.477-.517.943-1.044l.353.311Q1767.747,494.8,1767.267,495.321Zm-96.622-1.467q-.464-.534-.917-1.079l.362-.3q.449.54.909,1.07Zm99.4-1.748-.365-.3q.442-.547.873-1.1l.372.287Q1770.491,491.555,1770.045,492.106Zm-102.08-1.546q-.428-.562-.843-1.135l.38-.277q.413.568.838,1.127Zm104.643-1.845-.384-.271q.406-.574.8-1.159l.39.263Q1773.018,488.135,1772.609,488.715Zm-107.1-1.615q-.39-.59-.767-1.188l.4-.251q.374.594.762,1.179Zm109.438-1.936-.4-.246q.367-.6.722-1.209l.407.236Q1775.318,484.559,1774.948,485.163Zm-111.662-1.675q-.351-.612-.688-1.234l.414-.224q.335.617.682,1.225Zm113.762-2.024-.416-.218q.327-.624.641-1.255l.421.209Q1777.378,480.835,1777.048,481.463ZM1661.3,479.74q-.309-.634-.605-1.276l.427-.2q.294.637.6,1.267Zm117.6-2.108-.43-.191q.286-.644.558-1.295l.434.181Q1779.19,476.983,1778.9,477.632Zm-119.328-1.759q-.268-.656-.522-1.317l.439-.169q.252.657.518,1.307Zm120.926-2.189-.442-.162q.243-.663.471-1.33l.445.153Q1780.743,473.018,1780.5,473.685Zm-122.4-1.794q-.224-.671-.433-1.348l.449-.139q.208.672.431,1.338Zm123.733-2.245-.451-.133q.2-.673.381-1.353l.453.122Q1782.03,468.966,1781.83,469.645Zm-124.943-1.827q-.179-.685-.344-1.375l.458-.109q.162.685.34,1.364Zm126-2.287-.459-.1q.152-.684.291-1.375l.462.092Q1783.045,464.842,1782.891,465.531Zm-126.944-1.856q-.133-.7-.253-1.394l.464-.079q.118.694.25,1.383Zm127.731-2.318-.465-.072q.107-.7.2-1.392l.467.062Q1783.787,460.659,1783.678,461.358Zm-128.4-1.878q-.088-.7-.16-1.408l.468-.048q.072.7.159,1.4Zm128.907-2.339-.469-.041q.062-.7.109-1.4l.47.031Q1784.252,456.438,1784.19,457.141Zm-129.3-1.891q-.041-.705-.068-1.415l.47-.017q.026.7.067,1.4Zm129.532-2.35-.47-.011q.016-.7.018-1.406h.47Q1784.443,452.194,1784.426,452.9Zm-129.175-1.895-.47,0q0-.71.023-1.416l.47.013Q1655.256,450.3,1655.251,451.005Zm128.667-2.334q-.028-.7-.073-1.4l.47-.03q.044.706.073,1.415Zm-128.507-1.88-.47-.033q.05-.707.114-1.411l.469.043Q1655.46,446.09,1655.411,446.792Zm128.2-2.326q-.075-.7-.164-1.4l.467-.06q.089.7.165,1.406ZM1655.842,442.6l-.466-.064q.095-.7.206-1.4l.465.074Q1655.937,441.9,1655.842,442.6Zm127.182-2.308q-.121-.694-.256-1.382l.462-.091q.136.694.257,1.393Zm-126.476-1.85-.462-.094q.143-.7.3-1.384l.459.1Q1656.689,437.749,1656.549,438.44Zm125.619-2.279q-.166-.684-.346-1.363l.455-.12q.181.683.349,1.372Zm-124.642-1.823-.454-.124q.188-.684.389-1.362l.451.134Q1657.712,433.659,1657.526,434.338Zm123.514-2.24q-.209-.671-.435-1.337l.446-.151q.226.67.438,1.347Zm-122.267-1.788-.444-.153q.232-.673.48-1.338l.441.164Q1659,429.643,1658.772,430.31Zm120.876-2.193q-.255-.656-.522-1.306l.435-.179q.27.653.526,1.315Zm-119.361-1.756-.434-.182q.277-.655.567-1.3l.429.192Q1660.561,425.711,1660.287,426.361ZM1778,424.243q-.3-.636-.6-1.264l.422-.208q.311.633.61,1.274Zm-115.94-1.719-.421-.211q.319-.635.651-1.262l.415.221Q1662.374,421.893,1662.058,422.524Zm114.04-2.035q-.336-.616-.687-1.223l.408-.235q.352.611.692,1.232Zm-112.022-1.675-.405-.238q.358-.613.731-1.215l.4.247Q1664.433,418.207,1664.076,418.813Zm109.881-1.948q-.378-.593-.766-1.176l.391-.261q.392.588.772,1.185Zm-107.623-1.62-.39-.264q.4-.586.809-1.164l.383.273Q1666.728,414.663,1666.333,415.245Zm105.248-1.858q-.415-.567-.842-1.124l.373-.286q.431.562.848,1.132Zm-102.765-1.554-.371-.289q.435-.559.884-1.108l.365.3Q1669.249,411.278,1668.816,411.833Zm100.166-1.764q-.45-.538-.913-1.068l.354-.31q.466.533.921,1.075Zm-97.465-1.478-.351-.312q.47-.529.953-1.049l.344.321Q1671.985,408.066,1671.517,408.591Zm94.655-1.665q-.486-.508-.982-1.006l.333-.333q.5.5.988,1.014Zm-91.749-1.393-.331-.335q.5-.5,1.018-.983l.324.342Q1674.923,405.04,1674.423,405.534Zm88.74-1.561q-.518-.476-1.045-.941l.311-.353q.532.468,1.053.948Zm-85.643-1.3-.308-.356q.536-.463,1.08-.914l.3.362Q1678.051,402.214,1677.519,402.673Zm82.446-1.453q-.547-.441-1.1-.87l.287-.373q.562.433,1.114.878Zm-79.171-1.2-.284-.375q.563-.426,1.137-.842l.275.382Q1681.354,399.6,1680.794,400.02Zm75.8-1.339q-.575-.405-1.159-.8l.262-.39q.589.4,1.169.8Zm-72.359-1.092-.259-.393q.59-.389,1.189-.765l.25.4Q1684.82,397.2,1684.234,397.589Zm68.83-1.222q-.6-.366-1.211-.719l.236-.407q.614.356,1.219.725Zm-65.241-.98-.233-.409q.613-.349,1.235-.685l.224.414Q1688.433,395.04,1687.823,395.387Zm61.564-1.1q-.625-.325-1.256-.639l.209-.422q.637.315,1.266.644Zm-57.84-.861-.206-.423q.634-.308,1.277-.6l.2.427Q1692.178,393.121,1691.548,393.427Zm54.032-.971q-.644-.284-1.3-.555l.18-.435q.657.273,1.305.56Zm-50.191-.74-.177-.436q.656-.267,1.318-.519l.168.439Q1696.04,391.451,1695.389,391.715Zm46.269-.839q-.662-.241-1.331-.469l.151-.446q.673.229,1.341.472Zm-42.313-.619-.148-.446q.671-.223,1.349-.43l.138.449Q1700.012,390.036,1699.346,390.257Zm38.3-.694q-.675-.2-1.354-.379l.121-.455q.685.183,1.364.382Zm-34.256-.5-.119-.456q.685-.177,1.375-.34l.109.457Q1704.069,388.887,1703.39,389.064Zm30.17-.546q-.684-.152-1.375-.288l.091-.462q.7.137,1.386.29Zm-26.056-.379-.088-.462q.694-.133,1.394-.25l.078.464Q1708.195,388.008,1707.5,388.139Zm21.911-.4q-.694-.105-1.392-.2l.061-.467q.7.092,1.4.2Zm-17.745-.257-.058-.467q.7-.087,1.408-.158l.047.468Q1712.366,387.4,1711.671,387.486Zm13.558-.242q-.7-.061-1.4-.106l.03-.47q.708.046,1.413.107Zm-9.358-.135-.027-.47q.705-.04,1.415-.066l.017.47Q1716.571,387.069,1715.87,387.109Zm5.147-.092q-.7-.015-1.406-.015v-.47q.71,0,1.416.015Z" transform="translate(-1654.781 -386.531)" fill="#2d3c47"/>
        </g>
      </g>
      <g id="Group_10595" data-name="Group 10595" transform="translate(0.157)">
        <g id="Group_10789" data-name="Group 10789">
          <g id="Group_10788" data-name="Group 10788" clip-path="url(#clip-path-3)">
            <g id="Group_10594" data-name="Group 10594" transform="translate(7.747 24.799)">
              <g id="Mask_Group_3" data-name="Mask Group 3">
                <g id="Group_10569" data-name="Group 10569">
                  <g id="Path_5428-2" data-name="Path 5428-2" transform="translate(0 54.866)">
                    <path id="Path_8575" data-name="Path 8575" d="M1729.793,555.633c-.089.088-.173.183-.261.271-.089-.088-.173-.183-.262-.271h0s-53.318,19.646-57.687,111.02h106.879C1774.094,575.279,1729.793,555.633,1729.793,555.633Z" transform="translate(-1671.583 -555.633)" fill="#1daee9"/>
                  </g>
                  <g id="Group_8650-2" data-name="Group 8650-2" transform="translate(23.739)">
                    <g id="Group_8808-2" data-name="Group 8808-2" transform="translate(0 27.247)">
                      <g id="Ellipse_389-2" data-name="Ellipse 389-2">
                        <circle id="Ellipse_3915" data-name="Ellipse 3915" cx="5.889" cy="5.889" r="5.889" fill="#f6bcbc"/>
                      </g>
                      <g id="Ellipse_390-2" data-name="Ellipse 390-2" transform="translate(56.417)">
                        <circle id="Ellipse_3916" data-name="Ellipse 3916" cx="5.889" cy="5.889" r="5.889" fill="#f6bcbc"/>
                      </g>
                    </g>
                    <g id="Rectangle_1821-2" data-name="Rectangle 1821-2" transform="translate(6.065)">
                      <path id="Path_8576" data-name="Path 8576" d="M1748.951,439.014H1776.9c7.743,0,14.02,5.972,14.02,13.34v30.43a4.757,4.757,0,0,1-4.871,4.635H1739.8a4.757,4.757,0,0,1-4.871-4.635v-30.43C1734.931,444.986,1741.208,439.014,1748.951,439.014Z" transform="translate(-1734.931 -439.014)" fill="#ffca00"/>
                    </g>
                    <g id="Rectangle_1823" data-name="Rectangle 1823" transform="translate(23.733 53.497)">
                      <rect id="Rectangle_2873" data-name="Rectangle 2873" width="21.336" height="8.34" rx="4.17" fill="#f6bcbc"/>
                    </g>
                    <g id="Path_6483-2" data-name="Path 6483-2" transform="translate(5.594 10.085)">
                      <path id="Path_8577" data-name="Path 8577" d="M1773.723,521.924h-22.657a17.131,17.131,0,0,1-17-19.26l4.738-37.909a4.917,4.917,0,0,1,4.879-4.306h37.427a4.917,4.917,0,0,1,4.878,4.306l4.739,37.909a17.131,17.131,0,0,1-17,19.26Z" transform="translate(-1733.932 -460.449)" fill="#f6bcbc"/>
                    </g>
                    <g id="Path_6322-2" data-name="Path 6322-2" transform="translate(27.159 14.21)">
                      <path id="Path_8578" data-name="Path 8578" d="M1779.767,501.015h14.673l-7.339-31.8Z" transform="translate(-1779.767 -469.217)" fill="#dd504d"/>
                    </g>
                    <g id="Group_8809-2" data-name="Group 8809-2" transform="translate(14.136 27.894)">
                      <g id="Ellipse_392-2-2" data-name="Ellipse 392-2-2" transform="translate(13.996 24.017)">
                        <path id="Path_8579" data-name="Path 8579" d="M1793.438,549.365a6.218,6.218,0,0,1-11.6-.013A23.994,23.994,0,0,0,1793.438,549.365Z" transform="translate(-1781.837 -549.352)" fill="#16142f"/>
                      </g>
                      <g id="Ellipse_3620" data-name="Ellipse 3620">
                        <ellipse id="Ellipse_3917" data-name="Ellipse 3917" cx="1.647" cy="1.411" rx="1.647" ry="1.411" fill="#16142f"/>
                      </g>
                      <g id="Ellipse_3621" data-name="Ellipse 3621" transform="translate(36.697)">
                        <circle id="Ellipse_3918" data-name="Ellipse 3918" cx="1.411" cy="1.411" r="1.411" fill="#16142f"/>
                      </g>
                    </g>
                    <g id="Group_8377" data-name="Group 8377" transform="translate(4.583 0.147)">
                      <g id="Ellipse_365" data-name="Ellipse 365" transform="translate(8.637 52.436)">
                        <circle id="Ellipse_3919" data-name="Ellipse 3919" cx="6.536" cy="6.536" r="6.536" fill="#052335"/>
                      </g>
                      <g id="Path_5431" data-name="Path 5431">
                        <path id="Path_8580" data-name="Path 8580" d="M1743.818,500.4c-8.81-8.2-11.328-16.214-11.888-21.491a22.044,22.044,0,0,1,.893-9.568V451.214a11.9,11.9,0,0,1,11.887-11.887h33.121a11.9,11.9,0,0,1,11.887,11.889v18.211h-.941V451.216a10.961,10.961,0,0,0-10.946-10.948H1744.71a10.958,10.958,0,0,0-10.946,10.947v18.3l-.033.085c-.059.146-5.667,14.843,10.729,30.108Z" transform="translate(-1731.782 -439.327)" fill="#052335"/>
                      </g>
                    </g>
                  </g>
                </g>
              </g>
            </g>
          </g>
        </g>
      </g>
    </g>
    <g id="Group_10597" data-name="Group 10597" transform="translate(1739.315 446.937)">
      <g id="Group_10791" data-name="Group 10791">
        <g id="Group_10790" data-name="Group 10790" clip-path="url(#clip-path-4)">
          <g id="Group_10596" data-name="Group 10596" transform="translate(2.826 15.835)">
            <g id="Mask_Group_4" data-name="Mask Group 4">
              <g id="Group_10424" data-name="Group 10424">
                <g id="Path_5239-2-2" data-name="Path 5239-2-2" transform="translate(0.193 67.067)">
                  <path id="Path_8581" data-name="Path 8581" d="M1914.309,967.919c-4.636-33.973.365-64.236,11.358-75.977a15.361,15.361,0,0,0-8.619-4.987c-16.757-2.83-34.985,28.854-40.714,70.753q-.526,3.8-.876,7.542a21.124,21.124,0,0,0,19.051,23c.667.064,1.336.09,2.006.09h21.751A182.7,182.7,0,0,1,1914.309,967.919Z" transform="translate(-1875.364 -886.779)" fill="#49b0a7"/>
                </g>
                <g id="Group_10105" data-name="Group 10105" transform="translate(0 11.847)">
                  <g id="Layer_2" data-name="Layer 2">
                    <g id="Group_8839" data-name="Group 8839">
                      <g id="Group_8228" data-name="Group 8228" transform="translate(47.567)">
                        <g id="Group_8212-2" data-name="Group 8212-2">
                          <g id="Group_7652-3" data-name="Group 7652-3" transform="translate(0 55.868)">
                            <g id="Group_7651-3" data-name="Group 7651-3">
                              <g id="Path_5239-2-2-2" data-name="Path 5239-2-2-2">
                                <path id="Path_8582" data-name="Path 8582" d="M1991.688,999.825c6.384-46.771-.5-88.4-15.63-104.564a21.159,21.159,0,0,1,11.861-6.864c23.06-3.894,48.147,39.71,56.029,97.373q.724,5.234,1.207,10.382Z" transform="translate(-1976.058 -888.156)" fill="#49b0a7"/>
                              </g>
                            </g>
                          </g>
                          <g id="Path_4277-3" data-name="Path 4277-3" transform="translate(3.346)">
                            <path id="Path_8583" data-name="Path 8583" d="M1983.17,769.408" transform="translate(-1983.17 -769.408)" fill="#189788"/>
                          </g>
                        </g>
                      </g>
                      <g id="Path_5240" data-name="Path 5240" transform="translate(0 49.826)">
                        <path id="Path_8584" data-name="Path 8584" d="M1939.4,879.624l.121.094c23.288,18.335,37.617,66.423,41.283,127.163H1874.953c3.666-60.738,18-108.827,41.287-127.163l.112-.094A17.559,17.559,0,0,1,1939.4,879.624Z" transform="translate(-1874.953 -875.314)" fill="#189788"/>
                      </g>
                      <g id="Ellipse_356" data-name="Ellipse 356" transform="translate(49.304 52.259)">
                        <path id="Path_8585" data-name="Path 8585" d="M1979.75,884.1a3.617,3.617,0,0,0,7.23,0l-3.617-3.615Z" transform="translate(-1979.75 -880.486)" fill="#12234b"/>
                      </g>
                      <g id="Path_5233-2" data-name="Path 5233-2" transform="translate(40.734 57.447)">
                        <path id="Path_8586" data-name="Path 8586" d="M1973.824,891.513l12.075,76.875L1973.824,989.4l-12.29-21.008,11.479-76.875Z" transform="translate(-1961.534 -891.513)" fill="#12234b"/>
                      </g>
                    </g>
                  </g>
                  <g id="Path_7706" data-name="Path 7706" transform="translate(42.387 49.83)">
                    <path id="Path_8587" data-name="Path 8587" d="M1980.92,883.272l5.182-4.439.005-.007a17.557,17.557,0,0,0-21.059.008l5.18,4.437,5.345-5.426Z" transform="translate(-1965.048 -875.323)" fill="#49b0a7"/>
                  </g>
                </g>
                <g id="Layer_11" data-name="Layer 11" transform="translate(21.565)">
                  <g id="Ellipse_94-3" data-name="Ellipse 94-3" transform="translate(0 29.638)">
                    <circle id="Ellipse_3921" data-name="Ellipse 3921" cx="5.416" cy="5.416" r="5.416" fill="#ce9e91"/>
                  </g>
                  <g id="Ellipse_95-3" data-name="Ellipse 95-3" transform="translate(51.871 29.638)">
                    <circle id="Ellipse_3922" data-name="Ellipse 3922" cx="5.416" cy="5.416" r="5.416" fill="#ce9e91"/>
                  </g>
                  <g id="Path_5236-2" data-name="Path 5236-2" transform="translate(5.421)">
                    <path id="Path_8588" data-name="Path 8588" d="M1958.049,744.227a25.729,25.729,0,0,1,25.737,25.718v5.865a25.738,25.738,0,1,1-51.474.441h0v-.235h0v-6.054a25.727,25.727,0,0,1,25.722-25.73h.011Z" transform="translate(-1932.312 -744.227)" fill="#ce9e91"/>
                  </g>
                  <g id="Path_5237-2" data-name="Path 5237-2" transform="translate(28.315 24.715)">
                    <path id="Path_8589" data-name="Path 8589" d="M1980.973,812.637h7.327l-3.662-15.878Z" transform="translate(-1980.973 -796.759)" fill="#b27664"/>
                  </g>
                  <g id="Path_7707" data-name="Path 7707" transform="translate(18.041 43.366)">
                    <path id="Path_8590" data-name="Path 8590" d="M1959.137,841.2l8.267-4.05,10.835-.753,9.464,3.61-7.079,6.678s-14.412-.125-15.173,0S1959.137,841.2,1959.137,841.2Z" transform="translate(-1959.137 -836.402)" fill="#ce9e91"/>
                  </g>
                  <g id="Ellipse_354-2" data-name="Ellipse 354-2" transform="translate(18.04 29.683)">
                    <circle id="Ellipse_3923" data-name="Ellipse 3923" cx="1.39" cy="1.39" r="1.39" fill="#0a2334"/>
                  </g>
                  <g id="Ellipse_355-2" data-name="Ellipse 355-2" transform="translate(43.144 29.683)">
                    <circle id="Ellipse_3924" data-name="Ellipse 3924" cx="1.39" cy="1.39" r="1.39" fill="#0a2334"/>
                  </g>
                  <g id="Path_7708" data-name="Path 7708" transform="translate(5.343 29.64)">
                    <path id="Path_8591" data-name="Path 8591" d="M1932.22,807.227c-1.684,29.415,25.957,36.013,25.957,36.013,26.767-3.736,25.914-36.013,25.914-36.013l-12.2,15.782a33.68,33.68,0,0,0-27.265.385Zm25.8,22.287h0a22.272,22.272,0,0,1-10.568-2.461.479.479,0,0,1,.125-.887,31.206,31.206,0,0,0,10.923-4.482,30.763,30.763,0,0,0,10.276,4.336.478.478,0,0,1,.129.881,22.17,22.17,0,0,1-10.886,2.613Z" transform="translate(-1932.146 -807.227)" fill="#3b5b6b"/>
                  </g>
                  <g id="Path_5238-2" data-name="Path 5238-2" transform="translate(26.842 46.947)">
                    <path id="Path_8592" data-name="Path 8592" d="M1977.844,845.75a6.844,6.844,0,0,0,4.387,1.391c2.906,0,5.283-1.394,5.283-3.127l-3.643.785Z" transform="translate(-1977.844 -844.014)" fill="#0a2334"/>
                  </g>
                </g>
              </g>
            </g>
          </g>
        </g>
      </g>
    </g>
    <g id="Line_51" data-name="Line 51" transform="translate(1738.26 413.751)">
      <path id="Path_8706" data-name="Path 8706" d="M1892.768,680.58l-.767-1.186.4-.255.767,1.186Zm-2.3-3.556-.766-1.185.4-.255.766,1.185Zm-2.3-3.555-.767-1.185.4-.255.767,1.185Zm-2.3-3.555-.766-1.185.4-.255.766,1.185Zm-2.3-3.555-.767-1.185.4-.255.766,1.185Zm-2.3-3.555-.767-1.185.4-.255.766,1.186Zm-2.3-3.555-.767-1.185.4-.255.767,1.185Zm-2.3-3.555-.766-1.185.395-.255.766,1.185Zm-2.3-3.555-.767-1.185.4-.255.767,1.185Zm-2.3-3.555-.766-1.186.395-.255.767,1.186Zm-2.3-3.555-.766-1.185.395-.255.767,1.185Zm-2.3-3.555-.767-1.185.4-.255.766,1.185Z" transform="translate(-1866.704 -640.031)" fill="#2d3c47"/>
    </g>
    <g id="Line_52" data-name="Line 52" transform="translate(1680.008 423.714)">
      <path id="Path_8707" data-name="Path 8707" d="M1743.35,712.6l-.462-.088.263-1.387.462.088Zm.791-4.159-.463-.089.264-1.386.462.088Zm.791-4.16-.462-.089.263-1.386.463.088Zm.791-4.16-.462-.089.264-1.386.462.089Zm.791-4.159-.462-.088.264-1.387.462.088Zm.792-4.16-.462-.088.264-1.387.462.088Zm.791-4.159-.463-.088.264-1.386.462.088Zm.791-4.159-.462-.089.263-1.386.463.088Zm.791-4.16-.462-.089.263-1.386.463.088Zm.792-4.159-.463-.088.264-1.387.462.089Zm.791-4.16-.462-.088.263-1.386.462.088Zm.791-4.16-.462-.088.264-1.386.462.088Zm.792-4.159-.463-.088.264-1.386.462.088Z" transform="translate(-1742.888 -661.209)" fill="#2d3c47"/>
    </g>
  </g>
</svg>
