<svg xmlns="http://www.w3.org/2000/svg" xmlns:xlink="http://www.w3.org/1999/xlink" width="1743.619" height="804.204" viewBox="0 0 1743.619 804.204">
  <defs>
    <clipPath id="clip-path">
      <circle id="Ellipse_3421" data-name="Ellipse 3421" cx="110.09" cy="110.09" r="110.09" fill="none" stroke="#22183d" stroke-miterlimit="10" stroke-width="1" stroke-dasharray="3 6"/>
    </clipPath>
  </defs>
  <g id="Group_10825" data-name="Group 10825" transform="translate(-25.674 -2179.271)">
    <g id="Group_10440" data-name="Group 10440" transform="translate(-28.636 1922.257)">
      <g id="Group_10451" data-name="Group 10451" transform="translate(54.811 257.062)">
        <g id="Group_9876" data-name="Group 9876" transform="translate(0 292.684)">
          <g id="Group_9875" data-name="Group 9875">
            <g id="Group_10445" data-name="Group 10445">
              <g id="Group_10444" data-name="Group 10444" clip-path="url(#clip-path)">
                <rect id="Rectangle_2080" data-name="Rectangle 2080" width="318.727" height="212.539" transform="translate(277.87 196.969) rotate(-180)" fill="#e6f9ff"/>
                <g id="Group_10441" data-name="Group 10441" transform="translate(166.085 20.884)">
                  <rect id="Rectangle_2081" data-name="Rectangle 2081" width="17.533" height="56.178" rx="8.766" transform="translate(60.896 78.308) rotate(-180)" fill="#ffd507"/>
                  <path id="Path_7568" data-name="Path 7568" d="M269.87,707.372h0a8.892,8.892,0,0,0,3.992-11.853L257.03,661a8.727,8.727,0,0,0-11.737-4.031h0a8.892,8.892,0,0,0-3.992,11.853l16.832,34.515A8.727,8.727,0,0,0,269.87,707.372Z" transform="translate(-238.491 -608.459)" fill="#ffd507"/>
                  <path id="Path_7569" data-name="Path 7569" d="M272.957,710.588s5.969-1.9,20.751,89.519V689.983" transform="translate(-241.578 -611.675)" fill="none" stroke="#00a69a" stroke-miterlimit="10" stroke-width="1"/>
                  <path id="Path_7570" data-name="Path 7570" d="M242.544,603.473s47.968,54.289,47.878,187.726a.182.182,0,0,1-.34.092l-51.79-93.6" transform="translate(-238.291 -603.473)" fill="none" stroke="#b3e4e1" stroke-miterlimit="10" stroke-width="8"/>
                  <path id="Path_7571" data-name="Path 7571" d="M295.881,797.867s2.392-83.468,32.859-131.506" transform="translate(-243.751 -609.435)" fill="none" stroke="#b3e4e1" stroke-miterlimit="10" stroke-width="8"/>
                </g>
                <g id="Group_10442" data-name="Group 10442" transform="translate(67.595 20.884)">
                  <rect id="Rectangle_2082" data-name="Rectangle 2082" width="17.533" height="56.178" rx="8.766" transform="translate(60.897 78.308) rotate(-180)" fill="#ffd507"/>
                  <path id="Path_7572" data-name="Path 7572" d="M161.065,707.372h0a8.892,8.892,0,0,0,3.992-11.853L148.226,661a8.728,8.728,0,0,0-11.738-4.031h0a8.893,8.893,0,0,0-3.992,11.853l16.832,34.515A8.727,8.727,0,0,0,161.065,707.372Z" transform="translate(-129.686 -608.459)" fill="#ffd507"/>
                  <path id="Path_7573" data-name="Path 7573" d="M164.152,710.588s5.969-1.9,20.751,89.519V689.983" transform="translate(-132.773 -611.675)" fill="none" stroke="#00a69a" stroke-miterlimit="10" stroke-width="1"/>
                  <path id="Path_7574" data-name="Path 7574" d="M133.739,603.473s47.968,54.289,47.878,187.726a.182.182,0,0,1-.339.092l-51.791-93.6" transform="translate(-129.486 -603.473)" fill="none" stroke="#b3e4e1" stroke-miterlimit="10" stroke-width="8"/>
                  <path id="Path_7575" data-name="Path 7575" d="M187.076,797.867s2.392-83.468,32.859-131.506" transform="translate(-134.946 -609.435)" fill="none" stroke="#b3e4e1" stroke-miterlimit="10" stroke-width="8"/>
                </g>
                <g id="Group_10443" data-name="Group 10443" transform="translate(-30.893 20.884)">
                  <rect id="Rectangle_2083" data-name="Rectangle 2083" width="17.533" height="56.178" rx="8.766" transform="translate(60.896 78.308) rotate(-180)" fill="#ffd507"/>
                  <path id="Path_7576" data-name="Path 7576" d="M52.261,707.372h0a8.893,8.893,0,0,0,3.992-11.853L39.421,661a8.728,8.728,0,0,0-11.738-4.031h0a8.893,8.893,0,0,0-3.992,11.853l16.832,34.515A8.728,8.728,0,0,0,52.261,707.372Z" transform="translate(-20.882 -608.459)" fill="#ffd507"/>
                  <path id="Path_7577" data-name="Path 7577" d="M55.348,710.588s5.968-1.9,20.751,89.519V689.983" transform="translate(-23.969 -611.675)" fill="none" stroke="#00a69a" stroke-miterlimit="10" stroke-width="1"/>
                  <path id="Path_7578" data-name="Path 7578" d="M24.934,603.473S72.9,657.762,72.813,791.2a.182.182,0,0,1-.34.092l-51.79-93.6" transform="translate(-20.682 -603.473)" fill="none" stroke="#b3e4e1" stroke-miterlimit="10" stroke-width="8"/>
                  <path id="Path_7579" data-name="Path 7579" d="M78.272,797.867S80.663,714.4,111.13,666.361" transform="translate(-26.142 -609.435)" fill="none" stroke="#b3e4e1" stroke-miterlimit="10" stroke-width="8"/>
                </g>
                <rect id="Rectangle_2084" data-name="Rectangle 2084" width="318.727" height="102.479" transform="translate(277.87 299.448) rotate(-180)" fill="#00a69a"/>
              </g>
              <circle id="Ellipse_3422" data-name="Ellipse 3422" cx="110.09" cy="110.09" r="110.09" fill="none" stroke="#22183d" stroke-miterlimit="10" stroke-width="1" stroke-dasharray="3 6"/>
            </g>
          </g>
        </g>
        <g id="Group_10450" data-name="Group 10450" transform="translate(29.406)">
          <g id="Group_10449" data-name="Group 10449">
            <ellipse id="Ellipse_2844" data-name="Ellipse 2844" cx="139.852" cy="138.494" rx="139.852" ry="138.494" fill="#b3ecff"/>
            <g id="Group_10447" data-name="Group 10447" transform="translate(22.96 97.234)">
              <g id="Group_10446" data-name="Group 10446">
                <path id="Path_7580" data-name="Path 7580" d="M152.885,427.753a14.18,14.18,0,0,0-4.349-.159,15.718,15.718,0,0,0-8.078,3.415,14.188,14.188,0,0,0-1.633,1.512c-.124.13-.245.261-.369.39,0-1.184,0-2.368-.02-3.552-.014-2.262-.044-4.523-.067-6.784.359-.3.709-.606,1.03-.911.226-.2.428-.408.63-.614.225-.187.467-.36.673-.552.429-.373.848-.739,1.229-1.122.42-.347.846-.672,1.23-1.027.2-.169.377-.362.578-.527s.409-.314.612-.472l.587-.493a3.9,3.9,0,0,1,.592-.479c1.565-1.3,3.225-2.431,5.046-3.717,1.849-1.286,3.839-2.54,6.36-4.174a9.928,9.928,0,0,0-4.051-1.74,14.21,14.21,0,0,0-4.349-.159A15.727,15.727,0,0,0,140.458,410a14.1,14.1,0,0,0-1.633,1.511c-.2.215-.407.426-.606.642-.048-2.587-.086-5.174-.156-7.761q-.024-1.259-.058-2.518c.494-.409.964-.811,1.394-1.219.226-.2.428-.407.63-.613.225-.188.467-.36.673-.552.429-.374.848-.74,1.229-1.123.42-.346.846-.672,1.23-1.027.2-.169.377-.361.578-.526s.409-.315.612-.473l.587-.493a3.894,3.894,0,0,1,.592-.479c1.565-1.3,3.225-2.431,5.046-3.717,1.849-1.285,3.839-2.54,6.36-4.173a9.9,9.9,0,0,0-4.051-1.74,14.181,14.181,0,0,0-4.349-.159A15.718,15.718,0,0,0,140.458,389a14.256,14.256,0,0,0-1.633,1.511c-.255.27-.517.53-.762.807s-.445.587-.657.887l0,0c-.012-.1-.017-.194-.029-.292a73.151,73.151,0,0,0-1.6-9.114c.831-.65,1.524-1.306,2.222-1.924.5-.41.966-.813,1.4-1.222.226-.2.428-.408.63-.614.225-.187.467-.36.673-.552.429-.373.848-.739,1.229-1.122.42-.347.846-.672,1.23-1.027.2-.169.377-.362.578-.527s.409-.315.612-.472l.587-.493a3.892,3.892,0,0,1,.592-.479c1.565-1.3,3.225-2.431,5.046-3.718,1.849-1.285,3.839-2.539,6.36-4.173a9.916,9.916,0,0,0-4.051-1.74,14.181,14.181,0,0,0-4.349-.159,15.718,15.718,0,0,0-8.078,3.415,14.185,14.185,0,0,0-1.633,1.512c-.255.269-.517.53-.762.806s-.445.587-.657.887c-.424.6-.831,1.21-1.2,1.836-.319.654-.6,1.327-.869,1.991-.142.328-.255.672-.373,1.007-.062.247-.115.5-.168.743-.053-.248-.107-.5-.167-.743-.119-.335-.232-.679-.373-1.007-.271-.664-.55-1.337-.869-1.991-.366-.626-.773-1.236-1.2-1.836-.212-.3-.422-.6-.657-.887s-.507-.537-.762-.806a14.264,14.264,0,0,0-1.633-1.512,15.717,15.717,0,0,0-8.079-3.415,14.176,14.176,0,0,0-4.349.159,9.925,9.925,0,0,0-4.052,1.74c2.522,1.634,4.511,2.888,6.361,4.173,1.821,1.286,3.481,2.42,5.046,3.718a3.892,3.892,0,0,1,.592.479l.586.493c.2.157.4.321.613.472s.377.358.578.527c.384.356.81.681,1.23,1.027.38.384.8.749,1.229,1.122.206.192.448.365.673.552.2.205.4.415.63.614.432.409.9.812,1.4,1.222.7.618,1.391,1.274,2.221,1.924a73.147,73.147,0,0,0-1.595,9.114c-.012.1-.017.195-.029.292l0,0c-.212-.3-.422-.6-.657-.887s-.507-.537-.762-.807A14.336,14.336,0,0,0,129.14,389a15.717,15.717,0,0,0-8.079-3.415,14.176,14.176,0,0,0-4.349.159,9.913,9.913,0,0,0-4.052,1.74c2.522,1.633,4.511,2.888,6.361,4.173,1.821,1.285,3.481,2.42,5.046,3.717a3.894,3.894,0,0,1,.592.479l.586.493c.2.158.4.322.613.473s.377.357.578.526c.384.356.81.682,1.23,1.027.38.384.8.749,1.229,1.123.206.192.448.364.673.552.2.206.4.414.63.613.431.408.9.81,1.395,1.219q-.033,1.259-.058,2.518c-.07,2.587-.109,5.174-.156,7.761-.2-.215-.4-.427-.606-.642A14.177,14.177,0,0,0,129.14,410a15.727,15.727,0,0,0-8.079-3.416,14.2,14.2,0,0,0-4.349.159,9.937,9.937,0,0,0-4.052,1.74c2.522,1.634,4.511,2.888,6.361,4.174,1.821,1.285,3.481,2.42,5.046,3.717a3.9,3.9,0,0,1,.592.479l.586.493c.2.158.4.321.613.472s.377.358.578.527c.384.356.81.681,1.23,1.027.38.384.8.749,1.229,1.122.206.192.448.365.673.552.2.205.4.415.63.614.322.305.671.607,1.03.911-.022,2.261-.052,4.523-.067,6.784-.015,1.184-.014,2.368-.02,3.552l-.368-.39a14.266,14.266,0,0,0-1.633-1.512,15.718,15.718,0,0,0-8.079-3.415,14.175,14.175,0,0,0-4.349.159,9.912,9.912,0,0,0-4.052,1.74c2.522,1.634,4.511,2.888,6.361,4.173,1.821,1.286,3.481,2.42,5.046,3.718a3.944,3.944,0,0,1,.592.478l.586.493c.2.157.4.322.613.473s.377.357.578.526c.384.356.81.682,1.23,1.028.38.383.8.749,1.229,1.122.206.192.448.364.673.552.2.205.4.414.63.613.3.284.624.566.956.848l.019,4.564.1,6.241c.127,8.321.358,16.642.829,24.963h5.4c.473-8.321.7-16.643.829-24.963l.1-6.241.018-4.564c.333-.282.656-.564.956-.848.226-.2.428-.407.63-.613.225-.188.467-.36.673-.552.429-.374.848-.74,1.229-1.122.42-.347.846-.673,1.23-1.028.2-.169.377-.361.578-.526s.409-.315.612-.473l.587-.493a3.944,3.944,0,0,1,.592-.478c1.565-1.3,3.225-2.431,5.046-3.718,1.849-1.285,3.839-2.539,6.36-4.173A9.9,9.9,0,0,0,152.885,427.753Z" transform="translate(-112.661 -364.48)" fill="#00a69a"/>
                <path id="Path_7581" data-name="Path 7581" d="M236.277,427.753a14.181,14.181,0,0,0-4.349-.159,15.718,15.718,0,0,0-8.078,3.415,14.192,14.192,0,0,0-1.633,1.512c-.124.13-.245.261-.369.39,0-1.184,0-2.368-.02-3.552-.014-2.261-.044-4.523-.067-6.784.359-.3.709-.606,1.03-.911.226-.2.428-.408.63-.614.225-.187.467-.36.673-.552.429-.373.848-.739,1.229-1.122.42-.347.846-.672,1.23-1.027.2-.169.377-.362.578-.527s.409-.314.612-.472l.587-.493a3.9,3.9,0,0,1,.592-.479c1.565-1.3,3.225-2.431,5.046-3.717,1.849-1.286,3.839-2.54,6.36-4.174a9.928,9.928,0,0,0-4.051-1.74,14.21,14.21,0,0,0-4.349-.159A15.727,15.727,0,0,0,223.85,410a14.1,14.1,0,0,0-1.633,1.511c-.2.215-.407.426-.606.642-.048-2.587-.086-5.174-.156-7.761q-.024-1.259-.058-2.518c.494-.409.964-.811,1.394-1.219.226-.2.428-.407.63-.613.225-.188.467-.36.673-.552.429-.374.848-.74,1.229-1.123.42-.346.846-.672,1.23-1.027.2-.169.377-.361.578-.526s.409-.315.612-.473l.587-.493a3.894,3.894,0,0,1,.592-.479c1.565-1.3,3.225-2.431,5.046-3.717,1.849-1.285,3.839-2.54,6.36-4.173a9.9,9.9,0,0,0-4.051-1.74,14.182,14.182,0,0,0-4.349-.159A15.718,15.718,0,0,0,223.85,389a14.26,14.26,0,0,0-1.633,1.511c-.255.27-.517.53-.762.807s-.445.587-.657.887l0,0c-.012-.1-.017-.194-.029-.292a73.148,73.148,0,0,0-1.6-9.114c.831-.65,1.524-1.306,2.222-1.924.5-.41.967-.813,1.4-1.222.226-.2.428-.408.63-.614.225-.187.467-.36.673-.552.429-.373.848-.739,1.229-1.122.42-.347.846-.672,1.23-1.027.2-.169.377-.362.578-.527s.409-.315.612-.472l.587-.493a3.892,3.892,0,0,1,.592-.479c1.565-1.3,3.225-2.431,5.046-3.718,1.849-1.285,3.839-2.539,6.36-4.173a9.916,9.916,0,0,0-4.051-1.74,14.182,14.182,0,0,0-4.349-.159,15.718,15.718,0,0,0-8.078,3.415,14.189,14.189,0,0,0-1.633,1.512c-.255.269-.517.53-.762.806s-.445.587-.657.887c-.424.6-.832,1.21-1.2,1.836-.319.654-.6,1.327-.869,1.991-.142.328-.255.672-.373,1.007-.062.247-.115.5-.168.743-.052-.248-.107-.5-.167-.743-.119-.335-.232-.679-.373-1.007-.271-.664-.55-1.337-.869-1.991-.366-.626-.773-1.236-1.2-1.836-.212-.3-.422-.6-.657-.887s-.507-.537-.762-.806a14.339,14.339,0,0,0-1.633-1.512,15.717,15.717,0,0,0-8.079-3.415,14.176,14.176,0,0,0-4.349.159,9.925,9.925,0,0,0-4.052,1.74c2.522,1.634,4.511,2.888,6.361,4.173,1.821,1.286,3.481,2.42,5.046,3.718a3.892,3.892,0,0,1,.592.479l.586.493c.2.157.4.321.613.472s.377.358.578.527c.384.356.81.681,1.23,1.027.38.384.8.749,1.229,1.122.206.192.448.365.673.552.2.205.4.415.63.614.432.409.9.812,1.4,1.222.7.618,1.391,1.274,2.221,1.924a73.144,73.144,0,0,0-1.595,9.114c-.012.1-.018.195-.029.292l0,0c-.212-.3-.422-.6-.657-.887s-.507-.537-.762-.807A14.412,14.412,0,0,0,212.532,389a15.717,15.717,0,0,0-8.079-3.415,14.176,14.176,0,0,0-4.349.159,9.913,9.913,0,0,0-4.052,1.74c2.522,1.633,4.511,2.888,6.361,4.173,1.821,1.285,3.481,2.42,5.046,3.717a3.894,3.894,0,0,1,.592.479l.586.493c.2.158.4.322.613.473s.377.357.578.526c.384.356.81.682,1.23,1.027.38.384.8.749,1.229,1.123.206.192.448.364.673.552.2.206.4.414.63.613.431.408.9.81,1.395,1.219q-.033,1.259-.058,2.518c-.07,2.587-.109,5.174-.156,7.761-.2-.215-.4-.427-.606-.642A14.251,14.251,0,0,0,212.532,410a15.727,15.727,0,0,0-8.079-3.416,14.2,14.2,0,0,0-4.349.159,9.937,9.937,0,0,0-4.052,1.74c2.522,1.634,4.511,2.888,6.361,4.174,1.821,1.285,3.481,2.42,5.046,3.717a3.9,3.9,0,0,1,.592.479l.586.493c.2.158.4.321.613.472s.377.358.578.527c.384.356.81.681,1.23,1.027.38.384.8.749,1.229,1.122.206.192.448.365.673.552.2.205.4.415.63.614.322.305.671.607,1.03.911-.023,2.261-.052,4.523-.067,6.784-.015,1.184-.014,2.368-.02,3.552l-.368-.39a14.342,14.342,0,0,0-1.633-1.512,15.718,15.718,0,0,0-8.079-3.415,14.175,14.175,0,0,0-4.349.159,9.912,9.912,0,0,0-4.052,1.74c2.522,1.634,4.511,2.888,6.361,4.173,1.821,1.286,3.481,2.42,5.046,3.718a3.944,3.944,0,0,1,.592.478l.586.493c.2.157.4.322.613.473s.377.357.578.526c.384.356.81.682,1.23,1.028.38.383.8.749,1.229,1.122.206.192.448.364.673.552.2.205.4.414.63.613.3.284.624.566.956.848l.019,4.564.1,6.241c.127,8.321.358,16.642.829,24.963h5.4c.473-8.321.7-16.643.829-24.963l.1-6.241.018-4.564c.333-.282.656-.564.956-.848.226-.2.428-.407.63-.613.225-.188.467-.36.673-.552.429-.374.848-.74,1.229-1.122.42-.347.846-.673,1.23-1.028.2-.169.377-.361.578-.526s.409-.315.612-.473l.587-.493a3.944,3.944,0,0,1,.592-.478c1.565-1.3,3.225-2.431,5.046-3.718,1.849-1.285,3.839-2.539,6.36-4.173A9.9,9.9,0,0,0,236.277,427.753Z" transform="translate(-120.567 -364.48)" fill="#00a69a"/>
                <path id="Path_7582" data-name="Path 7582" d="M319.668,427.753a14.174,14.174,0,0,0-4.349-.159,15.718,15.718,0,0,0-8.078,3.415,14.191,14.191,0,0,0-1.633,1.512c-.124.129-.245.261-.369.39,0-1.184,0-2.368-.02-3.552-.014-2.262-.044-4.523-.067-6.784.359-.3.709-.606,1.03-.911.226-.2.428-.408.63-.614.225-.187.467-.36.673-.552.429-.373.848-.739,1.229-1.122.42-.347.846-.672,1.23-1.027.2-.169.377-.362.578-.527s.409-.314.612-.472l.587-.493a3.894,3.894,0,0,1,.592-.479c1.565-1.3,3.225-2.431,5.046-3.717,1.849-1.286,3.839-2.54,6.36-4.174a9.927,9.927,0,0,0-4.052-1.74,14.2,14.2,0,0,0-4.349-.159A15.727,15.727,0,0,0,307.242,410a14.1,14.1,0,0,0-1.633,1.511c-.2.215-.407.426-.606.642-.048-2.587-.086-5.174-.156-7.761q-.024-1.259-.058-2.518c.494-.409.964-.811,1.394-1.219.226-.2.428-.407.63-.613.225-.188.467-.36.673-.552.429-.374.848-.74,1.229-1.123.42-.346.846-.672,1.23-1.027.2-.169.377-.361.578-.526s.409-.315.612-.473l.587-.493a3.892,3.892,0,0,1,.592-.479c1.565-1.3,3.225-2.431,5.046-3.717,1.849-1.285,3.839-2.54,6.36-4.173a9.9,9.9,0,0,0-4.052-1.74,14.175,14.175,0,0,0-4.349-.159A15.718,15.718,0,0,0,307.242,389a14.259,14.259,0,0,0-1.633,1.511c-.255.27-.517.53-.762.807s-.445.587-.657.887l0,0c-.011-.1-.016-.194-.028-.292a73.313,73.313,0,0,0-1.595-9.114c.83-.65,1.523-1.306,2.22-1.924.5-.41.967-.813,1.4-1.222.226-.2.428-.408.63-.614.225-.187.467-.36.673-.552.429-.373.848-.739,1.229-1.122.42-.347.846-.672,1.23-1.027.2-.169.377-.362.578-.527s.409-.315.612-.472l.587-.493a3.89,3.89,0,0,1,.592-.479c1.565-1.3,3.225-2.431,5.046-3.718,1.849-1.285,3.839-2.539,6.36-4.173a9.914,9.914,0,0,0-4.052-1.74,14.175,14.175,0,0,0-4.349-.159,15.718,15.718,0,0,0-8.078,3.415,14.188,14.188,0,0,0-1.633,1.512c-.255.269-.517.53-.762.806s-.445.587-.657.887c-.424.6-.832,1.21-1.2,1.836-.319.654-.6,1.327-.869,1.991-.142.328-.255.672-.373,1.007-.062.247-.115.5-.168.743-.053-.248-.107-.5-.167-.743-.119-.335-.232-.679-.373-1.007-.271-.664-.55-1.337-.869-1.991-.366-.626-.773-1.236-1.2-1.836-.212-.3-.422-.6-.657-.887s-.507-.537-.762-.806a14.336,14.336,0,0,0-1.633-1.512,15.721,15.721,0,0,0-8.079-3.415,14.175,14.175,0,0,0-4.349.159,9.925,9.925,0,0,0-4.052,1.74c2.522,1.634,4.511,2.888,6.361,4.173,1.821,1.286,3.481,2.42,5.046,3.718a3.894,3.894,0,0,1,.592.479l.586.493c.2.157.4.321.613.472s.377.358.578.527c.384.356.81.681,1.23,1.027.38.384.8.749,1.229,1.122.206.192.448.365.673.552.2.205.4.415.63.614.432.409.9.812,1.4,1.222.7.618,1.391,1.274,2.221,1.924a73.144,73.144,0,0,0-1.595,9.114c-.012.1-.017.195-.029.292l0,0c-.212-.3-.422-.6-.657-.887s-.507-.537-.762-.807A14.408,14.408,0,0,0,295.924,389a15.721,15.721,0,0,0-8.079-3.415,14.175,14.175,0,0,0-4.349.159,9.913,9.913,0,0,0-4.052,1.74c2.522,1.633,4.511,2.888,6.361,4.173,1.821,1.285,3.481,2.42,5.046,3.717a3.9,3.9,0,0,1,.592.479l.586.493c.2.158.4.322.613.473s.377.357.578.526c.384.356.81.682,1.23,1.027.38.384.8.749,1.229,1.123.206.192.448.364.673.552.2.206.4.414.63.613.431.408.9.81,1.395,1.219q-.033,1.259-.058,2.518c-.07,2.587-.109,5.174-.156,7.761-.2-.215-.4-.427-.606-.642A14.248,14.248,0,0,0,295.924,410a15.73,15.73,0,0,0-8.079-3.416,14.2,14.2,0,0,0-4.349.159,9.937,9.937,0,0,0-4.052,1.74c2.522,1.634,4.511,2.888,6.361,4.174,1.821,1.285,3.481,2.42,5.046,3.717a3.9,3.9,0,0,1,.592.479l.586.493c.2.158.4.321.613.472s.377.358.578.527c.384.356.81.681,1.23,1.027.38.384.8.749,1.229,1.122.206.192.448.365.673.552.2.205.4.415.63.614.322.305.671.607,1.03.911-.022,2.261-.052,4.522-.067,6.784-.015,1.184-.014,2.368-.02,3.552-.124-.129-.245-.26-.368-.39a14.338,14.338,0,0,0-1.633-1.512,15.721,15.721,0,0,0-8.079-3.415,14.175,14.175,0,0,0-4.349.159,9.912,9.912,0,0,0-4.052,1.74c2.522,1.634,4.511,2.888,6.361,4.173,1.821,1.286,3.481,2.42,5.046,3.718a3.946,3.946,0,0,1,.592.478l.586.493c.2.157.4.322.613.473s.377.357.578.526c.384.356.81.682,1.23,1.028.38.383.8.749,1.229,1.122.206.192.448.364.673.552.2.205.4.414.63.613.3.284.624.566.956.848l.019,4.564.1,6.241c.127,8.321.358,16.642.829,24.963h5.4c.472-8.321.7-16.643.829-24.963l.1-6.241.018-4.564c.333-.282.656-.564.956-.848.226-.2.428-.407.63-.613.225-.188.467-.36.673-.552.429-.374.848-.74,1.229-1.122.42-.347.846-.673,1.23-1.028.2-.169.377-.361.578-.526s.409-.315.612-.473l.587-.493a3.942,3.942,0,0,1,.592-.478c1.565-1.3,3.225-2.431,5.046-3.718,1.849-1.285,3.839-2.539,6.36-4.173A9.9,9.9,0,0,0,319.668,427.753Z" transform="translate(-128.474 -364.48)" fill="#00a69a"/>
              </g>
            </g>
            <path id="Path_7583" data-name="Path 7583" d="M104.446,480.18a140.529,140.529,0,0,0,248.657,0Z" transform="translate(-88.923 -278.216)" fill="#b3e4e1"/>
            <path id="Path_7584" data-name="Path 7584" d="M191.11,439.7a15.73,15.73,0,0,0-8.079,3.416,14.418,14.418,0,0,0-1.633,1.511c-.123.13-.244.262-.368.391-.005-1.185,0-2.369-.02-3.552-.015-2.261-.044-4.523-.067-6.784.359-.3.709-.606,1.03-.911.225-.2.427-.408.63-.614.225-.188.466-.36.673-.552.429-.373.849-.739,1.23-1.122.42-.347.846-.672,1.23-1.027.2-.169.377-.361.577-.527.213-.15.41-.315.613-.472l.586-.493a3.987,3.987,0,0,1,.592-.479c1.565-1.3,3.226-2.431,5.046-3.718,1.849-1.285,3.839-2.539,6.361-4.173a9.924,9.924,0,0,0-4.052-1.74,14.177,14.177,0,0,0-4.349-.159,15.729,15.729,0,0,0-8.079,3.415,14.342,14.342,0,0,0-1.633,1.512c-.2.215-.406.426-.606.642-.047-2.587-.085-5.174-.156-7.761q-.024-1.26-.057-2.518c.493-.409.963-.811,1.394-1.219.225-.2.427-.408.63-.614.225-.187.466-.36.673-.551.429-.374.849-.74,1.23-1.123.42-.346.846-.672,1.23-1.027.2-.169.377-.361.577-.526s.41-.315.613-.473l.586-.493a4.044,4.044,0,0,1,.592-.479c1.565-1.3,3.226-2.431,5.046-3.717,1.849-1.286,3.839-2.54,6.361-4.173a9.913,9.913,0,0,0-4.052-1.74,14.2,14.2,0,0,0-4.349-.16,15.73,15.73,0,0,0-8.079,3.416,14.253,14.253,0,0,0-1.633,1.511c-.255.27-.517.531-.762.807s-.444.587-.657.887l0,0c-.011-.1-.017-.195-.028-.292a73.152,73.152,0,0,0-1.6-9.114c.831-.651,1.524-1.306,2.221-1.924.5-.41.967-.813,1.4-1.222.225-.2.427-.408.63-.614.225-.188.466-.36.673-.552.429-.374.849-.739,1.23-1.122.42-.347.846-.672,1.23-1.028.2-.169.377-.361.577-.526s.41-.315.613-.473l.586-.492a3.985,3.985,0,0,1,.592-.479c1.565-1.3,3.226-2.431,5.046-3.718,1.849-1.285,3.839-2.539,6.361-4.173a9.924,9.924,0,0,0-4.052-1.74,14.176,14.176,0,0,0-4.349-.159,15.721,15.721,0,0,0-8.079,3.415,14.342,14.342,0,0,0-1.633,1.512c-.255.269-.517.53-.762.807s-.444.586-.657.886c-.424.6-.831,1.21-1.2,1.836-.319.654-.6,1.326-.869,1.991-.141.329-.254.673-.372,1.007-.062.247-.115.5-.168.743-.053-.248-.107-.5-.168-.743-.118-.335-.231-.679-.372-1.007-.271-.664-.55-1.336-.869-1.991-.366-.625-.773-1.236-1.2-1.836-.213-.3-.423-.6-.658-.886s-.507-.538-.761-.807a14.341,14.341,0,0,0-1.633-1.512,15.724,15.724,0,0,0-8.079-3.415,14.176,14.176,0,0,0-4.349.159,9.919,9.919,0,0,0-4.052,1.74c2.521,1.634,4.511,2.888,6.361,4.173,1.82,1.286,3.481,2.42,5.046,3.718a3.932,3.932,0,0,1,.591.479l.587.492c.2.157.4.322.613.473s.376.357.577.526c.384.357.81.682,1.23,1.028.381.384.8.749,1.229,1.122.207.192.448.364.673.552.2.206.4.414.63.614.432.409.9.812,1.4,1.222.7.618,1.39,1.274,2.221,1.924a73.157,73.157,0,0,0-1.6,9.114c-.012.1-.017.194-.028.292l0,0c-.213-.3-.423-.6-.658-.887s-.507-.537-.761-.807a14.252,14.252,0,0,0-1.633-1.511,15.734,15.734,0,0,0-8.079-3.416,14.2,14.2,0,0,0-4.349.16,9.907,9.907,0,0,0-4.052,1.74c2.521,1.633,4.511,2.887,6.361,4.173,1.82,1.285,3.481,2.42,5.046,3.717a3.989,3.989,0,0,1,.591.479l.587.493c.2.158.4.322.613.473s.376.357.577.526c.384.356.81.682,1.23,1.027.381.384.8.75,1.229,1.123.207.191.448.364.673.551.2.205.4.415.63.614.43.408.9.81,1.394,1.219q-.033,1.259-.057,2.518c-.071,2.587-.109,5.174-.156,7.761-.2-.215-.4-.427-.606-.642a14.341,14.341,0,0,0-1.633-1.512,15.732,15.732,0,0,0-8.079-3.415,14.177,14.177,0,0,0-4.349.159,9.919,9.919,0,0,0-4.052,1.74c2.521,1.634,4.511,2.888,6.361,4.173,1.82,1.286,3.481,2.421,5.046,3.718a3.934,3.934,0,0,1,.591.479l.587.493c.2.157.4.321.613.472.2.166.376.358.577.527.384.356.81.681,1.23,1.027.381.384.8.75,1.229,1.122.207.192.448.364.673.552.2.205.4.414.63.614.321.305.671.607,1.03.911-.023,2.261-.052,4.523-.067,6.784-.015,1.183-.015,2.367-.02,3.552-.124-.129-.245-.261-.368-.391a14.416,14.416,0,0,0-1.633-1.511,15.733,15.733,0,0,0-8.079-3.416,14.2,14.2,0,0,0-4.349.16,9.907,9.907,0,0,0-4.052,1.74c2.521,1.633,4.511,2.888,6.361,4.173,1.82,1.286,3.481,2.42,5.046,3.717a3.989,3.989,0,0,1,.591.479l.587.493c.2.158.4.322.613.473s.376.357.577.526c.384.356.81.682,1.23,1.028.381.383.8.749,1.229,1.122.207.192.448.364.673.552.2.205.4.415.63.613.3.284.624.566.956.848l.019,4.564.1,6.241c.127,8.321.358,16.642.829,24.963h5.4c.472-8.321.7-16.643.829-24.963l.1-6.241.019-4.564c.332-.282.656-.564.956-.848.225-.2.427-.407.63-.613.225-.188.466-.36.673-.552.429-.374.849-.74,1.23-1.122.42-.347.846-.673,1.23-1.028.2-.169.377-.361.577-.526s.41-.315.613-.473l.586-.493a4.044,4.044,0,0,1,.592-.479c1.565-1.3,3.226-2.43,5.046-3.717,1.849-1.285,3.839-2.54,6.361-4.173a9.913,9.913,0,0,0-4.052-1.74A14.2,14.2,0,0,0,191.11,439.7Z" transform="translate(-93.738 -268.395)" fill="#00a69a"/>
            <path id="Path_7585" data-name="Path 7585" d="M274.5,439.7a15.73,15.73,0,0,0-8.079,3.416,14.416,14.416,0,0,0-1.633,1.511c-.123.13-.244.262-.368.391-.005-1.185,0-2.369-.02-3.552-.015-2.261-.044-4.522-.067-6.784.359-.3.708-.606,1.03-.911.225-.2.427-.408.63-.614.224-.188.466-.36.673-.552.429-.373.849-.739,1.23-1.122.419-.347.846-.672,1.23-1.027.2-.169.377-.361.577-.527.213-.15.409-.315.613-.472l.586-.493a3.942,3.942,0,0,1,.592-.479c1.565-1.3,3.226-2.431,5.046-3.718,1.849-1.285,3.839-2.539,6.361-4.173a9.924,9.924,0,0,0-4.052-1.74,14.176,14.176,0,0,0-4.349-.159,15.729,15.729,0,0,0-8.079,3.415,14.34,14.34,0,0,0-1.633,1.512c-.2.215-.406.426-.607.642-.047-2.587-.085-5.174-.156-7.761q-.024-1.26-.057-2.518c.493-.409.963-.811,1.394-1.219.225-.2.427-.408.63-.614.224-.187.466-.36.673-.551.429-.374.849-.74,1.23-1.123.419-.346.846-.672,1.23-1.027.2-.169.377-.361.577-.526s.409-.315.613-.473l.586-.493a4,4,0,0,1,.592-.479c1.565-1.3,3.226-2.431,5.046-3.717,1.849-1.286,3.839-2.54,6.361-4.173a9.913,9.913,0,0,0-4.052-1.74,14.2,14.2,0,0,0-4.349-.16,15.731,15.731,0,0,0-8.079,3.416,14.252,14.252,0,0,0-1.633,1.511c-.255.27-.517.531-.762.807s-.444.587-.657.887l0,0c-.011-.1-.017-.195-.028-.292a73.149,73.149,0,0,0-1.6-9.114c.831-.651,1.524-1.306,2.221-1.924.5-.41.967-.813,1.4-1.222.225-.2.427-.408.63-.614.224-.188.466-.36.673-.552.429-.374.849-.739,1.23-1.122.419-.347.846-.672,1.23-1.028.2-.169.377-.361.577-.526s.409-.315.613-.473l.586-.492a3.94,3.94,0,0,1,.592-.479c1.565-1.3,3.226-2.431,5.046-3.718,1.849-1.285,3.839-2.539,6.361-4.173a9.924,9.924,0,0,0-4.052-1.74,14.176,14.176,0,0,0-4.349-.159,15.721,15.721,0,0,0-8.079,3.415,14.34,14.34,0,0,0-1.633,1.512c-.255.269-.517.53-.762.807s-.444.586-.657.886c-.424.6-.831,1.21-1.2,1.836-.319.654-.6,1.326-.869,1.991-.141.329-.254.673-.372,1.007-.062.247-.115.5-.168.743-.053-.248-.107-.5-.168-.743-.118-.335-.231-.679-.373-1.007-.27-.664-.549-1.336-.868-1.991-.366-.625-.773-1.236-1.2-1.836-.213-.3-.423-.6-.657-.886s-.508-.538-.762-.807a14.34,14.34,0,0,0-1.633-1.512,15.724,15.724,0,0,0-8.079-3.415,14.176,14.176,0,0,0-4.349.159,9.92,9.92,0,0,0-4.052,1.74c2.521,1.634,4.511,2.888,6.361,4.173,1.82,1.286,3.481,2.42,5.046,3.718a3.93,3.93,0,0,1,.591.479l.587.492c.2.157.4.322.613.473s.376.357.577.526c.384.357.81.682,1.23,1.028.381.384.8.749,1.229,1.122.207.192.448.364.673.552.2.206.4.414.63.614.432.409.9.812,1.4,1.222.7.618,1.39,1.274,2.221,1.924a73.149,73.149,0,0,0-1.6,9.114c-.012.1-.017.195-.028.292l0,0c-.213-.3-.423-.6-.657-.887s-.508-.537-.762-.807a14.252,14.252,0,0,0-1.633-1.511,15.734,15.734,0,0,0-8.079-3.416,14.2,14.2,0,0,0-4.349.16,9.908,9.908,0,0,0-4.052,1.74c2.521,1.633,4.511,2.887,6.361,4.173,1.82,1.285,3.481,2.42,5.046,3.717a3.987,3.987,0,0,1,.591.479l.587.493c.2.158.4.322.613.473s.376.357.577.526c.384.356.81.682,1.23,1.027.381.384.8.75,1.229,1.123.207.191.448.364.673.551.2.205.4.415.63.614.43.408.9.81,1.394,1.219q-.033,1.259-.057,2.518c-.071,2.587-.109,5.174-.156,7.761-.2-.215-.4-.427-.607-.642a14.34,14.34,0,0,0-1.633-1.512,15.732,15.732,0,0,0-8.079-3.415,14.177,14.177,0,0,0-4.349.159,9.92,9.92,0,0,0-4.052,1.74c2.521,1.634,4.511,2.888,6.361,4.173,1.82,1.286,3.481,2.421,5.046,3.718a3.932,3.932,0,0,1,.591.479l.587.493c.2.157.4.321.613.472.2.166.376.358.577.527.384.356.81.681,1.23,1.027.381.384.8.75,1.229,1.122.207.192.448.364.673.552.2.205.4.414.63.614.321.305.671.607,1.03.911-.023,2.261-.052,4.523-.067,6.784-.016,1.183-.014,2.367-.02,3.552-.124-.129-.245-.261-.368-.391a14.416,14.416,0,0,0-1.633-1.511,15.733,15.733,0,0,0-8.079-3.416,14.2,14.2,0,0,0-4.349.16,9.908,9.908,0,0,0-4.052,1.74c2.521,1.633,4.511,2.888,6.361,4.173,1.82,1.286,3.481,2.42,5.046,3.717a3.987,3.987,0,0,1,.591.479l.587.493c.2.158.4.322.613.473s.376.357.577.526c.384.356.81.682,1.23,1.028.381.383.8.749,1.229,1.122.207.192.448.364.673.552.2.205.4.415.63.613.3.284.624.566.956.848l.019,4.564.1,6.241c.127,8.321.357,16.642.829,24.963h5.4c.472-8.321.7-16.643.829-24.963l.1-6.241.019-4.564c.332-.282.656-.564.956-.848.225-.2.427-.407.63-.613.224-.188.466-.36.673-.552.429-.374.849-.74,1.23-1.122.419-.347.846-.673,1.23-1.028.2-.169.377-.361.577-.526s.409-.315.613-.473l.586-.493a4,4,0,0,1,.592-.479c1.565-1.3,3.226-2.43,5.046-3.717,1.849-1.285,3.839-2.54,6.361-4.173a9.913,9.913,0,0,0-4.052-1.74A14.2,14.2,0,0,0,274.5,439.7Z" transform="translate(-101.644 -268.395)" fill="#00a69a"/>
            <path id="Path_7586" data-name="Path 7586" d="M349.388,412.156c.224-.187.466-.36.673-.551.429-.374.849-.74,1.229-1.123.421-.346.847-.672,1.23-1.027.2-.169.378-.361.578-.526s.409-.315.613-.473l.586-.493a4,4,0,0,1,.592-.479c1.565-1.3,3.226-2.431,5.046-3.717,1.849-1.286,3.839-2.54,6.361-4.173a9.913,9.913,0,0,0-4.052-1.74,14.2,14.2,0,0,0-4.349-.16,15.73,15.73,0,0,0-8.079,3.416,14.252,14.252,0,0,0-1.633,1.511c-.255.27-.517.531-.762.807s-.445.587-.657.887l0,0c-.011-.1-.017-.195-.028-.292a73.149,73.149,0,0,0-1.6-9.114c.831-.651,1.524-1.306,2.221-1.924.5-.41.967-.813,1.4-1.222.225-.2.427-.408.63-.614.224-.188.466-.36.673-.552.429-.374.849-.739,1.229-1.122.421-.347.847-.672,1.23-1.028.2-.169.378-.361.578-.526s.409-.315.613-.473l.586-.492a3.939,3.939,0,0,1,.592-.479c1.565-1.3,3.226-2.431,5.046-3.718,1.849-1.285,3.839-2.539,6.361-4.173a9.924,9.924,0,0,0-4.052-1.74,14.176,14.176,0,0,0-4.349-.159,15.721,15.721,0,0,0-8.079,3.415,14.341,14.341,0,0,0-1.633,1.512c-.255.269-.517.53-.762.807s-.445.586-.657.886c-.424.6-.831,1.21-1.2,1.836-.319.654-.6,1.326-.869,1.991-.141.329-.254.673-.372,1.007-.062.247-.115.5-.168.743-.053-.248-.107-.5-.168-.743-.118-.335-.231-.679-.373-1.007-.27-.664-.549-1.336-.868-1.991-.366-.625-.773-1.236-1.2-1.836-.213-.3-.423-.6-.658-.886s-.507-.538-.761-.807A14.34,14.34,0,0,0,338.5,380.1a15.724,15.724,0,0,0-8.079-3.415,14.175,14.175,0,0,0-4.349.159,9.92,9.92,0,0,0-4.052,1.74c2.521,1.634,4.511,2.888,6.361,4.173,1.82,1.286,3.481,2.42,5.046,3.718a3.93,3.93,0,0,1,.591.479l.587.492c.2.157.4.322.613.473s.376.357.577.526c.384.357.81.682,1.23,1.028.381.384.8.749,1.229,1.122.207.192.448.364.673.552.2.206.4.414.63.614.432.409.9.812,1.4,1.222.7.618,1.39,1.274,2.221,1.924a73.149,73.149,0,0,0-1.6,9.114c-.012.1-.017.195-.028.292l0,0c-.213-.3-.423-.6-.658-.887s-.507-.537-.761-.807a14.252,14.252,0,0,0-1.633-1.511,15.734,15.734,0,0,0-8.079-3.416,14.2,14.2,0,0,0-4.349.16,9.908,9.908,0,0,0-4.052,1.74c2.521,1.633,4.511,2.887,6.361,4.173,1.82,1.285,3.481,2.42,5.046,3.717a3.987,3.987,0,0,1,.591.479l.587.493c.2.158.4.322.613.473s.376.357.577.526c.384.356.81.682,1.23,1.027.381.384.8.75,1.229,1.123.207.191.448.364.673.551.2.205.4.415.63.614.43.408.9.81,1.394,1.219q-.033,1.259-.057,2.518c-.071,2.587-.109,5.174-.156,7.761-.2-.215-.4-.427-.607-.642a14.34,14.34,0,0,0-1.633-1.512,15.732,15.732,0,0,0-8.079-3.415,14.176,14.176,0,0,0-4.349.159,9.92,9.92,0,0,0-4.052,1.74c2.521,1.634,4.511,2.888,6.361,4.173,1.82,1.286,3.481,2.421,5.046,3.718a3.932,3.932,0,0,1,.591.479l.587.493c.2.157.4.321.613.472.2.166.376.358.577.527.384.356.81.681,1.23,1.027.381.384.8.75,1.229,1.122.207.192.448.364.673.552.2.205.4.414.63.614.321.305.671.607,1.03.911-.023,2.261-.052,4.523-.067,6.784-.015,1.183-.015,2.367-.02,3.552-.124-.129-.245-.261-.368-.391a14.416,14.416,0,0,0-1.633-1.511,15.733,15.733,0,0,0-8.079-3.416,14.2,14.2,0,0,0-4.349.16,9.908,9.908,0,0,0-4.052,1.74c2.521,1.633,4.511,2.888,6.361,4.173,1.82,1.286,3.481,2.42,5.046,3.717a3.987,3.987,0,0,1,.591.479l.587.493c.2.158.4.322.613.473s.376.357.577.526c.384.356.81.682,1.23,1.028.381.383.8.749,1.229,1.122.207.192.448.364.673.552.2.205.4.415.63.613.3.284.624.566.956.848l.019,4.564.1,6.241c.127,8.321.358,16.642.829,24.963h5.4c.472-8.321.7-16.643.829-24.963l.1-6.241.019-4.564c.332-.282.656-.564.956-.848.225-.2.427-.407.63-.613.224-.188.466-.36.673-.552.429-.374.849-.74,1.229-1.122.421-.347.847-.673,1.23-1.028.2-.169.378-.361.578-.526s.409-.315.613-.473l.586-.493a4,4,0,0,1,.592-.479c1.565-1.3,3.226-2.43,5.046-3.717,1.849-1.285,3.839-2.54,6.361-4.173a9.913,9.913,0,0,0-4.052-1.74,14.2,14.2,0,0,0-4.349-.16,15.73,15.73,0,0,0-8.079,3.416,14.416,14.416,0,0,0-1.633,1.511c-.123.13-.244.262-.368.391-.005-1.185,0-2.369-.02-3.552-.015-2.261-.044-4.523-.067-6.784.359-.3.709-.606,1.03-.911.225-.2.427-.408.63-.614.224-.188.466-.36.673-.552.429-.373.849-.739,1.229-1.122.421-.347.847-.672,1.23-1.027.2-.169.378-.361.578-.527.213-.15.409-.315.613-.472l.586-.493a3.941,3.941,0,0,1,.592-.479c1.565-1.3,3.226-2.431,5.046-3.718,1.849-1.285,3.839-2.539,6.361-4.173a9.924,9.924,0,0,0-4.052-1.74,14.176,14.176,0,0,0-4.349-.159,15.729,15.729,0,0,0-8.079,3.415,14.341,14.341,0,0,0-1.633,1.512c-.2.215-.406.426-.606.642-.047-2.587-.085-5.174-.156-7.761q-.024-1.26-.057-2.518c.493-.409.963-.811,1.394-1.219C348.983,412.571,349.185,412.361,349.388,412.156Z" transform="translate(-109.551 -268.395)" fill="#00a69a"/>
            <g id="Group_9863" data-name="Group 9863" transform="translate(0.453 0.453)">
              <g id="Group_9862" data-name="Group 9862">
                <g id="Group_10448" data-name="Group 10448">
                  <ellipse id="Ellipse_3423" data-name="Ellipse 3423" cx="139.399" cy="138.041" rx="139.399" ry="138.041" fill="none" stroke="#22183d" stroke-miterlimit="10" stroke-width="1" stroke-dasharray="3 6"/>
                </g>
              </g>
            </g>
          </g>
        </g>
      </g>
      <g id="Group_10017" data-name="Group 10017" transform="translate(1491.636 621.692)">
        <path id="Path_6311" data-name="Path 6311" d="M1720.821,838.833c-.377,14.886-5.031,30.092-1.125,44.648,4.123,15.365,16.427,26.865,23.194,41.082,16.314,34.269,4.073,74.6-34.378,95.529-23.694,12.9-51.878,17.323-79.267,18.968-36.531,2.2-75.47-3-103.976-22.716-31.711-21.935-45.181-59.879-33.973-95.012,5.773-18.095,20.372-33.545,25.3-51.865,5.465-20.333-8.539-36.566-10.818-55.926-3-25.5,18.939-46.49,24.755-71.174,5.064-21.5,2-48.546,22.962-64.323,43.857-33.005,141.488-22.937,141.216,46.019-.04,10.075.193,23.772.515,33.848.464,14.489,6.245,22.174,13.264,34.211a90.949,90.949,0,0,1,12.327,42.884C1720.855,836.277,1720.854,837.554,1720.821,838.833Z" transform="translate(-1443.642 -659.883)" fill="#002e45"/>
        <circle id="Ellipse_385" data-name="Ellipse 385" cx="13.545" cy="13.545" r="13.545" transform="translate(221.256 93.26)" fill="#7287b1"/>
        <circle id="Ellipse_386" data-name="Ellipse 386" cx="13.545" cy="13.545" r="13.545" transform="translate(91.5 93.26)" fill="#7287b1"/>
        <path id="Path_6312" data-name="Path 6312" d="M1609.668,875.507h0s110.518,17.461,121.313,244.346H1489.2c10.793-226.889,120.472-244.346,120.472-244.346Z" transform="translate(-1443.813 -680.326)" fill="#da291c"/>
        <rect id="Rectangle_1820" data-name="Rectangle 1820" width="124.507" height="160.197" rx="40.756" transform="translate(108.167 20.544)" fill="#7287b1"/>
        <circle id="Ellipse_387" data-name="Ellipse 387" cx="4.315" cy="4.315" r="4.315" transform="translate(205.04 92.013)" fill="#002e45"/>
        <g id="Group_8646" data-name="Group 8646" transform="translate(51.324 79.446)">
          <g id="Group_8645" data-name="Group 8645">
            <path id="Path_6313" data-name="Path 6313" d="M1499.365,760.529l16.49-9.639,3.843-2.245a7.291,7.291,0,0,1,9.964,2.612l14.921,25.527a7.288,7.288,0,0,1-2.612,9.964l-6.921,4.047a8.276,8.276,0,0,0-3.416,10.4,211.8,211.8,0,0,0,25.862,44.247,8.273,8.273,0,0,0,10.74,2.123l6.921-4.044a7.29,7.29,0,0,1,9.964,2.612l14.926,25.516a7.288,7.288,0,0,1-2.612,9.964l-3.843,2.247L1577.1,893.5a7.326,7.326,0,0,1-7.766-.259c-17.165-11.519-34.991-30.973-49.362-55.562s-22.573-49.664-24.189-70.273A7.3,7.3,0,0,1,1499.365,760.529Z" transform="translate(-1495.759 -747.651)" fill="#b3ecff"/>
          </g>
        </g>
        <circle id="Ellipse_388" data-name="Ellipse 388" cx="4.315" cy="4.315" r="4.315" transform="translate(127.171 92.013)" fill="#002e45"/>
        <path id="Path_6314" data-name="Path 6314" d="M1639.12,788.8h-26.342l13.17-57.071Z" transform="translate(-1455.529 -666.695)" fill="#566585"/>
        <path id="Path_6315" data-name="Path 6315" d="M1515.653,833.636s18.521-25.55,3.836-40.427l-15.142,13.476,1.234,21.048Z" transform="translate(-1445.249 -672.524)" fill="#7287b1"/>
        <path id="Path_6316" data-name="Path 6316" d="M1498.226,808.011s-91.126,145.842-47.2,305.443h83.926s-53.155-201.3-25.286-278Z" transform="translate(-1439.059 -673.927)" fill="#da291c"/>
        <path id="Path_6317" data-name="Path 6317" d="M1544.281,730.593h97.025l12.032-29.277,10.027,29.277H1688V696.637L1665.273,682.6l-41.211-8.857L1570.35,682.6l-19.72,17.047Z" transform="translate(-1449.035 -661.197)" fill="#002e45"/>
        <path id="Path_6318" data-name="Path 6318" d="M1646.89,810.429a21.85,21.85,0,0,1-43.7,0Z" transform="translate(-1454.62 -674.156)" fill="#002e45"/>
      </g>
      <g id="Group_10496" data-name="Group 10496" transform="translate(231.766 283.153)">
        <g id="Group_9877" data-name="Group 9877" transform="translate(152.948 0)">
          <g id="Group_9884" data-name="Group 9884">
            <g id="Group_10492" data-name="Group 10492">
              <g id="Group_10490" data-name="Group 10490" transform="translate(19.958 124.336)">
                <g id="Group_10489" data-name="Group 10489">
                  <g id="Group_10488" data-name="Group 10488">
                    <g id="Group_10457" data-name="Group 10457" transform="translate(0 0)">
                      <g id="Group_10453" data-name="Group 10453" transform="translate(0 19.167)">
                        <path id="Path_7587" data-name="Path 7587" d="M466.365,537.865a53.324,53.324,0,0,1-3.921-5.222q-1.788-2.656-3.347-5.368a114.743,114.743,0,0,1-5.557-11.022,145.817,145.817,0,0,1-7.805-22.88,144.194,144.194,0,0,1-4.032-23.835,113.615,113.615,0,0,1-.345-12.34q.088-3.128.4-6.315a52.906,52.906,0,0,1,.982-6.462,52.835,52.835,0,0,1,3.936,5.218q1.791,2.654,3.355,5.365a113.733,113.733,0,0,1,5.561,11.022,144.214,144.214,0,0,1,7.781,22.887,145.845,145.845,0,0,1,4.005,23.842,114.516,114.516,0,0,1,.349,12.339q-.087,3.13-.394,6.314A53.321,53.321,0,0,1,466.365,537.865Z" transform="translate(-441.317 -444.42)" fill="#4dc1b8"/>
                        <g id="Group_10452" data-name="Group 10452" transform="translate(11.33 39.183)">
                          <path id="Path_7588" data-name="Path 7588" d="M467.551,541.969a131.828,131.828,0,0,1-4.911-13.191q-2.13-6.677-3.838-13.462t-3.026-13.667a130.192,130.192,0,0,1-1.943-13.941,130.2,130.2,0,0,1,4.915,13.19q2.13,6.678,3.833,13.464t3.021,13.668A131.6,131.6,0,0,1,467.551,541.969Z" transform="translate(-453.834 -487.707)" fill="#00a69a"/>
                        </g>
                      </g>
                      <g id="Group_10454" data-name="Group 10454" transform="translate(16.638)">
                        <ellipse id="Ellipse_3424" data-name="Ellipse 3424" cx="2.656" cy="4.626" rx="2.656" ry="4.626" transform="translate(0 93.597) rotate(-45)" fill="#ffd507"/>
                        <ellipse id="Ellipse_3425" data-name="Ellipse 3425" cx="4.626" cy="2.656" rx="4.626" ry="2.656" transform="translate(6.747 93.208) rotate(-45)" fill="#ffd507"/>
                        <ellipse id="Ellipse_3426" data-name="Ellipse 3426" cx="2.656" cy="4.626" rx="2.656" ry="4.626" transform="translate(0 86.686) rotate(-45)" fill="#ffd507"/>
                        <ellipse id="Ellipse_3427" data-name="Ellipse 3427" cx="4.626" cy="2.656" rx="4.626" ry="2.656" transform="translate(6.747 86.297) rotate(-45)" fill="#ffd507"/>
                        <ellipse id="Ellipse_3428" data-name="Ellipse 3428" cx="2.656" cy="4.626" rx="2.656" ry="4.626" transform="translate(0 79.775) rotate(-45)" fill="#ffd507"/>
                        <ellipse id="Ellipse_3429" data-name="Ellipse 3429" cx="4.626" cy="2.656" rx="4.626" ry="2.656" transform="translate(6.747 79.386) rotate(-45)" fill="#ffd507"/>
                        <ellipse id="Ellipse_3430" data-name="Ellipse 3430" cx="2.656" cy="4.626" rx="2.656" ry="4.626" transform="translate(0 72.864) rotate(-45)" fill="#ffd507"/>
                        <ellipse id="Ellipse_3431" data-name="Ellipse 3431" cx="4.626" cy="2.656" rx="4.626" ry="2.656" transform="translate(6.747 72.475) rotate(-45)" fill="#ffd507"/>
                        <ellipse id="Ellipse_3432" data-name="Ellipse 3432" cx="2.656" cy="4.626" rx="2.656" ry="4.626" transform="translate(0 65.954) rotate(-45)" fill="#ffd507"/>
                        <ellipse id="Ellipse_3433" data-name="Ellipse 3433" cx="4.626" cy="2.656" rx="4.626" ry="2.656" transform="translate(6.747 65.564) rotate(-45)" fill="#ffd507"/>
                        <ellipse id="Ellipse_3434" data-name="Ellipse 3434" cx="2.656" cy="4.626" rx="2.656" ry="4.626" transform="translate(0 59.043) rotate(-45)" fill="#ffd507"/>
                        <ellipse id="Ellipse_3435" data-name="Ellipse 3435" cx="4.626" cy="2.656" rx="4.626" ry="2.656" transform="translate(6.747 58.654) rotate(-45)" fill="#ffd507"/>
                        <ellipse id="Ellipse_3436" data-name="Ellipse 3436" cx="2.656" cy="4.626" rx="2.656" ry="4.626" transform="translate(0 52.132) rotate(-45)" fill="#ffd507"/>
                        <ellipse id="Ellipse_3437" data-name="Ellipse 3437" cx="4.626" cy="2.656" rx="4.626" ry="2.656" transform="translate(6.747 51.743) rotate(-45)" fill="#ffd507"/>
                        <ellipse id="Ellipse_3438" data-name="Ellipse 3438" cx="2.656" cy="4.626" rx="2.656" ry="4.626" transform="translate(0 45.221) rotate(-45)" fill="#ffd507"/>
                        <ellipse id="Ellipse_3439" data-name="Ellipse 3439" cx="4.626" cy="2.656" rx="4.626" ry="2.656" transform="translate(6.747 44.832) rotate(-45)" fill="#ffd507"/>
                        <ellipse id="Ellipse_3440" data-name="Ellipse 3440" cx="2.656" cy="4.626" rx="2.656" ry="4.626" transform="translate(0 38.31) rotate(-45)" fill="#ffd507"/>
                        <ellipse id="Ellipse_3441" data-name="Ellipse 3441" cx="4.626" cy="2.656" rx="4.626" ry="2.656" transform="translate(6.747 37.921) rotate(-45)" fill="#ffd507"/>
                        <ellipse id="Ellipse_3442" data-name="Ellipse 3442" cx="2.656" cy="4.626" rx="2.656" ry="4.626" transform="translate(0 31.399) rotate(-45)" fill="#ffd507"/>
                        <ellipse id="Ellipse_3443" data-name="Ellipse 3443" cx="4.626" cy="2.656" rx="4.626" ry="2.656" transform="translate(6.747 31.01) rotate(-45)" fill="#ffd507"/>
                        <ellipse id="Ellipse_3444" data-name="Ellipse 3444" cx="2.656" cy="4.626" rx="2.656" ry="4.626" transform="translate(0 24.488) rotate(-45)" fill="#ffd507"/>
                        <ellipse id="Ellipse_3445" data-name="Ellipse 3445" cx="4.626" cy="2.656" rx="4.626" ry="2.656" transform="translate(6.747 24.099) rotate(-45)" fill="#ffd507"/>
                        <ellipse id="Ellipse_3446" data-name="Ellipse 3446" cx="2.656" cy="4.626" rx="2.656" ry="4.626" transform="translate(0 17.577) rotate(-45)" fill="#ffd507"/>
                        <ellipse id="Ellipse_3447" data-name="Ellipse 3447" cx="4.626" cy="2.656" rx="4.626" ry="2.656" transform="translate(6.747 17.188) rotate(-45)" fill="#ffd507"/>
                        <ellipse id="Ellipse_3448" data-name="Ellipse 3448" cx="2.656" cy="4.626" rx="2.656" ry="4.626" transform="translate(0 10.666) rotate(-45)" fill="#ffd507"/>
                        <ellipse id="Ellipse_3449" data-name="Ellipse 3449" cx="4.626" cy="2.656" rx="4.626" ry="2.656" transform="translate(6.747 10.277) rotate(-45)" fill="#ffd507"/>
                        <ellipse id="Ellipse_3450" data-name="Ellipse 3450" cx="2.656" cy="4.626" rx="2.656" ry="4.626" transform="translate(0 3.756) rotate(-45)" fill="#ffd507"/>
                      </g>
                      <g id="Group_10456" data-name="Group 10456" transform="translate(23.647 19.167)">
                        <path id="Path_7589" data-name="Path 7589" d="M468.841,537.865a53.328,53.328,0,0,1-.969-6.458q-.311-3.185-.394-6.314a114.753,114.753,0,0,1,.349-12.339,145.942,145.942,0,0,1,4.006-23.842,144.3,144.3,0,0,1,7.78-22.887A113.742,113.742,0,0,1,485.175,455q1.564-2.71,3.355-5.365a52.682,52.682,0,0,1,3.935-5.218,52.752,52.752,0,0,1,.983,6.462q.315,3.185.4,6.315a113.621,113.621,0,0,1-.346,12.34,144.2,144.2,0,0,1-4.031,23.835,145.922,145.922,0,0,1-7.806,22.88,114.547,114.547,0,0,1-5.557,11.022q-1.563,2.712-3.346,5.368A53.194,53.194,0,0,1,468.841,537.865Z" transform="translate(-467.441 -444.42)" fill="#4dc1b8"/>
                        <g id="Group_10455" data-name="Group 10455" transform="translate(1.4 39.183)">
                          <path id="Path_7590" data-name="Path 7590" d="M468.988,541.969a131.6,131.6,0,0,1,1.949-13.94q1.3-6.888,3.021-13.668T477.79,500.9a129.992,129.992,0,0,1,4.916-13.19,129.962,129.962,0,0,1-1.943,13.941q-1.3,6.888-3.026,13.667T473.9,528.777A131.6,131.6,0,0,1,468.988,541.969Z" transform="translate(-468.988 -487.707)" fill="#00a69a"/>
                        </g>
                      </g>
                    </g>
                    <g id="Group_10463" data-name="Group 10463" transform="translate(54.865)">
                      <g id="Group_10459" data-name="Group 10459" transform="translate(17.988 41.561)">
                        <path id="Path_7591" data-name="Path 7591" d="M524.262,540.21a35.966,35.966,0,0,1-1.323-5.059q-.489-2.486-.748-4.913a69.858,69.858,0,0,1-.358-9.54,85.025,85.025,0,0,1,2.591-18.243,83.984,83.984,0,0,1,6.365-17.288,69.166,69.166,0,0,1,4.853-8.223q1.388-2.011,3-3.966a35.8,35.8,0,0,1,3.582-3.819,35.659,35.659,0,0,1,1.336,5.063q.493,2.486.756,4.915a69.159,69.159,0,0,1,.363,9.541,84.059,84.059,0,0,1-2.616,18.237,85,85,0,0,1-6.391,17.282,69.818,69.818,0,0,1-4.849,8.223q-1.386,2.012-2.993,3.968A36.018,36.018,0,0,1,524.262,540.21Z" transform="translate(-521.8 -469.159)" fill="#4dc1b8"/>
                        <g id="Group_10458" data-name="Group 10458" transform="translate(2.462 29.793)">
                          <path id="Path_7592" data-name="Path 7592" d="M524.52,543.331a76.976,76.976,0,0,1,1.127-10.689q.888-5.261,2.2-10.418t3.012-10.212a75.97,75.97,0,0,1,4.093-9.938,76.162,76.162,0,0,1-1.121,10.69q-.889,5.261-2.205,10.416t-3.016,10.211A76.89,76.89,0,0,1,524.52,543.331Z" transform="translate(-524.52 -502.073)" fill="#00a69a"/>
                        </g>
                      </g>
                      <g id="Group_10460" data-name="Group 10460" transform="translate(11.816)">
                        <ellipse id="Ellipse_3451" data-name="Ellipse 3451" cx="4.626" cy="2.656" rx="4.626" ry="2.656" transform="translate(6.747 96.383) rotate(-45)" fill="#ffd507"/>
                        <ellipse id="Ellipse_3452" data-name="Ellipse 3452" cx="2.656" cy="4.626" rx="2.656" ry="4.626" transform="translate(0 90.422) rotate(-45)" fill="#ffd507"/>
                        <ellipse id="Ellipse_3453" data-name="Ellipse 3453" cx="4.626" cy="2.656" rx="4.626" ry="2.656" transform="translate(6.747 89.473) rotate(-45)" fill="#ffd507"/>
                        <ellipse id="Ellipse_3454" data-name="Ellipse 3454" cx="2.656" cy="4.626" rx="2.656" ry="4.626" transform="translate(0 83.511) rotate(-45)" fill="#ffd507"/>
                        <ellipse id="Ellipse_3455" data-name="Ellipse 3455" cx="4.626" cy="2.656" rx="4.626" ry="2.656" transform="translate(6.747 82.562) rotate(-45)" fill="#ffd507"/>
                        <ellipse id="Ellipse_3456" data-name="Ellipse 3456" cx="2.656" cy="4.626" rx="2.656" ry="4.626" transform="translate(0 76.6) rotate(-45)" fill="#ffd507"/>
                        <ellipse id="Ellipse_3457" data-name="Ellipse 3457" cx="4.626" cy="2.656" rx="4.626" ry="2.656" transform="translate(6.747 75.651) rotate(-45)" fill="#ffd507"/>
                        <ellipse id="Ellipse_3458" data-name="Ellipse 3458" cx="2.656" cy="4.626" rx="2.656" ry="4.626" transform="translate(0 69.689) rotate(-45)" fill="#ffd507"/>
                        <ellipse id="Ellipse_3459" data-name="Ellipse 3459" cx="4.626" cy="2.656" rx="4.626" ry="2.656" transform="translate(6.747 68.74) rotate(-45)" fill="#ffd507"/>
                        <ellipse id="Ellipse_3460" data-name="Ellipse 3460" cx="2.656" cy="4.626" rx="2.656" ry="4.626" transform="translate(0 62.778) rotate(-45)" fill="#ffd507"/>
                        <ellipse id="Ellipse_3461" data-name="Ellipse 3461" cx="4.626" cy="2.656" rx="4.626" ry="2.656" transform="translate(6.747 61.829) rotate(-45)" fill="#ffd507"/>
                        <ellipse id="Ellipse_3462" data-name="Ellipse 3462" cx="2.656" cy="4.626" rx="2.656" ry="4.626" transform="translate(0 55.867) rotate(-45)" fill="#ffd507"/>
                        <ellipse id="Ellipse_3463" data-name="Ellipse 3463" cx="4.626" cy="2.656" rx="4.626" ry="2.656" transform="translate(6.747 54.918) rotate(-45)" fill="#ffd507"/>
                        <ellipse id="Ellipse_3464" data-name="Ellipse 3464" cx="2.656" cy="4.626" rx="2.656" ry="4.626" transform="translate(0 48.956) rotate(-45)" fill="#ffd507"/>
                        <ellipse id="Ellipse_3465" data-name="Ellipse 3465" cx="4.626" cy="2.656" rx="4.626" ry="2.656" transform="translate(6.747 48.007) rotate(-45)" fill="#ffd507"/>
                        <ellipse id="Ellipse_3466" data-name="Ellipse 3466" cx="2.656" cy="4.626" rx="2.656" ry="4.626" transform="translate(0 42.045) rotate(-45)" fill="#ffd507"/>
                        <ellipse id="Ellipse_3467" data-name="Ellipse 3467" cx="4.626" cy="2.656" rx="4.626" ry="2.656" transform="translate(6.747 41.096) rotate(-45)" fill="#ffd507"/>
                        <ellipse id="Ellipse_3468" data-name="Ellipse 3468" cx="2.656" cy="4.626" rx="2.656" ry="4.626" transform="translate(0 35.135) rotate(-45)" fill="#ffd507"/>
                        <ellipse id="Ellipse_3469" data-name="Ellipse 3469" cx="4.626" cy="2.656" rx="4.626" ry="2.656" transform="translate(6.747 34.186) rotate(-45)" fill="#ffd507"/>
                        <ellipse id="Ellipse_3470" data-name="Ellipse 3470" cx="2.656" cy="4.626" rx="2.656" ry="4.626" transform="translate(0 28.224) rotate(-45)" fill="#ffd507"/>
                        <ellipse id="Ellipse_3471" data-name="Ellipse 3471" cx="4.626" cy="2.656" rx="4.626" ry="2.656" transform="translate(6.747 27.275) rotate(-45)" fill="#ffd507"/>
                        <ellipse id="Ellipse_3472" data-name="Ellipse 3472" cx="2.656" cy="4.626" rx="2.656" ry="4.626" transform="translate(0 21.313) rotate(-45)" fill="#ffd507"/>
                        <ellipse id="Ellipse_3473" data-name="Ellipse 3473" cx="4.626" cy="2.656" rx="4.626" ry="2.656" transform="translate(6.747 20.364) rotate(-45)" fill="#ffd507"/>
                        <ellipse id="Ellipse_3474" data-name="Ellipse 3474" cx="2.656" cy="4.626" rx="2.656" ry="4.626" transform="translate(0 14.402) rotate(-45)" fill="#ffd507"/>
                        <ellipse id="Ellipse_3475" data-name="Ellipse 3475" cx="4.626" cy="2.656" rx="4.626" ry="2.656" transform="translate(6.747 13.453) rotate(-45)" fill="#ffd507"/>
                        <ellipse id="Ellipse_3476" data-name="Ellipse 3476" cx="2.656" cy="4.626" rx="2.656" ry="4.626" transform="translate(0 7.491) rotate(-45)" fill="#ffd507"/>
                        <ellipse id="Ellipse_3477" data-name="Ellipse 3477" cx="4.626" cy="2.656" rx="4.626" ry="2.656" transform="translate(6.747 6.542) rotate(-45)" fill="#ffd507"/>
                      </g>
                      <g id="Group_10462" data-name="Group 10462" transform="translate(0 41.561)">
                        <path id="Path_7593" data-name="Path 7593" d="M522.378,540.21a36,36,0,0,1-3.567-3.823q-1.612-1.955-2.993-3.968a69.826,69.826,0,0,1-4.849-8.223,85.009,85.009,0,0,1-6.391-17.282,84.063,84.063,0,0,1-2.616-18.237,69.169,69.169,0,0,1,.363-9.541q.265-2.429.755-4.915a35.788,35.788,0,0,1,1.337-5.063A35.787,35.787,0,0,1,508,472.978q1.614,1.954,3,3.966a69.158,69.158,0,0,1,4.853,8.223,84.037,84.037,0,0,1,6.365,17.288,85.013,85.013,0,0,1,2.591,18.243,69.829,69.829,0,0,1-.358,9.54q-.263,2.429-.748,4.913A35.981,35.981,0,0,1,522.378,540.21Z" transform="translate(-501.928 -469.159)" fill="#4dc1b8"/>
                        <g id="Group_10461" data-name="Group 10461" transform="translate(10.02 29.793)">
                          <path id="Path_7594" data-name="Path 7594" d="M523.428,543.331a77.02,77.02,0,0,1-4.089-9.94q-1.719-5.052-3.016-10.211t-2.2-10.416A76.017,76.017,0,0,1,513,502.073a76.113,76.113,0,0,1,4.093,9.938q1.719,5.052,3.012,10.212c.866,3.439,1.607,6.91,2.2,10.418A76.966,76.966,0,0,1,523.428,543.331Z" transform="translate(-512.998 -502.073)" fill="#00a69a"/>
                        </g>
                      </g>
                    </g>
                    <g id="Group_10469" data-name="Group 10469" transform="translate(100.534)">
                      <g id="Group_10465" data-name="Group 10465" transform="translate(0 19.167)">
                        <path id="Path_7595" data-name="Path 7595" d="M577.429,537.865a53.339,53.339,0,0,1-3.921-5.222q-1.788-2.656-3.347-5.368a114.969,114.969,0,0,1-5.557-11.022,145.805,145.805,0,0,1-7.805-22.88,144.29,144.29,0,0,1-4.032-23.835,113.84,113.84,0,0,1-.345-12.34q.088-3.128.4-6.315a52.912,52.912,0,0,1,.982-6.462,52.836,52.836,0,0,1,3.936,5.218q1.791,2.654,3.355,5.365a113.733,113.733,0,0,1,5.561,11.022,144.217,144.217,0,0,1,7.781,22.887,145.942,145.942,0,0,1,4.006,23.842,114.769,114.769,0,0,1,.349,12.339q-.087,3.13-.394,6.314A53.309,53.309,0,0,1,577.429,537.865Z" transform="translate(-552.381 -444.42)" fill="#4dc1b8"/>
                        <g id="Group_10464" data-name="Group 10464" transform="translate(11.33 39.183)">
                          <path id="Path_7596" data-name="Path 7596" d="M578.615,541.969a131.813,131.813,0,0,1-4.911-13.191q-2.13-6.677-3.837-13.462t-3.026-13.667a129.977,129.977,0,0,1-1.943-13.941,130.2,130.2,0,0,1,4.915,13.19q2.13,6.678,3.833,13.464t3.021,13.668A131.62,131.62,0,0,1,578.615,541.969Z" transform="translate(-564.898 -487.707)" fill="#00a69a"/>
                        </g>
                      </g>
                      <g id="Group_10466" data-name="Group 10466" transform="translate(16.638)">
                        <ellipse id="Ellipse_3478" data-name="Ellipse 3478" cx="2.656" cy="4.626" rx="2.656" ry="4.626" transform="translate(0 93.597) rotate(-45)" fill="#ffd507"/>
                        <ellipse id="Ellipse_3479" data-name="Ellipse 3479" cx="4.626" cy="2.656" rx="4.626" ry="2.656" transform="translate(6.747 93.208) rotate(-45)" fill="#ffd507"/>
                        <ellipse id="Ellipse_3480" data-name="Ellipse 3480" cx="2.656" cy="4.626" rx="2.656" ry="4.626" transform="translate(0 86.686) rotate(-45)" fill="#ffd507"/>
                        <ellipse id="Ellipse_3481" data-name="Ellipse 3481" cx="4.626" cy="2.656" rx="4.626" ry="2.656" transform="translate(6.747 86.297) rotate(-45)" fill="#ffd507"/>
                        <ellipse id="Ellipse_3482" data-name="Ellipse 3482" cx="2.656" cy="4.626" rx="2.656" ry="4.626" transform="translate(0 79.775) rotate(-45)" fill="#ffd507"/>
                        <ellipse id="Ellipse_3483" data-name="Ellipse 3483" cx="4.626" cy="2.656" rx="4.626" ry="2.656" transform="translate(6.747 79.386) rotate(-45)" fill="#ffd507"/>
                        <ellipse id="Ellipse_3484" data-name="Ellipse 3484" cx="2.656" cy="4.626" rx="2.656" ry="4.626" transform="translate(0 72.864) rotate(-45)" fill="#ffd507"/>
                        <ellipse id="Ellipse_3485" data-name="Ellipse 3485" cx="4.626" cy="2.656" rx="4.626" ry="2.656" transform="translate(6.747 72.475) rotate(-45)" fill="#ffd507"/>
                        <ellipse id="Ellipse_3486" data-name="Ellipse 3486" cx="2.656" cy="4.626" rx="2.656" ry="4.626" transform="translate(0 65.954) rotate(-45)" fill="#ffd507"/>
                        <ellipse id="Ellipse_3487" data-name="Ellipse 3487" cx="4.626" cy="2.656" rx="4.626" ry="2.656" transform="translate(6.747 65.564) rotate(-45)" fill="#ffd507"/>
                        <ellipse id="Ellipse_3488" data-name="Ellipse 3488" cx="2.656" cy="4.626" rx="2.656" ry="4.626" transform="translate(0 59.043) rotate(-45)" fill="#ffd507"/>
                        <ellipse id="Ellipse_3489" data-name="Ellipse 3489" cx="4.626" cy="2.656" rx="4.626" ry="2.656" transform="translate(6.747 58.654) rotate(-45)" fill="#ffd507"/>
                        <ellipse id="Ellipse_3490" data-name="Ellipse 3490" cx="2.656" cy="4.626" rx="2.656" ry="4.626" transform="translate(0 52.132) rotate(-45)" fill="#ffd507"/>
                        <ellipse id="Ellipse_3491" data-name="Ellipse 3491" cx="4.626" cy="2.656" rx="4.626" ry="2.656" transform="translate(6.747 51.743) rotate(-45)" fill="#ffd507"/>
                        <ellipse id="Ellipse_3492" data-name="Ellipse 3492" cx="2.656" cy="4.626" rx="2.656" ry="4.626" transform="translate(0 45.221) rotate(-45)" fill="#ffd507"/>
                        <ellipse id="Ellipse_3493" data-name="Ellipse 3493" cx="4.626" cy="2.656" rx="4.626" ry="2.656" transform="translate(6.747 44.832) rotate(-45)" fill="#ffd507"/>
                        <ellipse id="Ellipse_3494" data-name="Ellipse 3494" cx="2.656" cy="4.626" rx="2.656" ry="4.626" transform="translate(0 38.31) rotate(-45)" fill="#ffd507"/>
                        <ellipse id="Ellipse_3495" data-name="Ellipse 3495" cx="4.626" cy="2.656" rx="4.626" ry="2.656" transform="translate(6.747 37.921) rotate(-45)" fill="#ffd507"/>
                        <ellipse id="Ellipse_3496" data-name="Ellipse 3496" cx="2.656" cy="4.626" rx="2.656" ry="4.626" transform="translate(0 31.399) rotate(-45)" fill="#ffd507"/>
                        <ellipse id="Ellipse_3497" data-name="Ellipse 3497" cx="4.626" cy="2.656" rx="4.626" ry="2.656" transform="translate(6.747 31.01) rotate(-45)" fill="#ffd507"/>
                        <ellipse id="Ellipse_3498" data-name="Ellipse 3498" cx="2.656" cy="4.626" rx="2.656" ry="4.626" transform="translate(0 24.488) rotate(-45)" fill="#ffd507"/>
                        <ellipse id="Ellipse_3499" data-name="Ellipse 3499" cx="4.626" cy="2.656" rx="4.626" ry="2.656" transform="translate(6.747 24.099) rotate(-45)" fill="#ffd507"/>
                        <ellipse id="Ellipse_3500" data-name="Ellipse 3500" cx="2.656" cy="4.626" rx="2.656" ry="4.626" transform="translate(0 17.577) rotate(-45)" fill="#ffd507"/>
                        <ellipse id="Ellipse_3501" data-name="Ellipse 3501" cx="4.626" cy="2.656" rx="4.626" ry="2.656" transform="translate(6.747 17.188) rotate(-45)" fill="#ffd507"/>
                        <ellipse id="Ellipse_3502" data-name="Ellipse 3502" cx="2.656" cy="4.626" rx="2.656" ry="4.626" transform="translate(0 10.666) rotate(-45)" fill="#ffd507"/>
                        <ellipse id="Ellipse_3503" data-name="Ellipse 3503" cx="4.626" cy="2.656" rx="4.626" ry="2.656" transform="translate(6.747 10.277) rotate(-45)" fill="#ffd507"/>
                        <ellipse id="Ellipse_3504" data-name="Ellipse 3504" cx="2.656" cy="4.626" rx="2.656" ry="4.626" transform="translate(0 3.756) rotate(-45)" fill="#ffd507"/>
                      </g>
                      <g id="Group_10468" data-name="Group 10468" transform="translate(23.647 19.167)">
                        <path id="Path_7597" data-name="Path 7597" d="M579.905,537.865a53.5,53.5,0,0,1-.969-6.458q-.311-3.185-.394-6.314a114.737,114.737,0,0,1,.349-12.339,145.948,145.948,0,0,1,4.006-23.842,144.217,144.217,0,0,1,7.781-22.887A113.733,113.733,0,0,1,596.24,455q1.564-2.71,3.355-5.365a52.551,52.551,0,0,1,3.936-5.218,52.912,52.912,0,0,1,.982,6.462q.315,3.185.4,6.315a113.84,113.84,0,0,1-.345,12.34,144.284,144.284,0,0,1-4.032,23.835,145.811,145.811,0,0,1-7.805,22.88,114.941,114.941,0,0,1-5.557,11.022q-1.564,2.712-3.347,5.368A53.184,53.184,0,0,1,579.905,537.865Z" transform="translate(-578.505 -444.42)" fill="#4dc1b8"/>
                        <g id="Group_10467" data-name="Group 10467" transform="translate(1.4 39.183)">
                          <path id="Path_7598" data-name="Path 7598" d="M580.052,541.969A131.812,131.812,0,0,1,582,528.029q1.3-6.888,3.021-13.668t3.833-13.464a130.446,130.446,0,0,1,4.916-13.19,129.962,129.962,0,0,1-1.943,13.941q-1.3,6.888-3.026,13.667t-3.838,13.462A131.364,131.364,0,0,1,580.052,541.969Z" transform="translate(-580.052 -487.707)" fill="#00a69a"/>
                        </g>
                      </g>
                    </g>
                    <g id="Group_10475" data-name="Group 10475" transform="translate(155.399)">
                      <g id="Group_10471" data-name="Group 10471" transform="translate(17.988 41.561)">
                        <path id="Path_7599" data-name="Path 7599" d="M635.327,540.21A35.848,35.848,0,0,1,634,535.151q-.487-2.486-.748-4.913a69.838,69.838,0,0,1-.358-9.54,85.025,85.025,0,0,1,2.591-18.243,84.044,84.044,0,0,1,6.365-17.288,69.182,69.182,0,0,1,4.853-8.223q1.388-2.011,3-3.966a35.786,35.786,0,0,1,3.581-3.819,35.78,35.78,0,0,1,1.337,5.063q.492,2.486.755,4.915a69.178,69.178,0,0,1,.363,9.541,84.063,84.063,0,0,1-2.616,18.237,85,85,0,0,1-6.391,17.282,69.826,69.826,0,0,1-4.849,8.223q-1.386,2.012-2.993,3.968A36.008,36.008,0,0,1,635.327,540.21Z" transform="translate(-632.864 -469.159)" fill="#4dc1b8"/>
                        <g id="Group_10470" data-name="Group 10470" transform="translate(2.463 29.793)">
                          <path id="Path_7600" data-name="Path 7600" d="M635.585,543.331a76.966,76.966,0,0,1,1.126-10.689c.592-3.508,1.332-6.979,2.2-10.418s1.866-6.844,3.012-10.212a76.1,76.1,0,0,1,4.093-9.938,76.017,76.017,0,0,1-1.121,10.69q-.889,5.261-2.2,10.416t-3.016,10.211A77.028,77.028,0,0,1,635.585,543.331Z" transform="translate(-635.585 -502.073)" fill="#00a69a"/>
                        </g>
                      </g>
                      <g id="Group_10472" data-name="Group 10472" transform="translate(11.816)">
                        <ellipse id="Ellipse_3505" data-name="Ellipse 3505" cx="4.626" cy="2.656" rx="4.626" ry="2.656" transform="translate(6.747 96.383) rotate(-45)" fill="#ffd507"/>
                        <ellipse id="Ellipse_3506" data-name="Ellipse 3506" cx="2.656" cy="4.626" rx="2.656" ry="4.626" transform="translate(0 90.422) rotate(-45)" fill="#ffd507"/>
                        <ellipse id="Ellipse_3507" data-name="Ellipse 3507" cx="4.626" cy="2.656" rx="4.626" ry="2.656" transform="translate(6.747 89.473) rotate(-45)" fill="#ffd507"/>
                        <ellipse id="Ellipse_3508" data-name="Ellipse 3508" cx="2.656" cy="4.626" rx="2.656" ry="4.626" transform="translate(0 83.511) rotate(-45)" fill="#ffd507"/>
                        <ellipse id="Ellipse_3509" data-name="Ellipse 3509" cx="4.626" cy="2.656" rx="4.626" ry="2.656" transform="translate(6.747 82.562) rotate(-45)" fill="#ffd507"/>
                        <ellipse id="Ellipse_3510" data-name="Ellipse 3510" cx="2.656" cy="4.626" rx="2.656" ry="4.626" transform="translate(0 76.6) rotate(-45)" fill="#ffd507"/>
                        <ellipse id="Ellipse_3511" data-name="Ellipse 3511" cx="4.626" cy="2.656" rx="4.626" ry="2.656" transform="translate(6.747 75.651) rotate(-45)" fill="#ffd507"/>
                        <ellipse id="Ellipse_3512" data-name="Ellipse 3512" cx="2.656" cy="4.626" rx="2.656" ry="4.626" transform="translate(0 69.689) rotate(-45)" fill="#ffd507"/>
                        <ellipse id="Ellipse_3513" data-name="Ellipse 3513" cx="4.626" cy="2.656" rx="4.626" ry="2.656" transform="translate(6.747 68.74) rotate(-45)" fill="#ffd507"/>
                        <ellipse id="Ellipse_3514" data-name="Ellipse 3514" cx="2.656" cy="4.626" rx="2.656" ry="4.626" transform="translate(0 62.778) rotate(-45)" fill="#ffd507"/>
                        <ellipse id="Ellipse_3515" data-name="Ellipse 3515" cx="4.626" cy="2.656" rx="4.626" ry="2.656" transform="translate(6.747 61.829) rotate(-45)" fill="#ffd507"/>
                        <ellipse id="Ellipse_3516" data-name="Ellipse 3516" cx="2.656" cy="4.626" rx="2.656" ry="4.626" transform="translate(0 55.867) rotate(-45)" fill="#ffd507"/>
                        <ellipse id="Ellipse_3517" data-name="Ellipse 3517" cx="4.626" cy="2.656" rx="4.626" ry="2.656" transform="translate(6.747 54.918) rotate(-45)" fill="#ffd507"/>
                        <ellipse id="Ellipse_3518" data-name="Ellipse 3518" cx="2.656" cy="4.626" rx="2.656" ry="4.626" transform="translate(0 48.956) rotate(-45)" fill="#ffd507"/>
                        <ellipse id="Ellipse_3519" data-name="Ellipse 3519" cx="4.626" cy="2.656" rx="4.626" ry="2.656" transform="translate(6.747 48.007) rotate(-45)" fill="#ffd507"/>
                        <ellipse id="Ellipse_3520" data-name="Ellipse 3520" cx="2.656" cy="4.626" rx="2.656" ry="4.626" transform="translate(0 42.045) rotate(-45)" fill="#ffd507"/>
                        <ellipse id="Ellipse_3521" data-name="Ellipse 3521" cx="4.626" cy="2.656" rx="4.626" ry="2.656" transform="translate(6.747 41.096) rotate(-45)" fill="#ffd507"/>
                        <ellipse id="Ellipse_3522" data-name="Ellipse 3522" cx="2.656" cy="4.626" rx="2.656" ry="4.626" transform="translate(0 35.135) rotate(-45)" fill="#ffd507"/>
                        <ellipse id="Ellipse_3523" data-name="Ellipse 3523" cx="4.626" cy="2.656" rx="4.626" ry="2.656" transform="translate(6.747 34.186) rotate(-45)" fill="#ffd507"/>
                        <ellipse id="Ellipse_3524" data-name="Ellipse 3524" cx="2.656" cy="4.626" rx="2.656" ry="4.626" transform="translate(0 28.224) rotate(-45)" fill="#ffd507"/>
                        <ellipse id="Ellipse_3525" data-name="Ellipse 3525" cx="4.626" cy="2.656" rx="4.626" ry="2.656" transform="translate(6.747 27.275) rotate(-45)" fill="#ffd507"/>
                        <ellipse id="Ellipse_3526" data-name="Ellipse 3526" cx="2.656" cy="4.626" rx="2.656" ry="4.626" transform="translate(0 21.313) rotate(-45)" fill="#ffd507"/>
                        <ellipse id="Ellipse_3527" data-name="Ellipse 3527" cx="4.626" cy="2.656" rx="4.626" ry="2.656" transform="translate(6.747 20.364) rotate(-45)" fill="#ffd507"/>
                        <ellipse id="Ellipse_3528" data-name="Ellipse 3528" cx="2.656" cy="4.626" rx="2.656" ry="4.626" transform="translate(0 14.402) rotate(-45)" fill="#ffd507"/>
                        <ellipse id="Ellipse_3529" data-name="Ellipse 3529" cx="4.626" cy="2.656" rx="4.626" ry="2.656" transform="translate(6.747 13.453) rotate(-45)" fill="#ffd507"/>
                        <ellipse id="Ellipse_3530" data-name="Ellipse 3530" cx="2.656" cy="4.626" rx="2.656" ry="4.626" transform="translate(0 7.491) rotate(-45)" fill="#ffd507"/>
                        <ellipse id="Ellipse_3531" data-name="Ellipse 3531" cx="4.626" cy="2.656" rx="4.626" ry="2.656" transform="translate(6.747 6.542) rotate(-45)" fill="#ffd507"/>
                      </g>
                      <g id="Group_10474" data-name="Group 10474" transform="translate(0 41.561)">
                        <path id="Path_7601" data-name="Path 7601" d="M633.443,540.21a36.013,36.013,0,0,1-3.568-3.823q-1.612-1.955-2.993-3.968a69.817,69.817,0,0,1-4.849-8.223,85.005,85.005,0,0,1-6.391-17.282,84.059,84.059,0,0,1-2.616-18.237,69.159,69.159,0,0,1,.363-9.541q.265-2.429.756-4.915a35.642,35.642,0,0,1,1.336-5.063,35.791,35.791,0,0,1,3.582,3.819q1.614,1.954,3,3.966a69.166,69.166,0,0,1,4.853,8.223,83.991,83.991,0,0,1,6.365,17.288,85.017,85.017,0,0,1,2.591,18.243,69.838,69.838,0,0,1-.358,9.54q-.263,2.429-.748,4.913A35.966,35.966,0,0,1,633.443,540.21Z" transform="translate(-612.992 -469.159)" fill="#4dc1b8"/>
                        <g id="Group_10473" data-name="Group 10473" transform="translate(10.02 29.793)">
                          <path id="Path_7602" data-name="Path 7602" d="M634.493,543.331a76.882,76.882,0,0,1-4.089-9.94q-1.72-5.052-3.016-10.211t-2.205-10.416a76.153,76.153,0,0,1-1.121-10.69,75.969,75.969,0,0,1,4.093,9.938q1.72,5.052,3.012,10.212t2.2,10.418A76.976,76.976,0,0,1,634.493,543.331Z" transform="translate(-624.062 -502.073)" fill="#00a69a"/>
                        </g>
                      </g>
                    </g>
                    <g id="Group_10481" data-name="Group 10481" transform="translate(201.068)">
                      <g id="Group_10477" data-name="Group 10477" transform="translate(0 19.167)">
                        <path id="Path_7603" data-name="Path 7603" d="M688.493,537.865a53.194,53.194,0,0,1-3.922-5.222q-1.788-2.656-3.346-5.368a114.532,114.532,0,0,1-5.557-11.022,145.916,145.916,0,0,1-7.806-22.88,144.2,144.2,0,0,1-4.031-23.835,113.621,113.621,0,0,1-.346-12.34q.088-3.128.4-6.315a52.752,52.752,0,0,1,.983-6.462,52.682,52.682,0,0,1,3.935,5.218q1.792,2.654,3.355,5.365a113.755,113.755,0,0,1,5.561,11.022,144.3,144.3,0,0,1,7.78,22.887,145.942,145.942,0,0,1,4.006,23.842,114.737,114.737,0,0,1,.349,12.339q-.087,3.13-.394,6.314A53.3,53.3,0,0,1,688.493,537.865Z" transform="translate(-663.445 -444.42)" fill="#4dc1b8"/>
                        <g id="Group_10476" data-name="Group 10476" transform="translate(11.33 39.183)">
                          <path id="Path_7604" data-name="Path 7604" d="M689.68,541.969a131.588,131.588,0,0,1-4.911-13.191q-2.132-6.677-3.838-13.462t-3.026-13.667a129.977,129.977,0,0,1-1.943-13.941,130.006,130.006,0,0,1,4.916,13.19q2.13,6.678,3.833,13.464t3.021,13.668A131.621,131.621,0,0,1,689.68,541.969Z" transform="translate(-675.962 -487.707)" fill="#00a69a"/>
                        </g>
                      </g>
                      <g id="Group_10478" data-name="Group 10478" transform="translate(16.638)">
                        <ellipse id="Ellipse_3532" data-name="Ellipse 3532" cx="2.656" cy="4.626" rx="2.656" ry="4.626" transform="translate(0 93.597) rotate(-45)" fill="#ffd507"/>
                        <ellipse id="Ellipse_3533" data-name="Ellipse 3533" cx="4.626" cy="2.656" rx="4.626" ry="2.656" transform="translate(6.747 93.208) rotate(-45)" fill="#ffd507"/>
                        <ellipse id="Ellipse_3534" data-name="Ellipse 3534" cx="2.656" cy="4.626" rx="2.656" ry="4.626" transform="translate(0 86.686) rotate(-45)" fill="#ffd507"/>
                        <ellipse id="Ellipse_3535" data-name="Ellipse 3535" cx="4.626" cy="2.656" rx="4.626" ry="2.656" transform="translate(6.747 86.297) rotate(-45)" fill="#ffd507"/>
                        <ellipse id="Ellipse_3536" data-name="Ellipse 3536" cx="2.656" cy="4.626" rx="2.656" ry="4.626" transform="translate(0 79.775) rotate(-45)" fill="#ffd507"/>
                        <ellipse id="Ellipse_3537" data-name="Ellipse 3537" cx="4.626" cy="2.656" rx="4.626" ry="2.656" transform="translate(6.747 79.386) rotate(-45)" fill="#ffd507"/>
                        <ellipse id="Ellipse_3538" data-name="Ellipse 3538" cx="2.656" cy="4.626" rx="2.656" ry="4.626" transform="translate(0 72.864) rotate(-45)" fill="#ffd507"/>
                        <ellipse id="Ellipse_3539" data-name="Ellipse 3539" cx="4.626" cy="2.656" rx="4.626" ry="2.656" transform="translate(6.747 72.475) rotate(-45)" fill="#ffd507"/>
                        <ellipse id="Ellipse_3540" data-name="Ellipse 3540" cx="2.656" cy="4.626" rx="2.656" ry="4.626" transform="translate(0 65.954) rotate(-45)" fill="#ffd507"/>
                        <ellipse id="Ellipse_3541" data-name="Ellipse 3541" cx="4.626" cy="2.656" rx="4.626" ry="2.656" transform="translate(6.747 65.565) rotate(-45)" fill="#ffd507"/>
                        <ellipse id="Ellipse_3542" data-name="Ellipse 3542" cx="2.656" cy="4.626" rx="2.656" ry="4.626" transform="translate(0 59.043) rotate(-45)" fill="#ffd507"/>
                        <ellipse id="Ellipse_3543" data-name="Ellipse 3543" cx="4.626" cy="2.656" rx="4.626" ry="2.656" transform="translate(6.747 58.654) rotate(-45)" fill="#ffd507"/>
                        <ellipse id="Ellipse_3544" data-name="Ellipse 3544" cx="2.656" cy="4.626" rx="2.656" ry="4.626" transform="translate(0 52.132) rotate(-45)" fill="#ffd507"/>
                        <ellipse id="Ellipse_3545" data-name="Ellipse 3545" cx="4.626" cy="2.656" rx="4.626" ry="2.656" transform="translate(6.747 51.743) rotate(-45)" fill="#ffd507"/>
                        <ellipse id="Ellipse_3546" data-name="Ellipse 3546" cx="2.656" cy="4.626" rx="2.656" ry="4.626" transform="translate(0 45.221) rotate(-45)" fill="#ffd507"/>
                        <ellipse id="Ellipse_3547" data-name="Ellipse 3547" cx="4.626" cy="2.656" rx="4.626" ry="2.656" transform="translate(6.747 44.832) rotate(-45)" fill="#ffd507"/>
                        <ellipse id="Ellipse_3548" data-name="Ellipse 3548" cx="2.656" cy="4.626" rx="2.656" ry="4.626" transform="translate(0 38.31) rotate(-45)" fill="#ffd507"/>
                        <ellipse id="Ellipse_3549" data-name="Ellipse 3549" cx="4.626" cy="2.656" rx="4.626" ry="2.656" transform="translate(6.747 37.921) rotate(-45)" fill="#ffd507"/>
                        <ellipse id="Ellipse_3550" data-name="Ellipse 3550" cx="2.656" cy="4.626" rx="2.656" ry="4.626" transform="translate(0 31.399) rotate(-45)" fill="#ffd507"/>
                        <ellipse id="Ellipse_3551" data-name="Ellipse 3551" cx="4.626" cy="2.656" rx="4.626" ry="2.656" transform="translate(6.747 31.01) rotate(-45)" fill="#ffd507"/>
                        <ellipse id="Ellipse_3552" data-name="Ellipse 3552" cx="2.656" cy="4.626" rx="2.656" ry="4.626" transform="translate(0 24.488) rotate(-45)" fill="#ffd507"/>
                        <ellipse id="Ellipse_3553" data-name="Ellipse 3553" cx="4.626" cy="2.656" rx="4.626" ry="2.656" transform="translate(6.747 24.099) rotate(-45)" fill="#ffd507"/>
                        <ellipse id="Ellipse_3554" data-name="Ellipse 3554" cx="2.656" cy="4.626" rx="2.656" ry="4.626" transform="translate(0 17.577) rotate(-45)" fill="#ffd507"/>
                        <ellipse id="Ellipse_3555" data-name="Ellipse 3555" cx="4.626" cy="2.656" rx="4.626" ry="2.656" transform="translate(6.747 17.188) rotate(-45)" fill="#ffd507"/>
                        <ellipse id="Ellipse_3556" data-name="Ellipse 3556" cx="2.656" cy="4.626" rx="2.656" ry="4.626" transform="translate(0 10.666) rotate(-45)" fill="#ffd507"/>
                        <ellipse id="Ellipse_3557" data-name="Ellipse 3557" cx="4.626" cy="2.656" rx="4.626" ry="2.656" transform="translate(6.747 10.277) rotate(-45)" fill="#ffd507"/>
                        <ellipse id="Ellipse_3558" data-name="Ellipse 3558" cx="2.656" cy="4.626" rx="2.656" ry="4.626" transform="translate(0 3.756) rotate(-45)" fill="#ffd507"/>
                      </g>
                      <g id="Group_10480" data-name="Group 10480" transform="translate(23.647 19.167)">
                        <path id="Path_7605" data-name="Path 7605" d="M690.97,537.865a53.309,53.309,0,0,1-.969-6.458q-.311-3.185-.394-6.314a114.516,114.516,0,0,1,.349-12.339,145.849,145.849,0,0,1,4.005-23.842,144.211,144.211,0,0,1,7.781-22.887A113.732,113.732,0,0,1,707.3,455q1.564-2.71,3.355-5.365a52.826,52.826,0,0,1,3.936-5.218,52.912,52.912,0,0,1,.982,6.462q.315,3.185.4,6.315a113.607,113.607,0,0,1-.345,12.34,144.194,144.194,0,0,1-4.032,23.835,145.805,145.805,0,0,1-7.805,22.88,114.955,114.955,0,0,1-5.557,11.022q-1.564,2.712-3.347,5.368A53.328,53.328,0,0,1,690.97,537.865Z" transform="translate(-689.569 -444.42)" fill="#4dc1b8"/>
                        <g id="Group_10479" data-name="Group 10479" transform="translate(1.401 39.183)">
                          <path id="Path_7606" data-name="Path 7606" d="M691.117,541.969a131.62,131.62,0,0,1,1.948-13.94q1.3-6.888,3.021-13.668t3.833-13.464a130.2,130.2,0,0,1,4.915-13.19,130.176,130.176,0,0,1-1.943,13.941q-1.3,6.888-3.026,13.667t-3.838,13.462A131.813,131.813,0,0,1,691.117,541.969Z" transform="translate(-691.117 -487.707)" fill="#00a69a"/>
                        </g>
                      </g>
                    </g>
                    <g id="Group_10487" data-name="Group 10487" transform="translate(255.933 0)">
                      <g id="Group_10483" data-name="Group 10483" transform="translate(17.988 41.561)">
                        <path id="Path_7607" data-name="Path 7607" d="M746.391,540.21a35.966,35.966,0,0,1-1.323-5.059c-.326-1.657-.572-3.294-.749-4.913a69.829,69.829,0,0,1-.358-9.54,85.071,85.071,0,0,1,2.591-18.243,84.09,84.09,0,0,1,6.365-17.288,69.165,69.165,0,0,1,4.853-8.223q1.388-2.011,3-3.966a35.7,35.7,0,0,1,3.582-3.819,35.89,35.89,0,0,1,1.336,5.063q.491,2.486.756,4.915a69.3,69.3,0,0,1,.362,9.541,84.056,84.056,0,0,1-2.616,18.237A85.009,85.009,0,0,1,757.8,524.2a69.818,69.818,0,0,1-4.849,8.223q-1.386,2.012-2.993,3.968A35.914,35.914,0,0,1,746.391,540.21Z" transform="translate(-743.928 -469.159)" fill="#4dc1b8"/>
                        <g id="Group_10482" data-name="Group 10482" transform="translate(2.463 29.793)">
                          <path id="Path_7608" data-name="Path 7608" d="M746.649,543.331a76.975,76.975,0,0,1,1.126-10.689c.592-3.508,1.333-6.979,2.2-10.418s1.865-6.844,3.011-10.212a75.983,75.983,0,0,1,4.094-9.938,76.017,76.017,0,0,1-1.121,10.69q-.888,5.261-2.2,10.416t-3.016,10.211A77.02,77.02,0,0,1,746.649,543.331Z" transform="translate(-746.649 -502.073)" fill="#00a69a"/>
                        </g>
                      </g>
                      <g id="Group_10484" data-name="Group 10484" transform="translate(11.816)">
                        <ellipse id="Ellipse_3559" data-name="Ellipse 3559" cx="4.626" cy="2.656" rx="4.626" ry="2.656" transform="translate(6.747 96.383) rotate(-45)" fill="#ffd507"/>
                        <ellipse id="Ellipse_3560" data-name="Ellipse 3560" cx="2.656" cy="4.626" rx="2.656" ry="4.626" transform="translate(0 90.422) rotate(-45)" fill="#ffd507"/>
                        <ellipse id="Ellipse_3561" data-name="Ellipse 3561" cx="4.626" cy="2.656" rx="4.626" ry="2.656" transform="translate(6.747 89.473) rotate(-45)" fill="#ffd507"/>
                        <ellipse id="Ellipse_3562" data-name="Ellipse 3562" cx="2.656" cy="4.626" rx="2.656" ry="4.626" transform="translate(0 83.511) rotate(-45)" fill="#ffd507"/>
                        <ellipse id="Ellipse_3563" data-name="Ellipse 3563" cx="4.626" cy="2.656" rx="4.626" ry="2.656" transform="translate(6.747 82.562) rotate(-45)" fill="#ffd507"/>
                        <ellipse id="Ellipse_3564" data-name="Ellipse 3564" cx="2.656" cy="4.626" rx="2.656" ry="4.626" transform="translate(0 76.6) rotate(-45)" fill="#ffd507"/>
                        <ellipse id="Ellipse_3565" data-name="Ellipse 3565" cx="4.626" cy="2.656" rx="4.626" ry="2.656" transform="translate(6.747 75.651) rotate(-45)" fill="#ffd507"/>
                        <ellipse id="Ellipse_3566" data-name="Ellipse 3566" cx="2.656" cy="4.626" rx="2.656" ry="4.626" transform="translate(0 69.689) rotate(-45)" fill="#ffd507"/>
                        <ellipse id="Ellipse_3567" data-name="Ellipse 3567" cx="4.626" cy="2.656" rx="4.626" ry="2.656" transform="translate(6.747 68.74) rotate(-45)" fill="#ffd507"/>
                        <ellipse id="Ellipse_3568" data-name="Ellipse 3568" cx="2.656" cy="4.626" rx="2.656" ry="4.626" transform="translate(0 62.778) rotate(-45)" fill="#ffd507"/>
                        <ellipse id="Ellipse_3569" data-name="Ellipse 3569" cx="4.626" cy="2.656" rx="4.626" ry="2.656" transform="translate(6.747 61.829) rotate(-45)" fill="#ffd507"/>
                        <ellipse id="Ellipse_3570" data-name="Ellipse 3570" cx="2.656" cy="4.626" rx="2.656" ry="4.626" transform="translate(0 55.867) rotate(-45)" fill="#ffd507"/>
                        <ellipse id="Ellipse_3571" data-name="Ellipse 3571" cx="4.626" cy="2.656" rx="4.626" ry="2.656" transform="translate(6.747 54.918) rotate(-45)" fill="#ffd507"/>
                        <ellipse id="Ellipse_3572" data-name="Ellipse 3572" cx="2.656" cy="4.626" rx="2.656" ry="4.626" transform="translate(0 48.956) rotate(-45)" fill="#ffd507"/>
                        <ellipse id="Ellipse_3573" data-name="Ellipse 3573" cx="4.626" cy="2.656" rx="4.626" ry="2.656" transform="translate(6.747 48.007) rotate(-45)" fill="#ffd507"/>
                        <ellipse id="Ellipse_3574" data-name="Ellipse 3574" cx="2.656" cy="4.626" rx="2.656" ry="4.626" transform="translate(0 42.045) rotate(-45)" fill="#ffd507"/>
                        <ellipse id="Ellipse_3575" data-name="Ellipse 3575" cx="4.626" cy="2.656" rx="4.626" ry="2.656" transform="translate(6.747 41.096) rotate(-45)" fill="#ffd507"/>
                        <ellipse id="Ellipse_3576" data-name="Ellipse 3576" cx="2.656" cy="4.626" rx="2.656" ry="4.626" transform="translate(0 35.135) rotate(-45)" fill="#ffd507"/>
                        <ellipse id="Ellipse_3577" data-name="Ellipse 3577" cx="4.626" cy="2.656" rx="4.626" ry="2.656" transform="translate(6.747 34.186) rotate(-45)" fill="#ffd507"/>
                        <ellipse id="Ellipse_3578" data-name="Ellipse 3578" cx="2.656" cy="4.626" rx="2.656" ry="4.626" transform="translate(0 28.224) rotate(-45)" fill="#ffd507"/>
                        <ellipse id="Ellipse_3579" data-name="Ellipse 3579" cx="4.626" cy="2.656" rx="4.626" ry="2.656" transform="translate(6.747 27.275) rotate(-45)" fill="#ffd507"/>
                        <ellipse id="Ellipse_3580" data-name="Ellipse 3580" cx="2.656" cy="4.626" rx="2.656" ry="4.626" transform="translate(0 21.313) rotate(-45)" fill="#ffd507"/>
                        <ellipse id="Ellipse_3581" data-name="Ellipse 3581" cx="4.626" cy="2.656" rx="4.626" ry="2.656" transform="translate(6.747 20.364) rotate(-45)" fill="#ffd507"/>
                        <ellipse id="Ellipse_3582" data-name="Ellipse 3582" cx="2.656" cy="4.626" rx="2.656" ry="4.626" transform="translate(0 14.402) rotate(-45)" fill="#ffd507"/>
                        <ellipse id="Ellipse_3583" data-name="Ellipse 3583" cx="4.626" cy="2.656" rx="4.626" ry="2.656" transform="translate(6.747 13.453) rotate(-45)" fill="#ffd507"/>
                        <ellipse id="Ellipse_3584" data-name="Ellipse 3584" cx="2.656" cy="4.626" rx="2.656" ry="4.626" transform="translate(0 7.491) rotate(-45)" fill="#ffd507"/>
                        <ellipse id="Ellipse_3585" data-name="Ellipse 3585" cx="4.626" cy="2.656" rx="4.626" ry="2.656" transform="translate(6.747 6.542) rotate(-45)" fill="#ffd507"/>
                      </g>
                      <g id="Group_10486" data-name="Group 10486" transform="translate(0 41.561)">
                        <path id="Path_7609" data-name="Path 7609" d="M744.507,540.21a36.025,36.025,0,0,1-3.568-3.823q-1.61-1.955-2.993-3.968a69.708,69.708,0,0,1-4.85-8.223,85.067,85.067,0,0,1-6.391-17.282,84.127,84.127,0,0,1-2.616-18.237,69.159,69.159,0,0,1,.363-9.541q.265-2.429.756-4.915a35.659,35.659,0,0,1,1.336-5.063,35.7,35.7,0,0,1,3.582,3.819q1.614,1.954,3,3.966a69.165,69.165,0,0,1,4.853,8.223,84.037,84.037,0,0,1,6.366,17.288,85.074,85.074,0,0,1,2.591,18.243,69.86,69.86,0,0,1-.359,9.54q-.263,2.429-.748,4.913A35.966,35.966,0,0,1,744.507,540.21Z" transform="translate(-724.056 -469.159)" fill="#4dc1b8"/>
                        <g id="Group_10485" data-name="Group 10485" transform="translate(10.02 29.793)">
                          <path id="Path_7610" data-name="Path 7610" d="M745.557,543.331a77,77,0,0,1-4.089-9.94q-1.72-5.052-3.016-10.211t-2.2-10.416a76.026,76.026,0,0,1-1.122-10.69,75.984,75.984,0,0,1,4.094,9.938q1.719,5.052,3.011,10.212t2.2,10.418A76.837,76.837,0,0,1,745.557,543.331Z" transform="translate(-735.126 -502.073)" fill="#00a69a"/>
                        </g>
                      </g>
                    </g>
                  </g>
                </g>
              </g>
              <path id="Path_7611" data-name="Path 7611" d="M441.777,563.3H740.387a169.824,169.824,0,0,0,7.883-16.262H433.894A169.817,169.817,0,0,0,441.777,563.3Z" transform="translate(-420.655 -310.645)" fill="#b3e4e1"/>
              <path id="Path_7612" data-name="Path 7612" d="M479.421,611.926H708.4a171.506,171.506,0,0,0,15.689-16.262H463.732A171.39,171.39,0,0,0,479.421,611.926Z" transform="translate(-423.484 -315.256)" fill="#b3e4e1"/>
              <path id="Path_7613" data-name="Path 7613" d="M600.119,660.827a169.773,169.773,0,0,0,70.9-15.414H529.215A169.773,169.773,0,0,0,600.119,660.827Z" transform="translate(-429.692 -319.973)" fill="#b3e4e1"/>
              <g id="Group_9883" data-name="Group 9883">
                <g id="Group_9882" data-name="Group 9882">
                  <g id="Group_10491" data-name="Group 10491">
                    <path id="Path_7614" data-name="Path 7614" d="M760.123,456.312A170.427,170.427,0,1,0,589.7,626.74,170.427,170.427,0,0,0,760.123,456.312Z" transform="translate(-419.268 -285.886)" fill="none" stroke="#22183d" stroke-miterlimit="10" stroke-width="1" stroke-dasharray="3 6"/>
                  </g>
                </g>
              </g>
            </g>
            <g id="Group_10494" data-name="Group 10494" transform="translate(52.839 292.12)">
              <g id="Group_9843" data-name="Group 9843">
                <g id="Group_10493" data-name="Group 10493" transform="translate(178.815 2.712)">
                  <path id="Path_6838" data-name="Path 6838" d="M733.21,611.6s-9.345,39.843-23.351,62.461-23.816-28.771-23.816-28.771l.211-.13a415.883,415.883,0,0,0,39.876-27.95Z" transform="translate(-676.215 -611.598)" fill="#f8c9c7"/>
                  <path id="Path_6839" data-name="Path 6839" d="M705.223,681.672c27.936-44.5-23.815-28.771-23.815-28.771a94.058,94.058,0,0,1-6.222,19.591Z" transform="translate(-675.186 -615.258)" fill="#f8c9c7"/>
                </g>
                <path id="Path_6841" data-name="Path 6841" d="M656.783,666.885s14.808-12.225,36.937,3.881c3.739,2.726-.874,16.669-1.63,19.976-2.381,10.422-5.495,20.632-8.438,30.9-18.027,62.9-44.568,122.479-88.318,171.878q-3.255,3.672-6.608,7.252a245.984,245.984,0,0,1-33.416,29.992c-10.983,8.091-23.883,17.761-37.717,19.8-28.816,4.246-43.216-29.385-39.324-53.345,2.983-18.354,17.253-33.456,30.8-45.115,15.984-13.753,32.246-26.776,46.323-42.552C593.884,766.413,632.129,719.549,656.783,666.885Z" transform="translate(-477.642 -613.707)" fill="#00bfff"/>
                <path id="Path_6840" data-name="Path 6840" d="M680.233,655.532s4.843-23.664,4.375-38.619,8.192-8.858,10.614,11.35,9.469,6.689,9.469,6.689l1.77,19.911Z" transform="translate(-496.849 -608.602)" fill="#f8c9c7"/>
              </g>
            </g>
          </g>
        </g>
        <g id="Group_10018" data-name="Group 10018" transform="translate(0 338.538)">
          <path id="Path_5428" data-name="Path 5428" d="M407.339,814.566c-.239.237-.465.492-.7.73-.239-.237-.466-.492-.705-.73h0s-143.841,53-155.63,299.509H538.638C526.854,867.568,407.339,814.566,407.339,814.566Z" transform="translate(-250.3 -674.549)" fill="#00bfff"/>
          <g id="Group_10495" data-name="Group 10495" transform="translate(75.212)">
            <rect id="Rectangle_2085" data-name="Rectangle 2085" width="123.317" height="172.315" rx="12.65" transform="translate(13.724 22.707)" fill="#f8c9c7"/>
            <circle id="Ellipse_362" data-name="Ellipse 362" cx="15.88" cy="15.88" r="15.88" transform="translate(135.451 79.028)" fill="#f8c9c7"/>
            <path id="Path_5433" data-name="Path 5433" d="M370.882,659.883h88.442c17.265,0,31.261,15.4,31.261,26.1v79.731c0,10.7-14,19.372-31.26,19.372H370.882c-17.265,0-31.261-8.674-31.261-19.372h0V687.19c0-10.7,14-27.307,31.261-27.307Z" transform="translate(-333.981 -659.883)" fill="#ffd507"/>
            <rect id="Rectangle_2086" data-name="Rectangle 2086" width="123.317" height="172.315" rx="12.65" transform="translate(24.869 22.707)" fill="#f8c9c7"/>
            <circle id="Ellipse_363" data-name="Ellipse 363" cx="5.058" cy="5.058" r="5.058" transform="translate(52.355 49.087)" fill="#002e45"/>
            <circle id="Ellipse_364" data-name="Ellipse 364" cx="5.058" cy="5.058" r="5.058" transform="translate(135.848 49.087)" fill="#002e45"/>
            <path id="Path_5429" data-name="Path 5429" d="M422.354,770.342h39.573l-19.785-60.988Z" transform="translate(-341.825 -664.573)" fill="#e56960"/>
            <g id="Group_8377" data-name="Group 8377" transform="translate(2.837)">
              <circle id="Ellipse_365" data-name="Ellipse 365" cx="17.632" cy="17.632" r="17.632" transform="translate(22.033 140.192)" fill="#002e45"/>
              <path id="Path_5431" data-name="Path 5431" d="M490.289,739.817V690.686a30.8,30.8,0,0,0-30.8-30.8h-89.36a30.8,30.8,0,0,0-30.8,30.8v49.134s-16.2,40.308,29.258,82.633" transform="translate(-336.524 -659.883)" fill="none" stroke="#002e45" stroke-miterlimit="10" stroke-width="2"/>
            </g>
            <path id="Path_5432" data-name="Path 5432" d="M431.651,798.2a15.079,15.079,0,0,0,22.745,0" transform="translate(-342.706 -672.997)" fill="none" stroke="#002e45" stroke-miterlimit="10" stroke-width="3"/>
            <path id="Path_6972" data-name="Path 6972" d="M349.267,779.949a15.88,15.88,0,0,1,0-31.76Z" transform="translate(-333.39 -668.255)" fill="#f8c9c7"/>
          </g>
        </g>
      </g>
      <g id="Group_10505" data-name="Group 10505" transform="translate(1516.636 296.164)">
        <g id="Group_10503" data-name="Group 10503" transform="translate(48.807 57.009)">
          <g id="Group_10502" data-name="Group 10502" transform="translate(0 0)">
            <g id="Group_10498" data-name="Group 10498" transform="translate(0 26.238)">
              <path id="Path_7615" data-name="Path 7615" d="M1593.595,574.563a73.26,73.26,0,0,1-5.369-7.149q-2.446-3.636-4.581-7.348a156.7,156.7,0,0,1-7.607-15.089,199.692,199.692,0,0,1-10.686-31.321,197.352,197.352,0,0,1-5.518-32.628,155.215,155.215,0,0,1-.472-16.892q.119-4.284.55-8.645a72.193,72.193,0,0,1,1.344-8.845,72.166,72.166,0,0,1,5.386,7.143q2.453,3.632,4.593,7.344a155.688,155.688,0,0,1,7.612,15.088,197.551,197.551,0,0,1,10.651,31.33,199.818,199.818,0,0,1,5.483,32.637,157.133,157.133,0,0,1,.477,16.89q-.117,4.282-.539,8.643A72.944,72.944,0,0,1,1593.595,574.563Z" transform="translate(-1559.306 -446.647)" fill="#4dc1b8"/>
              <g id="Group_10497" data-name="Group 10497" transform="translate(15.51 53.638)">
                <path id="Path_7616" data-name="Path 7616" d="M1590.6,564.213a180.136,180.136,0,0,1-6.722-18.058q-2.916-9.141-5.254-18.428-2.353-9.284-4.142-18.709a177.984,177.984,0,0,1-2.66-19.084,177.8,177.8,0,0,1,6.73,18.055q2.917,9.141,5.247,18.429t4.136,18.712A180.52,180.52,0,0,1,1590.6,564.213Z" transform="translate(-1571.823 -489.934)" fill="#00a69a"/>
              </g>
            </g>
            <g id="Group_10499" data-name="Group 10499" transform="translate(22.776)">
              <ellipse id="Ellipse_3586" data-name="Ellipse 3586" cx="3.635" cy="6.332" rx="3.635" ry="6.332" transform="translate(0 128.125) rotate(-45)" fill="#ffd507"/>
              <ellipse id="Ellipse_3587" data-name="Ellipse 3587" cx="6.332" cy="3.635" rx="6.332" ry="3.635" transform="translate(9.236 127.593) rotate(-45)" fill="#ffd507"/>
              <ellipse id="Ellipse_3588" data-name="Ellipse 3588" cx="3.635" cy="6.332" rx="3.635" ry="6.332" transform="translate(0 118.665) rotate(-45)" fill="#ffd507"/>
              <ellipse id="Ellipse_3589" data-name="Ellipse 3589" cx="6.332" cy="3.635" rx="6.332" ry="3.635" transform="translate(9.236 118.132) rotate(-45)" fill="#ffd507"/>
              <ellipse id="Ellipse_3590" data-name="Ellipse 3590" cx="3.635" cy="6.332" rx="3.635" ry="6.332" transform="translate(0 109.205) rotate(-45)" fill="#ffd507"/>
              <ellipse id="Ellipse_3591" data-name="Ellipse 3591" cx="6.332" cy="3.635" rx="6.332" ry="3.635" transform="translate(9.236 108.672) rotate(-45)" fill="#ffd507"/>
              <ellipse id="Ellipse_3592" data-name="Ellipse 3592" cx="3.635" cy="6.332" rx="3.635" ry="6.332" transform="translate(0 99.744) rotate(-45)" fill="#ffd507"/>
              <ellipse id="Ellipse_3593" data-name="Ellipse 3593" cx="6.332" cy="3.635" rx="6.332" ry="3.635" transform="translate(9.236 99.212) rotate(-45)" fill="#ffd507"/>
              <ellipse id="Ellipse_3594" data-name="Ellipse 3594" cx="3.635" cy="6.332" rx="3.635" ry="6.332" transform="translate(0 90.284) rotate(-45)" fill="#ffd507"/>
              <ellipse id="Ellipse_3595" data-name="Ellipse 3595" cx="6.332" cy="3.635" rx="6.332" ry="3.635" transform="translate(9.236 89.751) rotate(-45)" fill="#ffd507"/>
              <ellipse id="Ellipse_3596" data-name="Ellipse 3596" cx="3.635" cy="6.332" rx="3.635" ry="6.332" transform="translate(0 80.824) rotate(-45)" fill="#ffd507"/>
              <ellipse id="Ellipse_3597" data-name="Ellipse 3597" cx="6.332" cy="3.635" rx="6.332" ry="3.635" transform="translate(9.236 80.291) rotate(-45)" fill="#ffd507"/>
              <ellipse id="Ellipse_3598" data-name="Ellipse 3598" cx="3.635" cy="6.332" rx="3.635" ry="6.332" transform="translate(0 71.363) rotate(-45)" fill="#ffd507"/>
              <ellipse id="Ellipse_3599" data-name="Ellipse 3599" cx="6.332" cy="3.635" rx="6.332" ry="3.635" transform="translate(9.236 70.831) rotate(-45)" fill="#ffd507"/>
              <ellipse id="Ellipse_3600" data-name="Ellipse 3600" cx="3.635" cy="6.332" rx="3.635" ry="6.332" transform="translate(0 61.903) rotate(-45)" fill="#ffd507"/>
              <ellipse id="Ellipse_3601" data-name="Ellipse 3601" cx="6.332" cy="3.635" rx="6.332" ry="3.635" transform="translate(9.236 61.37) rotate(-45)" fill="#ffd507"/>
              <ellipse id="Ellipse_3602" data-name="Ellipse 3602" cx="3.635" cy="6.332" rx="3.635" ry="6.332" transform="translate(0 52.443) rotate(-45)" fill="#ffd507"/>
              <ellipse id="Ellipse_3603" data-name="Ellipse 3603" cx="6.332" cy="3.635" rx="6.332" ry="3.635" transform="translate(9.236 51.91) rotate(-45)" fill="#ffd507"/>
              <ellipse id="Ellipse_3604" data-name="Ellipse 3604" cx="3.635" cy="6.332" rx="3.635" ry="6.332" transform="translate(0 42.982) rotate(-45)" fill="#ffd507"/>
              <ellipse id="Ellipse_3605" data-name="Ellipse 3605" cx="6.332" cy="3.635" rx="6.332" ry="3.635" transform="translate(9.236 42.45) rotate(-45)" fill="#ffd507"/>
              <ellipse id="Ellipse_3606" data-name="Ellipse 3606" cx="3.635" cy="6.332" rx="3.635" ry="6.332" transform="translate(0 33.522) rotate(-45)" fill="#ffd507"/>
              <ellipse id="Ellipse_3607" data-name="Ellipse 3607" cx="6.332" cy="3.635" rx="6.332" ry="3.635" transform="translate(9.236 32.989) rotate(-45)" fill="#ffd507"/>
              <ellipse id="Ellipse_3608" data-name="Ellipse 3608" cx="3.635" cy="6.332" rx="3.635" ry="6.332" transform="translate(0 24.062) rotate(-45)" fill="#ffd507"/>
              <ellipse id="Ellipse_3609" data-name="Ellipse 3609" cx="6.332" cy="3.635" rx="6.332" ry="3.635" transform="translate(9.236 23.529) rotate(-45)" fill="#ffd507"/>
              <ellipse id="Ellipse_3610" data-name="Ellipse 3610" cx="3.635" cy="6.332" rx="3.635" ry="6.332" transform="translate(0 14.601) rotate(-45)" fill="#ffd507"/>
              <ellipse id="Ellipse_3611" data-name="Ellipse 3611" cx="6.332" cy="3.635" rx="6.332" ry="3.635" transform="translate(9.236 14.069) rotate(-45)" fill="#ffd507"/>
              <ellipse id="Ellipse_3612" data-name="Ellipse 3612" cx="3.635" cy="6.332" rx="3.635" ry="6.332" transform="translate(0 5.141) rotate(-45)" fill="#ffd507"/>
            </g>
            <g id="Group_10501" data-name="Group 10501" transform="translate(32.371 26.238)">
              <path id="Path_7617" data-name="Path 7617" d="M1587.348,574.563a72.7,72.7,0,0,1-1.326-8.841q-.428-4.362-.54-8.643a157.321,157.321,0,0,1,.479-16.89,199.765,199.765,0,0,1,5.483-32.637,197.428,197.428,0,0,1,10.651-31.33,155.741,155.741,0,0,1,7.612-15.088q2.143-3.712,4.592-7.344a72.334,72.334,0,0,1,5.388-7.143,72.24,72.24,0,0,1,1.344,8.845q.431,4.362.55,8.645a155.462,155.462,0,0,1-.472,16.892,197.5,197.5,0,0,1-5.518,32.628,199.744,199.744,0,0,1-10.686,31.321,157.092,157.092,0,0,1-7.607,15.089q-2.139,3.712-4.581,7.348A73.218,73.218,0,0,1,1587.348,574.563Z" transform="translate(-1585.43 -446.647)" fill="#4dc1b8"/>
              <g id="Group_10500" data-name="Group 10500" transform="translate(1.918 53.638)">
                <path id="Path_7618" data-name="Path 7618" d="M1586.978,564.213a180.456,180.456,0,0,1,2.666-19.082q1.779-9.429,4.136-18.712,2.34-9.286,5.246-18.429a177.8,177.8,0,0,1,6.73-18.055,178.17,178.17,0,0,1-2.661,19.084q-1.778,9.429-4.142,18.709t-5.254,18.428A180.432,180.432,0,0,1,1586.978,564.213Z" transform="translate(-1586.978 -489.934)" fill="#00a69a"/>
              </g>
            </g>
          </g>
          <path id="Path_7619" data-name="Path 7619" d="M1640.652,512.359l20.9,20.9,64.223-64.223" transform="translate(-1539.855 -415.054)" fill="none" stroke="#4dc1b8" stroke-miterlimit="10" stroke-width="14"/>
        </g>
        <g id="Group_9883-2" data-name="Group 9883">
          <g id="Group_9882-2" data-name="Group 9882">
            <g id="Group_10504" data-name="Group 10504">
              <path id="Path_7620" data-name="Path 7620" d="M1785.961,512.486A133.022,133.022,0,1,0,1652.94,645.507a133.021,133.021,0,0,0,133.021-133.022Z" transform="translate(-1519.918 -379.464)" fill="none" stroke="#22183d" stroke-miterlimit="10" stroke-width="1" stroke-dasharray="3 6"/>
            </g>
          </g>
        </g>
      </g>
    </g>
    <path id="Path_7951" data-name="Path 7951" d="M745.124,888.252c107.772,11.418,225.944,37.121,331.721,2.27,41.677-13.732,82.949-40.871,95.7-82.858,14.929-49.153-28.795-91.5-76.992-66.509-41.4,21.478-30.707,74.89,9.729,91.467,26.984,11.062,57.632,5.815,86.032-.816,170.379-39.777,336.338-123.232,459.547-248.844" transform="translate(-136.124 1872.374)" fill="none" stroke="#22183d" stroke-miterlimit="10" stroke-width="1" stroke-dasharray="3 6"/>
  </g>
</svg>
